# Blender 4.3.2
# www.blender.org
mtllib Building02.mtl
o Building02
v -0.700000 0.000000 0.700000
v -0.700000 -0.000000 -0.800000
v -0.700000 0.200000 0.700000
v -0.700000 0.200000 -0.800000
v -0.500000 0.200000 0.500000
v -0.500000 0.200000 -0.600000
v -0.500000 0.500000 0.400000
v -0.500000 0.500000 0.300000
v -0.500000 0.500000 0.200000
v -0.500000 0.500000 0.100000
v -0.500000 0.500000 -0.000000
v -0.500000 0.500000 -0.100000
v -0.500000 0.500000 -0.200000
v -0.500000 0.500000 -0.300000
v -0.500000 0.500000 -0.400000
v -0.500000 0.500000 -0.500000
v -0.500000 0.700000 0.400000
v -0.500000 0.700000 0.300000
v -0.500000 0.700000 0.200000
v -0.500000 0.700000 0.100000
v -0.500000 0.700000 -0.000000
v -0.500000 0.700000 -0.100000
v -0.500000 0.700000 -0.200000
v -0.500000 0.700000 -0.300000
v -0.500000 0.700000 -0.400000
v -0.500000 0.700000 -0.500000
v -0.500000 0.800000 0.400000
v -0.500000 0.800000 0.300000
v -0.500000 0.800000 0.200000
v -0.500000 0.800000 0.100000
v -0.500000 0.800000 -0.000000
v -0.500000 0.800000 -0.100000
v -0.500000 0.800000 -0.200000
v -0.500000 0.800000 -0.300000
v -0.500000 0.800000 -0.400000
v -0.500000 0.800000 -0.500000
v -0.500000 1.000000 0.400000
v -0.500000 1.000000 0.300000
v -0.500000 1.000000 0.200000
v -0.500000 1.000000 0.100000
v -0.500000 1.000000 -0.000000
v -0.500000 1.000000 -0.100000
v -0.500000 1.000000 -0.200000
v -0.500000 1.000000 -0.300000
v -0.500000 1.000000 -0.400000
v -0.500000 1.000000 -0.500000
v -0.500000 1.100000 0.400000
v -0.500000 1.100000 0.300000
v -0.500000 1.100000 0.200000
v -0.500000 1.100000 0.100000
v -0.500000 1.100000 -0.000000
v -0.500000 1.100000 -0.100000
v -0.500000 1.100000 -0.200000
v -0.500000 1.100000 -0.300000
v -0.500000 1.100000 -0.400000
v -0.500000 1.100000 -0.500000
v -0.500000 1.300000 0.400000
v -0.500000 1.300000 0.300000
v -0.500000 1.300000 0.200000
v -0.500000 1.300000 0.100000
v -0.500000 1.300000 -0.000000
v -0.500000 1.300000 -0.100000
v -0.500000 1.300000 -0.200000
v -0.500000 1.300000 -0.300000
v -0.500000 1.300000 -0.400000
v -0.500000 1.300000 -0.500000
v -0.500000 1.500000 0.500000
v -0.500000 1.500000 -0.600000
v -0.200000 1.400000 0.400000
v -0.200000 1.400000 0.100000
v -0.200000 1.400000 -0.200000
v -0.200000 1.400000 -0.500000
v -0.200000 1.500000 0.400000
v -0.200000 1.500000 0.100000
v -0.200000 1.500000 -0.200000
v -0.200000 1.500000 -0.500000
v 0.100000 1.400000 0.100000
v 0.100000 1.400000 -0.200000
v 0.100000 1.500000 0.100000
v 0.100000 1.500000 -0.200000
v 0.200000 0.200000 0.500000
v 0.200000 0.200000 0.200000
v 0.200000 0.200000 -0.300000
v 0.200000 0.200000 -0.600000
v 0.200000 0.300000 0.400000
v 0.200000 0.300000 0.300000
v 0.200000 0.300000 -0.400000
v 0.200000 0.300000 -0.500000
v 0.200000 0.400000 0.500000
v 0.200000 0.400000 0.400000
v 0.200000 0.400000 0.300000
v 0.200000 0.400000 0.200000
v 0.200000 0.500000 0.400000
v 0.200000 0.500000 0.200000
v 0.200000 0.500000 -0.400000
v 0.200000 0.500000 -0.500000
v 0.200000 0.600000 0.500000
v 0.200000 0.600000 0.400000
v 0.200000 0.600000 0.300000
v 0.200000 0.600000 -0.400000
v 0.200000 0.600000 -0.500000
v 0.200000 0.800000 0.400000
v 0.200000 0.800000 0.300000
v 0.200000 0.800000 -0.400000
v 0.200000 0.800000 -0.500000
v 0.200000 0.900000 0.500000
v 0.200000 0.900000 0.200000
v 0.200000 0.900000 -0.300000
v 0.200000 0.900000 -0.600000
v 0.500000 0.800000 0.400000
v 0.500000 0.800000 -0.500000
v 0.500000 0.900000 0.400000
v 0.500000 0.900000 -0.500000
v -0.400000 1.400000 0.400000
v -0.400000 1.400000 -0.500000
v -0.400000 1.500000 0.400000
v -0.400000 1.500000 -0.500000
v -0.100000 0.200000 0.500000
v -0.100000 0.200000 0.200000
v -0.100000 0.200000 -0.300000
v -0.100000 0.200000 -0.600000
v -0.100000 0.400000 0.500000
v -0.100000 0.400000 0.400000
v -0.100000 0.400000 0.200000
v -0.100000 0.500000 0.400000
v -0.100000 0.500000 0.300000
v -0.100000 0.500000 0.200000
v -0.100000 0.500000 -0.400000
v -0.100000 0.500000 -0.500000
v -0.100000 0.600000 0.500000
v -0.100000 0.600000 0.400000
v -0.100000 0.700000 0.400000
v -0.100000 0.700000 0.300000
v -0.100000 0.700000 -0.400000
v -0.100000 0.700000 -0.500000
v -0.100000 0.800000 0.400000
v -0.100000 0.800000 0.300000
v -0.100000 0.800000 -0.400000
v -0.100000 0.800000 -0.500000
v -0.100000 1.000000 0.400000
v -0.100000 1.000000 0.300000
v -0.100000 1.000000 -0.400000
v -0.100000 1.000000 -0.500000
v -0.100000 1.100000 0.400000
v -0.100000 1.100000 0.300000
v -0.100000 1.100000 -0.400000
v -0.100000 1.100000 -0.500000
v -0.100000 1.300000 0.400000
v -0.100000 1.300000 0.300000
v -0.100000 1.300000 -0.400000
v -0.100000 1.300000 -0.500000
v -0.100000 1.500000 0.500000
v -0.100000 1.500000 0.200000
v -0.100000 1.500000 -0.300000
v -0.100000 1.500000 -0.600000
v 0.200000 0.800000 0.100000
v 0.200000 0.800000 -0.000000
v 0.200000 0.800000 -0.100000
v 0.200000 0.800000 -0.200000
v 0.200000 0.900000 0.200000
v 0.200000 0.900000 0.100000
v 0.200000 0.900000 -0.200000
v 0.200000 0.900000 -0.300000
v 0.200000 1.000000 -0.000000
v 0.200000 1.000000 -0.100000
v 0.200000 1.100000 0.100000
v 0.200000 1.100000 -0.000000
v 0.200000 1.100000 -0.100000
v 0.200000 1.100000 -0.200000
v 0.200000 1.300000 0.100000
v 0.200000 1.300000 -0.000000
v 0.200000 1.300000 -0.100000
v 0.200000 1.300000 -0.200000
v 0.200000 1.500000 0.200000
v 0.200000 1.500000 -0.300000
v 0.300000 0.800000 0.400000
v 0.300000 0.800000 0.100000
v 0.300000 0.800000 -0.200000
v 0.300000 0.800000 -0.500000
v 0.300000 0.900000 0.400000
v 0.300000 0.900000 0.100000
v 0.300000 0.900000 -0.200000
v 0.300000 0.900000 -0.500000
v 0.600000 0.200000 0.500000
v 0.600000 0.200000 -0.600000
v 0.600000 0.300000 0.400000
v 0.600000 0.300000 0.300000
v 0.600000 0.300000 0.200000
v 0.600000 0.300000 0.100000
v 0.600000 0.300000 -0.000000
v 0.600000 0.300000 -0.100000
v 0.600000 0.300000 -0.200000
v 0.600000 0.300000 -0.300000
v 0.600000 0.300000 -0.400000
v 0.600000 0.300000 -0.500000
v 0.600000 0.500000 0.400000
v 0.600000 0.500000 0.300000
v 0.600000 0.500000 0.200000
v 0.600000 0.500000 0.100000
v 0.600000 0.500000 -0.000000
v 0.600000 0.500000 -0.100000
v 0.600000 0.500000 -0.200000
v 0.600000 0.500000 -0.300000
v 0.600000 0.500000 -0.400000
v 0.600000 0.500000 -0.500000
v 0.600000 0.600000 0.400000
v 0.600000 0.600000 0.300000
v 0.600000 0.600000 0.200000
v 0.600000 0.600000 0.100000
v 0.600000 0.600000 -0.000000
v 0.600000 0.600000 -0.100000
v 0.600000 0.600000 -0.200000
v 0.600000 0.600000 -0.300000
v 0.600000 0.600000 -0.400000
v 0.600000 0.600000 -0.500000
v 0.600000 0.800000 0.400000
v 0.600000 0.800000 0.300000
v 0.600000 0.800000 0.200000
v 0.600000 0.800000 0.100000
v 0.600000 0.800000 -0.000000
v 0.600000 0.800000 -0.100000
v 0.600000 0.800000 -0.200000
v 0.600000 0.800000 -0.300000
v 0.600000 0.800000 -0.400000
v 0.600000 0.800000 -0.500000
v 0.600000 0.900000 0.500000
v 0.600000 0.900000 -0.600000
v 0.800000 0.000000 0.700000
v 0.800000 -0.000000 -0.800000
v 0.800000 0.200000 0.700000
v 0.800000 0.200000 -0.800000
v -0.700000 0.000000 0.700000
v -0.700000 0.200000 0.700000
v 0.800000 0.000000 0.700000
v 0.800000 0.200000 0.700000
v -0.500000 0.200000 0.500000
v -0.500000 1.500000 0.500000
v -0.400000 0.500000 0.500000
v -0.400000 0.700000 0.500000
v -0.400000 0.800000 0.500000
v -0.400000 1.000000 0.500000
v -0.400000 1.100000 0.500000
v -0.400000 1.300000 0.500000
v -0.200000 0.500000 0.500000
v -0.200000 0.700000 0.500000
v -0.200000 0.800000 0.500000
v -0.200000 1.000000 0.500000
v -0.200000 1.100000 0.500000
v -0.200000 1.300000 0.500000
v -0.100000 0.200000 0.500000
v -0.100000 0.400000 0.500000
v -0.100000 0.600000 0.500000
v -0.100000 1.500000 0.500000
v 0.200000 0.200000 0.500000
v 0.200000 0.400000 0.500000
v 0.200000 0.600000 0.500000
v 0.200000 0.900000 0.500000
v 0.300000 0.300000 0.500000
v 0.300000 0.500000 0.500000
v 0.300000 0.600000 0.500000
v 0.300000 0.800000 0.500000
v 0.500000 0.300000 0.500000
v 0.500000 0.500000 0.500000
v 0.500000 0.600000 0.500000
v 0.500000 0.800000 0.500000
v 0.600000 0.200000 0.500000
v 0.600000 0.900000 0.500000
v -0.100000 0.200000 0.200000
v -0.100000 0.400000 0.200000
v -0.100000 0.500000 0.200000
v -0.100000 1.500000 0.200000
v 0.000000 0.200000 0.200000
v 0.000000 0.400000 0.200000
v 0.000000 0.500000 0.200000
v 0.000000 0.700000 0.200000
v 0.000000 0.800000 0.200000
v 0.000000 1.000000 0.200000
v 0.000000 1.100000 0.200000
v 0.000000 1.300000 0.200000
v 0.100000 0.200000 0.200000
v 0.100000 0.400000 0.200000
v 0.100000 0.500000 0.200000
v 0.100000 0.700000 0.200000
v 0.100000 0.800000 0.200000
v 0.100000 1.000000 0.200000
v 0.100000 1.100000 0.200000
v 0.100000 1.300000 0.200000
v 0.200000 0.200000 0.200000
v 0.200000 0.400000 0.200000
v 0.200000 0.500000 0.200000
v 0.200000 0.900000 0.200000
v 0.200000 1.500000 0.200000
v -0.200000 1.400000 -0.200000
v -0.200000 1.500000 -0.200000
v 0.100000 1.400000 -0.200000
v 0.100000 1.500000 -0.200000
v 0.200000 0.800000 -0.200000
v 0.200000 0.900000 -0.200000
v 0.300000 0.800000 -0.200000
v 0.300000 0.900000 -0.200000
v -0.400000 1.400000 -0.500000
v -0.400000 1.500000 -0.500000
v -0.200000 1.400000 -0.500000
v -0.200000 1.500000 -0.500000
v 0.300000 0.800000 -0.500000
v 0.300000 0.900000 -0.500000
v 0.500000 0.800000 -0.500000
v 0.500000 0.900000 -0.500000
v -0.400000 1.400000 0.400000
v -0.400000 1.500000 0.400000
v -0.200000 1.400000 0.400000
v -0.200000 1.500000 0.400000
v -0.100000 0.500000 0.400000
v -0.100000 0.600000 0.400000
v 0.200000 0.500000 0.400000
v 0.200000 0.600000 0.400000
v 0.300000 0.800000 0.400000
v 0.300000 0.900000 0.400000
v 0.500000 0.800000 0.400000
v 0.500000 0.900000 0.400000
v -0.200000 1.400000 0.100000
v -0.200000 1.500000 0.100000
v 0.100000 1.400000 0.100000
v 0.100000 1.500000 0.100000
v 0.200000 0.800000 0.100000
v 0.200000 0.900000 0.100000
v 0.300000 0.800000 0.100000
v 0.300000 0.900000 0.100000
v -0.100000 0.200000 -0.300000
v -0.100000 1.500000 -0.300000
v 0.000000 0.500000 -0.300000
v 0.000000 0.700000 -0.300000
v 0.000000 0.800000 -0.300000
v 0.000000 1.000000 -0.300000
v 0.000000 1.100000 -0.300000
v 0.000000 1.300000 -0.300000
v 0.100000 0.500000 -0.300000
v 0.100000 0.700000 -0.300000
v 0.100000 0.800000 -0.300000
v 0.100000 1.000000 -0.300000
v 0.100000 1.100000 -0.300000
v 0.100000 1.300000 -0.300000
v 0.200000 0.200000 -0.300000
v 0.200000 0.900000 -0.300000
v 0.200000 1.500000 -0.300000
v -0.500000 0.200000 -0.600000
v -0.500000 1.500000 -0.600000
v -0.400000 0.500000 -0.600000
v -0.400000 0.700000 -0.600000
v -0.400000 0.800000 -0.600000
v -0.400000 1.000000 -0.600000
v -0.400000 1.100000 -0.600000
v -0.400000 1.300000 -0.600000
v -0.200000 0.500000 -0.600000
v -0.200000 0.700000 -0.600000
v -0.200000 0.800000 -0.600000
v -0.200000 1.000000 -0.600000
v -0.200000 1.100000 -0.600000
v -0.200000 1.300000 -0.600000
v -0.100000 0.200000 -0.600000
v -0.100000 1.500000 -0.600000
v 0.200000 0.200000 -0.600000
v 0.200000 0.900000 -0.600000
v 0.300000 0.300000 -0.600000
v 0.300000 0.500000 -0.600000
v 0.300000 0.600000 -0.600000
v 0.300000 0.800000 -0.600000
v 0.500000 0.300000 -0.600000
v 0.500000 0.500000 -0.600000
v 0.500000 0.600000 -0.600000
v 0.500000 0.800000 -0.600000
v 0.600000 0.200000 -0.600000
v 0.600000 0.900000 -0.600000
v -0.700000 -0.000000 -0.800000
v -0.700000 0.200000 -0.800000
v 0.800000 -0.000000 -0.800000
v 0.800000 0.200000 -0.800000
v -0.700000 0.000000 0.700000
v 0.800000 0.000000 0.700000
v -0.700000 -0.000000 -0.800000
v 0.800000 -0.000000 -0.800000
v -0.100000 0.400000 0.500000
v 0.200000 0.400000 0.500000
v -0.100000 0.400000 0.400000
v 0.200000 0.400000 0.400000
v 0.200000 0.400000 0.300000
v -0.100000 0.400000 0.200000
v 0.000000 0.400000 0.200000
v 0.100000 0.400000 0.200000
v 0.200000 0.400000 0.200000
v -0.700000 0.200000 0.700000
v 0.800000 0.200000 0.700000
v -0.500000 0.200000 0.500000
v -0.100000 0.200000 0.500000
v 0.200000 0.200000 0.500000
v 0.600000 0.200000 0.500000
v -0.100000 0.200000 0.200000
v 0.000000 0.200000 0.200000
v 0.100000 0.200000 0.200000
v 0.200000 0.200000 0.200000
v -0.100000 0.200000 -0.300000
v 0.200000 0.200000 -0.300000
v -0.500000 0.200000 -0.600000
v -0.100000 0.200000 -0.600000
v 0.200000 0.200000 -0.600000
v 0.600000 0.200000 -0.600000
v -0.700000 0.200000 -0.800000
v 0.800000 0.200000 -0.800000
v -0.100000 0.500000 0.400000
v 0.200000 0.500000 0.400000
v -0.100000 0.500000 0.300000
v -0.100000 0.500000 0.200000
v 0.000000 0.500000 0.200000
v 0.100000 0.500000 0.200000
v 0.200000 0.500000 0.200000
v -0.100000 0.600000 0.500000
v 0.200000 0.600000 0.500000
v -0.100000 0.600000 0.400000
v 0.200000 0.600000 0.400000
v 0.300000 0.800000 0.400000
v 0.500000 0.800000 0.400000
v 0.200000 0.800000 0.100000
v 0.300000 0.800000 0.100000
v 0.200000 0.800000 -0.000000
v 0.200000 0.800000 -0.100000
v 0.200000 0.800000 -0.200000
v 0.300000 0.800000 -0.200000
v 0.300000 0.800000 -0.500000
v 0.500000 0.800000 -0.500000
v 0.200000 0.900000 0.500000
v 0.600000 0.900000 0.500000
v 0.300000 0.900000 0.400000
v 0.500000 0.900000 0.400000
v 0.200000 0.900000 0.200000
v 0.200000 0.900000 0.100000
v 0.300000 0.900000 0.100000
v 0.200000 0.900000 -0.200000
v 0.300000 0.900000 -0.200000
v 0.200000 0.900000 -0.300000
v 0.300000 0.900000 -0.500000
v 0.500000 0.900000 -0.500000
v 0.200000 0.900000 -0.600000
v 0.600000 0.900000 -0.600000
v -0.400000 1.400000 0.400000
v -0.200000 1.400000 0.400000
v -0.200000 1.400000 0.100000
v 0.100000 1.400000 0.100000
v -0.200000 1.400000 -0.200000
v 0.100000 1.400000 -0.200000
v -0.400000 1.400000 -0.500000
v -0.200000 1.400000 -0.500000
v -0.500000 1.500000 0.500000
v -0.100000 1.500000 0.500000
v -0.400000 1.500000 0.400000
v -0.200000 1.500000 0.400000
v -0.100000 1.500000 0.200000
v 0.200000 1.500000 0.200000
v -0.200000 1.500000 0.100000
v 0.100000 1.500000 0.100000
v -0.200000 1.500000 -0.200000
v 0.100000 1.500000 -0.200000
v -0.100000 1.500000 -0.300000
v 0.200000 1.500000 -0.300000
v -0.400000 1.500000 -0.500000
v -0.200000 1.500000 -0.500000
v -0.500000 1.500000 -0.600000
v -0.100000 1.500000 -0.600000
vn -1.0000 -0.0000 -0.0000
vn 1.0000 -0.0000 -0.0000
vn -0.0000 -0.0000 1.0000
vn -0.0000 -0.0000 -1.0000
vn -0.0000 -1.0000 -0.0000
vn -0.0000 1.0000 -0.0000
vt 0.939453 0.500000
vt 0.783203 0.500000
vt 0.787109 0.500000
vt 0.791016 0.500000
s 1
usemtl palette
f 3/1/1 2/1/1 1/1/1
f 4/1/1 2/1/1 3/1/1
f 7/2/1 6/2/1 5/2/1
f 8/2/1 6/2/1 7/2/1
f 9/2/1 6/2/1 8/2/1
f 10/2/1 6/2/1 9/2/1
f 11/2/1 6/2/1 10/2/1
f 12/2/1 6/2/1 11/2/1
f 13/2/1 6/2/1 12/2/1
f 14/2/1 6/2/1 13/2/1
f 15/2/1 6/2/1 14/2/1
f 16/2/1 6/2/1 15/2/1
f 17/2/1 7/2/1 5/2/1
f 17/3/1 8/3/1 7/3/1
f 18/2/1 9/2/1 8/2/1
f 18/3/1 8/3/1 17/3/1
f 19/3/1 10/3/1 9/3/1
f 19/2/1 9/2/1 18/2/1
f 20/2/1 11/2/1 10/2/1
f 20/3/1 10/3/1 19/3/1
f 21/3/1 12/3/1 11/3/1
f 21/2/1 11/2/1 20/2/1
f 22/2/1 13/2/1 12/2/1
f 22/3/1 12/3/1 21/3/1
f 23/3/1 14/3/1 13/3/1
f 23/2/1 13/2/1 22/2/1
f 24/2/1 15/2/1 14/2/1
f 24/3/1 14/3/1 23/3/1
f 25/3/1 16/3/1 15/3/1
f 25/2/1 15/2/1 24/2/1
f 26/2/1 6/2/1 16/2/1
f 26/3/1 16/3/1 25/3/1
f 27/2/1 25/2/1 24/2/1
f 27/2/1 24/2/1 23/2/1
f 27/2/1 26/2/1 25/2/1
f 27/2/1 23/2/1 22/2/1
f 27/2/1 22/2/1 21/2/1
f 27/2/1 21/2/1 20/2/1
f 27/2/1 20/2/1 19/2/1
f 27/2/1 19/2/1 18/2/1
f 27/2/1 18/2/1 17/2/1
f 27/2/1 17/2/1 5/2/1
f 28/2/1 26/2/1 27/2/1
f 29/2/1 26/2/1 28/2/1
f 30/2/1 26/2/1 29/2/1
f 31/2/1 26/2/1 30/2/1
f 32/2/1 26/2/1 31/2/1
f 33/2/1 26/2/1 32/2/1
f 34/2/1 26/2/1 33/2/1
f 35/2/1 26/2/1 34/2/1
f 36/2/1 6/2/1 26/2/1
f 36/2/1 26/2/1 35/2/1
f 37/2/1 27/2/1 5/2/1
f 37/3/1 28/3/1 27/3/1
f 38/2/1 29/2/1 28/2/1
f 38/3/1 28/3/1 37/3/1
f 39/3/1 30/3/1 29/3/1
f 39/2/1 29/2/1 38/2/1
f 40/2/1 31/2/1 30/2/1
f 40/3/1 30/3/1 39/3/1
f 41/3/1 32/3/1 31/3/1
f 41/2/1 31/2/1 40/2/1
f 42/2/1 33/2/1 32/2/1
f 42/3/1 32/3/1 41/3/1
f 43/3/1 34/3/1 33/3/1
f 43/2/1 33/2/1 42/2/1
f 44/2/1 35/2/1 34/2/1
f 44/3/1 34/3/1 43/3/1
f 45/3/1 36/3/1 35/3/1
f 45/2/1 35/2/1 44/2/1
f 46/2/1 6/2/1 36/2/1
f 46/3/1 36/3/1 45/3/1
f 47/2/1 43/2/1 42/2/1
f 47/2/1 45/2/1 44/2/1
f 47/2/1 46/2/1 45/2/1
f 47/2/1 42/2/1 41/2/1
f 47/2/1 41/2/1 40/2/1
f 47/2/1 40/2/1 39/2/1
f 47/2/1 39/2/1 38/2/1
f 47/2/1 38/2/1 37/2/1
f 47/2/1 37/2/1 5/2/1
f 47/2/1 44/2/1 43/2/1
f 48/2/1 46/2/1 47/2/1
f 49/2/1 46/2/1 48/2/1
f 50/2/1 46/2/1 49/2/1
f 51/2/1 46/2/1 50/2/1
f 52/2/1 46/2/1 51/2/1
f 53/2/1 46/2/1 52/2/1
f 54/2/1 46/2/1 53/2/1
f 55/2/1 46/2/1 54/2/1
f 56/2/1 6/2/1 46/2/1
f 56/2/1 46/2/1 55/2/1
f 57/2/1 47/2/1 5/2/1
f 57/3/1 48/3/1 47/3/1
f 58/2/1 49/2/1 48/2/1
f 58/3/1 48/3/1 57/3/1
f 59/3/1 50/3/1 49/3/1
f 59/2/1 49/2/1 58/2/1
f 60/2/1 51/2/1 50/2/1
f 60/3/1 50/3/1 59/3/1
f 61/3/1 52/3/1 51/3/1
f 61/2/1 51/2/1 60/2/1
f 62/2/1 53/2/1 52/2/1
f 62/3/1 52/3/1 61/3/1
f 63/3/1 54/3/1 53/3/1
f 63/2/1 53/2/1 62/2/1
f 64/2/1 55/2/1 54/2/1
f 64/3/1 54/3/1 63/3/1
f 65/3/1 56/3/1 55/3/1
f 65/2/1 55/2/1 64/2/1
f 66/2/1 6/2/1 56/2/1
f 66/3/1 56/3/1 65/3/1
f 67/2/1 63/2/1 62/2/1
f 67/2/1 65/2/1 64/2/1
f 67/2/1 66/2/1 65/2/1
f 67/2/1 62/2/1 61/2/1
f 67/2/1 61/2/1 60/2/1
f 67/2/1 60/2/1 59/2/1
f 67/2/1 59/2/1 58/2/1
f 67/2/1 58/2/1 57/2/1
f 67/2/1 57/2/1 5/2/1
f 67/2/1 64/2/1 63/2/1
f 68/2/1 6/2/1 66/2/1
f 68/2/1 66/2/1 67/2/1
f 73/2/1 70/2/1 69/2/1
f 74/2/1 70/2/1 73/2/1
f 75/2/1 72/2/1 71/2/1
f 76/2/1 72/2/1 75/2/1
f 79/2/1 78/2/1 77/2/1
f 80/2/1 78/2/1 79/2/1
f 85/2/1 82/2/1 81/2/1
f 86/2/1 82/2/1 85/2/1
f 87/2/1 84/2/1 83/2/1
f 88/2/1 84/2/1 87/2/1
f 89/2/1 85/2/1 81/2/1
f 90/3/1 86/3/1 85/3/1
f 90/2/1 85/2/1 89/2/1
f 91/2/1 82/2/1 86/2/1
f 91/3/1 86/3/1 90/3/1
f 92/2/1 82/2/1 91/2/1
f 95/2/1 87/2/1 83/2/1
f 95/3/1 88/3/1 87/3/1
f 96/2/1 84/2/1 88/2/1
f 96/3/1 88/3/1 95/3/1
f 98/2/1 94/2/1 93/2/1
f 99/2/1 94/2/1 98/2/1
f 100/2/1 95/2/1 83/2/1
f 100/2/1 96/2/1 95/2/1
f 101/2/1 84/2/1 96/2/1
f 101/2/1 96/2/1 100/2/1
f 102/3/1 99/3/1 98/3/1
f 102/2/1 98/2/1 97/2/1
f 103/2/1 94/2/1 99/2/1
f 103/3/1 99/3/1 102/3/1
f 104/2/1 100/2/1 83/2/1
f 104/3/1 101/3/1 100/3/1
f 105/2/1 84/2/1 101/2/1
f 105/3/1 101/3/1 104/3/1
f 106/2/1 102/2/1 97/2/1
f 106/2/1 103/2/1 102/2/1
f 107/2/1 94/2/1 103/2/1
f 107/2/1 103/2/1 106/2/1
f 108/2/1 104/2/1 83/2/1
f 108/2/1 105/2/1 104/2/1
f 109/2/1 84/2/1 105/2/1
f 109/2/1 105/2/1 108/2/1
f 112/2/1 111/2/1 110/2/1
f 113/2/1 111/2/1 112/2/1
f 114/2/2 115/2/2 116/2/2
f 116/2/2 115/2/2 117/2/2
f 118/2/2 119/2/2 122/2/2
f 122/2/2 119/2/2 123/2/2
f 123/2/2 119/2/2 124/2/2
f 120/2/2 121/2/2 128/2/2
f 128/2/2 121/2/2 129/2/2
f 125/3/2 126/3/2 131/3/2
f 131/3/2 126/3/2 132/3/2
f 130/2/2 131/2/2 132/2/2
f 126/2/2 127/2/2 133/2/2
f 132/3/2 126/3/2 133/3/2
f 120/2/2 128/2/2 134/2/2
f 128/3/2 129/3/2 134/3/2
f 129/2/2 121/2/2 135/2/2
f 134/3/2 129/3/2 135/3/2
f 130/2/2 132/2/2 136/2/2
f 132/2/2 133/2/2 136/2/2
f 133/2/2 127/2/2 137/2/2
f 136/2/2 133/2/2 137/2/2
f 120/2/2 134/2/2 138/2/2
f 134/2/2 135/2/2 138/2/2
f 135/2/2 121/2/2 139/2/2
f 138/2/2 135/2/2 139/2/2
f 130/2/2 136/2/2 140/2/2
f 136/3/2 137/3/2 140/3/2
f 137/2/2 127/2/2 141/2/2
f 140/3/2 137/3/2 141/3/2
f 120/2/2 138/2/2 142/2/2
f 138/3/2 139/3/2 142/3/2
f 139/2/2 121/2/2 143/2/2
f 142/3/2 139/3/2 143/3/2
f 130/2/2 140/2/2 144/2/2
f 140/2/2 141/2/2 144/2/2
f 141/2/2 127/2/2 145/2/2
f 144/2/2 141/2/2 145/2/2
f 120/2/2 142/2/2 146/2/2
f 142/2/2 143/2/2 146/2/2
f 143/2/2 121/2/2 147/2/2
f 146/2/2 143/2/2 147/2/2
f 130/2/2 144/2/2 148/2/2
f 144/3/2 145/3/2 148/3/2
f 145/2/2 127/2/2 149/2/2
f 148/3/2 145/3/2 149/3/2
f 120/2/2 146/2/2 150/2/2
f 146/3/2 147/3/2 150/3/2
f 147/2/2 121/2/2 151/2/2
f 150/3/2 147/3/2 151/3/2
f 130/2/2 148/2/2 152/2/2
f 148/2/2 149/2/2 152/2/2
f 149/2/2 127/2/2 153/2/2
f 152/2/2 149/2/2 153/2/2
f 120/2/2 150/2/2 154/2/2
f 150/2/2 151/2/2 154/2/2
f 151/2/2 121/2/2 155/2/2
f 154/2/2 151/2/2 155/2/2
f 156/2/2 157/2/2 161/2/2
f 158/2/2 159/2/2 162/2/2
f 160/2/2 161/2/2 164/2/2
f 157/3/2 158/3/2 164/3/2
f 161/2/2 157/2/2 164/2/2
f 162/2/2 163/2/2 165/2/2
f 164/3/2 158/3/2 165/3/2
f 158/2/2 162/2/2 165/2/2
f 160/2/2 164/2/2 166/2/2
f 164/2/2 165/2/2 166/2/2
f 166/2/2 165/2/2 167/2/2
f 165/2/2 163/2/2 168/2/2
f 167/2/2 165/2/2 168/2/2
f 168/2/2 163/2/2 169/2/2
f 166/3/2 167/3/2 170/3/2
f 160/2/2 166/2/2 170/2/2
f 167/2/2 168/2/2 171/2/2
f 170/3/2 167/3/2 171/3/2
f 168/3/2 169/3/2 172/3/2
f 171/2/2 168/2/2 172/2/2
f 169/2/2 163/2/2 173/2/2
f 172/3/2 169/3/2 173/3/2
f 171/2/2 172/2/2 174/2/2
f 170/2/2 171/2/2 174/2/2
f 172/2/2 173/2/2 174/2/2
f 160/2/2 170/2/2 174/2/2
f 173/2/2 163/2/2 175/2/2
f 174/2/2 173/2/2 175/2/2
f 176/2/2 177/2/2 180/2/2
f 180/2/2 177/2/2 181/2/2
f 178/2/2 179/2/2 182/2/2
f 182/2/2 179/2/2 183/2/2
f 184/2/2 185/2/2 186/2/2
f 186/2/2 185/2/2 187/2/2
f 187/2/2 185/2/2 188/2/2
f 188/2/2 185/2/2 189/2/2
f 189/2/2 185/2/2 190/2/2
f 190/2/2 185/2/2 191/2/2
f 191/2/2 185/2/2 192/2/2
f 192/2/2 185/2/2 193/2/2
f 193/2/2 185/2/2 194/2/2
f 194/2/2 185/2/2 195/2/2
f 184/2/2 186/2/2 196/2/2
f 186/3/2 187/3/2 196/3/2
f 187/2/2 188/2/2 197/2/2
f 196/3/2 187/3/2 197/3/2
f 188/3/2 189/3/2 198/3/2
f 197/2/2 188/2/2 198/2/2
f 189/2/2 190/2/2 199/2/2
f 198/3/2 189/3/2 199/3/2
f 190/3/2 191/3/2 200/3/2
f 199/2/2 190/2/2 200/2/2
f 191/2/2 192/2/2 201/2/2
f 200/3/2 191/3/2 201/3/2
f 192/3/2 193/3/2 202/3/2
f 201/2/2 192/2/2 202/2/2
f 193/2/2 194/2/2 203/2/2
f 202/3/2 193/3/2 203/3/2
f 194/3/2 195/3/2 204/3/2
f 203/2/2 194/2/2 204/2/2
f 195/2/2 185/2/2 205/2/2
f 204/3/2 195/3/2 205/3/2
f 203/2/2 204/2/2 206/2/2
f 202/2/2 203/2/2 206/2/2
f 204/2/2 205/2/2 206/2/2
f 201/2/2 202/2/2 206/2/2
f 200/2/2 201/2/2 206/2/2
f 199/2/2 200/2/2 206/2/2
f 198/2/2 199/2/2 206/2/2
f 197/2/2 198/2/2 206/2/2
f 196/2/2 197/2/2 206/2/2
f 184/2/2 196/2/2 206/2/2
f 206/2/2 205/2/2 207/2/2
f 207/2/2 205/2/2 208/2/2
f 208/2/2 205/2/2 209/2/2
f 209/2/2 205/2/2 210/2/2
f 210/2/2 205/2/2 211/2/2
f 211/2/2 205/2/2 212/2/2
f 212/2/2 205/2/2 213/2/2
f 213/2/2 205/2/2 214/2/2
f 205/2/2 185/2/2 215/2/2
f 214/2/2 205/2/2 215/2/2
f 184/2/2 206/2/2 216/2/2
f 206/3/2 207/3/2 216/3/2
f 207/2/2 208/2/2 217/2/2
f 216/3/2 207/3/2 217/3/2
f 208/3/2 209/3/2 218/3/2
f 217/2/2 208/2/2 218/2/2
f 209/2/2 210/2/2 219/2/2
f 218/3/2 209/3/2 219/3/2
f 210/3/2 211/3/2 220/3/2
f 219/2/2 210/2/2 220/2/2
f 211/2/2 212/2/2 221/2/2
f 220/3/2 211/3/2 221/3/2
f 212/3/2 213/3/2 222/3/2
f 221/2/2 212/2/2 222/2/2
f 213/2/2 214/2/2 223/2/2
f 222/3/2 213/3/2 223/3/2
f 214/3/2 215/3/2 224/3/2
f 223/2/2 214/2/2 224/2/2
f 215/2/2 185/2/2 225/2/2
f 224/3/2 215/3/2 225/3/2
f 221/2/2 222/2/2 226/2/2
f 223/2/2 224/2/2 226/2/2
f 224/2/2 225/2/2 226/2/2
f 220/2/2 221/2/2 226/2/2
f 219/2/2 220/2/2 226/2/2
f 218/2/2 219/2/2 226/2/2
f 217/2/2 218/2/2 226/2/2
f 216/2/2 217/2/2 226/2/2
f 184/2/2 216/2/2 226/2/2
f 222/2/2 223/2/2 226/2/2
f 225/2/2 185/2/2 227/2/2
f 226/2/2 225/2/2 227/2/2
f 228/1/2 229/1/2 230/1/2
f 230/1/2 229/1/2 231/1/2
f 234/1/3 233/1/3 232/1/3
f 235/1/3 233/1/3 234/1/3
f 238/2/3 237/2/3 236/2/3
f 239/2/3 237/2/3 238/2/3
f 240/2/3 237/2/3 239/2/3
f 241/2/3 237/2/3 240/2/3
f 242/2/3 237/2/3 241/2/3
f 243/2/3 237/2/3 242/2/3
f 244/2/3 238/2/3 236/2/3
f 244/3/3 239/3/3 238/3/3
f 245/2/3 240/2/3 239/2/3
f 245/3/3 239/3/3 244/3/3
f 246/3/3 241/3/3 240/3/3
f 246/2/3 240/2/3 245/2/3
f 247/2/3 242/2/3 241/2/3
f 247/3/3 241/3/3 246/3/3
f 248/3/3 243/3/3 242/3/3
f 248/2/3 242/2/3 247/2/3
f 249/2/3 237/2/3 243/2/3
f 249/3/3 243/3/3 248/3/3
f 250/2/3 248/2/3 247/2/3
f 250/2/3 247/2/3 246/2/3
f 250/2/3 249/2/3 248/2/3
f 250/2/3 246/2/3 245/2/3
f 250/2/3 245/2/3 244/2/3
f 250/2/3 244/2/3 236/2/3
f 251/2/3 249/2/3 250/2/3
f 252/2/3 249/2/3 251/2/3
f 253/2/3 237/2/3 249/2/3
f 253/2/3 249/2/3 252/2/3
f 255/2/3 252/2/3 251/2/3
f 256/2/3 252/2/3 255/2/3
f 258/2/3 255/2/3 254/2/3
f 258/2/3 257/2/3 256/2/3
f 258/2/3 256/2/3 255/2/3
f 259/2/3 257/2/3 258/2/3
f 260/2/3 257/2/3 259/2/3
f 261/2/3 257/2/3 260/2/3
f 262/2/3 258/2/3 254/2/3
f 262/3/3 259/3/3 258/3/3
f 263/2/3 260/2/3 259/2/3
f 263/3/3 259/3/3 262/3/3
f 264/3/3 261/3/3 260/3/3
f 264/2/3 260/2/3 263/2/3
f 265/2/3 257/2/3 261/2/3
f 265/3/3 261/3/3 264/3/3
f 266/2/3 264/2/3 263/2/3
f 266/2/3 263/2/3 262/2/3
f 266/2/3 265/2/3 264/2/3
f 266/2/3 262/2/3 254/2/3
f 267/2/3 257/2/3 265/2/3
f 267/2/3 265/2/3 266/2/3
f 272/2/3 269/2/3 268/2/3
f 273/2/3 269/2/3 272/2/3
f 274/2/3 271/2/3 270/2/3
f 275/2/3 271/2/3 274/2/3
f 276/2/3 271/2/3 275/2/3
f 277/2/3 271/2/3 276/2/3
f 278/2/3 271/2/3 277/2/3
f 279/2/3 271/2/3 278/2/3
f 280/3/3 273/3/3 272/3/3
f 281/3/3 273/3/3 280/3/3
f 282/3/3 275/3/3 274/3/3
f 283/2/3 276/2/3 275/2/3
f 283/3/3 275/3/3 282/3/3
f 284/3/3 277/3/3 276/3/3
f 284/2/3 276/2/3 283/2/3
f 285/2/3 278/2/3 277/2/3
f 285/3/3 277/3/3 284/3/3
f 286/3/3 279/3/3 278/3/3
f 286/2/3 278/2/3 285/2/3
f 287/2/3 271/2/3 279/2/3
f 287/3/3 279/3/3 286/3/3
f 288/2/3 281/2/3 280/2/3
f 289/2/3 281/2/3 288/2/3
f 290/2/3 286/2/3 285/2/3
f 290/2/3 283/2/3 282/2/3
f 290/2/3 284/2/3 283/2/3
f 290/2/3 287/2/3 286/2/3
f 290/2/3 285/2/3 284/2/3
f 291/2/3 287/2/3 290/2/3
f 292/2/3 271/2/3 287/2/3
f 292/2/3 287/2/3 291/2/3
f 295/2/3 294/2/3 293/2/3
f 296/2/3 294/2/3 295/2/3
f 299/2/3 298/2/3 297/2/3
f 300/2/3 298/2/3 299/2/3
f 303/2/3 302/2/3 301/2/3
f 304/2/3 302/2/3 303/2/3
f 307/2/3 306/2/3 305/2/3
f 308/2/3 306/2/3 307/2/3
f 309/2/4 310/2/4 311/2/4
f 311/2/4 310/2/4 312/2/4
f 313/2/4 314/2/4 315/2/4
f 315/2/4 314/2/4 316/2/4
f 317/2/4 318/2/4 319/2/4
f 319/2/4 318/2/4 320/2/4
f 321/2/4 322/2/4 323/2/4
f 323/2/4 322/2/4 324/2/4
f 325/2/4 326/2/4 327/2/4
f 327/2/4 326/2/4 328/2/4
f 329/2/4 330/2/4 331/2/4
f 331/2/4 330/2/4 332/2/4
f 332/2/4 330/2/4 333/2/4
f 333/2/4 330/2/4 334/2/4
f 334/2/4 330/2/4 335/2/4
f 335/2/4 330/2/4 336/2/4
f 329/2/4 331/2/4 337/2/4
f 331/3/4 332/3/4 337/3/4
f 332/2/4 333/2/4 338/2/4
f 337/3/4 332/3/4 338/3/4
f 333/3/4 334/3/4 339/3/4
f 338/2/4 333/2/4 339/2/4
f 334/2/4 335/2/4 340/2/4
f 339/3/4 334/3/4 340/3/4
f 335/3/4 336/3/4 341/3/4
f 340/2/4 335/2/4 341/2/4
f 336/2/4 330/2/4 342/2/4
f 341/3/4 336/3/4 342/3/4
f 340/2/4 341/2/4 343/2/4
f 339/2/4 340/2/4 343/2/4
f 341/2/4 342/2/4 343/2/4
f 338/2/4 339/2/4 343/2/4
f 337/2/4 338/2/4 343/2/4
f 329/2/4 337/2/4 343/2/4
f 343/2/4 342/2/4 344/2/4
f 342/2/4 330/2/4 345/2/4
f 344/2/4 342/2/4 345/2/4
f 346/2/4 347/2/4 348/2/4
f 348/2/4 347/2/4 349/2/4
f 349/2/4 347/2/4 350/2/4
f 350/2/4 347/2/4 351/2/4
f 351/2/4 347/2/4 352/2/4
f 352/2/4 347/2/4 353/2/4
f 346/2/4 348/2/4 354/2/4
f 348/3/4 349/3/4 354/3/4
f 349/2/4 350/2/4 355/2/4
f 354/3/4 349/3/4 355/3/4
f 350/3/4 351/3/4 356/3/4
f 355/2/4 350/2/4 356/2/4
f 351/2/4 352/2/4 357/2/4
f 356/3/4 351/3/4 357/3/4
f 352/3/4 353/3/4 358/3/4
f 357/2/4 352/2/4 358/2/4
f 353/2/4 347/2/4 359/2/4
f 358/3/4 353/3/4 359/3/4
f 357/2/4 358/2/4 360/2/4
f 356/2/4 357/2/4 360/2/4
f 358/2/4 359/2/4 360/2/4
f 355/2/4 356/2/4 360/2/4
f 354/2/4 355/2/4 360/2/4
f 346/2/4 354/2/4 360/2/4
f 359/2/4 347/2/4 361/2/4
f 360/2/4 359/2/4 361/2/4
f 362/2/4 363/2/4 364/2/4
f 364/2/4 363/2/4 365/2/4
f 365/2/4 363/2/4 366/2/4
f 366/2/4 363/2/4 367/2/4
f 362/2/4 364/2/4 368/2/4
f 364/3/4 365/3/4 368/3/4
f 365/2/4 366/2/4 369/2/4
f 368/3/4 365/3/4 369/3/4
f 366/3/4 367/3/4 370/3/4
f 369/2/4 366/2/4 370/2/4
f 367/2/4 363/2/4 371/2/4
f 370/3/4 367/3/4 371/3/4
f 369/2/4 370/2/4 372/2/4
f 368/2/4 369/2/4 372/2/4
f 370/2/4 371/2/4 372/2/4
f 362/2/4 368/2/4 372/2/4
f 371/2/4 363/2/4 373/2/4
f 372/2/4 371/2/4 373/2/4
f 374/1/4 375/1/4 376/1/4
f 376/1/4 375/1/4 377/1/4
f 380/1/5 379/1/5 378/1/5
f 381/1/5 379/1/5 380/1/5
f 384/2/5 383/2/5 382/2/5
f 385/2/5 383/2/5 384/2/5
f 386/4/5 385/4/5 384/4/5
f 387/4/5 386/4/5 384/4/5
f 388/4/5 386/4/5 387/4/5
f 389/4/5 386/4/5 388/4/5
f 390/4/5 386/4/5 389/4/5
f 391/1/6 392/1/6 393/1/6
f 393/1/6 392/1/6 394/1/6
f 394/1/6 392/1/6 395/1/6
f 395/1/6 392/1/6 396/1/6
f 394/1/6 395/1/6 397/1/6
f 397/1/6 395/1/6 398/1/6
f 398/1/6 395/1/6 399/1/6
f 399/1/6 395/1/6 400/1/6
f 391/1/6 393/1/6 403/1/6
f 401/1/6 402/1/6 404/1/6
f 404/1/6 402/1/6 405/1/6
f 396/1/6 392/1/6 406/1/6
f 391/1/6 403/1/6 407/1/6
f 405/1/6 406/1/6 407/1/6
f 404/1/6 405/1/6 407/1/6
f 403/1/6 404/1/6 407/1/6
f 406/1/6 392/1/6 408/1/6
f 407/1/6 406/1/6 408/1/6
f 409/4/6 410/4/6 411/4/6
f 411/4/6 410/4/6 412/4/6
f 412/4/6 410/4/6 413/4/6
f 413/4/6 410/4/6 414/4/6
f 414/4/6 410/4/6 415/4/6
f 416/2/6 417/2/6 418/2/6
f 418/2/6 417/2/6 419/2/6
f 420/4/6 421/4/6 423/4/6
f 422/4/6 423/4/6 424/4/6
f 424/4/6 423/4/6 425/4/6
f 425/4/6 423/4/6 426/4/6
f 423/4/6 421/4/6 427/4/6
f 426/4/6 423/4/6 427/4/6
f 427/4/6 421/4/6 428/4/6
f 428/4/6 421/4/6 429/4/6
f 430/2/6 431/2/6 432/2/6
f 432/2/6 431/2/6 433/2/6
f 430/2/6 432/2/6 434/2/6
f 434/2/6 432/2/6 435/2/6
f 435/2/6 432/2/6 436/2/6
f 437/2/6 438/2/6 439/2/6
f 439/2/6 438/2/6 440/2/6
f 433/2/6 431/2/6 441/2/6
f 439/2/6 440/2/6 442/2/6
f 440/2/6 441/2/6 442/2/6
f 441/2/6 431/2/6 443/2/6
f 442/2/6 441/2/6 443/2/6
f 444/4/6 445/4/6 446/4/6
f 444/4/6 446/4/6 448/4/6
f 446/4/6 447/4/6 448/4/6
f 448/4/6 447/4/6 449/4/6
f 444/4/6 448/4/6 450/4/6
f 450/4/6 448/4/6 451/4/6
f 452/2/6 453/2/6 454/2/6
f 454/2/6 453/2/6 455/2/6
f 455/2/6 453/2/6 456/2/6
f 455/2/6 456/2/6 458/2/6
f 456/2/6 457/2/6 458/2/6
f 458/2/6 457/2/6 459/2/6
f 459/2/6 457/2/6 461/2/6
f 460/2/6 461/2/6 462/2/6
f 461/2/6 457/2/6 463/2/6
f 462/2/6 461/2/6 463/2/6
f 452/2/6 454/2/6 464/2/6
f 460/2/6 462/2/6 465/2/6
f 452/2/6 464/2/6 466/2/6
f 464/2/6 465/2/6 466/2/6
f 465/2/6 462/2/6 467/2/6
f 466/2/6 465/2/6 467/2/6
