# Blender 4.3.2
# www.blender.org
mtllib Building06.mtl
o Building06
v -0.700000 0.000000 0.700000
v -0.700000 -0.000000 -0.800000
v -0.700000 0.200000 0.700000
v -0.700000 0.200000 -0.800000
v -0.500000 0.400000 0.500000
v -0.500000 0.400000 -0.600000
v -0.500000 0.500000 0.400000
v -0.500000 0.500000 0.300000
v -0.500000 0.500000 0.200000
v -0.500000 0.500000 0.100000
v -0.500000 0.500000 -0.000000
v -0.500000 0.500000 -0.100000
v -0.500000 0.500000 -0.200000
v -0.500000 0.500000 -0.300000
v -0.500000 0.500000 -0.400000
v -0.500000 0.500000 -0.500000
v -0.500000 0.700000 0.400000
v -0.500000 0.700000 0.300000
v -0.500000 0.700000 0.200000
v -0.500000 0.700000 0.100000
v -0.500000 0.700000 -0.000000
v -0.500000 0.700000 -0.100000
v -0.500000 0.700000 -0.200000
v -0.500000 0.700000 -0.300000
v -0.500000 0.700000 -0.400000
v -0.500000 0.700000 -0.500000
v -0.500000 0.800000 0.400000
v -0.500000 0.800000 0.300000
v -0.500000 0.800000 0.200000
v -0.500000 0.800000 0.100000
v -0.500000 0.800000 -0.000000
v -0.500000 0.800000 -0.100000
v -0.500000 0.800000 -0.200000
v -0.500000 0.800000 -0.300000
v -0.500000 0.800000 -0.400000
v -0.500000 0.800000 -0.500000
v -0.500000 1.000000 0.400000
v -0.500000 1.000000 0.300000
v -0.500000 1.000000 0.200000
v -0.500000 1.000000 0.100000
v -0.500000 1.000000 -0.000000
v -0.500000 1.000000 -0.100000
v -0.500000 1.000000 -0.200000
v -0.500000 1.000000 -0.300000
v -0.500000 1.000000 -0.400000
v -0.500000 1.000000 -0.500000
v -0.500000 1.100000 0.400000
v -0.500000 1.100000 0.300000
v -0.500000 1.100000 0.200000
v -0.500000 1.100000 0.100000
v -0.500000 1.100000 -0.000000
v -0.500000 1.100000 -0.100000
v -0.500000 1.100000 -0.200000
v -0.500000 1.100000 -0.300000
v -0.500000 1.100000 -0.400000
v -0.500000 1.100000 -0.500000
v -0.500000 1.300000 0.400000
v -0.500000 1.300000 0.300000
v -0.500000 1.300000 0.200000
v -0.500000 1.300000 0.100000
v -0.500000 1.300000 -0.000000
v -0.500000 1.300000 -0.100000
v -0.500000 1.300000 -0.200000
v -0.500000 1.300000 -0.300000
v -0.500000 1.300000 -0.400000
v -0.500000 1.300000 -0.500000
v -0.500000 1.500000 0.500000
v -0.500000 1.500000 -0.600000
v -0.400000 0.200000 0.400000
v -0.400000 0.200000 0.300000
v -0.400000 0.200000 -0.400000
v -0.400000 0.200000 -0.500000
v -0.400000 0.400000 0.400000
v -0.400000 0.400000 0.300000
v -0.400000 0.400000 -0.400000
v -0.400000 0.400000 -0.500000
v -0.300000 0.200000 0.300000
v -0.300000 0.200000 -0.400000
v -0.300000 0.400000 0.300000
v -0.300000 0.400000 -0.400000
v -0.300000 1.400000 0.300000
v -0.300000 1.400000 0.100000
v -0.300000 1.500000 0.300000
v -0.300000 1.500000 0.100000
v -0.100000 1.400000 0.300000
v -0.100000 1.400000 0.100000
v -0.100000 1.500000 0.300000
v -0.100000 1.500000 0.100000
v 0.200000 1.400000 -0.200000
v 0.200000 1.400000 -0.400000
v 0.200000 1.500000 -0.200000
v 0.200000 1.500000 -0.400000
v 0.400000 0.200000 0.400000
v 0.400000 0.200000 0.300000
v 0.400000 0.200000 -0.400000
v 0.400000 0.200000 -0.500000
v 0.400000 0.400000 0.400000
v 0.400000 0.400000 0.300000
v 0.400000 0.400000 -0.400000
v 0.400000 0.400000 -0.500000
v 0.500000 1.400000 0.400000
v 0.500000 1.400000 -0.500000
v 0.500000 1.500000 0.400000
v 0.500000 1.500000 -0.500000
v -0.400000 1.400000 0.400000
v -0.400000 1.400000 -0.500000
v -0.400000 1.500000 0.400000
v -0.400000 1.500000 -0.500000
v -0.300000 0.200000 0.400000
v -0.300000 0.200000 0.300000
v -0.300000 0.200000 -0.400000
v -0.300000 0.200000 -0.500000
v -0.300000 0.400000 0.400000
v -0.300000 0.400000 0.300000
v -0.300000 0.400000 -0.400000
v -0.300000 0.400000 -0.500000
v -0.200000 1.400000 0.300000
v -0.200000 1.400000 0.100000
v -0.200000 1.500000 0.300000
v -0.200000 1.500000 0.100000
v 0.000000 1.400000 0.300000
v 0.000000 1.400000 0.100000
v 0.000000 1.500000 0.300000
v 0.000000 1.500000 0.100000
v 0.400000 0.200000 0.300000
v 0.400000 0.200000 -0.400000
v 0.400000 0.400000 0.300000
v 0.400000 0.400000 -0.400000
v 0.400000 1.400000 -0.200000
v 0.400000 1.400000 -0.400000
v 0.400000 1.500000 -0.200000
v 0.400000 1.500000 -0.400000
v 0.500000 0.200000 0.400000
v 0.500000 0.200000 0.300000
v 0.500000 0.200000 -0.400000
v 0.500000 0.200000 -0.500000
v 0.500000 0.400000 0.400000
v 0.500000 0.400000 0.300000
v 0.500000 0.400000 -0.400000
v 0.500000 0.400000 -0.500000
v 0.600000 0.400000 0.500000
v 0.600000 0.400000 -0.600000
v 0.600000 0.500000 0.400000
v 0.600000 0.500000 0.300000
v 0.600000 0.500000 0.200000
v 0.600000 0.500000 0.100000
v 0.600000 0.500000 -0.000000
v 0.600000 0.500000 -0.100000
v 0.600000 0.500000 -0.200000
v 0.600000 0.500000 -0.300000
v 0.600000 0.500000 -0.400000
v 0.600000 0.500000 -0.500000
v 0.600000 0.700000 0.400000
v 0.600000 0.700000 0.300000
v 0.600000 0.700000 0.200000
v 0.600000 0.700000 0.100000
v 0.600000 0.700000 -0.000000
v 0.600000 0.700000 -0.100000
v 0.600000 0.700000 -0.200000
v 0.600000 0.700000 -0.300000
v 0.600000 0.700000 -0.400000
v 0.600000 0.700000 -0.500000
v 0.600000 0.800000 0.400000
v 0.600000 0.800000 0.300000
v 0.600000 0.800000 0.200000
v 0.600000 0.800000 0.100000
v 0.600000 0.800000 -0.000000
v 0.600000 0.800000 -0.100000
v 0.600000 0.800000 -0.200000
v 0.600000 0.800000 -0.300000
v 0.600000 0.800000 -0.400000
v 0.600000 0.800000 -0.500000
v 0.600000 1.000000 0.400000
v 0.600000 1.000000 0.300000
v 0.600000 1.000000 0.200000
v 0.600000 1.000000 0.100000
v 0.600000 1.000000 -0.000000
v 0.600000 1.000000 -0.100000
v 0.600000 1.000000 -0.200000
v 0.600000 1.000000 -0.300000
v 0.600000 1.000000 -0.400000
v 0.600000 1.000000 -0.500000
v 0.600000 1.100000 0.400000
v 0.600000 1.100000 0.300000
v 0.600000 1.100000 0.200000
v 0.600000 1.100000 0.100000
v 0.600000 1.100000 -0.000000
v 0.600000 1.100000 -0.100000
v 0.600000 1.100000 -0.200000
v 0.600000 1.100000 -0.300000
v 0.600000 1.100000 -0.400000
v 0.600000 1.100000 -0.500000
v 0.600000 1.300000 0.400000
v 0.600000 1.300000 0.300000
v 0.600000 1.300000 0.200000
v 0.600000 1.300000 0.100000
v 0.600000 1.300000 -0.000000
v 0.600000 1.300000 -0.100000
v 0.600000 1.300000 -0.200000
v 0.600000 1.300000 -0.300000
v 0.600000 1.300000 -0.400000
v 0.600000 1.300000 -0.500000
v 0.600000 1.500000 0.500000
v 0.600000 1.500000 -0.600000
v 0.800000 0.000000 0.700000
v 0.800000 -0.000000 -0.800000
v 0.800000 0.200000 0.700000
v 0.800000 0.200000 -0.800000
v -0.700000 0.000000 0.700000
v -0.700000 0.200000 0.700000
v 0.800000 0.000000 0.700000
v 0.800000 0.200000 0.700000
v -0.500000 0.400000 0.500000
v -0.500000 1.500000 0.500000
v -0.400000 0.500000 0.500000
v -0.400000 0.700000 0.500000
v -0.400000 0.800000 0.500000
v -0.400000 1.000000 0.500000
v -0.400000 1.100000 0.500000
v -0.400000 1.300000 0.500000
v -0.300000 0.500000 0.500000
v -0.300000 0.700000 0.500000
v -0.300000 0.800000 0.500000
v -0.300000 1.000000 0.500000
v -0.300000 1.100000 0.500000
v -0.300000 1.300000 0.500000
v -0.200000 0.500000 0.500000
v -0.200000 0.700000 0.500000
v -0.200000 0.800000 0.500000
v -0.200000 1.000000 0.500000
v -0.200000 1.100000 0.500000
v -0.200000 1.300000 0.500000
v 0.000000 0.500000 0.500000
v 0.000000 0.700000 0.500000
v 0.000000 0.800000 0.500000
v 0.000000 1.000000 0.500000
v 0.000000 1.100000 0.500000
v 0.000000 1.300000 0.500000
v 0.200000 0.500000 0.500000
v 0.200000 0.700000 0.500000
v 0.200000 0.800000 0.500000
v 0.200000 1.000000 0.500000
v 0.200000 1.100000 0.500000
v 0.200000 1.300000 0.500000
v 0.300000 0.500000 0.500000
v 0.300000 0.700000 0.500000
v 0.300000 0.800000 0.500000
v 0.300000 1.000000 0.500000
v 0.300000 1.100000 0.500000
v 0.300000 1.300000 0.500000
v 0.400000 0.500000 0.500000
v 0.400000 0.700000 0.500000
v 0.400000 0.800000 0.500000
v 0.400000 1.000000 0.500000
v 0.400000 1.100000 0.500000
v 0.400000 1.300000 0.500000
v 0.500000 0.500000 0.500000
v 0.500000 0.700000 0.500000
v 0.500000 0.800000 0.500000
v 0.500000 1.000000 0.500000
v 0.500000 1.100000 0.500000
v 0.500000 1.300000 0.500000
v 0.600000 0.400000 0.500000
v 0.600000 1.500000 0.500000
v -0.400000 0.200000 0.400000
v -0.400000 0.400000 0.400000
v -0.300000 0.200000 0.400000
v -0.300000 0.400000 0.400000
v 0.400000 0.200000 0.400000
v 0.400000 0.400000 0.400000
v 0.500000 0.200000 0.400000
v 0.500000 0.400000 0.400000
v -0.300000 0.200000 0.300000
v -0.300000 0.400000 0.300000
v -0.300000 1.400000 0.300000
v -0.300000 1.500000 0.300000
v -0.200000 1.400000 0.300000
v -0.200000 1.500000 0.300000
v -0.100000 1.400000 0.300000
v -0.100000 1.500000 0.300000
v 0.000000 1.400000 0.300000
v 0.000000 1.500000 0.300000
v 0.100000 0.200000 0.300000
v 0.100000 0.400000 0.300000
v 0.200000 0.200000 0.300000
v 0.200000 0.400000 0.300000
v 0.400000 0.200000 0.300000
v 0.400000 0.400000 0.300000
v 0.200000 1.400000 -0.200000
v 0.200000 1.500000 -0.200000
v 0.400000 1.400000 -0.200000
v 0.400000 1.500000 -0.200000
v -0.400000 0.200000 -0.400000
v -0.400000 0.400000 -0.400000
v -0.300000 0.200000 -0.400000
v -0.300000 0.400000 -0.400000
v 0.400000 0.200000 -0.400000
v 0.400000 0.400000 -0.400000
v 0.500000 0.200000 -0.400000
v 0.500000 0.400000 -0.400000
v -0.400000 1.400000 -0.500000
v -0.400000 1.500000 -0.500000
v 0.500000 1.400000 -0.500000
v 0.500000 1.500000 -0.500000
v -0.400000 1.400000 0.400000
v -0.400000 1.500000 0.400000
v 0.500000 1.400000 0.400000
v 0.500000 1.500000 0.400000
v -0.400000 0.200000 0.300000
v -0.400000 0.400000 0.300000
v -0.300000 0.200000 0.300000
v -0.300000 0.400000 0.300000
v 0.400000 0.200000 0.300000
v 0.400000 0.400000 0.300000
v 0.500000 0.200000 0.300000
v 0.500000 0.400000 0.300000
v -0.300000 1.400000 0.100000
v -0.300000 1.500000 0.100000
v -0.200000 1.400000 0.100000
v -0.200000 1.500000 0.100000
v -0.100000 1.400000 0.100000
v -0.100000 1.500000 0.100000
v 0.000000 1.400000 0.100000
v 0.000000 1.500000 0.100000
v -0.300000 0.200000 -0.400000
v -0.300000 0.400000 -0.400000
v 0.200000 1.400000 -0.400000
v 0.200000 1.500000 -0.400000
v 0.400000 0.200000 -0.400000
v 0.400000 0.400000 -0.400000
v 0.400000 1.400000 -0.400000
v 0.400000 1.500000 -0.400000
v -0.400000 0.200000 -0.500000
v -0.400000 0.400000 -0.500000
v -0.300000 0.200000 -0.500000
v -0.300000 0.400000 -0.500000
v 0.400000 0.200000 -0.500000
v 0.400000 0.400000 -0.500000
v 0.500000 0.200000 -0.500000
v 0.500000 0.400000 -0.500000
v -0.500000 0.400000 -0.600000
v -0.500000 1.500000 -0.600000
v -0.400000 0.500000 -0.600000
v -0.400000 0.700000 -0.600000
v -0.400000 0.800000 -0.600000
v -0.400000 1.000000 -0.600000
v -0.400000 1.100000 -0.600000
v -0.400000 1.300000 -0.600000
v -0.300000 0.500000 -0.600000
v -0.300000 0.700000 -0.600000
v -0.300000 0.800000 -0.600000
v -0.300000 1.000000 -0.600000
v -0.300000 1.100000 -0.600000
v -0.300000 1.300000 -0.600000
v -0.200000 0.500000 -0.600000
v -0.200000 0.700000 -0.600000
v -0.200000 0.800000 -0.600000
v -0.200000 1.000000 -0.600000
v -0.200000 1.100000 -0.600000
v -0.200000 1.300000 -0.600000
v 0.000000 0.500000 -0.600000
v 0.000000 0.700000 -0.600000
v 0.000000 0.800000 -0.600000
v 0.000000 1.000000 -0.600000
v 0.000000 1.100000 -0.600000
v 0.000000 1.300000 -0.600000
v 0.200000 0.500000 -0.600000
v 0.200000 0.700000 -0.600000
v 0.200000 0.800000 -0.600000
v 0.200000 1.000000 -0.600000
v 0.200000 1.100000 -0.600000
v 0.200000 1.300000 -0.600000
v 0.300000 0.500000 -0.600000
v 0.300000 0.700000 -0.600000
v 0.300000 0.800000 -0.600000
v 0.300000 1.000000 -0.600000
v 0.300000 1.100000 -0.600000
v 0.300000 1.300000 -0.600000
v 0.400000 0.500000 -0.600000
v 0.400000 0.700000 -0.600000
v 0.400000 0.800000 -0.600000
v 0.400000 1.000000 -0.600000
v 0.400000 1.100000 -0.600000
v 0.400000 1.300000 -0.600000
v 0.500000 0.500000 -0.600000
v 0.500000 0.700000 -0.600000
v 0.500000 0.800000 -0.600000
v 0.500000 1.000000 -0.600000
v 0.500000 1.100000 -0.600000
v 0.500000 1.300000 -0.600000
v 0.600000 0.400000 -0.600000
v 0.600000 1.500000 -0.600000
v -0.700000 -0.000000 -0.800000
v -0.700000 0.200000 -0.800000
v 0.800000 -0.000000 -0.800000
v 0.800000 0.200000 -0.800000
v -0.700000 0.000000 0.700000
v 0.800000 0.000000 0.700000
v -0.700000 -0.000000 -0.800000
v 0.800000 -0.000000 -0.800000
v -0.500000 0.400000 0.500000
v 0.600000 0.400000 0.500000
v -0.400000 0.400000 0.400000
v -0.300000 0.400000 0.400000
v 0.400000 0.400000 0.400000
v 0.500000 0.400000 0.400000
v -0.400000 0.400000 0.300000
v -0.300000 0.400000 0.300000
v 0.100000 0.400000 0.300000
v 0.200000 0.400000 0.300000
v 0.400000 0.400000 0.300000
v 0.500000 0.400000 0.300000
v -0.400000 0.400000 -0.400000
v -0.300000 0.400000 -0.400000
v 0.400000 0.400000 -0.400000
v 0.500000 0.400000 -0.400000
v -0.400000 0.400000 -0.500000
v -0.300000 0.400000 -0.500000
v 0.400000 0.400000 -0.500000
v 0.500000 0.400000 -0.500000
v -0.500000 0.400000 -0.600000
v 0.600000 0.400000 -0.600000
v -0.700000 0.200000 0.700000
v 0.800000 0.200000 0.700000
v -0.500000 0.200000 0.500000
v 0.600000 0.200000 0.500000
v -0.400000 0.200000 0.400000
v -0.300000 0.200000 0.400000
v 0.400000 0.200000 0.400000
v 0.500000 0.200000 0.400000
v -0.400000 0.200000 0.300000
v -0.300000 0.200000 0.300000
v 0.100000 0.200000 0.300000
v 0.200000 0.200000 0.300000
v 0.400000 0.200000 0.300000
v 0.500000 0.200000 0.300000
v -0.400000 0.200000 -0.400000
v -0.300000 0.200000 -0.400000
v 0.400000 0.200000 -0.400000
v 0.500000 0.200000 -0.400000
v -0.400000 0.200000 -0.500000
v -0.300000 0.200000 -0.500000
v 0.400000 0.200000 -0.500000
v 0.500000 0.200000 -0.500000
v -0.500000 0.200000 -0.600000
v 0.600000 0.200000 -0.600000
v -0.700000 0.200000 -0.800000
v 0.800000 0.200000 -0.800000
v -0.400000 1.400000 0.400000
v 0.500000 1.400000 0.400000
v -0.300000 1.400000 0.300000
v -0.200000 1.400000 0.300000
v -0.100000 1.400000 0.300000
v 0.000000 1.400000 0.300000
v -0.300000 1.400000 0.100000
v -0.200000 1.400000 0.100000
v -0.100000 1.400000 0.100000
v 0.000000 1.400000 0.100000
v 0.200000 1.400000 -0.200000
v 0.400000 1.400000 -0.200000
v 0.200000 1.400000 -0.400000
v 0.400000 1.400000 -0.400000
v -0.400000 1.400000 -0.500000
v 0.500000 1.400000 -0.500000
v -0.500000 1.500000 0.500000
v 0.600000 1.500000 0.500000
v -0.400000 1.500000 0.400000
v 0.500000 1.500000 0.400000
v -0.300000 1.500000 0.300000
v -0.200000 1.500000 0.300000
v -0.100000 1.500000 0.300000
v 0.000000 1.500000 0.300000
v -0.300000 1.500000 0.100000
v -0.200000 1.500000 0.100000
v -0.100000 1.500000 0.100000
v 0.000000 1.500000 0.100000
v 0.200000 1.500000 -0.200000
v 0.400000 1.500000 -0.200000
v 0.200000 1.500000 -0.400000
v 0.400000 1.500000 -0.400000
v -0.400000 1.500000 -0.500000
v 0.500000 1.500000 -0.500000
v -0.500000 1.500000 -0.600000
v 0.600000 1.500000 -0.600000
vn -1.0000 -0.0000 -0.0000
vn 1.0000 -0.0000 -0.0000
vn -0.0000 -0.0000 1.0000
vn -0.0000 -0.0000 -1.0000
vn -0.0000 -1.0000 -0.0000
vn -0.0000 1.0000 -0.0000
vt 0.939453 0.500000
vt 0.783203 0.500000
vt 0.787109 0.500000
vt 0.794922 0.500000
vt 0.791016 0.500000
s 1
usemtl palette
f 3/1/1 2/1/1 1/1/1
f 4/1/1 2/1/1 3/1/1
f 7/2/1 6/2/1 5/2/1
f 8/2/1 6/2/1 7/2/1
f 9/2/1 6/2/1 8/2/1
f 10/2/1 6/2/1 9/2/1
f 11/2/1 6/2/1 10/2/1
f 12/2/1 6/2/1 11/2/1
f 13/2/1 6/2/1 12/2/1
f 14/2/1 6/2/1 13/2/1
f 15/2/1 6/2/1 14/2/1
f 16/2/1 6/2/1 15/2/1
f 17/2/1 7/2/1 5/2/1
f 17/3/1 8/3/1 7/3/1
f 18/2/1 9/2/1 8/2/1
f 18/3/1 8/3/1 17/3/1
f 19/3/1 10/3/1 9/3/1
f 19/2/1 9/2/1 18/2/1
f 20/2/1 11/2/1 10/2/1
f 20/3/1 10/3/1 19/3/1
f 21/3/1 12/3/1 11/3/1
f 21/2/1 11/2/1 20/2/1
f 22/2/1 13/2/1 12/2/1
f 22/3/1 12/3/1 21/3/1
f 23/3/1 14/3/1 13/3/1
f 23/2/1 13/2/1 22/2/1
f 24/2/1 15/2/1 14/2/1
f 24/3/1 14/3/1 23/3/1
f 25/3/1 16/3/1 15/3/1
f 25/2/1 15/2/1 24/2/1
f 26/2/1 6/2/1 16/2/1
f 26/3/1 16/3/1 25/3/1
f 27/2/1 25/2/1 24/2/1
f 27/2/1 24/2/1 23/2/1
f 27/2/1 26/2/1 25/2/1
f 27/2/1 23/2/1 22/2/1
f 27/2/1 22/2/1 21/2/1
f 27/2/1 21/2/1 20/2/1
f 27/2/1 20/2/1 19/2/1
f 27/2/1 19/2/1 18/2/1
f 27/2/1 18/2/1 17/2/1
f 27/2/1 17/2/1 5/2/1
f 28/2/1 26/2/1 27/2/1
f 29/2/1 26/2/1 28/2/1
f 30/2/1 26/2/1 29/2/1
f 31/2/1 26/2/1 30/2/1
f 32/2/1 26/2/1 31/2/1
f 33/2/1 26/2/1 32/2/1
f 34/2/1 26/2/1 33/2/1
f 35/2/1 26/2/1 34/2/1
f 36/2/1 6/2/1 26/2/1
f 36/2/1 26/2/1 35/2/1
f 37/2/1 27/2/1 5/2/1
f 37/3/1 28/3/1 27/3/1
f 38/2/1 29/2/1 28/2/1
f 38/3/1 28/3/1 37/3/1
f 39/3/1 30/3/1 29/3/1
f 39/2/1 29/2/1 38/2/1
f 40/2/1 31/2/1 30/2/1
f 40/3/1 30/3/1 39/3/1
f 41/3/1 32/3/1 31/3/1
f 41/2/1 31/2/1 40/2/1
f 42/2/1 33/2/1 32/2/1
f 42/3/1 32/3/1 41/3/1
f 43/3/1 34/3/1 33/3/1
f 43/2/1 33/2/1 42/2/1
f 44/2/1 35/2/1 34/2/1
f 44/3/1 34/3/1 43/3/1
f 45/3/1 36/3/1 35/3/1
f 45/2/1 35/2/1 44/2/1
f 46/2/1 6/2/1 36/2/1
f 46/3/1 36/3/1 45/3/1
f 47/2/1 43/2/1 42/2/1
f 47/2/1 45/2/1 44/2/1
f 47/2/1 46/2/1 45/2/1
f 47/2/1 42/2/1 41/2/1
f 47/2/1 41/2/1 40/2/1
f 47/2/1 40/2/1 39/2/1
f 47/2/1 39/2/1 38/2/1
f 47/2/1 38/2/1 37/2/1
f 47/2/1 37/2/1 5/2/1
f 47/2/1 44/2/1 43/2/1
f 48/2/1 46/2/1 47/2/1
f 49/2/1 46/2/1 48/2/1
f 50/2/1 46/2/1 49/2/1
f 51/2/1 46/2/1 50/2/1
f 52/2/1 46/2/1 51/2/1
f 53/2/1 46/2/1 52/2/1
f 54/2/1 46/2/1 53/2/1
f 55/2/1 46/2/1 54/2/1
f 56/2/1 6/2/1 46/2/1
f 56/2/1 46/2/1 55/2/1
f 57/2/1 47/2/1 5/2/1
f 57/3/1 48/3/1 47/3/1
f 58/2/1 49/2/1 48/2/1
f 58/3/1 48/3/1 57/3/1
f 59/3/1 50/3/1 49/3/1
f 59/2/1 49/2/1 58/2/1
f 60/2/1 51/2/1 50/2/1
f 60/3/1 50/3/1 59/3/1
f 61/3/1 52/3/1 51/3/1
f 61/2/1 51/2/1 60/2/1
f 62/2/1 53/2/1 52/2/1
f 62/3/1 52/3/1 61/3/1
f 63/3/1 54/3/1 53/3/1
f 63/2/1 53/2/1 62/2/1
f 64/2/1 55/2/1 54/2/1
f 64/3/1 54/3/1 63/3/1
f 65/3/1 56/3/1 55/3/1
f 65/2/1 55/2/1 64/2/1
f 66/2/1 6/2/1 56/2/1
f 66/3/1 56/3/1 65/3/1
f 67/2/1 63/2/1 62/2/1
f 67/2/1 65/2/1 64/2/1
f 67/2/1 66/2/1 65/2/1
f 67/2/1 62/2/1 61/2/1
f 67/2/1 61/2/1 60/2/1
f 67/2/1 60/2/1 59/2/1
f 67/2/1 59/2/1 58/2/1
f 67/2/1 58/2/1 57/2/1
f 67/2/1 57/2/1 5/2/1
f 67/2/1 64/2/1 63/2/1
f 68/2/1 6/2/1 66/2/1
f 68/2/1 66/2/1 67/2/1
f 73/2/1 70/2/1 69/2/1
f 74/2/1 70/2/1 73/2/1
f 75/2/1 72/2/1 71/2/1
f 76/2/1 72/2/1 75/2/1
f 79/2/1 78/2/1 77/2/1
f 80/2/1 78/2/1 79/2/1
f 83/2/1 82/2/1 81/2/1
f 84/2/1 82/2/1 83/2/1
f 87/2/1 86/2/1 85/2/1
f 88/2/1 86/2/1 87/2/1
f 91/2/1 90/2/1 89/2/1
f 92/2/1 90/2/1 91/2/1
f 97/2/1 94/2/1 93/2/1
f 98/2/1 94/2/1 97/2/1
f 99/2/1 96/2/1 95/2/1
f 100/2/1 96/2/1 99/2/1
f 103/2/1 102/2/1 101/2/1
f 104/2/1 102/2/1 103/2/1
f 105/2/2 106/2/2 107/2/2
f 107/2/2 106/2/2 108/2/2
f 109/2/2 110/2/2 113/2/2
f 113/2/2 110/2/2 114/2/2
f 111/2/2 112/2/2 115/2/2
f 115/2/2 112/2/2 116/2/2
f 117/2/2 118/2/2 119/2/2
f 119/2/2 118/2/2 120/2/2
f 121/2/2 122/2/2 123/2/2
f 123/2/2 122/2/2 124/2/2
f 125/2/2 126/2/2 127/2/2
f 127/2/2 126/2/2 128/2/2
f 129/2/2 130/2/2 131/2/2
f 131/2/2 130/2/2 132/2/2
f 133/2/2 134/2/2 137/2/2
f 137/2/2 134/2/2 138/2/2
f 135/2/2 136/2/2 139/2/2
f 139/2/2 136/2/2 140/2/2
f 141/2/2 142/2/2 143/2/2
f 143/2/2 142/2/2 144/2/2
f 144/2/2 142/2/2 145/2/2
f 145/2/2 142/2/2 146/2/2
f 146/2/2 142/2/2 147/2/2
f 147/2/2 142/2/2 148/2/2
f 148/2/2 142/2/2 149/2/2
f 149/2/2 142/2/2 150/2/2
f 150/2/2 142/2/2 151/2/2
f 151/2/2 142/2/2 152/2/2
f 141/2/2 143/2/2 153/2/2
f 143/3/2 144/3/2 153/3/2
f 144/2/2 145/2/2 154/2/2
f 153/3/2 144/3/2 154/3/2
f 145/3/2 146/3/2 155/3/2
f 154/2/2 145/2/2 155/2/2
f 146/2/2 147/2/2 156/2/2
f 155/3/2 146/3/2 156/3/2
f 147/3/2 148/3/2 157/3/2
f 156/2/2 147/2/2 157/2/2
f 148/2/2 149/2/2 158/2/2
f 157/3/2 148/3/2 158/3/2
f 149/3/2 150/3/2 159/3/2
f 158/2/2 149/2/2 159/2/2
f 150/2/2 151/2/2 160/2/2
f 159/3/2 150/3/2 160/3/2
f 151/3/2 152/3/2 161/3/2
f 160/2/2 151/2/2 161/2/2
f 152/2/2 142/2/2 162/2/2
f 161/3/2 152/3/2 162/3/2
f 160/2/2 161/2/2 163/2/2
f 159/2/2 160/2/2 163/2/2
f 161/2/2 162/2/2 163/2/2
f 158/2/2 159/2/2 163/2/2
f 157/2/2 158/2/2 163/2/2
f 156/2/2 157/2/2 163/2/2
f 155/2/2 156/2/2 163/2/2
f 154/2/2 155/2/2 163/2/2
f 153/2/2 154/2/2 163/2/2
f 141/2/2 153/2/2 163/2/2
f 163/2/2 162/2/2 164/2/2
f 164/2/2 162/2/2 165/2/2
f 165/2/2 162/2/2 166/2/2
f 166/2/2 162/2/2 167/2/2
f 167/2/2 162/2/2 168/2/2
f 168/2/2 162/2/2 169/2/2
f 169/2/2 162/2/2 170/2/2
f 170/2/2 162/2/2 171/2/2
f 162/2/2 142/2/2 172/2/2
f 171/2/2 162/2/2 172/2/2
f 141/2/2 163/2/2 173/2/2
f 163/3/2 164/3/2 173/3/2
f 164/2/2 165/2/2 174/2/2
f 173/3/2 164/3/2 174/3/2
f 165/3/2 166/3/2 175/3/2
f 174/2/2 165/2/2 175/2/2
f 166/2/2 167/2/2 176/2/2
f 175/3/2 166/3/2 176/3/2
f 167/3/2 168/3/2 177/3/2
f 176/2/2 167/2/2 177/2/2
f 168/2/2 169/2/2 178/2/2
f 177/3/2 168/3/2 178/3/2
f 169/3/2 170/3/2 179/3/2
f 178/2/2 169/2/2 179/2/2
f 170/2/2 171/2/2 180/2/2
f 179/3/2 170/3/2 180/3/2
f 171/3/2 172/3/2 181/3/2
f 180/2/2 171/2/2 181/2/2
f 172/2/2 142/2/2 182/2/2
f 181/3/2 172/3/2 182/3/2
f 178/2/2 179/2/2 183/2/2
f 180/2/2 181/2/2 183/2/2
f 181/2/2 182/2/2 183/2/2
f 177/2/2 178/2/2 183/2/2
f 176/2/2 177/2/2 183/2/2
f 175/2/2 176/2/2 183/2/2
f 174/2/2 175/2/2 183/2/2
f 173/2/2 174/2/2 183/2/2
f 141/2/2 173/2/2 183/2/2
f 179/2/2 180/2/2 183/2/2
f 183/2/2 182/2/2 184/2/2
f 184/2/2 182/2/2 185/2/2
f 185/2/2 182/2/2 186/2/2
f 186/2/2 182/2/2 187/2/2
f 187/2/2 182/2/2 188/2/2
f 188/2/2 182/2/2 189/2/2
f 189/2/2 182/2/2 190/2/2
f 190/2/2 182/2/2 191/2/2
f 182/2/2 142/2/2 192/2/2
f 191/2/2 182/2/2 192/2/2
f 141/2/2 183/2/2 193/2/2
f 183/3/2 184/3/2 193/3/2
f 184/2/2 185/2/2 194/2/2
f 193/3/2 184/3/2 194/3/2
f 185/3/2 186/3/2 195/3/2
f 194/2/2 185/2/2 195/2/2
f 186/2/2 187/2/2 196/2/2
f 195/3/2 186/3/2 196/3/2
f 187/3/2 188/3/2 197/3/2
f 196/2/2 187/2/2 197/2/2
f 188/2/2 189/2/2 198/2/2
f 197/3/2 188/3/2 198/3/2
f 189/3/2 190/3/2 199/3/2
f 198/2/2 189/2/2 199/2/2
f 190/2/2 191/2/2 200/2/2
f 199/3/2 190/3/2 200/3/2
f 191/3/2 192/3/2 201/3/2
f 200/2/2 191/2/2 201/2/2
f 192/2/2 142/2/2 202/2/2
f 201/3/2 192/3/2 202/3/2
f 198/2/2 199/2/2 203/2/2
f 200/2/2 201/2/2 203/2/2
f 201/2/2 202/2/2 203/2/2
f 197/2/2 198/2/2 203/2/2
f 196/2/2 197/2/2 203/2/2
f 195/2/2 196/2/2 203/2/2
f 194/2/2 195/2/2 203/2/2
f 193/2/2 194/2/2 203/2/2
f 141/2/2 193/2/2 203/2/2
f 199/2/2 200/2/2 203/2/2
f 202/2/2 142/2/2 204/2/2
f 203/2/2 202/2/2 204/2/2
f 205/1/2 206/1/2 207/1/2
f 207/1/2 206/1/2 208/1/2
f 211/1/3 210/1/3 209/1/3
f 212/1/3 210/1/3 211/1/3
f 215/2/3 214/2/3 213/2/3
f 216/2/3 214/2/3 215/2/3
f 217/2/3 214/2/3 216/2/3
f 218/2/3 214/2/3 217/2/3
f 219/2/3 214/2/3 218/2/3
f 220/2/3 214/2/3 219/2/3
f 221/2/3 215/2/3 213/2/3
f 221/3/3 216/3/3 215/3/3
f 222/2/3 217/2/3 216/2/3
f 222/3/3 216/3/3 221/3/3
f 223/3/3 218/3/3 217/3/3
f 223/2/3 217/2/3 222/2/3
f 224/2/3 219/2/3 218/2/3
f 224/3/3 218/3/3 223/3/3
f 225/3/3 220/3/3 219/3/3
f 225/2/3 219/2/3 224/2/3
f 226/2/3 214/2/3 220/2/3
f 226/3/3 220/3/3 225/3/3
f 227/2/3 225/2/3 224/2/3
f 227/2/3 224/2/3 223/2/3
f 227/2/3 226/2/3 225/2/3
f 227/2/3 223/2/3 222/2/3
f 227/2/3 222/2/3 221/2/3
f 227/2/3 221/2/3 213/2/3
f 228/2/3 226/2/3 227/2/3
f 229/2/3 226/2/3 228/2/3
f 230/2/3 226/2/3 229/2/3
f 231/2/3 226/2/3 230/2/3
f 232/2/3 214/2/3 226/2/3
f 232/2/3 226/2/3 231/2/3
f 233/2/3 227/2/3 213/2/3
f 233/3/3 228/3/3 227/3/3
f 234/2/3 229/2/3 228/2/3
f 234/3/3 228/3/3 233/3/3
f 235/3/3 230/3/3 229/3/3
f 235/2/3 229/2/3 234/2/3
f 236/2/3 231/2/3 230/2/3
f 236/3/3 230/3/3 235/3/3
f 237/3/3 232/3/3 231/3/3
f 237/2/3 231/2/3 236/2/3
f 238/2/3 214/2/3 232/2/3
f 238/3/3 232/3/3 237/3/3
f 239/2/3 235/2/3 234/2/3
f 239/2/3 237/2/3 236/2/3
f 239/2/3 238/2/3 237/2/3
f 239/2/3 234/2/3 233/2/3
f 239/2/3 233/2/3 213/2/3
f 239/2/3 236/2/3 235/2/3
f 240/2/3 238/2/3 239/2/3
f 241/2/3 238/2/3 240/2/3
f 242/2/3 238/2/3 241/2/3
f 243/2/3 238/2/3 242/2/3
f 244/2/3 214/2/3 238/2/3
f 244/2/3 238/2/3 243/2/3
f 245/2/3 239/2/3 213/2/3
f 245/3/3 240/3/3 239/3/3
f 246/2/3 241/2/3 240/2/3
f 246/3/3 240/3/3 245/3/3
f 247/3/3 242/3/3 241/3/3
f 247/2/3 241/2/3 246/2/3
f 248/2/3 243/2/3 242/2/3
f 248/3/3 242/3/3 247/3/3
f 249/3/3 244/3/3 243/3/3
f 249/2/3 243/2/3 248/2/3
f 250/2/3 214/2/3 244/2/3
f 250/3/3 244/3/3 249/3/3
f 251/2/3 247/2/3 246/2/3
f 251/2/3 249/2/3 248/2/3
f 251/2/3 250/2/3 249/2/3
f 251/2/3 246/2/3 245/2/3
f 251/2/3 245/2/3 213/2/3
f 251/2/3 248/2/3 247/2/3
f 252/2/3 250/2/3 251/2/3
f 253/2/3 250/2/3 252/2/3
f 254/2/3 250/2/3 253/2/3
f 255/2/3 250/2/3 254/2/3
f 256/2/3 214/2/3 250/2/3
f 256/2/3 250/2/3 255/2/3
f 257/2/3 251/2/3 213/2/3
f 257/3/3 252/3/3 251/3/3
f 258/2/3 253/2/3 252/2/3
f 258/3/3 252/3/3 257/3/3
f 259/3/3 254/3/3 253/3/3
f 259/2/3 253/2/3 258/2/3
f 260/2/3 255/2/3 254/2/3
f 260/3/3 254/3/3 259/3/3
f 261/3/3 256/3/3 255/3/3
f 261/2/3 255/2/3 260/2/3
f 262/2/3 214/2/3 256/2/3
f 262/3/3 256/3/3 261/3/3
f 263/2/3 259/2/3 258/2/3
f 263/2/3 261/2/3 260/2/3
f 263/2/3 262/2/3 261/2/3
f 263/2/3 258/2/3 257/2/3
f 263/2/3 257/2/3 213/2/3
f 263/2/3 260/2/3 259/2/3
f 264/2/3 214/2/3 262/2/3
f 264/2/3 262/2/3 263/2/3
f 267/2/3 266/2/3 265/2/3
f 268/2/3 266/2/3 267/2/3
f 271/2/3 270/2/3 269/2/3
f 272/2/3 270/2/3 271/2/3
f 277/2/3 276/2/3 275/2/3
f 278/2/3 276/2/3 277/2/3
f 281/2/3 280/2/3 279/2/3
f 282/2/3 280/2/3 281/2/3
f 283/2/3 274/2/3 273/2/3
f 284/2/3 274/2/3 283/2/3
f 285/3/3 284/3/3 283/3/3
f 286/3/3 284/3/3 285/3/3
f 287/2/3 286/2/3 285/2/3
f 288/2/3 286/2/3 287/2/3
f 291/2/3 290/2/3 289/2/3
f 292/2/3 290/2/3 291/2/3
f 295/2/3 294/2/3 293/2/3
f 296/2/3 294/2/3 295/2/3
f 299/2/3 298/2/3 297/2/3
f 300/2/3 298/2/3 299/2/3
f 303/2/3 302/2/3 301/2/3
f 304/2/3 302/2/3 303/2/3
f 305/2/4 306/2/4 307/2/4
f 307/2/4 306/2/4 308/2/4
f 309/2/4 310/2/4 311/2/4
f 311/2/4 310/2/4 312/2/4
f 313/2/4 314/2/4 315/2/4
f 315/2/4 314/2/4 316/2/4
f 317/2/4 318/2/4 319/2/4
f 319/2/4 318/2/4 320/2/4
f 321/2/4 322/2/4 323/2/4
f 323/2/4 322/2/4 324/2/4
f 325/2/4 326/2/4 329/2/4
f 329/2/4 326/2/4 330/2/4
f 327/2/4 328/2/4 331/2/4
f 331/2/4 328/2/4 332/2/4
f 333/2/4 334/2/4 335/2/4
f 335/2/4 334/2/4 336/2/4
f 337/2/4 338/2/4 339/2/4
f 339/2/4 338/2/4 340/2/4
f 341/2/4 342/2/4 343/2/4
f 343/2/4 342/2/4 344/2/4
f 344/2/4 342/2/4 345/2/4
f 345/2/4 342/2/4 346/2/4
f 346/2/4 342/2/4 347/2/4
f 347/2/4 342/2/4 348/2/4
f 341/2/4 343/2/4 349/2/4
f 343/3/4 344/3/4 349/3/4
f 344/2/4 345/2/4 350/2/4
f 349/3/4 344/3/4 350/3/4
f 345/3/4 346/3/4 351/3/4
f 350/2/4 345/2/4 351/2/4
f 346/2/4 347/2/4 352/2/4
f 351/3/4 346/3/4 352/3/4
f 347/3/4 348/3/4 353/3/4
f 352/2/4 347/2/4 353/2/4
f 348/2/4 342/2/4 354/2/4
f 353/3/4 348/3/4 354/3/4
f 352/2/4 353/2/4 355/2/4
f 351/2/4 352/2/4 355/2/4
f 353/2/4 354/2/4 355/2/4
f 350/2/4 351/2/4 355/2/4
f 349/2/4 350/2/4 355/2/4
f 341/2/4 349/2/4 355/2/4
f 355/2/4 354/2/4 356/2/4
f 356/2/4 354/2/4 357/2/4
f 357/2/4 354/2/4 358/2/4
f 358/2/4 354/2/4 359/2/4
f 354/2/4 342/2/4 360/2/4
f 359/2/4 354/2/4 360/2/4
f 341/2/4 355/2/4 361/2/4
f 355/3/4 356/3/4 361/3/4
f 356/2/4 357/2/4 362/2/4
f 361/3/4 356/3/4 362/3/4
f 357/3/4 358/3/4 363/3/4
f 362/2/4 357/2/4 363/2/4
f 358/2/4 359/2/4 364/2/4
f 363/3/4 358/3/4 364/3/4
f 359/3/4 360/3/4 365/3/4
f 364/2/4 359/2/4 365/2/4
f 360/2/4 342/2/4 366/2/4
f 365/3/4 360/3/4 366/3/4
f 362/2/4 363/2/4 367/2/4
f 364/2/4 365/2/4 367/2/4
f 365/2/4 366/2/4 367/2/4
f 361/2/4 362/2/4 367/2/4
f 341/2/4 361/2/4 367/2/4
f 363/2/4 364/2/4 367/2/4
f 367/2/4 366/2/4 368/2/4
f 368/2/4 366/2/4 369/2/4
f 369/2/4 366/2/4 370/2/4
f 370/2/4 366/2/4 371/2/4
f 366/2/4 342/2/4 372/2/4
f 371/2/4 366/2/4 372/2/4
f 341/2/4 367/2/4 373/2/4
f 367/3/4 368/3/4 373/3/4
f 368/2/4 369/2/4 374/2/4
f 373/3/4 368/3/4 374/3/4
f 369/3/4 370/3/4 375/3/4
f 374/2/4 369/2/4 375/2/4
f 370/2/4 371/2/4 376/2/4
f 375/3/4 370/3/4 376/3/4
f 371/3/4 372/3/4 377/3/4
f 376/2/4 371/2/4 377/2/4
f 372/2/4 342/2/4 378/2/4
f 377/3/4 372/3/4 378/3/4
f 374/2/4 375/2/4 379/2/4
f 376/2/4 377/2/4 379/2/4
f 377/2/4 378/2/4 379/2/4
f 373/2/4 374/2/4 379/2/4
f 341/2/4 373/2/4 379/2/4
f 375/2/4 376/2/4 379/2/4
f 379/2/4 378/2/4 380/2/4
f 380/2/4 378/2/4 381/2/4
f 381/2/4 378/2/4 382/2/4
f 382/2/4 378/2/4 383/2/4
f 378/2/4 342/2/4 384/2/4
f 383/2/4 378/2/4 384/2/4
f 341/2/4 379/2/4 385/2/4
f 379/3/4 380/3/4 385/3/4
f 380/2/4 381/2/4 386/2/4
f 385/3/4 380/3/4 386/3/4
f 381/3/4 382/3/4 387/3/4
f 386/2/4 381/2/4 387/2/4
f 382/2/4 383/2/4 388/2/4
f 387/3/4 382/3/4 388/3/4
f 383/3/4 384/3/4 389/3/4
f 388/2/4 383/2/4 389/2/4
f 384/2/4 342/2/4 390/2/4
f 389/3/4 384/3/4 390/3/4
f 386/2/4 387/2/4 391/2/4
f 388/2/4 389/2/4 391/2/4
f 389/2/4 390/2/4 391/2/4
f 385/2/4 386/2/4 391/2/4
f 341/2/4 385/2/4 391/2/4
f 387/2/4 388/2/4 391/2/4
f 390/2/4 342/2/4 392/2/4
f 391/2/4 390/2/4 392/2/4
f 393/1/4 394/1/4 395/1/4
f 395/1/4 394/1/4 396/1/4
f 399/1/5 398/1/5 397/1/5
f 400/1/5 398/1/5 399/1/5
f 403/2/5 402/2/5 401/2/5
f 404/2/5 402/2/5 403/2/5
f 405/2/5 402/2/5 404/2/5
f 406/2/5 402/2/5 405/2/5
f 407/2/5 403/2/5 401/2/5
f 408/2/5 405/2/5 404/2/5
f 409/2/5 405/2/5 408/2/5
f 410/2/5 405/2/5 409/2/5
f 411/2/5 405/2/5 410/2/5
f 412/2/5 402/2/5 406/2/5
f 413/2/5 407/2/5 401/2/5
f 413/2/5 408/2/5 407/2/5
f 414/2/5 408/2/5 413/2/5
f 415/2/5 412/2/5 411/2/5
f 416/2/5 402/2/5 412/2/5
f 416/2/5 412/2/5 415/2/5
f 417/2/5 413/2/5 401/2/5
f 418/2/5 415/2/5 414/2/5
f 419/2/5 415/2/5 418/2/5
f 420/2/5 402/2/5 416/2/5
f 421/2/5 419/2/5 418/2/5
f 421/2/5 420/2/5 419/2/5
f 421/2/5 417/2/5 401/2/5
f 421/2/5 418/2/5 417/2/5
f 422/2/5 402/2/5 420/2/5
f 422/2/5 420/2/5 421/2/5
f 423/1/6 424/1/6 425/1/6
f 425/1/6 424/1/6 426/1/6
f 425/4/6 426/4/6 427/4/6
f 427/4/6 426/4/6 428/4/6
f 428/4/6 426/4/6 429/4/6
f 429/4/6 426/4/6 430/4/6
f 425/4/6 427/4/6 431/4/6
f 428/4/6 429/4/6 432/4/6
f 432/4/6 429/4/6 433/4/6
f 433/4/6 429/4/6 434/4/6
f 434/4/6 429/4/6 435/4/6
f 430/4/6 426/4/6 436/4/6
f 425/4/6 431/4/6 437/4/6
f 431/4/6 432/4/6 437/4/6
f 437/4/6 432/4/6 438/4/6
f 435/4/6 436/4/6 439/4/6
f 436/4/6 426/4/6 440/4/6
f 439/4/6 436/4/6 440/4/6
f 425/4/6 437/4/6 441/4/6
f 438/4/6 439/4/6 442/4/6
f 442/4/6 439/4/6 443/4/6
f 440/4/6 426/4/6 444/4/6
f 423/1/6 425/1/6 445/1/6
f 443/4/6 444/4/6 445/4/6
f 442/4/6 443/4/6 445/4/6
f 425/4/6 441/4/6 445/4/6
f 441/4/6 442/4/6 445/4/6
f 444/4/6 426/4/6 446/4/6
f 445/4/6 444/4/6 446/4/6
f 426/1/6 424/1/6 446/1/6
f 423/1/6 445/1/6 447/1/6
f 445/1/6 446/1/6 447/1/6
f 446/1/6 424/1/6 448/1/6
f 447/1/6 446/1/6 448/1/6
f 449/5/6 450/5/6 451/5/6
f 451/5/6 450/5/6 452/5/6
f 452/5/6 450/5/6 453/5/6
f 453/5/6 450/5/6 454/5/6
f 449/5/6 451/5/6 455/5/6
f 452/5/6 453/5/6 456/5/6
f 456/5/6 453/5/6 457/5/6
f 454/5/6 450/5/6 458/5/6
f 456/5/6 457/5/6 459/5/6
f 457/5/6 458/5/6 459/5/6
f 458/5/6 450/5/6 459/5/6
f 455/5/6 456/5/6 459/5/6
f 459/5/6 450/5/6 460/5/6
f 455/5/6 459/5/6 461/5/6
f 460/5/6 450/5/6 462/5/6
f 449/5/6 455/5/6 463/5/6
f 461/5/6 462/5/6 463/5/6
f 455/5/6 461/5/6 463/5/6
f 462/5/6 450/5/6 464/5/6
f 463/5/6 462/5/6 464/5/6
f 465/2/6 466/2/6 467/2/6
f 467/2/6 466/2/6 468/2/6
f 469/2/6 470/2/6 473/2/6
f 473/2/6 470/2/6 474/2/6
f 471/2/6 472/2/6 475/2/6
f 475/2/6 472/2/6 476/2/6
f 477/2/6 478/2/6 479/2/6
f 479/2/6 478/2/6 480/2/6
f 465/2/6 467/2/6 481/2/6
f 468/2/6 466/2/6 482/2/6
f 465/2/6 481/2/6 483/2/6
f 481/2/6 482/2/6 483/2/6
f 482/2/6 466/2/6 484/2/6
f 483/2/6 482/2/6 484/2/6
