# Blender 4.3.2
# www.blender.org
mtllib Building05.mtl
o Building05
v -0.700000 0.000000 0.700000
v -0.700000 -0.000000 -0.800000
v -0.700000 0.200000 0.700000
v -0.700000 0.200000 -0.800000
v -0.500000 0.200000 0.500000
v -0.500000 0.200000 -0.600000
v -0.500000 0.500000 0.400000
v -0.500000 0.500000 0.300000
v -0.500000 0.500000 0.200000
v -0.500000 0.500000 0.100000
v -0.500000 0.500000 -0.000000
v -0.500000 0.500000 -0.100000
v -0.500000 0.500000 -0.200000
v -0.500000 0.500000 -0.300000
v -0.500000 0.500000 -0.400000
v -0.500000 0.500000 -0.500000
v -0.500000 0.700000 0.400000
v -0.500000 0.700000 0.300000
v -0.500000 0.700000 0.200000
v -0.500000 0.700000 0.100000
v -0.500000 0.700000 -0.000000
v -0.500000 0.700000 -0.100000
v -0.500000 0.700000 -0.200000
v -0.500000 0.700000 -0.300000
v -0.500000 0.700000 -0.400000
v -0.500000 0.700000 -0.500000
v -0.500000 0.800000 0.400000
v -0.500000 0.800000 0.300000
v -0.500000 0.800000 0.200000
v -0.500000 0.800000 0.100000
v -0.500000 0.800000 -0.000000
v -0.500000 0.800000 -0.100000
v -0.500000 0.800000 -0.200000
v -0.500000 0.800000 -0.300000
v -0.500000 0.800000 -0.400000
v -0.500000 0.800000 -0.500000
v -0.500000 1.000000 0.400000
v -0.500000 1.000000 0.300000
v -0.500000 1.000000 0.200000
v -0.500000 1.000000 0.100000
v -0.500000 1.000000 -0.000000
v -0.500000 1.000000 -0.100000
v -0.500000 1.000000 -0.200000
v -0.500000 1.000000 -0.300000
v -0.500000 1.000000 -0.400000
v -0.500000 1.000000 -0.500000
v -0.500000 1.100000 0.400000
v -0.500000 1.100000 0.300000
v -0.500000 1.100000 0.200000
v -0.500000 1.100000 0.100000
v -0.500000 1.100000 -0.000000
v -0.500000 1.100000 -0.100000
v -0.500000 1.100000 -0.200000
v -0.500000 1.100000 -0.300000
v -0.500000 1.100000 -0.400000
v -0.500000 1.100000 -0.500000
v -0.500000 1.300000 0.400000
v -0.500000 1.300000 0.300000
v -0.500000 1.300000 0.200000
v -0.500000 1.300000 0.100000
v -0.500000 1.300000 -0.000000
v -0.500000 1.300000 -0.100000
v -0.500000 1.300000 -0.200000
v -0.500000 1.300000 -0.300000
v -0.500000 1.300000 -0.400000
v -0.500000 1.300000 -0.500000
v -0.500000 1.500000 0.500000
v -0.500000 1.500000 -0.600000
v -0.300000 1.400000 0.300000
v -0.300000 1.400000 0.100000
v -0.300000 1.500000 0.300000
v -0.300000 1.500000 0.100000
v -0.100000 0.200000 0.500000
v -0.100000 0.200000 0.400000
v -0.100000 0.400000 0.500000
v -0.100000 0.400000 0.400000
v -0.100000 1.400000 0.100000
v -0.100000 1.400000 -0.500000
v -0.100000 1.500000 0.100000
v -0.100000 1.500000 -0.500000
v 0.200000 0.400000 -0.300000
v 0.200000 0.400000 -0.400000
v 0.200000 0.500000 -0.300000
v 0.200000 0.500000 -0.400000
v 0.200000 1.400000 0.300000
v 0.200000 1.400000 0.200000
v 0.200000 1.500000 0.300000
v 0.200000 1.500000 0.200000
v 0.300000 0.200000 -0.300000
v 0.300000 0.200000 -0.400000
v 0.300000 0.400000 -0.200000
v 0.300000 0.400000 -0.300000
v 0.300000 0.400000 -0.400000
v 0.300000 0.400000 -0.500000
v 0.300000 0.500000 -0.200000
v 0.300000 0.500000 -0.300000
v 0.300000 0.500000 -0.400000
v 0.300000 0.500000 -0.500000
v 0.300000 0.600000 -0.300000
v 0.300000 0.600000 -0.400000
v 0.500000 1.400000 0.400000
v 0.500000 1.400000 0.100000
v 0.500000 1.500000 0.400000
v 0.500000 1.500000 0.100000
v -0.400000 1.400000 0.400000
v -0.400000 1.400000 -0.500000
v -0.400000 1.500000 0.400000
v -0.400000 1.500000 -0.500000
v -0.300000 0.200000 0.500000
v -0.300000 0.200000 0.400000
v -0.300000 0.400000 0.500000
v -0.300000 0.400000 0.400000
v -0.200000 1.400000 0.300000
v -0.200000 1.400000 0.100000
v -0.200000 1.500000 0.300000
v -0.200000 1.500000 0.100000
v 0.000000 0.200000 -0.000000
v 0.000000 0.200000 -0.600000
v 0.000000 0.500000 -0.100000
v 0.000000 0.500000 -0.200000
v 0.000000 0.500000 -0.300000
v 0.000000 0.500000 -0.500000
v 0.000000 0.700000 -0.100000
v 0.000000 0.700000 -0.200000
v 0.000000 0.700000 -0.300000
v 0.000000 0.700000 -0.500000
v 0.000000 0.800000 -0.100000
v 0.000000 0.800000 -0.300000
v 0.000000 0.800000 -0.400000
v 0.000000 0.800000 -0.500000
v 0.000000 1.000000 -0.100000
v 0.000000 1.000000 -0.300000
v 0.000000 1.000000 -0.400000
v 0.000000 1.000000 -0.500000
v 0.000000 1.100000 -0.100000
v 0.000000 1.100000 -0.200000
v 0.000000 1.100000 -0.300000
v 0.000000 1.100000 -0.500000
v 0.000000 1.300000 -0.100000
v 0.000000 1.300000 -0.200000
v 0.000000 1.300000 -0.300000
v 0.000000 1.300000 -0.500000
v 0.000000 1.500000 -0.000000
v 0.000000 1.500000 -0.600000
v 0.400000 0.200000 -0.300000
v 0.400000 0.200000 -0.400000
v 0.400000 0.400000 -0.200000
v 0.400000 0.400000 -0.300000
v 0.400000 0.400000 -0.400000
v 0.400000 0.400000 -0.500000
v 0.400000 0.500000 -0.200000
v 0.400000 0.500000 -0.300000
v 0.400000 0.500000 -0.400000
v 0.400000 0.500000 -0.500000
v 0.400000 0.600000 -0.300000
v 0.400000 0.600000 -0.400000
v 0.400000 1.400000 0.300000
v 0.400000 1.400000 0.200000
v 0.400000 1.500000 0.300000
v 0.400000 1.500000 0.200000
v 0.500000 0.400000 -0.300000
v 0.500000 0.400000 -0.400000
v 0.500000 0.500000 -0.300000
v 0.500000 0.500000 -0.400000
v 0.600000 0.200000 0.500000
v 0.600000 0.200000 -0.000000
v 0.600000 0.500000 0.400000
v 0.600000 0.500000 0.300000
v 0.600000 0.500000 0.200000
v 0.600000 0.500000 0.100000
v 0.600000 0.700000 0.400000
v 0.600000 0.700000 0.300000
v 0.600000 0.700000 0.200000
v 0.600000 0.700000 0.100000
v 0.600000 0.800000 0.400000
v 0.600000 0.800000 0.300000
v 0.600000 0.800000 0.200000
v 0.600000 0.800000 0.100000
v 0.600000 1.000000 0.400000
v 0.600000 1.000000 0.300000
v 0.600000 1.000000 0.200000
v 0.600000 1.000000 0.100000
v 0.600000 1.100000 0.400000
v 0.600000 1.100000 0.300000
v 0.600000 1.100000 0.200000
v 0.600000 1.100000 0.100000
v 0.600000 1.300000 0.400000
v 0.600000 1.300000 0.300000
v 0.600000 1.300000 0.200000
v 0.600000 1.300000 0.100000
v 0.600000 1.500000 0.500000
v 0.600000 1.500000 -0.000000
v 0.800000 0.000000 0.700000
v 0.800000 -0.000000 -0.800000
v 0.800000 0.200000 0.700000
v 0.800000 0.200000 -0.800000
v -0.700000 0.000000 0.700000
v -0.700000 0.200000 0.700000
v 0.800000 0.000000 0.700000
v 0.800000 0.200000 0.700000
v -0.500000 0.200000 0.500000
v -0.500000 1.500000 0.500000
v -0.400000 0.500000 0.500000
v -0.400000 0.700000 0.500000
v -0.400000 0.800000 0.500000
v -0.400000 1.000000 0.500000
v -0.400000 1.100000 0.500000
v -0.400000 1.300000 0.500000
v -0.300000 0.200000 0.500000
v -0.300000 0.400000 0.500000
v -0.300000 0.500000 0.500000
v -0.300000 0.700000 0.500000
v -0.300000 0.800000 0.500000
v -0.300000 1.000000 0.500000
v -0.300000 1.100000 0.500000
v -0.300000 1.300000 0.500000
v -0.200000 0.500000 0.500000
v -0.200000 0.700000 0.500000
v -0.200000 0.800000 0.500000
v -0.200000 1.000000 0.500000
v -0.200000 1.100000 0.500000
v -0.200000 1.300000 0.500000
v -0.100000 0.200000 0.500000
v -0.100000 0.400000 0.500000
v -0.100000 0.500000 0.500000
v -0.100000 0.700000 0.500000
v -0.100000 0.800000 0.500000
v -0.100000 1.000000 0.500000
v -0.100000 1.100000 0.500000
v -0.100000 1.300000 0.500000
v 0.000000 0.500000 0.500000
v 0.000000 0.700000 0.500000
v 0.000000 0.800000 0.500000
v 0.000000 1.000000 0.500000
v 0.000000 1.100000 0.500000
v 0.000000 1.300000 0.500000
v 0.100000 0.500000 0.500000
v 0.100000 0.700000 0.500000
v 0.100000 0.800000 0.500000
v 0.100000 1.000000 0.500000
v 0.100000 1.100000 0.500000
v 0.100000 1.300000 0.500000
v 0.200000 0.500000 0.500000
v 0.200000 0.700000 0.500000
v 0.200000 0.800000 0.500000
v 0.200000 1.000000 0.500000
v 0.200000 1.100000 0.500000
v 0.200000 1.300000 0.500000
v 0.300000 0.500000 0.500000
v 0.300000 0.700000 0.500000
v 0.300000 0.800000 0.500000
v 0.300000 1.000000 0.500000
v 0.300000 1.100000 0.500000
v 0.300000 1.300000 0.500000
v 0.400000 0.500000 0.500000
v 0.400000 0.700000 0.500000
v 0.400000 0.800000 0.500000
v 0.400000 1.000000 0.500000
v 0.400000 1.100000 0.500000
v 0.400000 1.300000 0.500000
v 0.500000 0.500000 0.500000
v 0.500000 0.700000 0.500000
v 0.500000 0.800000 0.500000
v 0.500000 1.000000 0.500000
v 0.500000 1.100000 0.500000
v 0.500000 1.300000 0.500000
v 0.600000 0.200000 0.500000
v 0.600000 1.500000 0.500000
v -0.300000 0.200000 0.400000
v -0.300000 0.400000 0.400000
v -0.100000 0.200000 0.400000
v -0.100000 0.400000 0.400000
v -0.300000 1.400000 0.300000
v -0.300000 1.500000 0.300000
v -0.200000 1.400000 0.300000
v -0.200000 1.500000 0.300000
v 0.200000 1.400000 0.300000
v 0.200000 1.500000 0.300000
v 0.400000 1.400000 0.300000
v 0.400000 1.500000 0.300000
v -0.100000 1.400000 0.100000
v -0.100000 1.500000 0.100000
v 0.500000 1.400000 0.100000
v 0.500000 1.500000 0.100000
v 0.300000 0.400000 -0.200000
v 0.300000 0.500000 -0.200000
v 0.400000 0.400000 -0.200000
v 0.400000 0.500000 -0.200000
v 0.200000 0.400000 -0.300000
v 0.200000 0.500000 -0.300000
v 0.300000 0.200000 -0.300000
v 0.300000 0.400000 -0.300000
v 0.300000 0.500000 -0.300000
v 0.300000 0.600000 -0.300000
v 0.400000 0.200000 -0.300000
v 0.400000 0.400000 -0.300000
v 0.400000 0.500000 -0.300000
v 0.400000 0.600000 -0.300000
v 0.500000 0.400000 -0.300000
v 0.500000 0.500000 -0.300000
v -0.400000 1.400000 -0.500000
v -0.400000 1.500000 -0.500000
v -0.100000 1.400000 -0.500000
v -0.100000 1.500000 -0.500000
v -0.400000 1.400000 0.400000
v -0.400000 1.500000 0.400000
v 0.500000 1.400000 0.400000
v 0.500000 1.500000 0.400000
v 0.200000 1.400000 0.200000
v 0.200000 1.500000 0.200000
v 0.400000 1.400000 0.200000
v 0.400000 1.500000 0.200000
v -0.300000 1.400000 0.100000
v -0.300000 1.500000 0.100000
v -0.200000 1.400000 0.100000
v -0.200000 1.500000 0.100000
v 0.000000 0.200000 -0.000000
v 0.000000 1.500000 -0.000000
v 0.100000 0.500000 -0.000000
v 0.100000 0.700000 -0.000000
v 0.100000 0.800000 -0.000000
v 0.100000 1.000000 -0.000000
v 0.100000 1.100000 -0.000000
v 0.100000 1.300000 -0.000000
v 0.200000 0.500000 -0.000000
v 0.200000 0.700000 -0.000000
v 0.200000 1.100000 -0.000000
v 0.200000 1.300000 -0.000000
v 0.300000 0.500000 -0.000000
v 0.300000 0.700000 -0.000000
v 0.300000 0.800000 -0.000000
v 0.300000 1.000000 -0.000000
v 0.300000 1.100000 -0.000000
v 0.300000 1.300000 -0.000000
v 0.400000 0.800000 -0.000000
v 0.400000 1.000000 -0.000000
v 0.500000 0.500000 -0.000000
v 0.500000 0.700000 -0.000000
v 0.500000 0.800000 -0.000000
v 0.500000 1.000000 -0.000000
v 0.500000 1.100000 -0.000000
v 0.500000 1.300000 -0.000000
v 0.600000 0.200000 -0.000000
v 0.600000 1.500000 -0.000000
v 0.200000 0.400000 -0.400000
v 0.200000 0.500000 -0.400000
v 0.300000 0.200000 -0.400000
v 0.300000 0.400000 -0.400000
v 0.300000 0.500000 -0.400000
v 0.300000 0.600000 -0.400000
v 0.400000 0.200000 -0.400000
v 0.400000 0.400000 -0.400000
v 0.400000 0.500000 -0.400000
v 0.400000 0.600000 -0.400000
v 0.500000 0.400000 -0.400000
v 0.500000 0.500000 -0.400000
v 0.300000 0.400000 -0.500000
v 0.300000 0.500000 -0.500000
v 0.400000 0.400000 -0.500000
v 0.400000 0.500000 -0.500000
v -0.500000 0.200000 -0.600000
v -0.500000 1.500000 -0.600000
v -0.400000 0.500000 -0.600000
v -0.400000 0.700000 -0.600000
v -0.400000 0.800000 -0.600000
v -0.400000 1.000000 -0.600000
v -0.400000 1.100000 -0.600000
v -0.400000 1.300000 -0.600000
v -0.300000 0.500000 -0.600000
v -0.300000 0.700000 -0.600000
v -0.300000 0.800000 -0.600000
v -0.300000 1.000000 -0.600000
v -0.300000 1.100000 -0.600000
v -0.300000 1.300000 -0.600000
v -0.200000 0.500000 -0.600000
v -0.200000 0.700000 -0.600000
v -0.200000 0.800000 -0.600000
v -0.200000 1.000000 -0.600000
v -0.200000 1.100000 -0.600000
v -0.200000 1.300000 -0.600000
v -0.100000 0.500000 -0.600000
v -0.100000 0.700000 -0.600000
v -0.100000 0.800000 -0.600000
v -0.100000 1.000000 -0.600000
v -0.100000 1.100000 -0.600000
v -0.100000 1.300000 -0.600000
v 0.000000 0.200000 -0.600000
v 0.000000 1.500000 -0.600000
v -0.700000 -0.000000 -0.800000
v -0.700000 0.200000 -0.800000
v 0.800000 -0.000000 -0.800000
v 0.800000 0.200000 -0.800000
v -0.700000 0.000000 0.700000
v 0.800000 0.000000 0.700000
v -0.700000 -0.000000 -0.800000
v 0.800000 -0.000000 -0.800000
v -0.300000 0.400000 0.500000
v -0.100000 0.400000 0.500000
v -0.300000 0.400000 0.400000
v -0.100000 0.400000 0.400000
v 0.300000 0.400000 -0.200000
v 0.400000 0.400000 -0.200000
v 0.200000 0.400000 -0.300000
v 0.300000 0.400000 -0.300000
v 0.400000 0.400000 -0.300000
v 0.500000 0.400000 -0.300000
v 0.200000 0.400000 -0.400000
v 0.300000 0.400000 -0.400000
v 0.400000 0.400000 -0.400000
v 0.500000 0.400000 -0.400000
v 0.300000 0.400000 -0.500000
v 0.400000 0.400000 -0.500000
v -0.700000 0.200000 0.700000
v 0.800000 0.200000 0.700000
v -0.500000 0.200000 0.500000
v -0.300000 0.200000 0.500000
v -0.100000 0.200000 0.500000
v 0.600000 0.200000 0.500000
v -0.300000 0.200000 0.400000
v -0.100000 0.200000 0.400000
v 0.000000 0.200000 -0.000000
v 0.600000 0.200000 -0.000000
v 0.100000 0.200000 -0.100000
v 0.500000 0.200000 -0.100000
v 0.300000 0.200000 -0.300000
v 0.400000 0.200000 -0.300000
v 0.300000 0.200000 -0.400000
v 0.400000 0.200000 -0.400000
v 0.100000 0.200000 -0.500000
v 0.500000 0.200000 -0.500000
v -0.500000 0.200000 -0.600000
v 0.000000 0.200000 -0.600000
v 0.600000 0.200000 -0.600000
v -0.700000 0.200000 -0.800000
v 0.800000 0.200000 -0.800000
v 0.300000 0.500000 -0.200000
v 0.400000 0.500000 -0.200000
v 0.200000 0.500000 -0.300000
v 0.300000 0.500000 -0.300000
v 0.400000 0.500000 -0.300000
v 0.500000 0.500000 -0.300000
v 0.200000 0.500000 -0.400000
v 0.300000 0.500000 -0.400000
v 0.400000 0.500000 -0.400000
v 0.500000 0.500000 -0.400000
v 0.300000 0.500000 -0.500000
v 0.400000 0.500000 -0.500000
v 0.300000 0.600000 -0.300000
v 0.400000 0.600000 -0.300000
v 0.300000 0.600000 -0.400000
v 0.400000 0.600000 -0.400000
v -0.400000 1.400000 0.400000
v 0.500000 1.400000 0.400000
v -0.300000 1.400000 0.300000
v -0.200000 1.400000 0.300000
v 0.200000 1.400000 0.300000
v 0.400000 1.400000 0.300000
v 0.200000 1.400000 0.200000
v 0.400000 1.400000 0.200000
v -0.300000 1.400000 0.100000
v -0.200000 1.400000 0.100000
v -0.100000 1.400000 0.100000
v 0.500000 1.400000 0.100000
v -0.400000 1.400000 -0.500000
v -0.100000 1.400000 -0.500000
v -0.500000 1.500000 0.500000
v 0.600000 1.500000 0.500000
v -0.400000 1.500000 0.400000
v 0.500000 1.500000 0.400000
v -0.300000 1.500000 0.300000
v -0.200000 1.500000 0.300000
v 0.200000 1.500000 0.300000
v 0.400000 1.500000 0.300000
v 0.200000 1.500000 0.200000
v 0.400000 1.500000 0.200000
v -0.300000 1.500000 0.100000
v -0.200000 1.500000 0.100000
v -0.100000 1.500000 0.100000
v 0.500000 1.500000 0.100000
v 0.000000 1.500000 -0.000000
v 0.600000 1.500000 -0.000000
v -0.400000 1.500000 -0.500000
v -0.100000 1.500000 -0.500000
v -0.500000 1.500000 -0.600000
v 0.000000 1.500000 -0.600000
vn -1.0000 -0.0000 -0.0000
vn 1.0000 -0.0000 -0.0000
vn -0.0000 -0.0000 1.0000
vn -0.0000 -0.0000 -1.0000
vn -0.0000 -1.0000 -0.0000
vn -0.0000 1.0000 -0.0000
vt 0.939453 0.500000
vt 0.783203 0.500000
vt 0.787109 0.500000
vt 0.806641 0.500000
vt 0.802734 0.500000
vt 0.794922 0.500000
vt 0.798828 0.500000
vt 0.791016 0.500000
s 1
usemtl palette
f 3/1/1 2/1/1 1/1/1
f 4/1/1 2/1/1 3/1/1
f 7/2/1 6/2/1 5/2/1
f 8/2/1 6/2/1 7/2/1
f 9/2/1 6/2/1 8/2/1
f 10/2/1 6/2/1 9/2/1
f 11/2/1 6/2/1 10/2/1
f 12/2/1 6/2/1 11/2/1
f 13/2/1 6/2/1 12/2/1
f 14/2/1 6/2/1 13/2/1
f 15/2/1 6/2/1 14/2/1
f 16/2/1 6/2/1 15/2/1
f 17/2/1 7/2/1 5/2/1
f 17/3/1 8/3/1 7/3/1
f 18/2/1 9/2/1 8/2/1
f 18/3/1 8/3/1 17/3/1
f 19/3/1 10/3/1 9/3/1
f 19/2/1 9/2/1 18/2/1
f 20/2/1 11/2/1 10/2/1
f 20/3/1 10/3/1 19/3/1
f 21/3/1 12/3/1 11/3/1
f 21/2/1 11/2/1 20/2/1
f 22/2/1 13/2/1 12/2/1
f 22/3/1 12/3/1 21/3/1
f 23/3/1 14/3/1 13/3/1
f 23/2/1 13/2/1 22/2/1
f 24/2/1 15/2/1 14/2/1
f 24/3/1 14/3/1 23/3/1
f 25/3/1 16/3/1 15/3/1
f 25/2/1 15/2/1 24/2/1
f 26/2/1 6/2/1 16/2/1
f 26/3/1 16/3/1 25/3/1
f 27/2/1 25/2/1 24/2/1
f 27/2/1 24/2/1 23/2/1
f 27/2/1 26/2/1 25/2/1
f 27/2/1 23/2/1 22/2/1
f 27/2/1 22/2/1 21/2/1
f 27/2/1 21/2/1 20/2/1
f 27/2/1 20/2/1 19/2/1
f 27/2/1 19/2/1 18/2/1
f 27/2/1 18/2/1 17/2/1
f 27/2/1 17/2/1 5/2/1
f 28/2/1 26/2/1 27/2/1
f 29/2/1 26/2/1 28/2/1
f 30/2/1 26/2/1 29/2/1
f 31/2/1 26/2/1 30/2/1
f 32/2/1 26/2/1 31/2/1
f 33/2/1 26/2/1 32/2/1
f 34/2/1 26/2/1 33/2/1
f 35/2/1 26/2/1 34/2/1
f 36/2/1 6/2/1 26/2/1
f 36/2/1 26/2/1 35/2/1
f 37/2/1 27/2/1 5/2/1
f 37/3/1 28/3/1 27/3/1
f 38/2/1 29/2/1 28/2/1
f 38/3/1 28/3/1 37/3/1
f 39/3/1 30/3/1 29/3/1
f 39/2/1 29/2/1 38/2/1
f 40/2/1 31/2/1 30/2/1
f 40/3/1 30/3/1 39/3/1
f 41/3/1 32/3/1 31/3/1
f 41/2/1 31/2/1 40/2/1
f 42/2/1 33/2/1 32/2/1
f 42/3/1 32/3/1 41/3/1
f 43/3/1 34/3/1 33/3/1
f 43/2/1 33/2/1 42/2/1
f 44/2/1 35/2/1 34/2/1
f 44/3/1 34/3/1 43/3/1
f 45/3/1 36/3/1 35/3/1
f 45/2/1 35/2/1 44/2/1
f 46/2/1 6/2/1 36/2/1
f 46/3/1 36/3/1 45/3/1
f 47/2/1 43/2/1 42/2/1
f 47/2/1 45/2/1 44/2/1
f 47/2/1 46/2/1 45/2/1
f 47/2/1 42/2/1 41/2/1
f 47/2/1 41/2/1 40/2/1
f 47/2/1 40/2/1 39/2/1
f 47/2/1 39/2/1 38/2/1
f 47/2/1 38/2/1 37/2/1
f 47/2/1 37/2/1 5/2/1
f 47/2/1 44/2/1 43/2/1
f 48/2/1 46/2/1 47/2/1
f 49/2/1 46/2/1 48/2/1
f 50/2/1 46/2/1 49/2/1
f 51/2/1 46/2/1 50/2/1
f 52/2/1 46/2/1 51/2/1
f 53/2/1 46/2/1 52/2/1
f 54/2/1 46/2/1 53/2/1
f 55/2/1 46/2/1 54/2/1
f 56/2/1 6/2/1 46/2/1
f 56/2/1 46/2/1 55/2/1
f 57/2/1 47/2/1 5/2/1
f 57/3/1 48/3/1 47/3/1
f 58/2/1 49/2/1 48/2/1
f 58/3/1 48/3/1 57/3/1
f 59/3/1 50/3/1 49/3/1
f 59/2/1 49/2/1 58/2/1
f 60/2/1 51/2/1 50/2/1
f 60/3/1 50/3/1 59/3/1
f 61/3/1 52/3/1 51/3/1
f 61/2/1 51/2/1 60/2/1
f 62/2/1 53/2/1 52/2/1
f 62/3/1 52/3/1 61/3/1
f 63/3/1 54/3/1 53/3/1
f 63/2/1 53/2/1 62/2/1
f 64/2/1 55/2/1 54/2/1
f 64/3/1 54/3/1 63/3/1
f 65/3/1 56/3/1 55/3/1
f 65/2/1 55/2/1 64/2/1
f 66/2/1 6/2/1 56/2/1
f 66/3/1 56/3/1 65/3/1
f 67/2/1 63/2/1 62/2/1
f 67/2/1 65/2/1 64/2/1
f 67/2/1 66/2/1 65/2/1
f 67/2/1 62/2/1 61/2/1
f 67/2/1 61/2/1 60/2/1
f 67/2/1 60/2/1 59/2/1
f 67/2/1 59/2/1 58/2/1
f 67/2/1 58/2/1 57/2/1
f 67/2/1 57/2/1 5/2/1
f 67/2/1 64/2/1 63/2/1
f 68/2/1 6/2/1 66/2/1
f 68/2/1 66/2/1 67/2/1
f 71/2/1 70/2/1 69/2/1
f 72/2/1 70/2/1 71/2/1
f 75/2/1 74/2/1 73/2/1
f 76/2/1 74/2/1 75/2/1
f 79/2/1 78/2/1 77/2/1
f 80/2/1 78/2/1 79/2/1
f 83/4/1 82/4/1 81/4/1
f 84/4/1 82/4/1 83/4/1
f 87/2/1 86/2/1 85/2/1
f 88/2/1 86/2/1 87/2/1
f 92/5/1 90/5/1 89/5/1
f 93/5/1 90/5/1 92/5/1
f 95/4/1 92/4/1 91/4/1
f 96/4/1 92/4/1 95/4/1
f 97/4/1 94/4/1 93/4/1
f 98/4/1 94/4/1 97/4/1
f 99/4/1 97/4/1 96/4/1
f 100/4/1 97/4/1 99/4/1
f 103/2/1 102/2/1 101/2/1
f 104/2/1 102/2/1 103/2/1
f 105/2/2 106/2/2 107/2/2
f 107/2/2 106/2/2 108/2/2
f 109/2/2 110/2/2 111/2/2
f 111/2/2 110/2/2 112/2/2
f 113/2/2 114/2/2 115/2/2
f 115/2/2 114/2/2 116/2/2
f 117/2/2 118/2/2 119/2/2
f 119/2/2 118/2/2 120/2/2
f 120/2/2 118/2/2 121/2/2
f 121/2/2 118/2/2 122/2/2
f 117/2/2 119/2/2 123/2/2
f 119/3/2 120/3/2 123/3/2
f 120/2/2 121/2/2 124/2/2
f 123/3/2 120/3/2 124/3/2
f 121/3/2 122/3/2 125/3/2
f 124/2/2 121/2/2 125/2/2
f 122/2/2 118/2/2 126/2/2
f 125/3/2 122/3/2 126/3/2
f 124/2/2 125/2/2 127/2/2
f 123/2/2 124/2/2 127/2/2
f 125/2/2 126/2/2 127/2/2
f 117/2/2 123/2/2 127/2/2
f 127/2/2 126/2/2 128/2/2
f 128/2/2 126/2/2 129/2/2
f 126/2/2 118/2/2 130/2/2
f 129/2/2 126/2/2 130/2/2
f 117/2/2 127/2/2 131/2/2
f 127/3/2 128/3/2 131/3/2
f 128/2/2 129/2/2 132/2/2
f 131/3/2 128/3/2 132/3/2
f 129/3/2 130/3/2 133/3/2
f 132/2/2 129/2/2 133/2/2
f 130/2/2 118/2/2 134/2/2
f 133/3/2 130/3/2 134/3/2
f 117/2/2 131/2/2 135/2/2
f 132/2/2 133/2/2 135/2/2
f 133/2/2 134/2/2 135/2/2
f 131/2/2 132/2/2 135/2/2
f 135/2/2 134/2/2 136/2/2
f 136/2/2 134/2/2 137/2/2
f 134/2/2 118/2/2 138/2/2
f 137/2/2 134/2/2 138/2/2
f 117/2/2 135/2/2 139/2/2
f 135/3/2 136/3/2 139/3/2
f 136/2/2 137/2/2 140/2/2
f 139/3/2 136/3/2 140/3/2
f 137/3/2 138/3/2 141/3/2
f 140/2/2 137/2/2 141/2/2
f 138/2/2 118/2/2 142/2/2
f 141/3/2 138/3/2 142/3/2
f 117/2/2 139/2/2 143/2/2
f 140/2/2 141/2/2 143/2/2
f 141/2/2 142/2/2 143/2/2
f 139/2/2 140/2/2 143/2/2
f 142/2/2 118/2/2 144/2/2
f 143/2/2 142/2/2 144/2/2
f 145/5/2 146/5/2 148/5/2
f 148/5/2 146/5/2 149/5/2
f 147/4/2 148/4/2 151/4/2
f 151/4/2 148/4/2 152/4/2
f 149/4/2 150/4/2 153/4/2
f 153/4/2 150/4/2 154/4/2
f 152/4/2 153/4/2 155/4/2
f 155/4/2 153/4/2 156/4/2
f 157/2/2 158/2/2 159/2/2
f 159/2/2 158/2/2 160/2/2
f 161/4/2 162/4/2 163/4/2
f 163/4/2 162/4/2 164/4/2
f 165/2/2 166/2/2 167/2/2
f 167/2/2 166/2/2 168/2/2
f 168/2/2 166/2/2 169/2/2
f 169/2/2 166/2/2 170/2/2
f 165/2/2 167/2/2 171/2/2
f 167/3/2 168/3/2 171/3/2
f 168/2/2 169/2/2 172/2/2
f 171/3/2 168/3/2 172/3/2
f 169/3/2 170/3/2 173/3/2
f 172/2/2 169/2/2 173/2/2
f 170/2/2 166/2/2 174/2/2
f 173/3/2 170/3/2 174/3/2
f 172/2/2 173/2/2 175/2/2
f 171/2/2 172/2/2 175/2/2
f 173/2/2 174/2/2 175/2/2
f 165/2/2 171/2/2 175/2/2
f 175/2/2 174/2/2 176/2/2
f 176/2/2 174/2/2 177/2/2
f 174/2/2 166/2/2 178/2/2
f 177/2/2 174/2/2 178/2/2
f 165/2/2 175/2/2 179/2/2
f 175/3/2 176/3/2 179/3/2
f 176/2/2 177/2/2 180/2/2
f 179/3/2 176/3/2 180/3/2
f 177/3/2 178/3/2 181/3/2
f 180/2/2 177/2/2 181/2/2
f 178/2/2 166/2/2 182/2/2
f 181/3/2 178/3/2 182/3/2
f 165/2/2 179/2/2 183/2/2
f 180/2/2 181/2/2 183/2/2
f 181/2/2 182/2/2 183/2/2
f 179/2/2 180/2/2 183/2/2
f 183/2/2 182/2/2 184/2/2
f 184/2/2 182/2/2 185/2/2
f 182/2/2 166/2/2 186/2/2
f 185/2/2 182/2/2 186/2/2
f 165/2/2 183/2/2 187/2/2
f 183/3/2 184/3/2 187/3/2
f 184/2/2 185/2/2 188/2/2
f 187/3/2 184/3/2 188/3/2
f 185/3/2 186/3/2 189/3/2
f 188/2/2 185/2/2 189/2/2
f 186/2/2 166/2/2 190/2/2
f 189/3/2 186/3/2 190/3/2
f 165/2/2 187/2/2 191/2/2
f 188/2/2 189/2/2 191/2/2
f 189/2/2 190/2/2 191/2/2
f 187/2/2 188/2/2 191/2/2
f 190/2/2 166/2/2 192/2/2
f 191/2/2 190/2/2 192/2/2
f 193/1/2 194/1/2 195/1/2
f 195/1/2 194/1/2 196/1/2
f 199/1/3 198/1/3 197/1/3
f 200/1/3 198/1/3 199/1/3
f 203/2/3 202/2/3 201/2/3
f 204/2/3 202/2/3 203/2/3
f 205/2/3 202/2/3 204/2/3
f 206/2/3 202/2/3 205/2/3
f 207/2/3 202/2/3 206/2/3
f 208/2/3 202/2/3 207/2/3
f 209/2/3 203/2/3 201/2/3
f 210/2/3 203/2/3 209/2/3
f 211/3/3 204/3/3 203/3/3
f 211/2/3 203/2/3 210/2/3
f 212/2/3 205/2/3 204/2/3
f 212/3/3 204/3/3 211/3/3
f 213/3/3 206/3/3 205/3/3
f 213/2/3 205/2/3 212/2/3
f 214/2/3 207/2/3 206/2/3
f 214/3/3 206/3/3 213/3/3
f 215/3/3 208/3/3 207/3/3
f 215/2/3 207/2/3 214/2/3
f 216/2/3 202/2/3 208/2/3
f 216/3/3 208/3/3 215/3/3
f 217/2/3 215/2/3 214/2/3
f 217/2/3 216/2/3 215/2/3
f 217/2/3 211/2/3 210/2/3
f 217/2/3 214/2/3 213/2/3
f 217/2/3 213/2/3 212/2/3
f 217/2/3 212/2/3 211/2/3
f 218/2/3 216/2/3 217/2/3
f 219/2/3 216/2/3 218/2/3
f 220/2/3 216/2/3 219/2/3
f 221/2/3 216/2/3 220/2/3
f 222/2/3 202/2/3 216/2/3
f 222/2/3 216/2/3 221/2/3
f 224/2/3 217/2/3 210/2/3
f 225/3/3 218/3/3 217/3/3
f 225/2/3 217/2/3 224/2/3
f 226/2/3 219/2/3 218/2/3
f 226/3/3 218/3/3 225/3/3
f 227/3/3 220/3/3 219/3/3
f 227/2/3 219/2/3 226/2/3
f 228/2/3 221/2/3 220/2/3
f 228/3/3 220/3/3 227/3/3
f 229/3/3 222/3/3 221/3/3
f 229/2/3 221/2/3 228/2/3
f 230/2/3 202/2/3 222/2/3
f 230/3/3 222/3/3 229/3/3
f 231/2/3 227/2/3 226/2/3
f 231/2/3 229/2/3 228/2/3
f 231/2/3 230/2/3 229/2/3
f 231/2/3 224/2/3 223/2/3
f 231/2/3 228/2/3 227/2/3
f 231/2/3 226/2/3 225/2/3
f 231/2/3 225/2/3 224/2/3
f 232/2/3 230/2/3 231/2/3
f 233/2/3 230/2/3 232/2/3
f 234/2/3 230/2/3 233/2/3
f 235/2/3 230/2/3 234/2/3
f 236/2/3 202/2/3 230/2/3
f 236/2/3 230/2/3 235/2/3
f 237/2/3 231/2/3 223/2/3
f 237/3/3 232/3/3 231/3/3
f 238/2/3 233/2/3 232/2/3
f 238/3/3 232/3/3 237/3/3
f 239/3/3 234/3/3 233/3/3
f 239/2/3 233/2/3 238/2/3
f 240/2/3 235/2/3 234/2/3
f 240/3/3 234/3/3 239/3/3
f 241/3/3 236/3/3 235/3/3
f 241/2/3 235/2/3 240/2/3
f 242/2/3 202/2/3 236/2/3
f 242/3/3 236/3/3 241/3/3
f 243/2/3 239/2/3 238/2/3
f 243/2/3 241/2/3 240/2/3
f 243/2/3 242/2/3 241/2/3
f 243/2/3 238/2/3 237/2/3
f 243/2/3 237/2/3 223/2/3
f 243/2/3 240/2/3 239/2/3
f 244/2/3 242/2/3 243/2/3
f 245/2/3 242/2/3 244/2/3
f 246/2/3 242/2/3 245/2/3
f 247/2/3 242/2/3 246/2/3
f 248/2/3 202/2/3 242/2/3
f 248/2/3 242/2/3 247/2/3
f 249/2/3 243/2/3 223/2/3
f 249/3/3 244/3/3 243/3/3
f 250/2/3 245/2/3 244/2/3
f 250/3/3 244/3/3 249/3/3
f 251/3/3 246/3/3 245/3/3
f 251/2/3 245/2/3 250/2/3
f 252/2/3 247/2/3 246/2/3
f 252/3/3 246/3/3 251/3/3
f 253/3/3 248/3/3 247/3/3
f 253/2/3 247/2/3 252/2/3
f 254/2/3 202/2/3 248/2/3
f 254/3/3 248/3/3 253/3/3
f 255/2/3 251/2/3 250/2/3
f 255/2/3 253/2/3 252/2/3
f 255/2/3 254/2/3 253/2/3
f 255/2/3 250/2/3 249/2/3
f 255/2/3 249/2/3 223/2/3
f 255/2/3 252/2/3 251/2/3
f 256/2/3 254/2/3 255/2/3
f 257/2/3 254/2/3 256/2/3
f 258/2/3 254/2/3 257/2/3
f 259/2/3 254/2/3 258/2/3
f 260/2/3 202/2/3 254/2/3
f 260/2/3 254/2/3 259/2/3
f 261/2/3 255/2/3 223/2/3
f 261/3/3 256/3/3 255/3/3
f 262/2/3 257/2/3 256/2/3
f 262/3/3 256/3/3 261/3/3
f 263/3/3 258/3/3 257/3/3
f 263/2/3 257/2/3 262/2/3
f 264/2/3 259/2/3 258/2/3
f 264/3/3 258/3/3 263/3/3
f 265/3/3 260/3/3 259/3/3
f 265/2/3 259/2/3 264/2/3
f 266/2/3 202/2/3 260/2/3
f 266/3/3 260/3/3 265/3/3
f 267/2/3 263/2/3 262/2/3
f 267/2/3 265/2/3 264/2/3
f 267/2/3 266/2/3 265/2/3
f 267/2/3 262/2/3 261/2/3
f 267/2/3 261/2/3 223/2/3
f 267/2/3 264/2/3 263/2/3
f 268/2/3 202/2/3 266/2/3
f 268/2/3 266/2/3 267/2/3
f 271/3/3 270/3/3 269/3/3
f 272/3/3 270/3/3 271/3/3
f 275/2/3 274/2/3 273/2/3
f 276/2/3 274/2/3 275/2/3
f 279/2/3 278/2/3 277/2/3
f 280/2/3 278/2/3 279/2/3
f 283/2/3 282/2/3 281/2/3
f 284/2/3 282/2/3 283/2/3
f 287/4/3 286/4/3 285/4/3
f 288/4/3 286/4/3 287/4/3
f 292/4/3 290/4/3 289/4/3
f 293/4/3 290/4/3 292/4/3
f 295/5/3 292/5/3 291/5/3
f 296/5/3 292/5/3 295/5/3
f 297/4/3 294/4/3 293/4/3
f 298/4/3 294/4/3 297/4/3
f 299/4/3 297/4/3 296/4/3
f 300/4/3 297/4/3 299/4/3
f 303/2/3 302/2/3 301/2/3
f 304/2/3 302/2/3 303/2/3
f 305/2/4 306/2/4 307/2/4
f 307/2/4 306/2/4 308/2/4
f 309/2/4 310/2/4 311/2/4
f 311/2/4 310/2/4 312/2/4
f 313/2/4 314/2/4 315/2/4
f 315/2/4 314/2/4 316/2/4
f 317/2/4 318/2/4 319/2/4
f 319/2/4 318/2/4 320/2/4
f 320/2/4 318/2/4 321/2/4
f 321/2/4 318/2/4 322/2/4
f 322/2/4 318/2/4 323/2/4
f 323/2/4 318/2/4 324/2/4
f 317/2/4 319/2/4 325/2/4
f 319/3/4 320/3/4 325/3/4
f 320/2/4 321/2/4 326/2/4
f 325/3/4 320/3/4 326/3/4
f 323/3/4 324/3/4 327/3/4
f 322/2/4 323/2/4 327/2/4
f 324/2/4 318/2/4 328/2/4
f 327/3/4 324/3/4 328/3/4
f 317/2/4 325/2/4 329/2/4
f 325/2/4 326/2/4 329/2/4
f 326/2/4 321/2/4 330/2/4
f 329/2/4 326/2/4 330/2/4
f 321/3/4 322/3/4 331/3/4
f 330/2/4 321/2/4 331/2/4
f 322/2/4 327/2/4 332/2/4
f 331/3/4 322/3/4 332/3/4
f 327/2/4 328/2/4 332/2/4
f 332/2/4 328/2/4 333/2/4
f 328/2/4 318/2/4 334/2/4
f 333/2/4 328/2/4 334/2/4
f 330/2/4 331/2/4 335/2/4
f 332/2/4 333/2/4 335/2/4
f 331/2/4 332/2/4 335/2/4
f 335/2/4 333/2/4 336/2/4
f 317/2/4 329/2/4 337/2/4
f 329/3/4 330/3/4 337/3/4
f 330/2/4 335/2/4 338/2/4
f 337/3/4 330/3/4 338/3/4
f 335/3/4 336/3/4 339/3/4
f 338/2/4 335/2/4 339/2/4
f 336/2/4 333/2/4 340/2/4
f 339/3/4 336/3/4 340/3/4
f 333/3/4 334/3/4 341/3/4
f 340/2/4 333/2/4 341/2/4
f 334/2/4 318/2/4 342/2/4
f 341/3/4 334/3/4 342/3/4
f 340/2/4 341/2/4 343/2/4
f 338/2/4 339/2/4 343/2/4
f 341/2/4 342/2/4 343/2/4
f 317/2/4 337/2/4 343/2/4
f 337/2/4 338/2/4 343/2/4
f 339/2/4 340/2/4 343/2/4
f 342/2/4 318/2/4 344/2/4
f 343/2/4 342/2/4 344/2/4
f 345/4/4 346/4/4 348/4/4
f 348/4/4 346/4/4 349/4/4
f 347/5/4 348/5/4 351/5/4
f 351/5/4 348/5/4 352/5/4
f 349/4/4 350/4/4 353/4/4
f 353/4/4 350/4/4 354/4/4
f 352/4/4 353/4/4 355/4/4
f 355/4/4 353/4/4 356/4/4
f 357/4/4 358/4/4 359/4/4
f 359/4/4 358/4/4 360/4/4
f 361/2/4 362/2/4 363/2/4
f 363/2/4 362/2/4 364/2/4
f 364/2/4 362/2/4 365/2/4
f 365/2/4 362/2/4 366/2/4
f 366/2/4 362/2/4 367/2/4
f 367/2/4 362/2/4 368/2/4
f 361/2/4 363/2/4 369/2/4
f 363/3/4 364/3/4 369/3/4
f 364/2/4 365/2/4 370/2/4
f 369/3/4 364/3/4 370/3/4
f 365/3/4 366/3/4 371/3/4
f 370/2/4 365/2/4 371/2/4
f 366/2/4 367/2/4 372/2/4
f 371/3/4 366/3/4 372/3/4
f 367/3/4 368/3/4 373/3/4
f 372/2/4 367/2/4 373/2/4
f 368/2/4 362/2/4 374/2/4
f 373/3/4 368/3/4 374/3/4
f 372/2/4 373/2/4 375/2/4
f 371/2/4 372/2/4 375/2/4
f 373/2/4 374/2/4 375/2/4
f 370/2/4 371/2/4 375/2/4
f 369/2/4 370/2/4 375/2/4
f 361/2/4 369/2/4 375/2/4
f 375/2/4 374/2/4 376/2/4
f 376/2/4 374/2/4 377/2/4
f 377/2/4 374/2/4 378/2/4
f 378/2/4 374/2/4 379/2/4
f 374/2/4 362/2/4 380/2/4
f 379/2/4 374/2/4 380/2/4
f 361/2/4 375/2/4 381/2/4
f 375/3/4 376/3/4 381/3/4
f 376/2/4 377/2/4 382/2/4
f 381/3/4 376/3/4 382/3/4
f 377/3/4 378/3/4 383/3/4
f 382/2/4 377/2/4 383/2/4
f 378/2/4 379/2/4 384/2/4
f 383/3/4 378/3/4 384/3/4
f 379/3/4 380/3/4 385/3/4
f 384/2/4 379/2/4 385/2/4
f 380/2/4 362/2/4 386/2/4
f 385/3/4 380/3/4 386/3/4
f 382/2/4 383/2/4 387/2/4
f 384/2/4 385/2/4 387/2/4
f 385/2/4 386/2/4 387/2/4
f 381/2/4 382/2/4 387/2/4
f 361/2/4 381/2/4 387/2/4
f 383/2/4 384/2/4 387/2/4
f 386/2/4 362/2/4 388/2/4
f 387/2/4 386/2/4 388/2/4
f 389/1/4 390/1/4 391/1/4
f 391/1/4 390/1/4 392/1/4
f 395/1/5 394/1/5 393/1/5
f 396/1/5 394/1/5 395/1/5
f 399/2/5 398/2/5 397/2/5
f 400/2/5 398/2/5 399/2/5
f 404/4/5 402/4/5 401/4/5
f 405/4/5 402/4/5 404/4/5
f 407/4/5 404/4/5 403/4/5
f 408/4/5 404/4/5 407/4/5
f 409/4/5 406/4/5 405/4/5
f 410/4/5 406/4/5 409/4/5
f 411/4/5 409/4/5 408/4/5
f 412/4/5 409/4/5 411/4/5
f 413/1/6 414/1/6 415/1/6
f 415/1/6 414/1/6 416/1/6
f 416/1/6 414/1/6 417/1/6
f 417/1/6 414/1/6 418/1/6
f 416/6/6 417/6/6 419/6/6
f 419/6/6 417/6/6 420/6/6
f 418/1/6 414/1/6 422/1/6
f 421/6/6 422/6/6 423/6/6
f 423/6/6 422/6/6 424/6/6
f 423/7/6 424/7/6 425/7/6
f 425/7/6 424/7/6 426/7/6
f 423/7/6 425/7/6 427/7/6
f 426/7/6 424/7/6 428/7/6
f 421/6/6 423/6/6 429/6/6
f 427/7/6 428/7/6 429/7/6
f 423/7/6 427/7/6 429/7/6
f 428/7/6 424/7/6 430/7/6
f 429/7/6 428/7/6 430/7/6
f 424/6/6 422/6/6 430/6/6
f 413/1/6 415/1/6 431/1/6
f 421/6/6 429/6/6 432/6/6
f 429/6/6 430/6/6 432/6/6
f 430/6/6 422/6/6 433/6/6
f 422/1/6 414/1/6 433/1/6
f 432/6/6 430/6/6 433/6/6
f 431/1/6 432/1/6 434/1/6
f 413/1/6 431/1/6 434/1/6
f 432/1/6 433/1/6 434/1/6
f 433/1/6 414/1/6 435/1/6
f 434/1/6 433/1/6 435/1/6
f 436/4/6 437/4/6 439/4/6
f 439/4/6 437/4/6 440/4/6
f 438/4/6 439/4/6 442/4/6
f 442/4/6 439/4/6 443/4/6
f 440/4/6 441/4/6 444/4/6
f 444/4/6 441/4/6 445/4/6
f 443/4/6 444/4/6 446/4/6
f 446/4/6 444/4/6 447/4/6
f 448/4/6 449/4/6 450/4/6
f 450/4/6 449/4/6 451/4/6
f 452/8/6 453/8/6 454/8/6
f 454/8/6 453/8/6 455/8/6
f 455/8/6 453/8/6 456/8/6
f 456/8/6 453/8/6 457/8/6
f 455/8/6 456/8/6 458/8/6
f 457/8/6 453/8/6 459/8/6
f 452/8/6 454/8/6 460/8/6
f 458/8/6 459/8/6 461/8/6
f 455/8/6 458/8/6 461/8/6
f 461/8/6 459/8/6 462/8/6
f 459/8/6 453/8/6 463/8/6
f 462/8/6 459/8/6 463/8/6
f 452/8/6 460/8/6 464/8/6
f 461/8/6 462/8/6 464/8/6
f 460/8/6 461/8/6 464/8/6
f 464/8/6 462/8/6 465/8/6
f 466/2/6 467/2/6 468/2/6
f 468/2/6 467/2/6 469/2/6
f 472/2/6 473/2/6 474/2/6
f 474/2/6 473/2/6 475/2/6
f 470/2/6 471/2/6 476/2/6
f 476/2/6 471/2/6 477/2/6
f 469/2/6 467/2/6 479/2/6
f 478/2/6 479/2/6 480/2/6
f 479/2/6 467/2/6 481/2/6
f 480/2/6 479/2/6 481/2/6
f 466/2/6 468/2/6 482/2/6
f 478/2/6 480/2/6 483/2/6
f 466/2/6 482/2/6 484/2/6
f 482/2/6 483/2/6 484/2/6
f 483/2/6 480/2/6 485/2/6
f 484/2/6 483/2/6 485/2/6
