# Blender 4.3.2
# www.blender.org
mtllib DeadEnd.mtl
o DeadEnd
v -0.700000 0.000000 0.700000
v -0.700000 -0.000000 -0.800000
v -0.700000 0.200000 0.700000
v -0.700000 0.200000 -0.800000
v -0.400000 0.100000 0.400000
v -0.400000 0.100000 -0.500000
v -0.400000 0.200000 0.400000
v -0.400000 0.200000 -0.500000
v 0.800000 0.000000 0.700000
v 0.800000 0.000000 0.400000
v 0.800000 -0.000000 -0.500000
v 0.800000 -0.000000 -0.800000
v 0.800000 0.100000 0.400000
v 0.800000 0.100000 -0.500000
v 0.800000 0.200000 0.700000
v 0.800000 0.200000 0.400000
v 0.800000 0.200000 -0.500000
v 0.800000 0.200000 -0.800000
v -0.700000 0.000000 0.700000
v -0.700000 0.200000 0.700000
v 0.800000 0.000000 0.700000
v 0.800000 0.200000 0.700000
v -0.400000 0.100000 -0.500000
v -0.400000 0.200000 -0.500000
v 0.800000 0.100000 -0.500000
v 0.800000 0.200000 -0.500000
v -0.400000 0.100000 0.400000
v -0.400000 0.200000 0.400000
v 0.800000 0.100000 0.400000
v 0.800000 0.200000 0.400000
v -0.700000 -0.000000 -0.800000
v -0.700000 0.200000 -0.800000
v 0.800000 -0.000000 -0.800000
v 0.800000 0.200000 -0.800000
v -0.700000 0.000000 0.700000
v 0.800000 0.000000 0.700000
v -0.400000 0.000000 0.400000
v 0.800000 0.000000 0.400000
v -0.100000 0.000000 0.000000
v 0.200000 0.000000 0.000000
v 0.400000 0.000000 0.000000
v 0.700000 0.000000 0.000000
v -0.100000 -0.000000 -0.100000
v 0.200000 -0.000000 -0.100000
v 0.400000 -0.000000 -0.100000
v 0.700000 -0.000000 -0.100000
v -0.400000 -0.000000 -0.500000
v 0.800000 -0.000000 -0.500000
v -0.700000 -0.000000 -0.800000
v 0.800000 -0.000000 -0.800000
v -0.400000 0.100000 0.400000
v 0.800000 0.100000 0.400000
v -0.100000 0.100000 -0.000000
v 0.200000 0.100000 -0.000000
v 0.400000 0.100000 -0.000000
v 0.700000 0.100000 -0.000000
v -0.100000 0.100000 -0.100000
v 0.200000 0.100000 -0.100000
v 0.400000 0.100000 -0.100000
v 0.700000 0.100000 -0.100000
v -0.400000 0.100000 -0.500000
v 0.800000 0.100000 -0.500000
v -0.700000 0.200000 0.700000
v 0.800000 0.200000 0.700000
v -0.400000 0.200000 0.400000
v 0.800000 0.200000 0.400000
v -0.400000 0.200000 -0.500000
v 0.800000 0.200000 -0.500000
v -0.700000 0.200000 -0.800000
v 0.800000 0.200000 -0.800000
vn -1.0000 -0.0000 -0.0000
vn 1.0000 -0.0000 -0.0000
vn -0.0000 -0.0000 1.0000
vn -0.0000 -0.0000 -1.0000
vn -0.0000 -1.0000 -0.0000
vn -0.0000 1.0000 -0.0000
vt 0.939453 0.500000
vt 0.908203 0.500000
vt 0.876953 0.500000
s 1
usemtl palette
f 3/1/1 2/1/1 1/1/1
f 4/1/1 2/1/1 3/1/1
f 5/1/2 6/1/2 7/1/2
f 7/1/2 6/1/2 8/1/2
f 9/1/2 10/1/2 13/1/2
f 10/2/2 11/2/2 13/2/2
f 11/1/2 12/1/2 14/1/2
f 13/2/2 11/2/2 14/2/2
f 9/1/2 13/1/2 15/1/2
f 15/1/2 13/1/2 16/1/2
f 14/1/2 12/1/2 17/1/2
f 17/1/2 12/1/2 18/1/2
f 21/1/3 20/1/3 19/1/3
f 22/1/3 20/1/3 21/1/3
f 25/1/3 24/1/3 23/1/3
f 26/1/3 24/1/3 25/1/3
f 27/1/4 28/1/4 29/1/4
f 29/1/4 28/1/4 30/1/4
f 31/1/4 32/1/4 33/1/4
f 33/1/4 32/1/4 34/1/4
f 37/1/5 36/1/5 35/1/5
f 38/1/5 36/1/5 37/1/5
f 39/2/5 38/2/5 37/2/5
f 40/2/5 38/2/5 39/2/5
f 41/2/5 38/2/5 40/2/5
f 42/2/5 38/2/5 41/2/5
f 43/2/5 39/2/5 37/2/5
f 43/3/5 40/3/5 39/3/5
f 44/2/5 41/2/5 40/2/5
f 44/3/5 40/3/5 43/3/5
f 45/3/5 42/3/5 41/3/5
f 45/2/5 41/2/5 44/2/5
f 46/2/5 38/2/5 42/2/5
f 46/3/5 42/3/5 45/3/5
f 47/1/5 37/1/5 35/1/5
f 47/2/5 45/2/5 44/2/5
f 47/2/5 46/2/5 45/2/5
f 47/2/5 43/2/5 37/2/5
f 47/2/5 44/2/5 43/2/5
f 48/2/5 38/2/5 46/2/5
f 48/2/5 46/2/5 47/2/5
f 49/1/5 47/1/5 35/1/5
f 49/1/5 48/1/5 47/1/5
f 50/1/5 48/1/5 49/1/5
f 51/2/6 52/2/6 53/2/6
f 53/2/6 52/2/6 54/2/6
f 54/2/6 52/2/6 55/2/6
f 55/2/6 52/2/6 56/2/6
f 51/2/6 53/2/6 57/2/6
f 53/3/6 54/3/6 57/3/6
f 54/2/6 55/2/6 58/2/6
f 57/3/6 54/3/6 58/3/6
f 55/3/6 56/3/6 59/3/6
f 58/2/6 55/2/6 59/2/6
f 56/2/6 52/2/6 60/2/6
f 59/3/6 56/3/6 60/3/6
f 58/2/6 59/2/6 61/2/6
f 57/2/6 58/2/6 61/2/6
f 59/2/6 60/2/6 61/2/6
f 51/2/6 57/2/6 61/2/6
f 60/2/6 52/2/6 62/2/6
f 61/2/6 60/2/6 62/2/6
f 63/1/6 64/1/6 65/1/6
f 65/1/6 64/1/6 66/1/6
f 63/1/6 65/1/6 67/1/6
f 63/1/6 67/1/6 69/1/6
f 67/1/6 68/1/6 69/1/6
f 69/1/6 68/1/6 70/1/6
