# Blender 4.3.2
# www.blender.org
mtllib Intersection02.mtl
o Intersection02
v -0.700000 0.000000 0.700000
v -0.700000 0.000000 0.400000
v -0.700000 -0.000000 -0.500000
v -0.700000 -0.000000 -0.800000
v -0.700000 0.100000 0.400000
v -0.700000 0.100000 -0.500000
v -0.700000 0.200000 0.700000
v -0.700000 0.200000 0.400000
v -0.700000 0.200000 -0.500000
v -0.700000 0.200000 -0.800000
v 0.500000 0.100000 0.700000
v 0.500000 0.100000 0.500000
v 0.500000 0.100000 0.400000
v 0.500000 0.200000 0.700000
v 0.500000 0.200000 0.400000
v -0.400000 0.100000 0.700000
v -0.400000 0.100000 0.400000
v -0.400000 0.200000 0.700000
v -0.400000 0.200000 0.400000
v 0.800000 0.000000 0.700000
v 0.800000 0.000000 0.400000
v 0.800000 -0.000000 -0.500000
v 0.800000 -0.000000 -0.800000
v 0.800000 0.100000 0.400000
v 0.800000 0.100000 -0.500000
v 0.800000 0.200000 0.700000
v 0.800000 0.200000 0.400000
v 0.800000 0.200000 -0.500000
v 0.800000 0.200000 -0.800000
v -0.700000 0.000000 0.700000
v -0.700000 0.200000 0.700000
v -0.400000 0.000000 0.700000
v -0.400000 0.100000 0.700000
v -0.400000 0.200000 0.700000
v 0.500000 0.000000 0.700000
v 0.500000 0.100000 0.700000
v 0.500000 0.200000 0.700000
v 0.800000 0.000000 0.700000
v 0.800000 0.200000 0.700000
v -0.700000 0.100000 -0.500000
v -0.700000 0.200000 -0.500000
v 0.800000 0.100000 -0.500000
v 0.800000 0.200000 -0.500000
v -0.700000 0.100000 0.400000
v -0.700000 0.200000 0.400000
v -0.400000 0.100000 0.400000
v -0.400000 0.200000 0.400000
v 0.500000 0.100000 0.400000
v 0.500000 0.200000 0.400000
v 0.800000 0.100000 0.400000
v 0.800000 0.200000 0.400000
v -0.700000 -0.000000 -0.800000
v -0.700000 0.200000 -0.800000
v 0.800000 -0.000000 -0.800000
v 0.800000 0.200000 -0.800000
v -0.700000 0.000000 0.700000
v -0.400000 0.000000 0.700000
v 0.500000 0.000000 0.700000
v 0.800000 0.000000 0.700000
v 0.100000 0.000000 0.500000
v 0.500000 0.000000 0.500000
v -0.700000 0.000000 0.400000
v -0.400000 0.000000 0.400000
v 0.100000 0.000000 0.400000
v 0.500000 0.000000 0.400000
v 0.800000 0.000000 0.400000
v -0.600000 0.000000 0.000000
v -0.300000 0.000000 0.000000
v -0.100000 0.000000 0.000000
v 0.200000 0.000000 0.000000
v 0.400000 0.000000 0.000000
v 0.700000 0.000000 0.000000
v -0.600000 -0.000000 -0.100000
v -0.300000 -0.000000 -0.100000
v -0.100000 -0.000000 -0.100000
v 0.200000 -0.000000 -0.100000
v 0.400000 -0.000000 -0.100000
v 0.700000 -0.000000 -0.100000
v -0.700000 -0.000000 -0.500000
v 0.800000 -0.000000 -0.500000
v -0.700000 -0.000000 -0.800000
v 0.800000 -0.000000 -0.800000
v -0.400000 0.100000 0.700000
v 0.500000 0.100000 0.700000
v 0.100000 0.100000 0.500000
v 0.500000 0.100000 0.500000
v -0.700000 0.100000 0.400000
v -0.400000 0.100000 0.400000
v 0.100000 0.100000 0.400000
v 0.500000 0.100000 0.400000
v 0.800000 0.100000 0.400000
v -0.600000 0.100000 -0.000000
v -0.300000 0.100000 -0.000000
v -0.100000 0.100000 -0.000000
v 0.200000 0.100000 -0.000000
v 0.400000 0.100000 -0.000000
v 0.700000 0.100000 -0.000000
v -0.600000 0.100000 -0.100000
v -0.300000 0.100000 -0.100000
v -0.100000 0.100000 -0.100000
v 0.200000 0.100000 -0.100000
v 0.400000 0.100000 -0.100000
v 0.700000 0.100000 -0.100000
v -0.700000 0.100000 -0.500000
v 0.800000 0.100000 -0.500000
v -0.700000 0.200000 0.700000
v -0.400000 0.200000 0.700000
v 0.500000 0.200000 0.700000
v 0.800000 0.200000 0.700000
v -0.700000 0.200000 0.400000
v -0.400000 0.200000 0.400000
v 0.500000 0.200000 0.400000
v 0.800000 0.200000 0.400000
v -0.700000 0.200000 -0.500000
v 0.800000 0.200000 -0.500000
v -0.700000 0.200000 -0.800000
v 0.800000 0.200000 -0.800000
vn -1.0000 -0.0000 -0.0000
vn 1.0000 -0.0000 -0.0000
vn -0.0000 -0.0000 1.0000
vn -0.0000 -0.0000 -1.0000
vn -0.0000 -1.0000 -0.0000
vn -0.0000 1.0000 -0.0000
vt 0.939453 0.500000
vt 0.908203 0.500000
vt 0.876953 0.500000
s 1
usemtl palette
f 5/1/1 2/1/1 1/1/1
f 5/2/1 3/2/1 2/2/1
f 6/1/1 4/1/1 3/1/1
f 6/2/1 3/2/1 5/2/1
f 7/1/1 5/1/1 1/1/1
f 8/1/1 5/1/1 7/1/1
f 9/1/1 4/1/1 6/1/1
f 10/1/1 4/1/1 9/1/1
f 14/1/1 12/1/1 11/1/1
f 14/1/1 13/1/1 12/1/1
f 15/1/1 13/1/1 14/1/1
f 16/1/2 17/1/2 18/1/2
f 18/1/2 17/1/2 19/1/2
f 20/1/2 21/1/2 24/1/2
f 21/2/2 22/2/2 24/2/2
f 22/1/2 23/1/2 25/1/2
f 24/2/2 22/2/2 25/2/2
f 20/1/2 24/1/2 26/1/2
f 26/1/2 24/1/2 27/1/2
f 25/1/2 23/1/2 28/1/2
f 28/1/2 23/1/2 29/1/2
f 32/1/3 31/1/3 30/1/3
f 33/1/3 31/1/3 32/1/3
f 34/1/3 31/1/3 33/1/3
f 35/2/3 33/2/3 32/2/3
f 36/2/3 33/2/3 35/2/3
f 38/1/3 36/1/3 35/1/3
f 38/1/3 37/1/3 36/1/3
f 39/1/3 37/1/3 38/1/3
f 42/1/3 41/1/3 40/1/3
f 43/1/3 41/1/3 42/1/3
f 44/1/4 45/1/4 46/1/4
f 46/1/4 45/1/4 47/1/4
f 48/1/4 49/1/4 50/1/4
f 50/1/4 49/1/4 51/1/4
f 52/1/4 53/1/4 54/1/4
f 54/1/4 53/1/4 55/1/4
f 60/2/5 58/2/5 57/2/5
f 61/1/5 59/1/5 58/1/5
f 61/2/5 58/2/5 60/2/5
f 62/1/5 57/1/5 56/1/5
f 63/2/5 60/2/5 57/2/5
f 63/1/5 57/1/5 62/1/5
f 64/3/5 61/3/5 60/3/5
f 64/2/5 60/2/5 63/2/5
f 65/1/5 59/1/5 61/1/5
f 65/3/5 61/3/5 64/3/5
f 66/1/5 59/1/5 65/1/5
f 67/2/5 64/2/5 63/2/5
f 67/2/5 63/2/5 62/2/5
f 67/2/5 66/2/5 65/2/5
f 67/2/5 65/2/5 64/2/5
f 68/2/5 66/2/5 67/2/5
f 69/2/5 66/2/5 68/2/5
f 70/2/5 66/2/5 69/2/5
f 71/2/5 66/2/5 70/2/5
f 72/2/5 66/2/5 71/2/5
f 73/2/5 67/2/5 62/2/5
f 73/3/5 68/3/5 67/3/5
f 74/2/5 69/2/5 68/2/5
f 74/3/5 68/3/5 73/3/5
f 75/3/5 70/3/5 69/3/5
f 75/2/5 69/2/5 74/2/5
f 76/2/5 71/2/5 70/2/5
f 76/3/5 70/3/5 75/3/5
f 77/3/5 72/3/5 71/3/5
f 77/2/5 71/2/5 76/2/5
f 78/2/5 66/2/5 72/2/5
f 78/3/5 72/3/5 77/3/5
f 79/2/5 77/2/5 76/2/5
f 79/2/5 76/2/5 75/2/5
f 79/2/5 78/2/5 77/2/5
f 79/2/5 75/2/5 74/2/5
f 79/2/5 74/2/5 73/2/5
f 79/2/5 73/2/5 62/2/5
f 80/2/5 66/2/5 78/2/5
f 80/2/5 78/2/5 79/2/5
f 81/1/5 80/1/5 79/1/5
f 82/1/5 80/1/5 81/1/5
f 83/2/6 84/2/6 85/2/6
f 85/2/6 84/2/6 86/2/6
f 83/2/6 85/2/6 88/2/6
f 85/3/6 86/3/6 89/3/6
f 88/2/6 85/2/6 89/2/6
f 89/3/6 86/3/6 90/3/6
f 89/2/6 90/2/6 92/2/6
f 90/2/6 91/2/6 92/2/6
f 88/2/6 89/2/6 92/2/6
f 87/2/6 88/2/6 92/2/6
f 92/2/6 91/2/6 93/2/6
f 93/2/6 91/2/6 94/2/6
f 94/2/6 91/2/6 95/2/6
f 95/2/6 91/2/6 96/2/6
f 96/2/6 91/2/6 97/2/6
f 87/2/6 92/2/6 98/2/6
f 92/3/6 93/3/6 98/3/6
f 93/2/6 94/2/6 99/2/6
f 98/3/6 93/3/6 99/3/6
f 94/3/6 95/3/6 100/3/6
f 99/2/6 94/2/6 100/2/6
f 95/2/6 96/2/6 101/2/6
f 100/3/6 95/3/6 101/3/6
f 96/3/6 97/3/6 102/3/6
f 101/2/6 96/2/6 102/2/6
f 97/2/6 91/2/6 103/2/6
f 102/3/6 97/3/6 103/3/6
f 101/2/6 102/2/6 104/2/6
f 100/2/6 101/2/6 104/2/6
f 102/2/6 103/2/6 104/2/6
f 99/2/6 100/2/6 104/2/6
f 98/2/6 99/2/6 104/2/6
f 87/2/6 98/2/6 104/2/6
f 103/2/6 91/2/6 105/2/6
f 104/2/6 103/2/6 105/2/6
f 106/1/6 107/1/6 110/1/6
f 110/1/6 107/1/6 111/1/6
f 108/1/6 109/1/6 112/1/6
f 112/1/6 109/1/6 113/1/6
f 114/1/6 115/1/6 116/1/6
f 116/1/6 115/1/6 117/1/6
