# Blender 4.3.2
# www.blender.org
mtllib Intersection01.mtl
o Intersection01
v 0.800000 -0.000000 -0.800000
v 0.800000 -0.000000 -0.500000
v 0.800000 0.000000 0.400000
v 0.800000 0.000000 0.700000
v 0.800000 0.100000 -0.500000
v 0.800000 0.100000 0.400000
v 0.800000 0.200000 -0.800000
v 0.800000 0.200000 -0.500000
v 0.800000 0.200000 0.400000
v 0.800000 0.200000 0.700000
v -0.400000 0.100000 -0.800000
v -0.400000 0.100000 -0.600000
v -0.400000 0.100000 -0.500000
v -0.400000 0.100000 0.400000
v -0.400000 0.100000 0.700000
v -0.400000 0.200000 -0.800000
v -0.400000 0.200000 -0.500000
v -0.400000 0.200000 0.400000
v -0.400000 0.200000 0.700000
v 0.500000 0.100000 -0.800000
v 0.500000 0.100000 -0.500000
v 0.500000 0.100000 0.400000
v 0.500000 0.100000 0.500000
v 0.500000 0.100000 0.700000
v 0.500000 0.200000 -0.800000
v 0.500000 0.200000 -0.500000
v 0.500000 0.200000 0.400000
v 0.500000 0.200000 0.700000
v -0.700000 -0.000000 -0.800000
v -0.700000 -0.000000 -0.500000
v -0.700000 0.000000 0.400000
v -0.700000 0.000000 0.700000
v -0.700000 0.100000 -0.500000
v -0.700000 0.100000 0.400000
v -0.700000 0.200000 -0.800000
v -0.700000 0.200000 -0.500000
v -0.700000 0.200000 0.400000
v -0.700000 0.200000 0.700000
v 0.800000 -0.000000 -0.800000
v 0.800000 0.200000 -0.800000
v 0.500000 -0.000000 -0.800000
v 0.500000 0.100000 -0.800000
v 0.500000 0.200000 -0.800000
v -0.400000 -0.000000 -0.800000
v -0.400000 0.100000 -0.800000
v -0.400000 0.200000 -0.800000
v -0.700000 -0.000000 -0.800000
v -0.700000 0.200000 -0.800000
v 0.800000 0.100000 0.400000
v 0.800000 0.200000 0.400000
v 0.500000 0.100000 0.400000
v 0.500000 0.200000 0.400000
v -0.400000 0.100000 0.400000
v -0.400000 0.200000 0.400000
v -0.700000 0.100000 0.400000
v -0.700000 0.200000 0.400000
v 0.800000 0.100000 -0.500000
v 0.800000 0.200000 -0.500000
v 0.500000 0.100000 -0.500000
v 0.500000 0.200000 -0.500000
v -0.400000 0.100000 -0.500000
v -0.400000 0.200000 -0.500000
v -0.700000 0.100000 -0.500000
v -0.700000 0.200000 -0.500000
v 0.800000 0.000000 0.700000
v 0.800000 0.200000 0.700000
v 0.500000 0.000000 0.700000
v 0.500000 0.100000 0.700000
v 0.500000 0.200000 0.700000
v -0.400000 0.000000 0.700000
v -0.400000 0.100000 0.700000
v -0.400000 0.200000 0.700000
v -0.700000 0.000000 0.700000
v -0.700000 0.200000 0.700000
v 0.800000 -0.000000 -0.800000
v 0.500000 -0.000000 -0.800000
v -0.400000 -0.000000 -0.800000
v -0.700000 -0.000000 -0.800000
v 0.000000 -0.000000 -0.600000
v -0.400000 -0.000000 -0.600000
v 0.800000 -0.000000 -0.500000
v 0.500000 -0.000000 -0.500000
v 0.000000 -0.000000 -0.500000
v -0.400000 -0.000000 -0.500000
v -0.700000 -0.000000 -0.500000
v 0.700000 -0.000000 -0.100000
v 0.400000 -0.000000 -0.100000
v 0.200000 -0.000000 -0.100000
v -0.100000 -0.000000 -0.100000
v -0.300000 -0.000000 -0.100000
v -0.600000 -0.000000 -0.100000
v 0.700000 0.000000 0.000000
v 0.400000 0.000000 0.000000
v 0.200000 0.000000 0.000000
v -0.100000 0.000000 0.000000
v -0.300000 0.000000 0.000000
v -0.600000 0.000000 0.000000
v 0.800000 0.000000 0.400000
v 0.500000 0.000000 0.400000
v 0.100000 0.000000 0.400000
v -0.400000 0.000000 0.400000
v -0.700000 0.000000 0.400000
v 0.500000 0.000000 0.500000
v 0.100000 0.000000 0.500000
v 0.800000 0.000000 0.700000
v 0.500000 0.000000 0.700000
v -0.400000 0.000000 0.700000
v -0.700000 0.000000 0.700000
v 0.500000 0.100000 -0.800000
v -0.400000 0.100000 -0.800000
v 0.000000 0.100000 -0.600000
v -0.400000 0.100000 -0.600000
v 0.800000 0.100000 -0.500000
v 0.500000 0.100000 -0.500000
v 0.000000 0.100000 -0.500000
v -0.400000 0.100000 -0.500000
v -0.700000 0.100000 -0.500000
v 0.700000 0.100000 -0.100000
v 0.400000 0.100000 -0.100000
v 0.200000 0.100000 -0.100000
v -0.100000 0.100000 -0.100000
v -0.300000 0.100000 -0.100000
v -0.600000 0.100000 -0.100000
v 0.700000 0.100000 -0.000000
v 0.400000 0.100000 -0.000000
v 0.200000 0.100000 -0.000000
v -0.100000 0.100000 -0.000000
v -0.300000 0.100000 -0.000000
v -0.600000 0.100000 -0.000000
v 0.800000 0.100000 0.400000
v 0.500000 0.100000 0.400000
v 0.100000 0.100000 0.400000
v -0.400000 0.100000 0.400000
v -0.700000 0.100000 0.400000
v 0.500000 0.100000 0.500000
v 0.100000 0.100000 0.500000
v 0.500000 0.100000 0.700000
v -0.400000 0.100000 0.700000
v 0.800000 0.200000 -0.800000
v 0.500000 0.200000 -0.800000
v -0.400000 0.200000 -0.800000
v -0.700000 0.200000 -0.800000
v 0.800000 0.200000 -0.500000
v 0.500000 0.200000 -0.500000
v -0.400000 0.200000 -0.500000
v -0.700000 0.200000 -0.500000
v 0.800000 0.200000 0.400000
v 0.500000 0.200000 0.400000
v -0.400000 0.200000 0.400000
v -0.700000 0.200000 0.400000
v 0.800000 0.200000 0.700000
v 0.500000 0.200000 0.700000
v -0.400000 0.200000 0.700000
v -0.700000 0.200000 0.700000
vn 1.0000 -0.0000 -0.0000
vn -1.0000 -0.0000 -0.0000
vn -0.0000 -0.0000 -1.0000
vn -0.0000 -0.0000 1.0000
vn -0.0000 -1.0000 -0.0000
vn -0.0000 1.0000 -0.0000
vt 0.939453 0.500000
vt 0.908203 0.500000
vt 0.876953 0.500000
s 1
usemtl palette
f 5/1/1 2/1/1 1/1/1
f 5/2/1 3/2/1 2/2/1
f 6/1/1 4/1/1 3/1/1
f 6/2/1 3/2/1 5/2/1
f 7/1/1 5/1/1 1/1/1
f 8/1/1 5/1/1 7/1/1
f 9/1/1 4/1/1 6/1/1
f 10/1/1 4/1/1 9/1/1
f 16/1/1 12/1/1 11/1/1
f 16/1/1 13/1/1 12/1/1
f 17/1/1 13/1/1 16/1/1
f 18/1/1 15/1/1 14/1/1
f 19/1/1 15/1/1 18/1/1
f 20/1/2 21/1/2 25/1/2
f 25/1/2 21/1/2 26/1/2
f 23/1/2 24/1/2 27/1/2
f 22/1/2 23/1/2 27/1/2
f 27/1/2 24/1/2 28/1/2
f 29/1/2 30/1/2 33/1/2
f 30/2/2 31/2/2 33/2/2
f 31/1/2 32/1/2 34/1/2
f 33/2/2 31/2/2 34/2/2
f 29/1/2 33/1/2 35/1/2
f 35/1/2 33/1/2 36/1/2
f 34/1/2 32/1/2 37/1/2
f 37/1/2 32/1/2 38/1/2
f 41/1/3 40/1/3 39/1/3
f 42/1/3 40/1/3 41/1/3
f 43/1/3 40/1/3 42/1/3
f 44/2/3 42/2/3 41/2/3
f 45/2/3 42/2/3 44/2/3
f 47/1/3 45/1/3 44/1/3
f 47/1/3 46/1/3 45/1/3
f 48/1/3 46/1/3 47/1/3
f 51/1/3 50/1/3 49/1/3
f 52/1/3 50/1/3 51/1/3
f 55/1/3 54/1/3 53/1/3
f 56/1/3 54/1/3 55/1/3
f 57/1/4 58/1/4 59/1/4
f 59/1/4 58/1/4 60/1/4
f 61/1/4 62/1/4 63/1/4
f 63/1/4 62/1/4 64/1/4
f 65/1/4 66/1/4 67/1/4
f 67/1/4 66/1/4 68/1/4
f 68/1/4 66/1/4 69/1/4
f 67/2/4 68/2/4 70/2/4
f 70/2/4 68/2/4 71/2/4
f 70/1/4 71/1/4 73/1/4
f 71/1/4 72/1/4 73/1/4
f 73/1/4 72/1/4 74/1/4
f 79/2/5 77/2/5 76/2/5
f 80/1/5 78/1/5 77/1/5
f 80/2/5 77/2/5 79/2/5
f 81/1/5 76/1/5 75/1/5
f 82/2/5 79/2/5 76/2/5
f 82/1/5 76/1/5 81/1/5
f 83/3/5 80/3/5 79/3/5
f 83/2/5 79/2/5 82/2/5
f 84/1/5 78/1/5 80/1/5
f 84/3/5 80/3/5 83/3/5
f 85/1/5 78/1/5 84/1/5
f 86/2/5 83/2/5 82/2/5
f 86/2/5 82/2/5 81/2/5
f 86/2/5 85/2/5 84/2/5
f 86/2/5 84/2/5 83/2/5
f 87/2/5 85/2/5 86/2/5
f 88/2/5 85/2/5 87/2/5
f 89/2/5 85/2/5 88/2/5
f 90/2/5 85/2/5 89/2/5
f 91/2/5 85/2/5 90/2/5
f 92/2/5 86/2/5 81/2/5
f 92/3/5 87/3/5 86/3/5
f 93/2/5 88/2/5 87/2/5
f 93/3/5 87/3/5 92/3/5
f 94/3/5 89/3/5 88/3/5
f 94/2/5 88/2/5 93/2/5
f 95/2/5 90/2/5 89/2/5
f 95/3/5 89/3/5 94/3/5
f 96/3/5 91/3/5 90/3/5
f 96/2/5 90/2/5 95/2/5
f 97/2/5 85/2/5 91/2/5
f 97/3/5 91/3/5 96/3/5
f 98/2/5 96/2/5 95/2/5
f 98/2/5 95/2/5 94/2/5
f 98/2/5 97/2/5 96/2/5
f 98/2/5 94/2/5 93/2/5
f 98/2/5 93/2/5 92/2/5
f 98/2/5 92/2/5 81/2/5
f 99/2/5 97/2/5 98/2/5
f 100/2/5 97/2/5 99/2/5
f 101/2/5 97/2/5 100/2/5
f 102/2/5 85/2/5 97/2/5
f 102/2/5 97/2/5 101/2/5
f 103/1/5 99/1/5 98/1/5
f 103/3/5 100/3/5 99/3/5
f 104/2/5 101/2/5 100/2/5
f 104/3/5 100/3/5 103/3/5
f 105/1/5 103/1/5 98/1/5
f 106/2/5 104/2/5 103/2/5
f 106/1/5 103/1/5 105/1/5
f 107/2/5 101/2/5 104/2/5
f 107/2/5 104/2/5 106/2/5
f 107/1/5 102/1/5 101/1/5
f 108/1/5 102/1/5 107/1/5
f 109/2/6 110/2/6 111/2/6
f 111/2/6 110/2/6 112/2/6
f 109/2/6 111/2/6 114/2/6
f 111/3/6 112/3/6 115/3/6
f 114/2/6 111/2/6 115/2/6
f 115/3/6 112/3/6 116/3/6
f 115/2/6 116/2/6 118/2/6
f 116/2/6 117/2/6 118/2/6
f 114/2/6 115/2/6 118/2/6
f 113/2/6 114/2/6 118/2/6
f 118/2/6 117/2/6 119/2/6
f 119/2/6 117/2/6 120/2/6
f 120/2/6 117/2/6 121/2/6
f 121/2/6 117/2/6 122/2/6
f 122/2/6 117/2/6 123/2/6
f 113/2/6 118/2/6 124/2/6
f 118/3/6 119/3/6 124/3/6
f 119/2/6 120/2/6 125/2/6
f 124/3/6 119/3/6 125/3/6
f 120/3/6 121/3/6 126/3/6
f 125/2/6 120/2/6 126/2/6
f 121/2/6 122/2/6 127/2/6
f 126/3/6 121/3/6 127/3/6
f 122/3/6 123/3/6 128/3/6
f 127/2/6 122/2/6 128/2/6
f 123/2/6 117/2/6 129/2/6
f 128/3/6 123/3/6 129/3/6
f 127/2/6 128/2/6 130/2/6
f 126/2/6 127/2/6 130/2/6
f 128/2/6 129/2/6 130/2/6
f 125/2/6 126/2/6 130/2/6
f 124/2/6 125/2/6 130/2/6
f 113/2/6 124/2/6 130/2/6
f 130/2/6 129/2/6 131/2/6
f 131/2/6 129/2/6 132/2/6
f 132/2/6 129/2/6 133/2/6
f 129/2/6 117/2/6 134/2/6
f 133/2/6 129/2/6 134/2/6
f 131/3/6 132/3/6 135/3/6
f 132/2/6 133/2/6 136/2/6
f 135/3/6 132/3/6 136/3/6
f 135/2/6 136/2/6 137/2/6
f 136/2/6 133/2/6 138/2/6
f 137/2/6 136/2/6 138/2/6
f 139/1/6 140/1/6 143/1/6
f 143/1/6 140/1/6 144/1/6
f 141/1/6 142/1/6 145/1/6
f 145/1/6 142/1/6 146/1/6
f 147/1/6 148/1/6 151/1/6
f 151/1/6 148/1/6 152/1/6
f 149/1/6 150/1/6 153/1/6
f 153/1/6 150/1/6 154/1/6
