# Blender 4.3.2
# www.blender.org
mtllib Parking.mtl
o Parking
v -0.700000 0.000000 0.700000
v -0.700000 -0.000000 -0.800000
v -0.700000 0.200000 0.700000
v -0.700000 0.200000 -0.800000
v 0.500000 0.100000 0.700000
v 0.500000 0.100000 0.600000
v 0.500000 0.200000 0.700000
v 0.500000 0.200000 0.600000
v 0.700000 0.100000 0.600000
v 0.700000 0.100000 0.500000
v 0.700000 0.100000 0.300000
v 0.700000 0.100000 0.200000
v 0.700000 0.100000 -0.000000
v 0.700000 0.100000 -0.100000
v 0.700000 0.100000 -0.300000
v 0.700000 0.100000 -0.400000
v 0.700000 0.100000 -0.600000
v 0.700000 0.100000 -0.700000
v 0.700000 0.200000 0.600000
v 0.700000 0.200000 -0.700000
v -0.600000 0.100000 0.600000
v -0.600000 0.100000 0.500000
v -0.600000 0.100000 0.300000
v -0.600000 0.100000 0.200000
v -0.600000 0.100000 -0.000000
v -0.600000 0.100000 -0.100000
v -0.600000 0.100000 -0.300000
v -0.600000 0.100000 -0.400000
v -0.600000 0.100000 -0.600000
v -0.600000 0.100000 -0.700000
v -0.600000 0.200000 0.600000
v -0.600000 0.200000 -0.700000
v -0.400000 0.100000 0.700000
v -0.400000 0.100000 0.600000
v -0.400000 0.200000 0.700000
v -0.400000 0.200000 0.600000
v 0.800000 0.000000 0.700000
v 0.800000 -0.000000 -0.800000
v 0.800000 0.200000 0.700000
v 0.800000 0.200000 -0.800000
v -0.700000 0.000000 0.700000
v -0.700000 0.200000 0.700000
v -0.400000 0.000000 0.700000
v -0.400000 0.100000 0.700000
v -0.400000 0.200000 0.700000
v 0.500000 0.000000 0.700000
v 0.500000 0.100000 0.700000
v 0.500000 0.200000 0.700000
v 0.800000 0.000000 0.700000
v 0.800000 0.200000 0.700000
v -0.600000 0.100000 -0.700000
v -0.600000 0.200000 -0.700000
v -0.300000 0.100000 -0.700000
v 0.400000 0.100000 -0.700000
v 0.700000 0.100000 -0.700000
v 0.700000 0.200000 -0.700000
v -0.600000 0.100000 0.600000
v -0.600000 0.200000 0.600000
v -0.400000 0.100000 0.600000
v -0.400000 0.200000 0.600000
v 0.500000 0.100000 0.600000
v 0.500000 0.200000 0.600000
v 0.700000 0.100000 0.600000
v 0.700000 0.200000 0.600000
v -0.700000 -0.000000 -0.800000
v -0.700000 0.200000 -0.800000
v 0.800000 -0.000000 -0.800000
v 0.800000 0.200000 -0.800000
v -0.700000 0.000000 0.700000
v -0.400000 0.000000 0.700000
v 0.500000 0.000000 0.700000
v 0.800000 0.000000 0.700000
v -0.600000 0.000000 0.600000
v -0.400000 0.000000 0.600000
v -0.300000 0.000000 0.600000
v 0.400000 0.000000 0.600000
v 0.500000 0.000000 0.600000
v 0.700000 0.000000 0.600000
v -0.600000 0.000000 0.500000
v -0.300000 0.000000 0.500000
v 0.400000 0.000000 0.500000
v 0.700000 0.000000 0.500000
v -0.600000 0.000000 0.300000
v -0.300000 0.000000 0.300000
v 0.400000 0.000000 0.300000
v 0.700000 0.000000 0.300000
v -0.600000 0.000000 0.200000
v -0.300000 0.000000 0.200000
v 0.400000 0.000000 0.200000
v 0.700000 0.000000 0.200000
v -0.600000 0.000000 0.000000
v -0.300000 0.000000 0.000000
v 0.400000 0.000000 0.000000
v 0.700000 0.000000 0.000000
v -0.600000 -0.000000 -0.100000
v -0.300000 -0.000000 -0.100000
v 0.400000 -0.000000 -0.100000
v 0.700000 -0.000000 -0.100000
v -0.600000 -0.000000 -0.300000
v -0.300000 -0.000000 -0.300000
v 0.400000 -0.000000 -0.300000
v 0.700000 -0.000000 -0.300000
v -0.600000 -0.000000 -0.400000
v -0.300000 -0.000000 -0.400000
v 0.400000 -0.000000 -0.400000
v 0.700000 -0.000000 -0.400000
v -0.600000 -0.000000 -0.600000
v -0.300000 -0.000000 -0.600000
v 0.400000 -0.000000 -0.600000
v 0.700000 -0.000000 -0.600000
v -0.600000 -0.000000 -0.700000
v -0.300000 -0.000000 -0.700000
v 0.400000 -0.000000 -0.700000
v 0.700000 -0.000000 -0.700000
v -0.700000 -0.000000 -0.800000
v 0.800000 -0.000000 -0.800000
v -0.400000 0.100000 0.700000
v 0.500000 0.100000 0.700000
v -0.600000 0.100000 0.600000
v -0.400000 0.100000 0.600000
v -0.300000 0.100000 0.600000
v 0.400000 0.100000 0.600000
v 0.500000 0.100000 0.600000
v 0.700000 0.100000 0.600000
v -0.600000 0.100000 0.500000
v -0.300000 0.100000 0.500000
v 0.400000 0.100000 0.500000
v 0.700000 0.100000 0.500000
v -0.600000 0.100000 0.300000
v -0.300000 0.100000 0.300000
v 0.400000 0.100000 0.300000
v 0.700000 0.100000 0.300000
v -0.600000 0.100000 0.200000
v -0.300000 0.100000 0.200000
v 0.400000 0.100000 0.200000
v 0.700000 0.100000 0.200000
v -0.600000 0.100000 -0.000000
v -0.300000 0.100000 -0.000000
v 0.400000 0.100000 -0.000000
v 0.700000 0.100000 -0.000000
v -0.600000 0.100000 -0.100000
v -0.300000 0.100000 -0.100000
v 0.400000 0.100000 -0.100000
v 0.700000 0.100000 -0.100000
v -0.600000 0.100000 -0.300000
v -0.300000 0.100000 -0.300000
v 0.400000 0.100000 -0.300000
v 0.700000 0.100000 -0.300000
v -0.600000 0.100000 -0.400000
v -0.300000 0.100000 -0.400000
v 0.400000 0.100000 -0.400000
v 0.700000 0.100000 -0.400000
v -0.600000 0.100000 -0.600000
v -0.300000 0.100000 -0.600000
v 0.400000 0.100000 -0.600000
v 0.700000 0.100000 -0.600000
v -0.600000 0.100000 -0.700000
v -0.300000 0.100000 -0.700000
v 0.400000 0.100000 -0.700000
v 0.700000 0.100000 -0.700000
v -0.700000 0.200000 0.700000
v -0.400000 0.200000 0.700000
v 0.500000 0.200000 0.700000
v 0.800000 0.200000 0.700000
v -0.600000 0.200000 0.600000
v -0.400000 0.200000 0.600000
v 0.500000 0.200000 0.600000
v 0.700000 0.200000 0.600000
v -0.600000 0.200000 -0.700000
v 0.700000 0.200000 -0.700000
v -0.700000 0.200000 -0.800000
v 0.800000 0.200000 -0.800000
vn -1.0000 -0.0000 -0.0000
vn 1.0000 -0.0000 -0.0000
vn -0.0000 -0.0000 1.0000
vn -0.0000 -0.0000 -1.0000
vn -0.0000 -1.0000 -0.0000
vn -0.0000 1.0000 -0.0000
vt 0.939453 0.500000
vt 0.908203 0.500000
vt 0.876953 0.500000
s 1
usemtl palette
f 3/1/1 2/1/1 1/1/1
f 4/1/1 2/1/1 3/1/1
f 7/1/1 6/1/1 5/1/1
f 8/1/1 6/1/1 7/1/1
f 19/1/1 10/1/1 9/1/1
f 19/1/1 18/1/1 17/1/1
f 19/1/1 17/1/1 16/1/1
f 19/1/1 16/1/1 15/1/1
f 19/1/1 15/1/1 14/1/1
f 19/1/1 14/1/1 13/1/1
f 19/1/1 13/1/1 12/1/1
f 19/1/1 12/1/1 11/1/1
f 19/1/1 11/1/1 10/1/1
f 20/1/1 18/1/1 19/1/1
f 21/1/2 22/1/2 31/1/2
f 29/1/2 30/1/2 31/1/2
f 28/1/2 29/1/2 31/1/2
f 27/1/2 28/1/2 31/1/2
f 26/1/2 27/1/2 31/1/2
f 25/1/2 26/1/2 31/1/2
f 24/1/2 25/1/2 31/1/2
f 23/1/2 24/1/2 31/1/2
f 22/1/2 23/1/2 31/1/2
f 31/1/2 30/1/2 32/1/2
f 33/1/2 34/1/2 35/1/2
f 35/1/2 34/1/2 36/1/2
f 37/1/2 38/1/2 39/1/2
f 39/1/2 38/1/2 40/1/2
f 43/1/3 42/1/3 41/1/3
f 44/1/3 42/1/3 43/1/3
f 45/1/3 42/1/3 44/1/3
f 46/2/3 44/2/3 43/2/3
f 47/2/3 44/2/3 46/2/3
f 49/1/3 47/1/3 46/1/3
f 49/1/3 48/1/3 47/1/3
f 50/1/3 48/1/3 49/1/3
f 53/1/3 52/1/3 51/1/3
f 54/1/3 52/1/3 53/1/3
f 55/1/3 52/1/3 54/1/3
f 56/1/3 52/1/3 55/1/3
f 57/1/4 58/1/4 59/1/4
f 59/1/4 58/1/4 60/1/4
f 61/1/4 62/1/4 63/1/4
f 63/1/4 62/1/4 64/1/4
f 65/1/4 66/1/4 67/1/4
f 67/1/4 66/1/4 68/1/4
f 73/1/5 70/1/5 69/1/5
f 74/2/5 71/2/5 70/2/5
f 74/1/5 70/1/5 73/1/5
f 75/2/5 71/2/5 74/2/5
f 76/2/5 71/2/5 75/2/5
f 77/1/5 72/1/5 71/1/5
f 77/2/5 71/2/5 76/2/5
f 78/1/5 72/1/5 77/1/5
f 79/1/5 73/1/5 69/1/5
f 79/3/5 74/3/5 73/3/5
f 79/3/5 75/3/5 74/3/5
f 80/2/5 76/2/5 75/2/5
f 80/3/5 75/3/5 79/3/5
f 81/3/5 78/3/5 77/3/5
f 81/2/5 76/2/5 80/2/5
f 81/3/5 77/3/5 76/3/5
f 82/1/5 72/1/5 78/1/5
f 82/3/5 78/3/5 81/3/5
f 83/1/5 79/1/5 69/1/5
f 83/2/5 81/2/5 80/2/5
f 83/2/5 82/2/5 81/2/5
f 83/2/5 80/2/5 79/2/5
f 84/2/5 82/2/5 83/2/5
f 85/2/5 82/2/5 84/2/5
f 86/1/5 72/1/5 82/1/5
f 86/2/5 82/2/5 85/2/5
f 87/1/5 83/1/5 69/1/5
f 87/3/5 84/3/5 83/3/5
f 88/2/5 85/2/5 84/2/5
f 88/3/5 84/3/5 87/3/5
f 89/3/5 86/3/5 85/3/5
f 89/2/5 85/2/5 88/2/5
f 90/1/5 72/1/5 86/1/5
f 90/3/5 86/3/5 89/3/5
f 91/1/5 87/1/5 69/1/5
f 91/2/5 89/2/5 88/2/5
f 91/2/5 90/2/5 89/2/5
f 91/2/5 88/2/5 87/2/5
f 92/2/5 90/2/5 91/2/5
f 93/2/5 90/2/5 92/2/5
f 94/1/5 72/1/5 90/1/5
f 94/2/5 90/2/5 93/2/5
f 95/1/5 91/1/5 69/1/5
f 95/3/5 92/3/5 91/3/5
f 96/2/5 93/2/5 92/2/5
f 96/3/5 92/3/5 95/3/5
f 97/3/5 94/3/5 93/3/5
f 97/2/5 93/2/5 96/2/5
f 98/1/5 72/1/5 94/1/5
f 98/3/5 94/3/5 97/3/5
f 99/1/5 95/1/5 69/1/5
f 99/2/5 97/2/5 96/2/5
f 99/2/5 98/2/5 97/2/5
f 99/2/5 96/2/5 95/2/5
f 100/2/5 98/2/5 99/2/5
f 101/2/5 98/2/5 100/2/5
f 102/1/5 72/1/5 98/1/5
f 102/2/5 98/2/5 101/2/5
f 103/1/5 99/1/5 69/1/5
f 103/3/5 100/3/5 99/3/5
f 104/2/5 101/2/5 100/2/5
f 104/3/5 100/3/5 103/3/5
f 105/3/5 102/3/5 101/3/5
f 105/2/5 101/2/5 104/2/5
f 106/1/5 72/1/5 102/1/5
f 106/3/5 102/3/5 105/3/5
f 107/1/5 103/1/5 69/1/5
f 107/2/5 105/2/5 104/2/5
f 107/2/5 106/2/5 105/2/5
f 107/2/5 104/2/5 103/2/5
f 108/2/5 106/2/5 107/2/5
f 109/2/5 106/2/5 108/2/5
f 110/1/5 72/1/5 106/1/5
f 110/2/5 106/2/5 109/2/5
f 111/1/5 107/1/5 69/1/5
f 111/3/5 108/3/5 107/3/5
f 112/2/5 109/2/5 108/2/5
f 112/3/5 108/3/5 111/3/5
f 113/3/5 110/3/5 109/3/5
f 113/2/5 109/2/5 112/2/5
f 114/1/5 72/1/5 110/1/5
f 114/3/5 110/3/5 113/3/5
f 115/1/5 111/1/5 69/1/5
f 115/1/5 113/1/5 112/1/5
f 115/1/5 114/1/5 113/1/5
f 115/1/5 112/1/5 111/1/5
f 116/1/5 72/1/5 114/1/5
f 116/1/5 114/1/5 115/1/5
f 117/2/6 118/2/6 120/2/6
f 120/2/6 118/2/6 121/2/6
f 121/2/6 118/2/6 122/2/6
f 122/2/6 118/2/6 123/2/6
f 119/3/6 120/3/6 125/3/6
f 120/3/6 121/3/6 125/3/6
f 121/2/6 122/2/6 126/2/6
f 125/3/6 121/3/6 126/3/6
f 123/3/6 124/3/6 127/3/6
f 126/2/6 122/2/6 127/2/6
f 122/3/6 123/3/6 127/3/6
f 127/3/6 124/3/6 128/3/6
f 125/2/6 126/2/6 129/2/6
f 126/2/6 127/2/6 129/2/6
f 127/2/6 128/2/6 129/2/6
f 129/2/6 128/2/6 130/2/6
f 130/2/6 128/2/6 131/2/6
f 131/2/6 128/2/6 132/2/6
f 129/3/6 130/3/6 133/3/6
f 130/2/6 131/2/6 134/2/6
f 133/3/6 130/3/6 134/3/6
f 131/3/6 132/3/6 135/3/6
f 134/2/6 131/2/6 135/2/6
f 135/3/6 132/3/6 136/3/6
f 133/2/6 134/2/6 137/2/6
f 134/2/6 135/2/6 137/2/6
f 135/2/6 136/2/6 137/2/6
f 137/2/6 136/2/6 138/2/6
f 138/2/6 136/2/6 139/2/6
f 139/2/6 136/2/6 140/2/6
f 137/3/6 138/3/6 141/3/6
f 138/2/6 139/2/6 142/2/6
f 141/3/6 138/3/6 142/3/6
f 139/3/6 140/3/6 143/3/6
f 142/2/6 139/2/6 143/2/6
f 143/3/6 140/3/6 144/3/6
f 141/2/6 142/2/6 145/2/6
f 142/2/6 143/2/6 145/2/6
f 143/2/6 144/2/6 145/2/6
f 145/2/6 144/2/6 146/2/6
f 146/2/6 144/2/6 147/2/6
f 147/2/6 144/2/6 148/2/6
f 145/3/6 146/3/6 149/3/6
f 146/2/6 147/2/6 150/2/6
f 149/3/6 146/3/6 150/3/6
f 147/3/6 148/3/6 151/3/6
f 150/2/6 147/2/6 151/2/6
f 151/3/6 148/3/6 152/3/6
f 149/2/6 150/2/6 153/2/6
f 150/2/6 151/2/6 153/2/6
f 151/2/6 152/2/6 153/2/6
f 153/2/6 152/2/6 154/2/6
f 154/2/6 152/2/6 155/2/6
f 155/2/6 152/2/6 156/2/6
f 153/3/6 154/3/6 157/3/6
f 154/2/6 155/2/6 158/2/6
f 157/3/6 154/3/6 158/3/6
f 155/3/6 156/3/6 159/3/6
f 158/2/6 155/2/6 159/2/6
f 159/3/6 156/3/6 160/3/6
f 161/1/6 162/1/6 165/1/6
f 165/1/6 162/1/6 166/1/6
f 163/1/6 164/1/6 167/1/6
f 167/1/6 164/1/6 168/1/6
f 161/1/6 165/1/6 169/1/6
f 168/1/6 164/1/6 170/1/6
f 161/1/6 169/1/6 171/1/6
f 169/1/6 170/1/6 171/1/6
f 170/1/6 164/1/6 172/1/6
f 171/1/6 170/1/6 172/1/6
