# Blender 4.3.2
# www.blender.org
mtllib ParkTile.mtl
o ParkTile
v -0.700000 0.000000 0.700000
v -0.700000 -0.000000 -0.800000
v -0.700000 0.200000 0.700000
v -0.700000 0.200000 -0.800000
v -0.600000 0.200000 0.600000
v -0.600000 0.200000 0.500000
v -0.600000 0.200000 0.300000
v -0.600000 0.200000 0.200000
v -0.600000 0.200000 -0.000000
v -0.600000 0.200000 -0.100000
v -0.600000 0.200000 -0.300000
v -0.600000 0.200000 -0.400000
v -0.600000 0.200000 -0.600000
v -0.600000 0.200000 -0.700000
v -0.600000 0.300000 0.300000
v -0.600000 0.300000 0.200000
v -0.600000 0.300000 -0.000000
v -0.600000 0.300000 -0.100000
v -0.600000 0.300000 -0.300000
v -0.600000 0.300000 -0.400000
v -0.600000 0.400000 0.600000
v -0.600000 0.400000 0.500000
v -0.600000 0.400000 -0.600000
v -0.600000 0.400000 -0.700000
v -0.500000 0.400000 0.400000
v -0.500000 0.400000 0.300000
v -0.500000 0.400000 -0.100000
v -0.500000 0.400000 -0.200000
v -0.500000 0.600000 0.400000
v -0.500000 0.600000 0.300000
v -0.500000 0.600000 -0.100000
v -0.500000 0.600000 -0.200000
v -0.400000 0.200000 0.400000
v -0.400000 0.200000 0.300000
v -0.400000 0.200000 -0.100000
v -0.400000 0.200000 -0.200000
v -0.400000 0.400000 0.500000
v -0.400000 0.400000 0.400000
v -0.400000 0.400000 0.300000
v -0.400000 0.400000 0.200000
v -0.400000 0.400000 -0.000000
v -0.400000 0.400000 -0.100000
v -0.400000 0.400000 -0.200000
v -0.400000 0.400000 -0.300000
v -0.400000 0.400000 -0.400000
v -0.400000 0.400000 -0.500000
v -0.400000 0.600000 0.500000
v -0.400000 0.600000 0.400000
v -0.400000 0.600000 0.300000
v -0.400000 0.600000 0.200000
v -0.400000 0.600000 -0.000000
v -0.400000 0.600000 -0.100000
v -0.400000 0.600000 -0.200000
v -0.400000 0.600000 -0.300000
v -0.400000 0.600000 -0.400000
v -0.400000 0.600000 -0.500000
v -0.400000 0.700000 0.400000
v -0.400000 0.700000 0.300000
v -0.400000 0.700000 -0.100000
v -0.400000 0.700000 -0.200000
v -0.300000 0.200000 0.600000
v -0.300000 0.200000 0.500000
v -0.300000 0.200000 -0.400000
v -0.300000 0.200000 -0.500000
v -0.300000 0.200000 -0.600000
v -0.300000 0.200000 -0.700000
v -0.300000 0.300000 0.600000
v -0.300000 0.300000 0.500000
v -0.300000 0.300000 -0.600000
v -0.300000 0.300000 -0.700000
v -0.300000 0.400000 -0.300000
v -0.300000 0.400000 -0.400000
v -0.300000 0.400000 -0.500000
v -0.300000 0.400000 -0.600000
v -0.300000 0.600000 -0.300000
v -0.300000 0.600000 -0.400000
v -0.300000 0.600000 -0.500000
v -0.300000 0.600000 -0.600000
v -0.300000 0.700000 -0.400000
v -0.300000 0.700000 -0.500000
v -0.100000 0.400000 0.200000
v -0.100000 0.400000 0.100000
v -0.100000 0.400000 -0.200000
v -0.100000 0.400000 -0.300000
v -0.100000 0.600000 0.200000
v -0.100000 0.600000 0.100000
v -0.100000 0.600000 -0.200000
v -0.100000 0.600000 -0.300000
v 0.000000 0.200000 0.600000
v 0.000000 0.200000 0.500000
v 0.000000 0.200000 0.200000
v 0.000000 0.200000 0.100000
v 0.000000 0.200000 -0.200000
v 0.000000 0.200000 -0.300000
v 0.000000 0.200000 -0.600000
v 0.000000 0.200000 -0.700000
v 0.000000 0.300000 0.600000
v 0.000000 0.300000 0.500000
v 0.000000 0.300000 -0.600000
v 0.000000 0.300000 -0.700000
v 0.000000 0.400000 0.300000
v 0.000000 0.400000 0.200000
v 0.000000 0.400000 0.100000
v 0.000000 0.400000 -0.000000
v 0.000000 0.400000 -0.100000
v 0.000000 0.400000 -0.200000
v 0.000000 0.400000 -0.300000
v 0.000000 0.400000 -0.400000
v 0.000000 0.600000 0.300000
v 0.000000 0.600000 0.200000
v 0.000000 0.600000 0.100000
v 0.000000 0.600000 -0.000000
v 0.000000 0.600000 -0.100000
v 0.000000 0.600000 -0.200000
v 0.000000 0.600000 -0.300000
v 0.000000 0.600000 -0.400000
v 0.000000 0.700000 0.200000
v 0.000000 0.700000 0.100000
v 0.000000 0.700000 -0.200000
v 0.000000 0.700000 -0.300000
v 0.200000 0.400000 0.400000
v 0.200000 0.400000 0.300000
v 0.200000 0.400000 -0.400000
v 0.200000 0.400000 -0.500000
v 0.200000 0.600000 0.400000
v 0.200000 0.600000 0.300000
v 0.200000 0.600000 -0.400000
v 0.200000 0.600000 -0.500000
v 0.300000 0.200000 0.600000
v 0.300000 0.200000 0.500000
v 0.300000 0.200000 0.400000
v 0.300000 0.200000 0.300000
v 0.300000 0.200000 -0.400000
v 0.300000 0.200000 -0.500000
v 0.300000 0.200000 -0.600000
v 0.300000 0.200000 -0.700000
v 0.300000 0.300000 0.600000
v 0.300000 0.300000 0.500000
v 0.300000 0.300000 -0.600000
v 0.300000 0.300000 -0.700000
v 0.300000 0.400000 0.500000
v 0.300000 0.400000 0.400000
v 0.300000 0.400000 0.300000
v 0.300000 0.400000 0.200000
v 0.300000 0.400000 -0.000000
v 0.300000 0.400000 -0.100000
v 0.300000 0.400000 -0.300000
v 0.300000 0.400000 -0.400000
v 0.300000 0.400000 -0.500000
v 0.300000 0.400000 -0.600000
v 0.300000 0.600000 0.500000
v 0.300000 0.600000 0.400000
v 0.300000 0.600000 0.300000
v 0.300000 0.600000 0.200000
v 0.300000 0.600000 -0.000000
v 0.300000 0.600000 -0.100000
v 0.300000 0.600000 -0.300000
v 0.300000 0.600000 -0.400000
v 0.300000 0.600000 -0.500000
v 0.300000 0.600000 -0.600000
v 0.300000 0.700000 0.400000
v 0.300000 0.700000 0.300000
v 0.300000 0.700000 -0.400000
v 0.300000 0.700000 -0.500000
v 0.400000 0.200000 -0.000000
v 0.400000 0.200000 -0.100000
v 0.400000 0.400000 0.100000
v 0.400000 0.400000 -0.000000
v 0.400000 0.400000 -0.100000
v 0.400000 0.400000 -0.200000
v 0.400000 0.600000 0.100000
v 0.400000 0.600000 -0.000000
v 0.400000 0.600000 -0.100000
v 0.400000 0.600000 -0.200000
v 0.400000 0.700000 -0.000000
v 0.400000 0.700000 -0.100000
v 0.600000 0.200000 0.600000
v 0.600000 0.200000 0.500000
v 0.600000 0.200000 0.300000
v 0.600000 0.200000 0.200000
v 0.600000 0.200000 -0.000000
v 0.600000 0.200000 -0.100000
v 0.600000 0.200000 -0.300000
v 0.600000 0.200000 -0.400000
v 0.600000 0.200000 -0.600000
v 0.600000 0.200000 -0.700000
v 0.600000 0.300000 0.300000
v 0.600000 0.300000 0.200000
v 0.600000 0.300000 -0.000000
v 0.600000 0.300000 -0.100000
v 0.600000 0.300000 -0.300000
v 0.600000 0.300000 -0.400000
v 0.600000 0.400000 0.600000
v 0.600000 0.400000 0.500000
v 0.600000 0.400000 -0.600000
v 0.600000 0.400000 -0.700000
v -0.500000 0.200000 0.600000
v -0.500000 0.200000 0.500000
v -0.500000 0.200000 0.300000
v -0.500000 0.200000 0.200000
v -0.500000 0.200000 -0.000000
v -0.500000 0.200000 -0.100000
v -0.500000 0.200000 -0.300000
v -0.500000 0.200000 -0.400000
v -0.500000 0.200000 -0.600000
v -0.500000 0.200000 -0.700000
v -0.500000 0.300000 0.300000
v -0.500000 0.300000 0.200000
v -0.500000 0.300000 -0.000000
v -0.500000 0.300000 -0.100000
v -0.500000 0.300000 -0.300000
v -0.500000 0.300000 -0.400000
v -0.500000 0.400000 0.600000
v -0.500000 0.400000 0.500000
v -0.500000 0.400000 -0.600000
v -0.500000 0.400000 -0.700000
v -0.300000 0.200000 0.400000
v -0.300000 0.200000 0.300000
v -0.300000 0.200000 -0.100000
v -0.300000 0.200000 -0.200000
v -0.300000 0.400000 0.500000
v -0.300000 0.400000 0.400000
v -0.300000 0.400000 0.300000
v -0.300000 0.400000 0.200000
v -0.300000 0.400000 -0.000000
v -0.300000 0.400000 -0.100000
v -0.300000 0.400000 -0.200000
v -0.300000 0.400000 -0.300000
v -0.300000 0.600000 0.500000
v -0.300000 0.600000 0.400000
v -0.300000 0.600000 0.300000
v -0.300000 0.600000 0.200000
v -0.300000 0.600000 -0.000000
v -0.300000 0.600000 -0.100000
v -0.300000 0.600000 -0.200000
v -0.300000 0.600000 -0.300000
v -0.300000 0.700000 0.400000
v -0.300000 0.700000 0.300000
v -0.300000 0.700000 -0.100000
v -0.300000 0.700000 -0.200000
v -0.200000 0.200000 0.600000
v -0.200000 0.200000 0.500000
v -0.200000 0.200000 -0.400000
v -0.200000 0.200000 -0.500000
v -0.200000 0.200000 -0.600000
v -0.200000 0.200000 -0.700000
v -0.200000 0.300000 0.600000
v -0.200000 0.300000 0.500000
v -0.200000 0.300000 -0.600000
v -0.200000 0.300000 -0.700000
v -0.200000 0.400000 0.400000
v -0.200000 0.400000 0.300000
v -0.200000 0.400000 -0.100000
v -0.200000 0.400000 -0.200000
v -0.200000 0.400000 -0.300000
v -0.200000 0.400000 -0.400000
v -0.200000 0.400000 -0.500000
v -0.200000 0.400000 -0.600000
v -0.200000 0.600000 0.400000
v -0.200000 0.600000 0.300000
v -0.200000 0.600000 -0.100000
v -0.200000 0.600000 -0.200000
v -0.200000 0.600000 -0.300000
v -0.200000 0.600000 -0.400000
v -0.200000 0.600000 -0.500000
v -0.200000 0.600000 -0.600000
v -0.200000 0.700000 -0.400000
v -0.200000 0.700000 -0.500000
v -0.100000 0.400000 -0.400000
v -0.100000 0.400000 -0.500000
v -0.100000 0.600000 -0.400000
v -0.100000 0.600000 -0.500000
v 0.100000 0.200000 0.600000
v 0.100000 0.200000 0.500000
v 0.100000 0.200000 0.200000
v 0.100000 0.200000 0.100000
v 0.100000 0.200000 -0.200000
v 0.100000 0.200000 -0.300000
v 0.100000 0.200000 -0.600000
v 0.100000 0.200000 -0.700000
v 0.100000 0.300000 0.600000
v 0.100000 0.300000 0.500000
v 0.100000 0.300000 -0.600000
v 0.100000 0.300000 -0.700000
v 0.100000 0.400000 0.300000
v 0.100000 0.400000 0.200000
v 0.100000 0.400000 0.100000
v 0.100000 0.400000 -0.000000
v 0.100000 0.400000 -0.100000
v 0.100000 0.400000 -0.200000
v 0.100000 0.400000 -0.300000
v 0.100000 0.400000 -0.400000
v 0.100000 0.600000 0.300000
v 0.100000 0.600000 0.200000
v 0.100000 0.600000 0.100000
v 0.100000 0.600000 -0.000000
v 0.100000 0.600000 -0.100000
v 0.100000 0.600000 -0.200000
v 0.100000 0.600000 -0.300000
v 0.100000 0.600000 -0.400000
v 0.100000 0.700000 0.200000
v 0.100000 0.700000 0.100000
v 0.100000 0.700000 -0.200000
v 0.100000 0.700000 -0.300000
v 0.200000 0.400000 0.200000
v 0.200000 0.400000 0.100000
v 0.200000 0.400000 -0.200000
v 0.200000 0.400000 -0.300000
v 0.200000 0.600000 0.200000
v 0.200000 0.600000 0.100000
v 0.200000 0.600000 -0.200000
v 0.200000 0.600000 -0.300000
v 0.400000 0.200000 0.600000
v 0.400000 0.200000 0.500000
v 0.400000 0.200000 0.400000
v 0.400000 0.200000 0.300000
v 0.400000 0.200000 -0.400000
v 0.400000 0.200000 -0.500000
v 0.400000 0.200000 -0.600000
v 0.400000 0.200000 -0.700000
v 0.400000 0.300000 0.600000
v 0.400000 0.300000 0.500000
v 0.400000 0.300000 -0.600000
v 0.400000 0.300000 -0.700000
v 0.400000 0.400000 0.500000
v 0.400000 0.400000 0.400000
v 0.400000 0.400000 0.300000
v 0.400000 0.400000 0.200000
v 0.400000 0.400000 -0.300000
v 0.400000 0.400000 -0.400000
v 0.400000 0.400000 -0.500000
v 0.400000 0.400000 -0.600000
v 0.400000 0.600000 0.500000
v 0.400000 0.600000 0.400000
v 0.400000 0.600000 0.300000
v 0.400000 0.600000 0.200000
v 0.400000 0.600000 -0.300000
v 0.400000 0.600000 -0.400000
v 0.400000 0.600000 -0.500000
v 0.400000 0.600000 -0.600000
v 0.400000 0.700000 0.400000
v 0.400000 0.700000 0.300000
v 0.400000 0.700000 -0.400000
v 0.400000 0.700000 -0.500000
v 0.500000 0.200000 -0.000000
v 0.500000 0.200000 -0.100000
v 0.500000 0.400000 0.400000
v 0.500000 0.400000 0.300000
v 0.500000 0.400000 0.100000
v 0.500000 0.400000 -0.000000
v 0.500000 0.400000 -0.100000
v 0.500000 0.400000 -0.200000
v 0.500000 0.400000 -0.400000
v 0.500000 0.400000 -0.500000
v 0.500000 0.600000 0.400000
v 0.500000 0.600000 0.300000
v 0.500000 0.600000 0.100000
v 0.500000 0.600000 -0.000000
v 0.500000 0.600000 -0.100000
v 0.500000 0.600000 -0.200000
v 0.500000 0.600000 -0.400000
v 0.500000 0.600000 -0.500000
v 0.500000 0.700000 -0.000000
v 0.500000 0.700000 -0.100000
v 0.600000 0.400000 -0.000000
v 0.600000 0.400000 -0.100000
v 0.600000 0.600000 -0.000000
v 0.600000 0.600000 -0.100000
v 0.700000 0.200000 0.600000
v 0.700000 0.200000 0.500000
v 0.700000 0.200000 0.300000
v 0.700000 0.200000 0.200000
v 0.700000 0.200000 -0.000000
v 0.700000 0.200000 -0.100000
v 0.700000 0.200000 -0.300000
v 0.700000 0.200000 -0.400000
v 0.700000 0.200000 -0.600000
v 0.700000 0.200000 -0.700000
v 0.700000 0.300000 0.300000
v 0.700000 0.300000 0.200000
v 0.700000 0.300000 -0.000000
v 0.700000 0.300000 -0.100000
v 0.700000 0.300000 -0.300000
v 0.700000 0.300000 -0.400000
v 0.700000 0.400000 0.600000
v 0.700000 0.400000 0.500000
v 0.700000 0.400000 -0.600000
v 0.700000 0.400000 -0.700000
v 0.800000 0.000000 0.700000
v 0.800000 -0.000000 -0.800000
v 0.800000 0.200000 0.700000
v 0.800000 0.200000 -0.800000
v -0.700000 0.000000 0.700000
v -0.700000 0.200000 0.700000
v 0.800000 0.000000 0.700000
v 0.800000 0.200000 0.700000
v -0.600000 0.200000 0.600000
v -0.600000 0.400000 0.600000
v -0.500000 0.200000 0.600000
v -0.500000 0.400000 0.600000
v -0.300000 0.200000 0.600000
v -0.300000 0.300000 0.600000
v -0.200000 0.200000 0.600000
v -0.200000 0.300000 0.600000
v 0.000000 0.200000 0.600000
v 0.000000 0.300000 0.600000
v 0.100000 0.200000 0.600000
v 0.100000 0.300000 0.600000
v 0.300000 0.200000 0.600000
v 0.300000 0.300000 0.600000
v 0.400000 0.200000 0.600000
v 0.400000 0.300000 0.600000
v 0.600000 0.200000 0.600000
v 0.600000 0.400000 0.600000
v 0.700000 0.200000 0.600000
v 0.700000 0.400000 0.600000
v -0.400000 0.400000 0.500000
v -0.400000 0.600000 0.500000
v -0.300000 0.400000 0.500000
v -0.300000 0.600000 0.500000
v 0.300000 0.400000 0.500000
v 0.300000 0.600000 0.500000
v 0.400000 0.400000 0.500000
v 0.400000 0.600000 0.500000
v -0.500000 0.400000 0.400000
v -0.500000 0.600000 0.400000
v -0.400000 0.200000 0.400000
v -0.400000 0.400000 0.400000
v -0.400000 0.600000 0.400000
v -0.400000 0.700000 0.400000
v -0.300000 0.200000 0.400000
v -0.300000 0.400000 0.400000
v -0.300000 0.600000 0.400000
v -0.300000 0.700000 0.400000
v -0.200000 0.400000 0.400000
v -0.200000 0.600000 0.400000
v 0.200000 0.400000 0.400000
v 0.200000 0.600000 0.400000
v 0.300000 0.200000 0.400000
v 0.300000 0.400000 0.400000
v 0.300000 0.600000 0.400000
v 0.300000 0.700000 0.400000
v 0.400000 0.200000 0.400000
v 0.400000 0.400000 0.400000
v 0.400000 0.600000 0.400000
v 0.400000 0.700000 0.400000
v 0.500000 0.400000 0.400000
v 0.500000 0.600000 0.400000
v -0.600000 0.200000 0.300000
v -0.600000 0.300000 0.300000
v -0.500000 0.200000 0.300000
v -0.500000 0.300000 0.300000
v 0.000000 0.400000 0.300000
v 0.000000 0.600000 0.300000
v 0.100000 0.400000 0.300000
v 0.100000 0.600000 0.300000
v 0.600000 0.200000 0.300000
v 0.600000 0.300000 0.300000
v 0.700000 0.200000 0.300000
v 0.700000 0.300000 0.300000
v -0.100000 0.400000 0.200000
v -0.100000 0.600000 0.200000
v 0.000000 0.200000 0.200000
v 0.000000 0.400000 0.200000
v 0.000000 0.600000 0.200000
v 0.000000 0.700000 0.200000
v 0.100000 0.200000 0.200000
v 0.100000 0.400000 0.200000
v 0.100000 0.600000 0.200000
v 0.100000 0.700000 0.200000
v 0.200000 0.400000 0.200000
v 0.200000 0.600000 0.200000
v 0.400000 0.400000 0.100000
v 0.400000 0.600000 0.100000
v 0.500000 0.400000 0.100000
v 0.500000 0.600000 0.100000
v -0.600000 0.200000 -0.000000
v -0.600000 0.300000 -0.000000
v -0.500000 0.200000 -0.000000
v -0.500000 0.300000 -0.000000
v -0.400000 0.400000 -0.000000
v -0.400000 0.600000 -0.000000
v -0.300000 0.400000 -0.000000
v -0.300000 0.600000 -0.000000
v 0.300000 0.400000 -0.000000
v 0.300000 0.600000 -0.000000
v 0.400000 0.200000 -0.000000
v 0.400000 0.400000 -0.000000
v 0.400000 0.600000 -0.000000
v 0.400000 0.700000 -0.000000
v 0.500000 0.200000 -0.000000
v 0.500000 0.400000 -0.000000
v 0.500000 0.600000 -0.000000
v 0.500000 0.700000 -0.000000
v 0.600000 0.200000 -0.000000
v 0.600000 0.300000 -0.000000
v 0.600000 0.400000 -0.000000
v 0.600000 0.600000 -0.000000
v 0.700000 0.200000 -0.000000
v 0.700000 0.300000 -0.000000
v -0.500000 0.400000 -0.100000
v -0.500000 0.600000 -0.100000
v -0.400000 0.200000 -0.100000
v -0.400000 0.400000 -0.100000
v -0.400000 0.600000 -0.100000
v -0.400000 0.700000 -0.100000
v -0.300000 0.200000 -0.100000
v -0.300000 0.400000 -0.100000
v -0.300000 0.600000 -0.100000
v -0.300000 0.700000 -0.100000
v -0.200000 0.400000 -0.100000
v -0.200000 0.600000 -0.100000
v 0.000000 0.400000 -0.100000
v 0.000000 0.600000 -0.100000
v 0.100000 0.400000 -0.100000
v 0.100000 0.600000 -0.100000
v -0.100000 0.400000 -0.200000
v -0.100000 0.600000 -0.200000
v 0.000000 0.200000 -0.200000
v 0.000000 0.400000 -0.200000
v 0.000000 0.600000 -0.200000
v 0.000000 0.700000 -0.200000
v 0.100000 0.200000 -0.200000
v 0.100000 0.400000 -0.200000
v 0.100000 0.600000 -0.200000
v 0.100000 0.700000 -0.200000
v 0.200000 0.400000 -0.200000
v 0.200000 0.600000 -0.200000
v -0.600000 0.200000 -0.300000
v -0.600000 0.300000 -0.300000
v -0.500000 0.200000 -0.300000
v -0.500000 0.300000 -0.300000
v -0.300000 0.400000 -0.300000
v -0.300000 0.600000 -0.300000
v -0.200000 0.400000 -0.300000
v -0.200000 0.600000 -0.300000
v 0.300000 0.400000 -0.300000
v 0.300000 0.600000 -0.300000
v 0.400000 0.400000 -0.300000
v 0.400000 0.600000 -0.300000
v 0.600000 0.200000 -0.300000
v 0.600000 0.300000 -0.300000
v 0.700000 0.200000 -0.300000
v 0.700000 0.300000 -0.300000
v -0.400000 0.400000 -0.400000
v -0.400000 0.600000 -0.400000
v -0.300000 0.200000 -0.400000
v -0.300000 0.400000 -0.400000
v -0.300000 0.600000 -0.400000
v -0.300000 0.700000 -0.400000
v -0.200000 0.200000 -0.400000
v -0.200000 0.400000 -0.400000
v -0.200000 0.600000 -0.400000
v -0.200000 0.700000 -0.400000
v -0.100000 0.400000 -0.400000
v -0.100000 0.600000 -0.400000
v 0.200000 0.400000 -0.400000
v 0.200000 0.600000 -0.400000
v 0.300000 0.200000 -0.400000
v 0.300000 0.400000 -0.400000
v 0.300000 0.600000 -0.400000
v 0.300000 0.700000 -0.400000
v 0.400000 0.200000 -0.400000
v 0.400000 0.400000 -0.400000
v 0.400000 0.600000 -0.400000
v 0.400000 0.700000 -0.400000
v 0.500000 0.400000 -0.400000
v 0.500000 0.600000 -0.400000
v -0.600000 0.200000 -0.600000
v -0.600000 0.400000 -0.600000
v -0.500000 0.200000 -0.600000
v -0.500000 0.400000 -0.600000
v -0.300000 0.200000 -0.600000
v -0.300000 0.300000 -0.600000
v -0.200000 0.200000 -0.600000
v -0.200000 0.300000 -0.600000
v 0.000000 0.200000 -0.600000
v 0.000000 0.300000 -0.600000
v 0.100000 0.200000 -0.600000
v 0.100000 0.300000 -0.600000
v 0.300000 0.200000 -0.600000
v 0.300000 0.300000 -0.600000
v 0.400000 0.200000 -0.600000
v 0.400000 0.300000 -0.600000
v 0.600000 0.200000 -0.600000
v 0.600000 0.400000 -0.600000
v 0.700000 0.200000 -0.600000
v 0.700000 0.400000 -0.600000
v -0.600000 0.200000 0.500000
v -0.600000 0.400000 0.500000
v -0.500000 0.200000 0.500000
v -0.500000 0.400000 0.500000
v -0.300000 0.200000 0.500000
v -0.300000 0.300000 0.500000
v -0.200000 0.200000 0.500000
v -0.200000 0.300000 0.500000
v 0.000000 0.200000 0.500000
v 0.000000 0.300000 0.500000
v 0.100000 0.200000 0.500000
v 0.100000 0.300000 0.500000
v 0.300000 0.200000 0.500000
v 0.300000 0.300000 0.500000
v 0.400000 0.200000 0.500000
v 0.400000 0.300000 0.500000
v 0.600000 0.200000 0.500000
v 0.600000 0.400000 0.500000
v 0.700000 0.200000 0.500000
v 0.700000 0.400000 0.500000
v -0.500000 0.400000 0.300000
v -0.500000 0.600000 0.300000
v -0.400000 0.200000 0.300000
v -0.400000 0.400000 0.300000
v -0.400000 0.600000 0.300000
v -0.400000 0.700000 0.300000
v -0.300000 0.200000 0.300000
v -0.300000 0.400000 0.300000
v -0.300000 0.600000 0.300000
v -0.300000 0.700000 0.300000
v -0.200000 0.400000 0.300000
v -0.200000 0.600000 0.300000
v 0.200000 0.400000 0.300000
v 0.200000 0.600000 0.300000
v 0.300000 0.200000 0.300000
v 0.300000 0.400000 0.300000
v 0.300000 0.600000 0.300000
v 0.300000 0.700000 0.300000
v 0.400000 0.200000 0.300000
v 0.400000 0.400000 0.300000
v 0.400000 0.600000 0.300000
v 0.400000 0.700000 0.300000
v 0.500000 0.400000 0.300000
v 0.500000 0.600000 0.300000
v -0.600000 0.200000 0.200000
v -0.600000 0.300000 0.200000
v -0.500000 0.200000 0.200000
v -0.500000 0.300000 0.200000
v -0.400000 0.400000 0.200000
v -0.400000 0.600000 0.200000
v -0.300000 0.400000 0.200000
v -0.300000 0.600000 0.200000
v 0.300000 0.400000 0.200000
v 0.300000 0.600000 0.200000
v 0.400000 0.400000 0.200000
v 0.400000 0.600000 0.200000
v 0.600000 0.200000 0.200000
v 0.600000 0.300000 0.200000
v 0.700000 0.200000 0.200000
v 0.700000 0.300000 0.200000
v -0.100000 0.400000 0.100000
v -0.100000 0.600000 0.100000
v 0.000000 0.200000 0.100000
v 0.000000 0.400000 0.100000
v 0.000000 0.600000 0.100000
v 0.000000 0.700000 0.100000
v 0.100000 0.200000 0.100000
v 0.100000 0.400000 0.100000
v 0.100000 0.600000 0.100000
v 0.100000 0.700000 0.100000
v 0.200000 0.400000 0.100000
v 0.200000 0.600000 0.100000
v 0.000000 0.400000 -0.000000
v 0.000000 0.600000 -0.000000
v 0.100000 0.400000 -0.000000
v 0.100000 0.600000 -0.000000
v -0.600000 0.200000 -0.100000
v -0.600000 0.300000 -0.100000
v -0.500000 0.200000 -0.100000
v -0.500000 0.300000 -0.100000
v 0.300000 0.400000 -0.100000
v 0.300000 0.600000 -0.100000
v 0.400000 0.200000 -0.100000
v 0.400000 0.400000 -0.100000
v 0.400000 0.600000 -0.100000
v 0.400000 0.700000 -0.100000
v 0.500000 0.200000 -0.100000
v 0.500000 0.400000 -0.100000
v 0.500000 0.600000 -0.100000
v 0.500000 0.700000 -0.100000
v 0.600000 0.200000 -0.100000
v 0.600000 0.300000 -0.100000
v 0.600000 0.400000 -0.100000
v 0.600000 0.600000 -0.100000
v 0.700000 0.200000 -0.100000
v 0.700000 0.300000 -0.100000
v -0.500000 0.400000 -0.200000
v -0.500000 0.600000 -0.200000
v -0.400000 0.200000 -0.200000
v -0.400000 0.400000 -0.200000
v -0.400000 0.600000 -0.200000
v -0.400000 0.700000 -0.200000
v -0.300000 0.200000 -0.200000
v -0.300000 0.400000 -0.200000
v -0.300000 0.600000 -0.200000
v -0.300000 0.700000 -0.200000
v -0.200000 0.400000 -0.200000
v -0.200000 0.600000 -0.200000
v 0.400000 0.400000 -0.200000
v 0.400000 0.600000 -0.200000
v 0.500000 0.400000 -0.200000
v 0.500000 0.600000 -0.200000
v -0.400000 0.400000 -0.300000
v -0.400000 0.600000 -0.300000
v -0.300000 0.400000 -0.300000
v -0.300000 0.600000 -0.300000
v -0.100000 0.400000 -0.300000
v -0.100000 0.600000 -0.300000
v 0.000000 0.200000 -0.300000
v 0.000000 0.400000 -0.300000
v 0.000000 0.600000 -0.300000
v 0.000000 0.700000 -0.300000
v 0.100000 0.200000 -0.300000
v 0.100000 0.400000 -0.300000
v 0.100000 0.600000 -0.300000
v 0.100000 0.700000 -0.300000
v 0.200000 0.400000 -0.300000
v 0.200000 0.600000 -0.300000
v -0.600000 0.200000 -0.400000
v -0.600000 0.300000 -0.400000
v -0.500000 0.200000 -0.400000
v -0.500000 0.300000 -0.400000
v 0.000000 0.400000 -0.400000
v 0.000000 0.600000 -0.400000
v 0.100000 0.400000 -0.400000
v 0.100000 0.600000 -0.400000
v 0.600000 0.200000 -0.400000
v 0.600000 0.300000 -0.400000
v 0.700000 0.200000 -0.400000
v 0.700000 0.300000 -0.400000
v -0.400000 0.400000 -0.500000
v -0.400000 0.600000 -0.500000
v -0.300000 0.200000 -0.500000
v -0.300000 0.400000 -0.500000
v -0.300000 0.600000 -0.500000
v -0.300000 0.700000 -0.500000
v -0.200000 0.200000 -0.500000
v -0.200000 0.400000 -0.500000
v -0.200000 0.600000 -0.500000
v -0.200000 0.700000 -0.500000
v -0.100000 0.400000 -0.500000
v -0.100000 0.600000 -0.500000
v 0.200000 0.400000 -0.500000
v 0.200000 0.600000 -0.500000
v 0.300000 0.200000 -0.500000
v 0.300000 0.400000 -0.500000
v 0.300000 0.600000 -0.500000
v 0.300000 0.700000 -0.500000
v 0.400000 0.200000 -0.500000
v 0.400000 0.400000 -0.500000
v 0.400000 0.600000 -0.500000
v 0.400000 0.700000 -0.500000
v 0.500000 0.400000 -0.500000
v 0.500000 0.600000 -0.500000
v -0.300000 0.400000 -0.600000
v -0.300000 0.600000 -0.600000
v -0.200000 0.400000 -0.600000
v -0.200000 0.600000 -0.600000
v 0.300000 0.400000 -0.600000
v 0.300000 0.600000 -0.600000
v 0.400000 0.400000 -0.600000
v 0.400000 0.600000 -0.600000
v -0.600000 0.200000 -0.700000
v -0.600000 0.400000 -0.700000
v -0.500000 0.200000 -0.700000
v -0.500000 0.400000 -0.700000
v -0.300000 0.200000 -0.700000
v -0.300000 0.300000 -0.700000
v -0.200000 0.200000 -0.700000
v -0.200000 0.300000 -0.700000
v 0.000000 0.200000 -0.700000
v 0.000000 0.300000 -0.700000
v 0.100000 0.200000 -0.700000
v 0.100000 0.300000 -0.700000
v 0.300000 0.200000 -0.700000
v 0.300000 0.300000 -0.700000
v 0.400000 0.200000 -0.700000
v 0.400000 0.300000 -0.700000
v 0.600000 0.200000 -0.700000
v 0.600000 0.400000 -0.700000
v 0.700000 0.200000 -0.700000
v 0.700000 0.400000 -0.700000
v -0.700000 -0.000000 -0.800000
v -0.700000 0.200000 -0.800000
v 0.800000 -0.000000 -0.800000
v 0.800000 0.200000 -0.800000
v -0.700000 0.000000 0.700000
v 0.800000 0.000000 0.700000
v -0.700000 -0.000000 -0.800000
v 0.800000 -0.000000 -0.800000
v -0.400000 0.400000 0.500000
v -0.300000 0.400000 0.500000
v 0.300000 0.400000 0.500000
v 0.400000 0.400000 0.500000
v -0.500000 0.400000 0.400000
v -0.400000 0.400000 0.400000
v -0.300000 0.400000 0.400000
v -0.200000 0.400000 0.400000
v 0.200000 0.400000 0.400000
v 0.300000 0.400000 0.400000
v 0.400000 0.400000 0.400000
v 0.500000 0.400000 0.400000
v -0.500000 0.400000 0.300000
v -0.400000 0.400000 0.300000
v -0.300000 0.400000 0.300000
v -0.200000 0.400000 0.300000
v 0.000000 0.400000 0.300000
v 0.100000 0.400000 0.300000
v 0.200000 0.400000 0.300000
v 0.300000 0.400000 0.300000
v 0.400000 0.400000 0.300000
v 0.500000 0.400000 0.300000
v -0.400000 0.400000 0.200000
v -0.300000 0.400000 0.200000
v -0.100000 0.400000 0.200000
v 0.000000 0.400000 0.200000
v 0.100000 0.400000 0.200000
v 0.200000 0.400000 0.200000
v 0.300000 0.400000 0.200000
v 0.400000 0.400000 0.200000
v -0.100000 0.400000 0.100000
v 0.000000 0.400000 0.100000
v 0.100000 0.400000 0.100000
v 0.200000 0.400000 0.100000
v 0.400000 0.400000 0.100000
v 0.500000 0.400000 0.100000
v -0.400000 0.400000 -0.000000
v -0.300000 0.400000 -0.000000
v 0.000000 0.400000 -0.000000
v 0.100000 0.400000 -0.000000
v 0.300000 0.400000 -0.000000
v 0.400000 0.400000 -0.000000
v 0.500000 0.400000 -0.000000
v 0.600000 0.400000 -0.000000
v -0.500000 0.400000 -0.100000
v -0.400000 0.400000 -0.100000
v -0.300000 0.400000 -0.100000
v -0.200000 0.400000 -0.100000
v 0.000000 0.400000 -0.100000
v 0.100000 0.400000 -0.100000
v 0.300000 0.400000 -0.100000
v 0.400000 0.400000 -0.100000
v 0.500000 0.400000 -0.100000
v 0.600000 0.400000 -0.100000
v -0.500000 0.400000 -0.200000
v -0.400000 0.400000 -0.200000
v -0.300000 0.400000 -0.200000
v -0.200000 0.400000 -0.200000
v -0.100000 0.400000 -0.200000
v 0.000000 0.400000 -0.200000
v 0.100000 0.400000 -0.200000
v 0.200000 0.400000 -0.200000
v 0.400000 0.400000 -0.200000
v 0.500000 0.400000 -0.200000
v -0.400000 0.400000 -0.300000
v -0.300000 0.400000 -0.300000
v -0.200000 0.400000 -0.300000
v -0.100000 0.400000 -0.300000
v 0.000000 0.400000 -0.300000
v 0.100000 0.400000 -0.300000
v 0.200000 0.400000 -0.300000
v 0.300000 0.400000 -0.300000
v 0.400000 0.400000 -0.300000
v -0.400000 0.400000 -0.400000
v -0.300000 0.400000 -0.400000
v -0.200000 0.400000 -0.400000
v -0.100000 0.400000 -0.400000
v 0.000000 0.400000 -0.400000
v 0.100000 0.400000 -0.400000
v 0.200000 0.400000 -0.400000
v 0.300000 0.400000 -0.400000
v 0.400000 0.400000 -0.400000
v 0.500000 0.400000 -0.400000
v -0.400000 0.400000 -0.500000
v -0.300000 0.400000 -0.500000
v -0.200000 0.400000 -0.500000
v -0.100000 0.400000 -0.500000
v 0.200000 0.400000 -0.500000
v 0.300000 0.400000 -0.500000
v 0.400000 0.400000 -0.500000
v 0.500000 0.400000 -0.500000
v -0.300000 0.400000 -0.600000
v -0.200000 0.400000 -0.600000
v 0.300000 0.400000 -0.600000
v 0.400000 0.400000 -0.600000
v -0.700000 0.200000 0.700000
v 0.800000 0.200000 0.700000
v -0.600000 0.200000 0.600000
v -0.500000 0.200000 0.600000
v -0.300000 0.200000 0.600000
v -0.200000 0.200000 0.600000
v 0.000000 0.200000 0.600000
v 0.100000 0.200000 0.600000
v 0.300000 0.200000 0.600000
v 0.400000 0.200000 0.600000
v 0.600000 0.200000 0.600000
v 0.700000 0.200000 0.600000
v -0.600000 0.200000 0.500000
v -0.500000 0.200000 0.500000
v -0.300000 0.200000 0.500000
v -0.200000 0.200000 0.500000
v 0.000000 0.200000 0.500000
v 0.100000 0.200000 0.500000
v 0.300000 0.200000 0.500000
v 0.400000 0.200000 0.500000
v 0.600000 0.200000 0.500000
v 0.700000 0.200000 0.500000
v -0.400000 0.200000 0.400000
v -0.300000 0.200000 0.400000
v 0.300000 0.200000 0.400000
v 0.400000 0.200000 0.400000
v -0.600000 0.200000 0.300000
v -0.500000 0.200000 0.300000
v -0.400000 0.200000 0.300000
v -0.300000 0.200000 0.300000
v 0.300000 0.200000 0.300000
v 0.400000 0.200000 0.300000
v 0.600000 0.200000 0.300000
v 0.700000 0.200000 0.300000
v -0.600000 0.200000 0.200000
v -0.500000 0.200000 0.200000
v 0.000000 0.200000 0.200000
v 0.100000 0.200000 0.200000
v 0.600000 0.200000 0.200000
v 0.700000 0.200000 0.200000
v 0.000000 0.200000 0.100000
v 0.100000 0.200000 0.100000
v -0.600000 0.200000 -0.000000
v -0.500000 0.200000 -0.000000
v 0.400000 0.200000 -0.000000
v 0.500000 0.200000 -0.000000
v 0.600000 0.200000 -0.000000
v 0.700000 0.200000 -0.000000
v -0.600000 0.200000 -0.100000
v -0.500000 0.200000 -0.100000
v -0.400000 0.200000 -0.100000
v -0.300000 0.200000 -0.100000
v 0.400000 0.200000 -0.100000
v 0.500000 0.200000 -0.100000
v 0.600000 0.200000 -0.100000
v 0.700000 0.200000 -0.100000
v -0.400000 0.200000 -0.200000
v -0.300000 0.200000 -0.200000
v 0.000000 0.200000 -0.200000
v 0.100000 0.200000 -0.200000
v -0.600000 0.200000 -0.300000
v -0.500000 0.200000 -0.300000
v 0.000000 0.200000 -0.300000
v 0.100000 0.200000 -0.300000
v 0.600000 0.200000 -0.300000
v 0.700000 0.200000 -0.300000
v -0.600000 0.200000 -0.400000
v -0.500000 0.200000 -0.400000
v -0.300000 0.200000 -0.400000
v -0.200000 0.200000 -0.400000
v 0.300000 0.200000 -0.400000
v 0.400000 0.200000 -0.400000
v 0.600000 0.200000 -0.400000
v 0.700000 0.200000 -0.400000
v -0.300000 0.200000 -0.500000
v -0.200000 0.200000 -0.500000
v 0.300000 0.200000 -0.500000
v 0.400000 0.200000 -0.500000
v -0.600000 0.200000 -0.600000
v -0.500000 0.200000 -0.600000
v -0.300000 0.200000 -0.600000
v -0.200000 0.200000 -0.600000
v 0.000000 0.200000 -0.600000
v 0.100000 0.200000 -0.600000
v 0.300000 0.200000 -0.600000
v 0.400000 0.200000 -0.600000
v 0.600000 0.200000 -0.600000
v 0.700000 0.200000 -0.600000
v -0.600000 0.200000 -0.700000
v -0.500000 0.200000 -0.700000
v -0.300000 0.200000 -0.700000
v -0.200000 0.200000 -0.700000
v 0.000000 0.200000 -0.700000
v 0.100000 0.200000 -0.700000
v 0.300000 0.200000 -0.700000
v 0.400000 0.200000 -0.700000
v 0.600000 0.200000 -0.700000
v 0.700000 0.200000 -0.700000
v -0.700000 0.200000 -0.800000
v 0.800000 0.200000 -0.800000
v -0.300000 0.300000 0.600000
v -0.200000 0.300000 0.600000
v 0.000000 0.300000 0.600000
v 0.100000 0.300000 0.600000
v 0.300000 0.300000 0.600000
v 0.400000 0.300000 0.600000
v -0.300000 0.300000 0.500000
v -0.200000 0.300000 0.500000
v 0.000000 0.300000 0.500000
v 0.100000 0.300000 0.500000
v 0.300000 0.300000 0.500000
v 0.400000 0.300000 0.500000
v -0.600000 0.300000 0.300000
v -0.500000 0.300000 0.300000
v 0.600000 0.300000 0.300000
v 0.700000 0.300000 0.300000
v -0.600000 0.300000 0.200000
v -0.500000 0.300000 0.200000
v 0.600000 0.300000 0.200000
v 0.700000 0.300000 0.200000
v -0.600000 0.300000 -0.000000
v -0.500000 0.300000 -0.000000
v 0.600000 0.300000 -0.000000
v 0.700000 0.300000 -0.000000
v -0.600000 0.300000 -0.100000
v -0.500000 0.300000 -0.100000
v 0.600000 0.300000 -0.100000
v 0.700000 0.300000 -0.100000
v -0.600000 0.300000 -0.300000
v -0.500000 0.300000 -0.300000
v 0.600000 0.300000 -0.300000
v 0.700000 0.300000 -0.300000
v -0.600000 0.300000 -0.400000
v -0.500000 0.300000 -0.400000
v 0.600000 0.300000 -0.400000
v 0.700000 0.300000 -0.400000
v -0.300000 0.300000 -0.600000
v -0.200000 0.300000 -0.600000
v 0.000000 0.300000 -0.600000
v 0.100000 0.300000 -0.600000
v 0.300000 0.300000 -0.600000
v 0.400000 0.300000 -0.600000
v -0.300000 0.300000 -0.700000
v -0.200000 0.300000 -0.700000
v 0.000000 0.300000 -0.700000
v 0.100000 0.300000 -0.700000
v 0.300000 0.300000 -0.700000
v 0.400000 0.300000 -0.700000
v -0.600000 0.400000 0.600000
v -0.500000 0.400000 0.600000
v 0.600000 0.400000 0.600000
v 0.700000 0.400000 0.600000
v -0.600000 0.400000 0.500000
v -0.500000 0.400000 0.500000
v 0.600000 0.400000 0.500000
v 0.700000 0.400000 0.500000
v -0.600000 0.400000 -0.600000
v -0.500000 0.400000 -0.600000
v 0.600000 0.400000 -0.600000
v 0.700000 0.400000 -0.600000
v -0.600000 0.400000 -0.700000
v -0.500000 0.400000 -0.700000
v 0.600000 0.400000 -0.700000
v 0.700000 0.400000 -0.700000
v -0.400000 0.600000 0.500000
v -0.300000 0.600000 0.500000
v 0.300000 0.600000 0.500000
v 0.400000 0.600000 0.500000
v -0.500000 0.600000 0.400000
v -0.400000 0.600000 0.400000
v -0.300000 0.600000 0.400000
v -0.200000 0.600000 0.400000
v 0.200000 0.600000 0.400000
v 0.300000 0.600000 0.400000
v 0.400000 0.600000 0.400000
v 0.500000 0.600000 0.400000
v -0.500000 0.600000 0.300000
v -0.400000 0.600000 0.300000
v -0.300000 0.600000 0.300000
v -0.200000 0.600000 0.300000
v 0.000000 0.600000 0.300000
v 0.100000 0.600000 0.300000
v 0.200000 0.600000 0.300000
v 0.300000 0.600000 0.300000
v 0.400000 0.600000 0.300000
v 0.500000 0.600000 0.300000
v -0.400000 0.600000 0.200000
v -0.300000 0.600000 0.200000
v -0.100000 0.600000 0.200000
v 0.000000 0.600000 0.200000
v 0.100000 0.600000 0.200000
v 0.200000 0.600000 0.200000
v 0.300000 0.600000 0.200000
v 0.400000 0.600000 0.200000
v -0.100000 0.600000 0.100000
v 0.000000 0.600000 0.100000
v 0.100000 0.600000 0.100000
v 0.200000 0.600000 0.100000
v 0.400000 0.600000 0.100000
v 0.500000 0.600000 0.100000
v -0.400000 0.600000 -0.000000
v -0.300000 0.600000 -0.000000
v 0.000000 0.600000 -0.000000
v 0.100000 0.600000 -0.000000
v 0.300000 0.600000 -0.000000
v 0.400000 0.600000 -0.000000
v 0.500000 0.600000 -0.000000
v 0.600000 0.600000 -0.000000
v -0.500000 0.600000 -0.100000
v -0.400000 0.600000 -0.100000
v -0.300000 0.600000 -0.100000
v -0.200000 0.600000 -0.100000
v 0.000000 0.600000 -0.100000
v 0.100000 0.600000 -0.100000
v 0.300000 0.600000 -0.100000
v 0.400000 0.600000 -0.100000
v 0.500000 0.600000 -0.100000
v 0.600000 0.600000 -0.100000
v -0.500000 0.600000 -0.200000
v -0.400000 0.600000 -0.200000
v -0.300000 0.600000 -0.200000
v -0.200000 0.600000 -0.200000
v -0.100000 0.600000 -0.200000
v 0.000000 0.600000 -0.200000
v 0.100000 0.600000 -0.200000
v 0.200000 0.600000 -0.200000
v 0.400000 0.600000 -0.200000
v 0.500000 0.600000 -0.200000
v -0.400000 0.600000 -0.300000
v -0.300000 0.600000 -0.300000
v -0.200000 0.600000 -0.300000
v -0.100000 0.600000 -0.300000
v 0.000000 0.600000 -0.300000
v 0.100000 0.600000 -0.300000
v 0.200000 0.600000 -0.300000
v 0.300000 0.600000 -0.300000
v 0.400000 0.600000 -0.300000
v -0.400000 0.600000 -0.400000
v -0.300000 0.600000 -0.400000
v -0.200000 0.600000 -0.400000
v -0.100000 0.600000 -0.400000
v 0.000000 0.600000 -0.400000
v 0.100000 0.600000 -0.400000
v 0.200000 0.600000 -0.400000
v 0.300000 0.600000 -0.400000
v 0.400000 0.600000 -0.400000
v 0.500000 0.600000 -0.400000
v -0.400000 0.600000 -0.500000
v -0.300000 0.600000 -0.500000
v -0.200000 0.600000 -0.500000
v -0.100000 0.600000 -0.500000
v 0.200000 0.600000 -0.500000
v 0.300000 0.600000 -0.500000
v 0.400000 0.600000 -0.500000
v 0.500000 0.600000 -0.500000
v -0.300000 0.600000 -0.600000
v -0.200000 0.600000 -0.600000
v 0.300000 0.600000 -0.600000
v 0.400000 0.600000 -0.600000
v -0.400000 0.700000 0.400000
v -0.300000 0.700000 0.400000
v 0.300000 0.700000 0.400000
v 0.400000 0.700000 0.400000
v -0.400000 0.700000 0.300000
v -0.300000 0.700000 0.300000
v 0.300000 0.700000 0.300000
v 0.400000 0.700000 0.300000
v 0.000000 0.700000 0.200000
v 0.100000 0.700000 0.200000
v 0.000000 0.700000 0.100000
v 0.100000 0.700000 0.100000
v 0.400000 0.700000 -0.000000
v 0.500000 0.700000 -0.000000
v -0.400000 0.700000 -0.100000
v -0.300000 0.700000 -0.100000
v 0.400000 0.700000 -0.100000
v 0.500000 0.700000 -0.100000
v -0.400000 0.700000 -0.200000
v -0.300000 0.700000 -0.200000
v 0.000000 0.700000 -0.200000
v 0.100000 0.700000 -0.200000
v 0.000000 0.700000 -0.300000
v 0.100000 0.700000 -0.300000
v -0.300000 0.700000 -0.400000
v -0.200000 0.700000 -0.400000
v 0.300000 0.700000 -0.400000
v 0.400000 0.700000 -0.400000
v -0.300000 0.700000 -0.500000
v -0.200000 0.700000 -0.500000
v 0.300000 0.700000 -0.500000
v 0.400000 0.700000 -0.500000
vn -1.0000 -0.0000 -0.0000
vn 1.0000 -0.0000 -0.0000
vn -0.0000 -0.0000 1.0000
vn -0.0000 -0.0000 -1.0000
vn -0.0000 -1.0000 -0.0000
vn -0.0000 1.0000 -0.0000
vt 0.939453 0.500000
vt 0.794922 0.500000
vt 0.806641 0.500000
vt 0.802734 0.500000
vt 0.798828 0.500000
s 1
usemtl palette
f 3/1/1 2/1/1 1/1/1
f 4/1/1 2/1/1 3/1/1
f 15/2/1 8/2/1 7/2/1
f 16/2/1 8/2/1 15/2/1
f 17/2/1 10/2/1 9/2/1
f 18/2/1 10/2/1 17/2/1
f 19/2/1 12/2/1 11/2/1
f 20/2/1 12/2/1 19/2/1
f 21/2/1 6/2/1 5/2/1
f 22/2/1 6/2/1 21/2/1
f 23/2/1 14/2/1 13/2/1
f 24/2/1 14/2/1 23/2/1
f 29/3/1 26/3/1 25/3/1
f 30/3/1 26/3/1 29/3/1
f 31/3/1 28/3/1 27/3/1
f 32/3/1 28/3/1 31/3/1
f 38/4/1 34/4/1 33/4/1
f 39/4/1 34/4/1 38/4/1
f 42/4/1 36/4/1 35/4/1
f 43/4/1 36/4/1 42/4/1
f 47/3/1 38/3/1 37/3/1
f 48/3/1 38/3/1 47/3/1
f 49/3/1 40/3/1 39/3/1
f 50/3/1 40/3/1 49/3/1
f 51/3/1 42/3/1 41/3/1
f 52/3/1 42/3/1 51/3/1
f 53/3/1 44/3/1 43/3/1
f 54/3/1 44/3/1 53/3/1
f 55/3/1 46/3/1 45/3/1
f 56/3/1 46/3/1 55/3/1
f 57/3/1 49/3/1 48/3/1
f 58/3/1 49/3/1 57/3/1
f 59/3/1 53/3/1 52/3/1
f 60/3/1 53/3/1 59/3/1
f 67/2/1 62/2/1 61/2/1
f 68/2/1 62/2/1 67/2/1
f 69/2/1 66/2/1 65/2/1
f 70/2/1 66/2/1 69/2/1
f 72/4/1 64/4/1 63/4/1
f 73/4/1 64/4/1 72/4/1
f 75/3/1 72/3/1 71/3/1
f 76/3/1 72/3/1 75/3/1
f 77/3/1 74/3/1 73/3/1
f 78/3/1 74/3/1 77/3/1
f 79/3/1 77/3/1 76/3/1
f 80/3/1 77/3/1 79/3/1
f 85/3/1 82/3/1 81/3/1
f 86/3/1 82/3/1 85/3/1
f 87/3/1 84/3/1 83/3/1
f 88/3/1 84/3/1 87/3/1
f 97/2/1 90/2/1 89/2/1
f 98/2/1 90/2/1 97/2/1
f 99/2/1 96/2/1 95/2/1
f 100/2/1 96/2/1 99/2/1
f 102/4/1 92/4/1 91/4/1
f 103/4/1 92/4/1 102/4/1
f 106/4/1 94/4/1 93/4/1
f 107/4/1 94/4/1 106/4/1
f 109/3/1 102/3/1 101/3/1
f 110/3/1 102/3/1 109/3/1
f 111/3/1 104/3/1 103/3/1
f 112/3/1 104/3/1 111/3/1
f 113/3/1 106/3/1 105/3/1
f 114/3/1 106/3/1 113/3/1
f 115/3/1 108/3/1 107/3/1
f 116/3/1 108/3/1 115/3/1
f 117/3/1 111/3/1 110/3/1
f 118/3/1 111/3/1 117/3/1
f 119/3/1 115/3/1 114/3/1
f 120/3/1 115/3/1 119/3/1
f 125/3/1 122/3/1 121/3/1
f 126/3/1 122/3/1 125/3/1
f 127/3/1 124/3/1 123/3/1
f 128/3/1 124/3/1 127/3/1
f 137/2/1 130/2/1 129/2/1
f 138/2/1 130/2/1 137/2/1
f 139/2/1 136/2/1 135/2/1
f 140/2/1 136/2/1 139/2/1
f 142/4/1 132/4/1 131/4/1
f 143/4/1 132/4/1 142/4/1
f 148/4/1 134/4/1 133/4/1
f 149/4/1 134/4/1 148/4/1
f 151/3/1 142/3/1 141/3/1
f 152/3/1 142/3/1 151/3/1
f 153/3/1 144/3/1 143/3/1
f 154/3/1 144/3/1 153/3/1
f 155/3/1 146/3/1 145/3/1
f 156/3/1 146/3/1 155/3/1
f 157/3/1 148/3/1 147/3/1
f 158/3/1 148/3/1 157/3/1
f 159/3/1 150/3/1 149/3/1
f 160/3/1 150/3/1 159/3/1
f 161/3/1 153/3/1 152/3/1
f 162/3/1 153/3/1 161/3/1
f 163/3/1 159/3/1 158/3/1
f 164/3/1 159/3/1 163/3/1
f 168/4/1 166/4/1 165/4/1
f 169/4/1 166/4/1 168/4/1
f 171/3/1 168/3/1 167/3/1
f 172/3/1 168/3/1 171/3/1
f 173/3/1 170/3/1 169/3/1
f 174/3/1 170/3/1 173/3/1
f 175/3/1 173/3/1 172/3/1
f 176/3/1 173/3/1 175/3/1
f 187/2/1 180/2/1 179/2/1
f 188/2/1 180/2/1 187/2/1
f 189/2/1 182/2/1 181/2/1
f 190/2/1 182/2/1 189/2/1
f 191/2/1 184/2/1 183/2/1
f 192/2/1 184/2/1 191/2/1
f 193/2/1 178/2/1 177/2/1
f 194/2/1 178/2/1 193/2/1
f 195/2/1 186/2/1 185/2/1
f 196/2/1 186/2/1 195/2/1
f 199/2/2 200/2/2 207/2/2
f 207/2/2 200/2/2 208/2/2
f 201/2/2 202/2/2 209/2/2
f 209/2/2 202/2/2 210/2/2
f 203/2/2 204/2/2 211/2/2
f 211/2/2 204/2/2 212/2/2
f 197/2/2 198/2/2 213/2/2
f 213/2/2 198/2/2 214/2/2
f 205/2/2 206/2/2 215/2/2
f 215/2/2 206/2/2 216/2/2
f 217/4/2 218/4/2 222/4/2
f 222/4/2 218/4/2 223/4/2
f 219/4/2 220/4/2 226/4/2
f 226/4/2 220/4/2 227/4/2
f 221/3/2 222/3/2 229/3/2
f 229/3/2 222/3/2 230/3/2
f 223/3/2 224/3/2 231/3/2
f 231/3/2 224/3/2 232/3/2
f 225/3/2 226/3/2 233/3/2
f 233/3/2 226/3/2 234/3/2
f 227/3/2 228/3/2 235/3/2
f 235/3/2 228/3/2 236/3/2
f 230/3/2 231/3/2 237/3/2
f 237/3/2 231/3/2 238/3/2
f 234/3/2 235/3/2 239/3/2
f 239/3/2 235/3/2 240/3/2
f 241/2/2 242/2/2 247/2/2
f 247/2/2 242/2/2 248/2/2
f 245/2/2 246/2/2 249/2/2
f 249/2/2 246/2/2 250/2/2
f 243/4/2 244/4/2 256/4/2
f 256/4/2 244/4/2 257/4/2
f 251/3/2 252/3/2 259/3/2
f 259/3/2 252/3/2 260/3/2
f 253/3/2 254/3/2 261/3/2
f 261/3/2 254/3/2 262/3/2
f 255/3/2 256/3/2 263/3/2
f 263/3/2 256/3/2 264/3/2
f 257/3/2 258/3/2 265/3/2
f 265/3/2 258/3/2 266/3/2
f 264/3/2 265/3/2 267/3/2
f 267/3/2 265/3/2 268/3/2
f 269/3/2 270/3/2 271/3/2
f 271/3/2 270/3/2 272/3/2
f 273/2/2 274/2/2 281/2/2
f 281/2/2 274/2/2 282/2/2
f 279/2/2 280/2/2 283/2/2
f 283/2/2 280/2/2 284/2/2
f 275/4/2 276/4/2 286/4/2
f 286/4/2 276/4/2 287/4/2
f 277/4/2 278/4/2 290/4/2
f 290/4/2 278/4/2 291/4/2
f 285/3/2 286/3/2 293/3/2
f 293/3/2 286/3/2 294/3/2
f 287/3/2 288/3/2 295/3/2
f 295/3/2 288/3/2 296/3/2
f 289/3/2 290/3/2 297/3/2
f 297/3/2 290/3/2 298/3/2
f 291/3/2 292/3/2 299/3/2
f 299/3/2 292/3/2 300/3/2
f 294/3/2 295/3/2 301/3/2
f 301/3/2 295/3/2 302/3/2
f 298/3/2 299/3/2 303/3/2
f 303/3/2 299/3/2 304/3/2
f 305/3/2 306/3/2 309/3/2
f 309/3/2 306/3/2 310/3/2
f 307/3/2 308/3/2 311/3/2
f 311/3/2 308/3/2 312/3/2
f 313/2/2 314/2/2 321/2/2
f 321/2/2 314/2/2 322/2/2
f 319/2/2 320/2/2 323/2/2
f 323/2/2 320/2/2 324/2/2
f 315/4/2 316/4/2 326/4/2
f 326/4/2 316/4/2 327/4/2
f 317/4/2 318/4/2 330/4/2
f 330/4/2 318/4/2 331/4/2
f 325/3/2 326/3/2 333/3/2
f 333/3/2 326/3/2 334/3/2
f 327/3/2 328/3/2 335/3/2
f 335/3/2 328/3/2 336/3/2
f 329/3/2 330/3/2 337/3/2
f 337/3/2 330/3/2 338/3/2
f 331/3/2 332/3/2 339/3/2
f 339/3/2 332/3/2 340/3/2
f 334/3/2 335/3/2 341/3/2
f 341/3/2 335/3/2 342/3/2
f 338/3/2 339/3/2 343/3/2
f 343/3/2 339/3/2 344/3/2
f 345/4/2 346/4/2 350/4/2
f 350/4/2 346/4/2 351/4/2
f 347/3/2 348/3/2 355/3/2
f 355/3/2 348/3/2 356/3/2
f 349/3/2 350/3/2 357/3/2
f 357/3/2 350/3/2 358/3/2
f 351/3/2 352/3/2 359/3/2
f 359/3/2 352/3/2 360/3/2
f 353/3/2 354/3/2 361/3/2
f 361/3/2 354/3/2 362/3/2
f 358/3/2 359/3/2 363/3/2
f 363/3/2 359/3/2 364/3/2
f 365/3/2 366/3/2 367/3/2
f 367/3/2 366/3/2 368/3/2
f 371/2/2 372/2/2 379/2/2
f 379/2/2 372/2/2 380/2/2
f 373/2/2 374/2/2 381/2/2
f 381/2/2 374/2/2 382/2/2
f 375/2/2 376/2/2 383/2/2
f 383/2/2 376/2/2 384/2/2
f 369/2/2 370/2/2 385/2/2
f 385/2/2 370/2/2 386/2/2
f 377/2/2 378/2/2 387/2/2
f 387/2/2 378/2/2 388/2/2
f 389/1/2 390/1/2 391/1/2
f 391/1/2 390/1/2 392/1/2
f 395/1/3 394/1/3 393/1/3
f 396/1/3 394/1/3 395/1/3
f 399/2/3 398/2/3 397/2/3
f 400/2/3 398/2/3 399/2/3
f 403/2/3 402/2/3 401/2/3
f 404/2/3 402/2/3 403/2/3
f 407/2/3 406/2/3 405/2/3
f 408/2/3 406/2/3 407/2/3
f 411/2/3 410/2/3 409/2/3
f 412/2/3 410/2/3 411/2/3
f 415/2/3 414/2/3 413/2/3
f 416/2/3 414/2/3 415/2/3
f 419/3/3 418/3/3 417/3/3
f 420/3/3 418/3/3 419/3/3
f 423/3/3 422/3/3 421/3/3
f 424/3/3 422/3/3 423/3/3
f 428/3/3 426/3/3 425/3/3
f 429/3/3 426/3/3 428/3/3
f 431/4/3 428/4/3 427/4/3
f 432/4/3 428/4/3 431/4/3
f 433/3/3 430/3/3 429/3/3
f 434/3/3 430/3/3 433/3/3
f 435/3/3 433/3/3 432/3/3
f 436/3/3 433/3/3 435/3/3
f 440/3/3 438/3/3 437/3/3
f 441/3/3 438/3/3 440/3/3
f 443/4/3 440/4/3 439/4/3
f 444/4/3 440/4/3 443/4/3
f 445/3/3 442/3/3 441/3/3
f 446/3/3 442/3/3 445/3/3
f 447/3/3 445/3/3 444/3/3
f 448/3/3 445/3/3 447/3/3
f 451/2/3 450/2/3 449/2/3
f 452/2/3 450/2/3 451/2/3
f 455/3/3 454/3/3 453/3/3
f 456/3/3 454/3/3 455/3/3
f 459/2/3 458/2/3 457/2/3
f 460/2/3 458/2/3 459/2/3
f 464/3/3 462/3/3 461/3/3
f 465/3/3 462/3/3 464/3/3
f 467/4/3 464/4/3 463/4/3
f 468/4/3 464/4/3 467/4/3
f 469/3/3 466/3/3 465/3/3
f 470/3/3 466/3/3 469/3/3
f 471/3/3 469/3/3 468/3/3
f 472/3/3 469/3/3 471/3/3
f 475/3/3 474/3/3 473/3/3
f 476/3/3 474/3/3 475/3/3
f 479/2/3 478/2/3 477/2/3
f 480/2/3 478/2/3 479/2/3
f 483/3/3 482/3/3 481/3/3
f 484/3/3 482/3/3 483/3/3
f 488/3/3 486/3/3 485/3/3
f 489/3/3 486/3/3 488/3/3
f 491/4/3 488/4/3 487/4/3
f 492/4/3 488/4/3 491/4/3
f 493/3/3 490/3/3 489/3/3
f 494/3/3 490/3/3 493/3/3
f 497/3/3 493/3/3 492/3/3
f 498/3/3 493/3/3 497/3/3
f 499/2/3 496/2/3 495/2/3
f 500/2/3 496/2/3 499/2/3
f 504/3/3 502/3/3 501/3/3
f 505/3/3 502/3/3 504/3/3
f 507/4/3 504/4/3 503/4/3
f 508/4/3 504/4/3 507/4/3
f 509/3/3 506/3/3 505/3/3
f 510/3/3 506/3/3 509/3/3
f 511/3/3 509/3/3 508/3/3
f 512/3/3 509/3/3 511/3/3
f 515/3/3 514/3/3 513/3/3
f 516/3/3 514/3/3 515/3/3
f 520/3/3 518/3/3 517/3/3
f 521/3/3 518/3/3 520/3/3
f 523/4/3 520/4/3 519/4/3
f 524/4/3 520/4/3 523/4/3
f 525/3/3 522/3/3 521/3/3
f 526/3/3 522/3/3 525/3/3
f 527/3/3 525/3/3 524/3/3
f 528/3/3 525/3/3 527/3/3
f 531/2/3 530/2/3 529/2/3
f 532/2/3 530/2/3 531/2/3
f 535/3/3 534/3/3 533/3/3
f 536/3/3 534/3/3 535/3/3
f 539/3/3 538/3/3 537/3/3
f 540/3/3 538/3/3 539/3/3
f 543/2/3 542/2/3 541/2/3
f 544/2/3 542/2/3 543/2/3
f 548/3/3 546/3/3 545/3/3
f 549/3/3 546/3/3 548/3/3
f 551/4/3 548/4/3 547/4/3
f 552/4/3 548/4/3 551/4/3
f 553/3/3 550/3/3 549/3/3
f 554/3/3 550/3/3 553/3/3
f 555/3/3 553/3/3 552/3/3
f 556/3/3 553/3/3 555/3/3
f 560/3/3 558/3/3 557/3/3
f 561/3/3 558/3/3 560/3/3
f 563/4/3 560/4/3 559/4/3
f 564/4/3 560/4/3 563/4/3
f 565/3/3 562/3/3 561/3/3
f 566/3/3 562/3/3 565/3/3
f 567/3/3 565/3/3 564/3/3
f 568/3/3 565/3/3 567/3/3
f 571/2/3 570/2/3 569/2/3
f 572/2/3 570/2/3 571/2/3
f 575/2/3 574/2/3 573/2/3
f 576/2/3 574/2/3 575/2/3
f 579/2/3 578/2/3 577/2/3
f 580/2/3 578/2/3 579/2/3
f 583/2/3 582/2/3 581/2/3
f 584/2/3 582/2/3 583/2/3
f 587/2/3 586/2/3 585/2/3
f 588/2/3 586/2/3 587/2/3
f 589/2/4 590/2/4 591/2/4
f 591/2/4 590/2/4 592/2/4
f 593/2/4 594/2/4 595/2/4
f 595/2/4 594/2/4 596/2/4
f 597/2/4 598/2/4 599/2/4
f 599/2/4 598/2/4 600/2/4
f 601/2/4 602/2/4 603/2/4
f 603/2/4 602/2/4 604/2/4
f 605/2/4 606/2/4 607/2/4
f 607/2/4 606/2/4 608/2/4
f 609/3/4 610/3/4 612/3/4
f 612/3/4 610/3/4 613/3/4
f 611/4/4 612/4/4 615/4/4
f 615/4/4 612/4/4 616/4/4
f 613/3/4 614/3/4 617/3/4
f 617/3/4 614/3/4 618/3/4
f 616/3/4 617/3/4 619/3/4
f 619/3/4 617/3/4 620/3/4
f 621/3/4 622/3/4 624/3/4
f 624/3/4 622/3/4 625/3/4
f 623/4/4 624/4/4 627/4/4
f 627/4/4 624/4/4 628/4/4
f 625/3/4 626/3/4 629/3/4
f 629/3/4 626/3/4 630/3/4
f 628/3/4 629/3/4 631/3/4
f 631/3/4 629/3/4 632/3/4
f 633/2/4 634/2/4 635/2/4
f 635/2/4 634/2/4 636/2/4
f 637/3/4 638/3/4 639/3/4
f 639/3/4 638/3/4 640/3/4
f 641/3/4 642/3/4 643/3/4
f 643/3/4 642/3/4 644/3/4
f 645/2/4 646/2/4 647/2/4
f 647/2/4 646/2/4 648/2/4
f 649/3/4 650/3/4 652/3/4
f 652/3/4 650/3/4 653/3/4
f 651/4/4 652/4/4 655/4/4
f 655/4/4 652/4/4 656/4/4
f 653/3/4 654/3/4 657/3/4
f 657/3/4 654/3/4 658/3/4
f 656/3/4 657/3/4 659/3/4
f 659/3/4 657/3/4 660/3/4
f 661/3/4 662/3/4 663/3/4
f 663/3/4 662/3/4 664/3/4
f 665/2/4 666/2/4 667/2/4
f 667/2/4 666/2/4 668/2/4
f 669/3/4 670/3/4 672/3/4
f 672/3/4 670/3/4 673/3/4
f 671/4/4 672/4/4 675/4/4
f 675/4/4 672/4/4 676/4/4
f 673/3/4 674/3/4 677/3/4
f 677/3/4 674/3/4 678/3/4
f 676/3/4 677/3/4 681/3/4
f 681/3/4 677/3/4 682/3/4
f 679/2/4 680/2/4 683/2/4
f 683/2/4 680/2/4 684/2/4
f 685/3/4 686/3/4 688/3/4
f 688/3/4 686/3/4 689/3/4
f 687/4/4 688/4/4 691/4/4
f 691/4/4 688/4/4 692/4/4
f 689/3/4 690/3/4 693/3/4
f 693/3/4 690/3/4 694/3/4
f 692/3/4 693/3/4 695/3/4
f 695/3/4 693/3/4 696/3/4
f 697/3/4 698/3/4 699/3/4
f 699/3/4 698/3/4 700/3/4
f 701/3/4 702/3/4 703/3/4
f 703/3/4 702/3/4 704/3/4
f 705/3/4 706/3/4 708/3/4
f 708/3/4 706/3/4 709/3/4
f 707/4/4 708/4/4 711/4/4
f 711/4/4 708/4/4 712/4/4
f 709/3/4 710/3/4 713/3/4
f 713/3/4 710/3/4 714/3/4
f 712/3/4 713/3/4 715/3/4
f 715/3/4 713/3/4 716/3/4
f 717/2/4 718/2/4 719/2/4
f 719/2/4 718/2/4 720/2/4
f 721/3/4 722/3/4 723/3/4
f 723/3/4 722/3/4 724/3/4
f 725/2/4 726/2/4 727/2/4
f 727/2/4 726/2/4 728/2/4
f 729/3/4 730/3/4 732/3/4
f 732/3/4 730/3/4 733/3/4
f 731/4/4 732/4/4 735/4/4
f 735/4/4 732/4/4 736/4/4
f 733/3/4 734/3/4 737/3/4
f 737/3/4 734/3/4 738/3/4
f 736/3/4 737/3/4 739/3/4
f 739/3/4 737/3/4 740/3/4
f 741/3/4 742/3/4 744/3/4
f 744/3/4 742/3/4 745/3/4
f 743/4/4 744/4/4 747/4/4
f 747/4/4 744/4/4 748/4/4
f 745/3/4 746/3/4 749/3/4
f 749/3/4 746/3/4 750/3/4
f 748/3/4 749/3/4 751/3/4
f 751/3/4 749/3/4 752/3/4
f 753/3/4 754/3/4 755/3/4
f 755/3/4 754/3/4 756/3/4
f 757/3/4 758/3/4 759/3/4
f 759/3/4 758/3/4 760/3/4
f 761/2/4 762/2/4 763/2/4
f 763/2/4 762/2/4 764/2/4
f 765/2/4 766/2/4 767/2/4
f 767/2/4 766/2/4 768/2/4
f 769/2/4 770/2/4 771/2/4
f 771/2/4 770/2/4 772/2/4
f 773/2/4 774/2/4 775/2/4
f 775/2/4 774/2/4 776/2/4
f 777/2/4 778/2/4 779/2/4
f 779/2/4 778/2/4 780/2/4
f 781/1/4 782/1/4 783/1/4
f 783/1/4 782/1/4 784/1/4
f 787/1/5 786/1/5 785/1/5
f 788/1/5 786/1/5 787/1/5
f 794/3/5 790/3/5 789/3/5
f 795/3/5 790/3/5 794/3/5
f 798/3/5 792/3/5 791/3/5
f 799/3/5 792/3/5 798/3/5
f 801/3/5 794/3/5 793/3/5
f 802/3/5 794/3/5 801/3/5
f 803/3/5 796/3/5 795/3/5
f 804/3/5 796/3/5 803/3/5
f 807/3/5 798/3/5 797/3/5
f 808/3/5 798/3/5 807/3/5
f 809/3/5 800/3/5 799/3/5
f 810/3/5 800/3/5 809/3/5
f 811/3/5 803/3/5 802/3/5
f 812/3/5 803/3/5 811/3/5
f 814/3/5 806/3/5 805/3/5
f 815/3/5 806/3/5 814/3/5
f 817/3/5 809/3/5 808/3/5
f 818/3/5 809/3/5 817/3/5
f 819/3/5 814/3/5 813/3/5
f 820/3/5 814/3/5 819/3/5
f 821/3/5 816/3/5 815/3/5
f 822/3/5 816/3/5 821/3/5
f 827/3/5 821/3/5 820/3/5
f 828/3/5 821/3/5 827/3/5
f 830/3/5 824/3/5 823/3/5
f 831/3/5 824/3/5 830/3/5
f 834/3/5 826/3/5 825/3/5
f 835/3/5 826/3/5 834/3/5
f 839/3/5 830/3/5 829/3/5
f 840/3/5 830/3/5 839/3/5
f 841/3/5 832/3/5 831/3/5
f 842/3/5 832/3/5 841/3/5
f 843/3/5 834/3/5 833/3/5
f 844/3/5 834/3/5 843/3/5
f 845/3/5 836/3/5 835/3/5
f 846/3/5 836/3/5 845/3/5
f 848/3/5 838/3/5 837/3/5
f 849/3/5 838/3/5 848/3/5
f 851/3/5 841/3/5 840/3/5
f 852/3/5 841/3/5 851/3/5
f 853/3/5 845/3/5 844/3/5
f 854/3/5 845/3/5 853/3/5
f 856/3/5 848/3/5 847/3/5
f 857/3/5 848/3/5 856/3/5
f 858/3/5 850/3/5 849/3/5
f 859/3/5 850/3/5 858/3/5
f 863/3/5 855/3/5 854/3/5
f 864/3/5 855/3/5 863/3/5
f 866/3/5 858/3/5 857/3/5
f 867/3/5 858/3/5 866/3/5
f 869/3/5 861/3/5 860/3/5
f 870/3/5 861/3/5 869/3/5
f 872/3/5 863/3/5 862/3/5
f 873/3/5 863/3/5 872/3/5
f 874/3/5 865/3/5 864/3/5
f 875/3/5 865/3/5 874/3/5
f 876/3/5 869/3/5 868/3/5
f 877/3/5 869/3/5 876/3/5
f 878/3/5 871/3/5 870/3/5
f 879/3/5 871/3/5 878/3/5
f 880/3/5 874/3/5 873/3/5
f 881/3/5 874/3/5 880/3/5
f 882/3/5 878/3/5 877/3/5
f 883/3/5 878/3/5 882/3/5
f 884/1/6 885/1/6 886/1/6
f 886/1/6 885/1/6 887/1/6
f 887/1/6 885/1/6 888/1/6
f 888/1/6 885/1/6 889/1/6
f 889/1/6 885/1/6 890/1/6
f 890/1/6 885/1/6 891/1/6
f 891/1/6 885/1/6 892/1/6
f 892/1/6 885/1/6 893/1/6
f 893/1/6 885/1/6 894/1/6
f 894/1/6 885/1/6 895/1/6
f 884/1/6 886/1/6 896/1/6
f 887/1/6 888/1/6 897/1/6
f 897/1/6 888/1/6 898/1/6
f 889/1/6 890/1/6 899/1/6
f 899/1/6 890/1/6 900/1/6
f 891/1/6 892/1/6 901/1/6
f 901/1/6 892/1/6 902/1/6
f 893/1/6 894/1/6 903/1/6
f 903/1/6 894/1/6 904/1/6
f 895/1/6 885/1/6 905/1/6
f 903/5/6 904/5/6 906/5/6
f 901/5/6 902/5/6 906/5/6
f 899/5/6 900/5/6 906/5/6
f 897/5/6 898/5/6 906/5/6
f 902/5/6 903/5/6 906/5/6
f 898/5/6 899/5/6 906/5/6
f 900/5/6 901/5/6 906/5/6
f 906/5/6 904/5/6 907/5/6
f 907/5/6 904/5/6 908/5/6
f 908/5/6 904/5/6 909/5/6
f 884/1/6 896/1/6 910/1/6
f 896/1/6 897/1/6 910/1/6
f 897/5/6 906/5/6 911/5/6
f 910/1/6 897/1/6 911/1/6
f 911/5/6 906/5/6 912/5/6
f 907/5/6 908/5/6 913/5/6
f 913/5/6 908/5/6 914/5/6
f 909/5/6 904/5/6 915/5/6
f 904/1/6 905/1/6 916/1/6
f 915/5/6 904/5/6 916/5/6
f 905/1/6 885/1/6 917/1/6
f 916/1/6 905/1/6 917/1/6
f 884/1/6 910/1/6 918/1/6
f 914/5/6 915/5/6 919/5/6
f 915/5/6 916/5/6 919/5/6
f 912/5/6 913/5/6 919/5/6
f 913/5/6 914/5/6 919/5/6
f 911/5/6 912/5/6 919/5/6
f 919/5/6 916/5/6 920/5/6
f 920/5/6 916/5/6 921/5/6
f 921/5/6 916/5/6 922/5/6
f 917/1/6 885/1/6 923/1/6
f 919/5/6 920/5/6 924/5/6
f 921/5/6 922/5/6 925/5/6
f 884/1/6 918/1/6 926/1/6
f 918/1/6 919/1/6 926/1/6
f 924/5/6 925/5/6 927/5/6
f 926/1/6 919/1/6 927/1/6
f 919/5/6 924/5/6 927/5/6
f 925/5/6 922/5/6 928/5/6
f 927/5/6 925/5/6 928/5/6
f 928/5/6 922/5/6 929/5/6
f 922/1/6 923/1/6 930/1/6
f 929/5/6 922/5/6 930/5/6
f 923/1/6 885/1/6 931/1/6
f 930/1/6 923/1/6 931/1/6
f 884/1/6 926/1/6 932/1/6
f 927/5/6 928/5/6 933/5/6
f 933/5/6 928/5/6 934/5/6
f 934/5/6 928/5/6 935/5/6
f 935/5/6 928/5/6 936/5/6
f 929/5/6 930/5/6 937/5/6
f 937/5/6 930/5/6 938/5/6
f 931/1/6 885/1/6 939/1/6
f 933/5/6 934/5/6 940/5/6
f 937/5/6 938/5/6 941/5/6
f 935/5/6 936/5/6 941/5/6
f 936/5/6 937/5/6 941/5/6
f 941/5/6 938/5/6 942/5/6
f 942/5/6 938/5/6 943/5/6
f 884/1/6 932/1/6 944/1/6
f 932/1/6 933/1/6 944/1/6
f 933/5/6 940/5/6 945/5/6
f 944/1/6 933/1/6 945/1/6
f 941/5/6 942/5/6 945/5/6
f 940/5/6 941/5/6 945/5/6
f 945/5/6 942/5/6 946/5/6
f 943/5/6 938/5/6 947/5/6
f 938/1/6 939/1/6 948/1/6
f 947/5/6 938/5/6 948/5/6
f 939/1/6 885/1/6 949/1/6
f 948/1/6 939/1/6 949/1/6
f 884/1/6 944/1/6 950/1/6
f 945/5/6 946/5/6 951/5/6
f 946/5/6 947/5/6 951/5/6
f 947/5/6 948/5/6 951/5/6
f 951/5/6 948/5/6 952/5/6
f 952/5/6 948/5/6 953/5/6
f 953/5/6 948/5/6 954/5/6
f 954/5/6 948/5/6 955/5/6
f 955/5/6 948/5/6 956/5/6
f 949/1/6 885/1/6 957/1/6
f 951/5/6 952/5/6 958/5/6
f 953/5/6 954/5/6 959/5/6
f 959/5/6 954/5/6 960/5/6
f 955/5/6 956/5/6 961/5/6
f 884/1/6 950/1/6 962/1/6
f 950/1/6 951/1/6 962/1/6
f 959/5/6 960/5/6 963/5/6
f 962/1/6 951/1/6 963/1/6
f 960/5/6 961/5/6 963/5/6
f 951/5/6 958/5/6 963/5/6
f 958/5/6 959/5/6 963/5/6
f 963/5/6 961/5/6 964/5/6
f 964/5/6 961/5/6 965/5/6
f 965/5/6 961/5/6 966/5/6
f 966/5/6 961/5/6 967/5/6
f 967/5/6 961/5/6 968/5/6
f 961/5/6 956/5/6 969/5/6
f 968/5/6 961/5/6 969/5/6
f 956/1/6 957/1/6 970/1/6
f 969/5/6 956/5/6 970/5/6
f 957/1/6 885/1/6 971/1/6
f 970/1/6 957/1/6 971/1/6
f 884/1/6 962/1/6 972/1/6
f 963/1/6 964/1/6 973/1/6
f 973/1/6 964/1/6 974/1/6
f 965/1/6 966/1/6 975/1/6
f 975/1/6 966/1/6 976/1/6
f 967/1/6 968/1/6 977/1/6
f 977/1/6 968/1/6 978/1/6
f 969/1/6 970/1/6 979/1/6
f 979/1/6 970/1/6 980/1/6
f 971/1/6 885/1/6 981/1/6
f 979/1/6 980/1/6 982/1/6
f 980/1/6 981/1/6 982/1/6
f 975/1/6 976/1/6 982/1/6
f 973/1/6 974/1/6 982/1/6
f 978/1/6 979/1/6 982/1/6
f 977/1/6 978/1/6 982/1/6
f 976/1/6 977/1/6 982/1/6
f 884/1/6 972/1/6 982/1/6
f 974/1/6 975/1/6 982/1/6
f 972/1/6 973/1/6 982/1/6
f 981/1/6 885/1/6 983/1/6
f 982/1/6 981/1/6 983/1/6
f 984/2/6 985/2/6 990/2/6
f 990/2/6 985/2/6 991/2/6
f 986/2/6 987/2/6 992/2/6
f 992/2/6 987/2/6 993/2/6
f 988/2/6 989/2/6 994/2/6
f 994/2/6 989/2/6 995/2/6
f 996/2/6 997/2/6 1000/2/6
f 1000/2/6 997/2/6 1001/2/6
f 998/2/6 999/2/6 1002/2/6
f 1002/2/6 999/2/6 1003/2/6
f 1004/2/6 1005/2/6 1008/2/6
f 1008/2/6 1005/2/6 1009/2/6
f 1006/2/6 1007/2/6 1010/2/6
f 1010/2/6 1007/2/6 1011/2/6
f 1012/2/6 1013/2/6 1016/2/6
f 1016/2/6 1013/2/6 1017/2/6
f 1014/2/6 1015/2/6 1018/2/6
f 1018/2/6 1015/2/6 1019/2/6
f 1020/2/6 1021/2/6 1026/2/6
f 1026/2/6 1021/2/6 1027/2/6
f 1022/2/6 1023/2/6 1028/2/6
f 1028/2/6 1023/2/6 1029/2/6
f 1024/2/6 1025/2/6 1030/2/6
f 1030/2/6 1025/2/6 1031/2/6
f 1032/2/6 1033/2/6 1036/2/6
f 1036/2/6 1033/2/6 1037/2/6
f 1034/2/6 1035/2/6 1038/2/6
f 1038/2/6 1035/2/6 1039/2/6
f 1040/2/6 1041/2/6 1044/2/6
f 1044/2/6 1041/2/6 1045/2/6
f 1042/2/6 1043/2/6 1046/2/6
f 1046/2/6 1043/2/6 1047/2/6
f 1048/3/6 1049/3/6 1053/3/6
f 1053/3/6 1049/3/6 1054/3/6
f 1050/3/6 1051/3/6 1057/3/6
f 1057/3/6 1051/3/6 1058/3/6
f 1052/3/6 1053/3/6 1060/3/6
f 1060/3/6 1053/3/6 1061/3/6
f 1054/3/6 1055/3/6 1062/3/6
f 1062/3/6 1055/3/6 1063/3/6
f 1056/3/6 1057/3/6 1066/3/6
f 1066/3/6 1057/3/6 1067/3/6
f 1058/3/6 1059/3/6 1068/3/6
f 1068/3/6 1059/3/6 1069/3/6
f 1061/3/6 1062/3/6 1070/3/6
f 1070/3/6 1062/3/6 1071/3/6
f 1064/3/6 1065/3/6 1073/3/6
f 1073/3/6 1065/3/6 1074/3/6
f 1067/3/6 1068/3/6 1076/3/6
f 1076/3/6 1068/3/6 1077/3/6
f 1072/3/6 1073/3/6 1078/3/6
f 1078/3/6 1073/3/6 1079/3/6
f 1074/3/6 1075/3/6 1080/3/6
f 1080/3/6 1075/3/6 1081/3/6
f 1079/3/6 1080/3/6 1086/3/6
f 1086/3/6 1080/3/6 1087/3/6
f 1082/3/6 1083/3/6 1089/3/6
f 1089/3/6 1083/3/6 1090/3/6
f 1084/3/6 1085/3/6 1093/3/6
f 1093/3/6 1085/3/6 1094/3/6
f 1088/3/6 1089/3/6 1098/3/6
f 1098/3/6 1089/3/6 1099/3/6
f 1090/3/6 1091/3/6 1100/3/6
f 1100/3/6 1091/3/6 1101/3/6
f 1092/3/6 1093/3/6 1102/3/6
f 1102/3/6 1093/3/6 1103/3/6
f 1094/3/6 1095/3/6 1104/3/6
f 1104/3/6 1095/3/6 1105/3/6
f 1096/3/6 1097/3/6 1107/3/6
f 1107/3/6 1097/3/6 1108/3/6
f 1099/3/6 1100/3/6 1110/3/6
f 1110/3/6 1100/3/6 1111/3/6
f 1103/3/6 1104/3/6 1112/3/6
f 1112/3/6 1104/3/6 1113/3/6
f 1106/3/6 1107/3/6 1115/3/6
f 1115/3/6 1107/3/6 1116/3/6
f 1108/3/6 1109/3/6 1117/3/6
f 1117/3/6 1109/3/6 1118/3/6
f 1113/3/6 1114/3/6 1122/3/6
f 1122/3/6 1114/3/6 1123/3/6
f 1116/3/6 1117/3/6 1125/3/6
f 1125/3/6 1117/3/6 1126/3/6
f 1119/3/6 1120/3/6 1128/3/6
f 1128/3/6 1120/3/6 1129/3/6
f 1121/3/6 1122/3/6 1131/3/6
f 1131/3/6 1122/3/6 1132/3/6
f 1123/3/6 1124/3/6 1133/3/6
f 1133/3/6 1124/3/6 1134/3/6
f 1127/3/6 1128/3/6 1135/3/6
f 1135/3/6 1128/3/6 1136/3/6
f 1129/3/6 1130/3/6 1137/3/6
f 1137/3/6 1130/3/6 1138/3/6
f 1132/3/6 1133/3/6 1139/3/6
f 1139/3/6 1133/3/6 1140/3/6
f 1136/3/6 1137/3/6 1141/3/6
f 1141/3/6 1137/3/6 1142/3/6
f 1143/3/6 1144/3/6 1147/3/6
f 1147/3/6 1144/3/6 1148/3/6
f 1145/3/6 1146/3/6 1149/3/6
f 1149/3/6 1146/3/6 1150/3/6
f 1151/3/6 1152/3/6 1153/3/6
f 1153/3/6 1152/3/6 1154/3/6
f 1155/3/6 1156/3/6 1159/3/6
f 1159/3/6 1156/3/6 1160/3/6
f 1157/3/6 1158/3/6 1161/3/6
f 1161/3/6 1158/3/6 1162/3/6
f 1163/3/6 1164/3/6 1165/3/6
f 1165/3/6 1164/3/6 1166/3/6
f 1167/3/6 1168/3/6 1171/3/6
f 1171/3/6 1168/3/6 1172/3/6
f 1169/3/6 1170/3/6 1173/3/6
f 1173/3/6 1170/3/6 1174/3/6
