# Blender 4.3.2
# www.blender.org
mtllib StraightRoad.mtl
o StraightRoad
v -0.700000 0.000000 0.700000
v -0.700000 -0.000000 -0.800000
v -0.700000 0.200000 0.700000
v -0.700000 0.200000 -0.800000
v 0.500000 0.100000 0.700000
v 0.500000 0.100000 -0.800000
v 0.500000 0.200000 0.700000
v 0.500000 0.200000 -0.800000
v -0.400000 0.100000 0.700000
v -0.400000 0.100000 -0.800000
v -0.400000 0.200000 0.700000
v -0.400000 0.200000 -0.800000
v 0.800000 0.000000 0.700000
v 0.800000 -0.000000 -0.800000
v 0.800000 0.200000 0.700000
v 0.800000 0.200000 -0.800000
v -0.700000 0.000000 0.700000
v -0.700000 0.200000 0.700000
v -0.400000 0.000000 0.700000
v -0.400000 0.100000 0.700000
v -0.400000 0.200000 0.700000
v 0.500000 0.000000 0.700000
v 0.500000 0.100000 0.700000
v 0.500000 0.200000 0.700000
v 0.800000 0.000000 0.700000
v 0.800000 0.200000 0.700000
v -0.700000 -0.000000 -0.800000
v -0.700000 0.200000 -0.800000
v -0.400000 -0.000000 -0.800000
v -0.400000 0.100000 -0.800000
v -0.400000 0.200000 -0.800000
v 0.500000 -0.000000 -0.800000
v 0.500000 0.100000 -0.800000
v 0.500000 0.200000 -0.800000
v 0.800000 -0.000000 -0.800000
v 0.800000 0.200000 -0.800000
v -0.700000 0.000000 0.700000
v -0.400000 0.000000 0.700000
v 0.500000 0.000000 0.700000
v 0.800000 0.000000 0.700000
v 0.000000 0.000000 0.600000
v 0.100000 0.000000 0.600000
v 0.000000 0.000000 0.300000
v 0.100000 0.000000 0.300000
v 0.000000 0.000000 0.100000
v 0.100000 0.000000 0.100000
v 0.000000 -0.000000 -0.200000
v 0.100000 -0.000000 -0.200000
v 0.000000 -0.000000 -0.400000
v 0.100000 -0.000000 -0.400000
v 0.000000 -0.000000 -0.700000
v 0.100000 -0.000000 -0.700000
v -0.700000 -0.000000 -0.800000
v -0.400000 -0.000000 -0.800000
v 0.500000 -0.000000 -0.800000
v 0.800000 -0.000000 -0.800000
v -0.400000 0.100000 0.700000
v 0.500000 0.100000 0.700000
v 0.000000 0.100000 0.600000
v 0.100000 0.100000 0.600000
v 0.000000 0.100000 0.300000
v 0.100000 0.100000 0.300000
v 0.000000 0.100000 0.100000
v 0.100000 0.100000 0.100000
v 0.000000 0.100000 -0.200000
v 0.100000 0.100000 -0.200000
v 0.000000 0.100000 -0.400000
v 0.100000 0.100000 -0.400000
v 0.000000 0.100000 -0.700000
v 0.100000 0.100000 -0.700000
v -0.400000 0.100000 -0.800000
v 0.500000 0.100000 -0.800000
v -0.700000 0.200000 0.700000
v -0.400000 0.200000 0.700000
v 0.500000 0.200000 0.700000
v 0.800000 0.200000 0.700000
v -0.700000 0.200000 -0.800000
v -0.400000 0.200000 -0.800000
v 0.500000 0.200000 -0.800000
v 0.800000 0.200000 -0.800000
vn -1.0000 -0.0000 -0.0000
vn 1.0000 -0.0000 -0.0000
vn -0.0000 -0.0000 1.0000
vn -0.0000 -0.0000 -1.0000
vn -0.0000 -1.0000 -0.0000
vn -0.0000 1.0000 -0.0000
vt 0.939453 0.500000
vt 0.908203 0.500000
vt 0.876953 0.500000
s 1
usemtl palette
f 3/1/1 2/1/1 1/1/1
f 4/1/1 2/1/1 3/1/1
f 7/1/1 6/1/1 5/1/1
f 8/1/1 6/1/1 7/1/1
f 9/1/2 10/1/2 11/1/2
f 11/1/2 10/1/2 12/1/2
f 13/1/2 14/1/2 15/1/2
f 15/1/2 14/1/2 16/1/2
f 19/1/3 18/1/3 17/1/3
f 20/1/3 18/1/3 19/1/3
f 21/1/3 18/1/3 20/1/3
f 22/2/3 20/2/3 19/2/3
f 23/2/3 20/2/3 22/2/3
f 25/1/3 23/1/3 22/1/3
f 25/1/3 24/1/3 23/1/3
f 26/1/3 24/1/3 25/1/3
f 27/1/4 28/1/4 29/1/4
f 29/1/4 28/1/4 30/1/4
f 30/1/4 28/1/4 31/1/4
f 29/2/4 30/2/4 32/2/4
f 32/2/4 30/2/4 33/2/4
f 32/1/4 33/1/4 35/1/4
f 33/1/4 34/1/4 35/1/4
f 35/1/4 34/1/4 36/1/4
f 41/2/5 39/2/5 38/2/5
f 42/2/5 39/2/5 41/2/5
f 43/2/5 41/2/5 38/2/5
f 43/3/5 42/3/5 41/3/5
f 44/2/5 39/2/5 42/2/5
f 44/3/5 42/3/5 43/3/5
f 45/2/5 43/2/5 38/2/5
f 45/2/5 44/2/5 43/2/5
f 46/2/5 39/2/5 44/2/5
f 46/2/5 44/2/5 45/2/5
f 47/2/5 45/2/5 38/2/5
f 47/3/5 46/3/5 45/3/5
f 48/2/5 39/2/5 46/2/5
f 48/3/5 46/3/5 47/3/5
f 49/2/5 47/2/5 38/2/5
f 49/2/5 48/2/5 47/2/5
f 50/2/5 39/2/5 48/2/5
f 50/2/5 48/2/5 49/2/5
f 51/2/5 49/2/5 38/2/5
f 51/3/5 50/3/5 49/3/5
f 52/2/5 39/2/5 50/2/5
f 52/3/5 50/3/5 51/3/5
f 53/1/5 38/1/5 37/1/5
f 54/2/5 51/2/5 38/2/5
f 54/1/5 38/1/5 53/1/5
f 54/2/5 52/2/5 51/2/5
f 55/2/5 39/2/5 52/2/5
f 55/2/5 52/2/5 54/2/5
f 55/1/5 40/1/5 39/1/5
f 56/1/5 40/1/5 55/1/5
f 57/2/6 58/2/6 59/2/6
f 59/2/6 58/2/6 60/2/6
f 57/2/6 59/2/6 61/2/6
f 59/3/6 60/3/6 61/3/6
f 60/2/6 58/2/6 62/2/6
f 61/3/6 60/3/6 62/3/6
f 57/2/6 61/2/6 63/2/6
f 61/2/6 62/2/6 63/2/6
f 62/2/6 58/2/6 64/2/6
f 63/2/6 62/2/6 64/2/6
f 57/2/6 63/2/6 65/2/6
f 63/3/6 64/3/6 65/3/6
f 64/2/6 58/2/6 66/2/6
f 65/3/6 64/3/6 66/3/6
f 57/2/6 65/2/6 67/2/6
f 65/2/6 66/2/6 67/2/6
f 66/2/6 58/2/6 68/2/6
f 67/2/6 66/2/6 68/2/6
f 57/2/6 67/2/6 69/2/6
f 67/3/6 68/3/6 69/3/6
f 68/2/6 58/2/6 70/2/6
f 69/3/6 68/3/6 70/3/6
f 57/2/6 69/2/6 71/2/6
f 69/2/6 70/2/6 71/2/6
f 70/2/6 58/2/6 72/2/6
f 71/2/6 70/2/6 72/2/6
f 73/1/6 74/1/6 77/1/6
f 77/1/6 74/1/6 78/1/6
f 75/1/6 76/1/6 79/1/6
f 79/1/6 76/1/6 80/1/6
