# MagicaVoxel @ Ephtracy

# group
o 

# material
mtllib CityVoxelPack-13.mtl
usemtl palette

# normals
vn -1 0 0
vn 1 0 0
vn 0 0 1
vn 0 0 -1
vn 0 -1 0
vn 0 1 0

# texcoords
vt 0.876953 0.5
vt 0.908203 0.5
vt 0.939453 0.5

# verts
v -0.7 0 0.7
v -0.7 0 -0.8
v -0.7 0.2 0.7
v -0.7 0.2 -0.8
v 0.5 0.1 0.7
v 0.5 0.1 -0.8
v 0.5 0.2 0.7
v 0.5 0.2 -0.8
v -0.4 0.1 0.7
v -0.4 0.1 -0.8
v -0.4 0.2 0.7
v -0.4 0.2 -0.8
v 0.8 0 0.7
v 0.8 0 -0.8
v 0.8 0.2 0.7
v 0.8 0.2 -0.8
v -0.7 0 0.7
v -0.7 0.2 0.7
v -0.4 0 0.7
v -0.4 0.1 0.7
v -0.4 0.2 0.7
v 0.5 0 0.7
v 0.5 0.1 0.7
v 0.5 0.2 0.7
v 0.8 0 0.7
v 0.8 0.2 0.7
v -0.7 0 -0.8
v -0.7 0.2 -0.8
v -0.4 0 -0.8
v -0.4 0.1 -0.8
v -0.4 0.2 -0.8
v 0.5 0 -0.8
v 0.5 0.1 -0.8
v 0.5 0.2 -0.8
v 0.8 0 -0.8
v 0.8 0.2 -0.8
v -0.7 0 0.7
v -0.4 0 0.7
v 0.5 0 0.7
v 0.8 0 0.7
v 0 0 0.6
v 0.1 0 0.6
v 0 0 0.3
v 0.1 0 0.3
v 0 0 0.1
v 0.1 0 0.1
v 0 0 -0.2
v 0.1 0 -0.2
v 0 0 -0.4
v 0.1 0 -0.4
v 0 0 -0.7
v 0.1 0 -0.7
v -0.7 0 -0.8
v -0.4 0 -0.8
v 0.5 0 -0.8
v 0.8 0 -0.8
v -0.4 0.1 0.7
v 0.5 0.1 0.7
v 0 0.1 0.6
v 0.1 0.1 0.6
v 0 0.1 0.3
v 0.1 0.1 0.3
v 0 0.1 0.1
v 0.1 0.1 0.1
v 0 0.1 -0.2
v 0.1 0.1 -0.2
v 0 0.1 -0.4
v 0.1 0.1 -0.4
v 0 0.1 -0.7
v 0.1 0.1 -0.7
v -0.4 0.1 -0.8
v 0.5 0.1 -0.8
v -0.7 0.2 0.7
v -0.4 0.2 0.7
v 0.5 0.2 0.7
v 0.8 0.2 0.7
v -0.7 0.2 -0.8
v -0.4 0.2 -0.8
v 0.5 0.2 -0.8
v 0.8 0.2 -0.8

# faces
f 3/3/1 2/3/1 1/3/1
f 4/3/1 2/3/1 3/3/1
f 7/3/1 6/3/1 5/3/1
f 8/3/1 6/3/1 7/3/1
f 9/3/2 10/3/2 11/3/2
f 11/3/2 10/3/2 12/3/2
f 13/3/2 14/3/2 15/3/2
f 15/3/2 14/3/2 16/3/2
f 19/3/3 18/3/3 17/3/3
f 20/3/3 18/3/3 19/3/3
f 21/3/3 18/3/3 20/3/3
f 22/2/3 20/2/3 19/2/3
f 23/2/3 20/2/3 22/2/3
f 25/3/3 23/3/3 22/3/3
f 25/3/3 24/3/3 23/3/3
f 26/3/3 24/3/3 25/3/3
f 27/3/4 28/3/4 29/3/4
f 29/3/4 28/3/4 30/3/4
f 30/3/4 28/3/4 31/3/4
f 29/2/4 30/2/4 32/2/4
f 32/2/4 30/2/4 33/2/4
f 32/3/4 33/3/4 35/3/4
f 33/3/4 34/3/4 35/3/4
f 35/3/4 34/3/4 36/3/4
f 41/2/5 39/2/5 38/2/5
f 42/2/5 39/2/5 41/2/5
f 43/2/5 41/2/5 38/2/5
f 43/1/5 42/1/5 41/1/5
f 44/2/5 39/2/5 42/2/5
f 44/1/5 42/1/5 43/1/5
f 45/2/5 43/2/5 38/2/5
f 45/2/5 44/2/5 43/2/5
f 46/2/5 39/2/5 44/2/5
f 46/2/5 44/2/5 45/2/5
f 47/2/5 45/2/5 38/2/5
f 47/1/5 46/1/5 45/1/5
f 48/2/5 39/2/5 46/2/5
f 48/1/5 46/1/5 47/1/5
f 49/2/5 47/2/5 38/2/5
f 49/2/5 48/2/5 47/2/5
f 50/2/5 39/2/5 48/2/5
f 50/2/5 48/2/5 49/2/5
f 51/2/5 49/2/5 38/2/5
f 51/1/5 50/1/5 49/1/5
f 52/2/5 39/2/5 50/2/5
f 52/1/5 50/1/5 51/1/5
f 53/3/5 38/3/5 37/3/5
f 54/2/5 51/2/5 38/2/5
f 54/3/5 38/3/5 53/3/5
f 54/2/5 52/2/5 51/2/5
f 55/2/5 39/2/5 52/2/5
f 55/2/5 52/2/5 54/2/5
f 55/3/5 40/3/5 39/3/5
f 56/3/5 40/3/5 55/3/5
f 57/2/6 58/2/6 59/2/6
f 59/2/6 58/2/6 60/2/6
f 57/2/6 59/2/6 61/2/6
f 59/1/6 60/1/6 61/1/6
f 60/2/6 58/2/6 62/2/6
f 61/1/6 60/1/6 62/1/6
f 57/2/6 61/2/6 63/2/6
f 61/2/6 62/2/6 63/2/6
f 62/2/6 58/2/6 64/2/6
f 63/2/6 62/2/6 64/2/6
f 57/2/6 63/2/6 65/2/6
f 63/1/6 64/1/6 65/1/6
f 64/2/6 58/2/6 66/2/6
f 65/1/6 64/1/6 66/1/6
f 57/2/6 65/2/6 67/2/6
f 65/2/6 66/2/6 67/2/6
f 66/2/6 58/2/6 68/2/6
f 67/2/6 66/2/6 68/2/6
f 57/2/6 67/2/6 69/2/6
f 67/1/6 68/1/6 69/1/6
f 68/2/6 58/2/6 70/2/6
f 69/1/6 68/1/6 70/1/6
f 57/2/6 69/2/6 71/2/6
f 69/2/6 70/2/6 71/2/6
f 70/2/6 58/2/6 72/2/6
f 71/2/6 70/2/6 72/2/6
f 73/3/6 74/3/6 77/3/6
f 77/3/6 74/3/6 78/3/6
f 75/3/6 76/3/6 79/3/6
f 79/3/6 76/3/6 80/3/6
