# MagicaVoxel @ Ephtracy

# group
o 

# material
mtllib CityVoxelPack-4.mtl
usemtl palette

# normals
vn -1 0 0
vn 1 0 0
vn 0 0 1
vn 0 0 -1
vn 0 -1 0
vn 0 1 0

# texcoords
vt 0.783203 0.5
vt 0.787109 0.5
vt 0.791016 0.5
vt 0.794922 0.5
vt 0.939453 0.5

# verts
v -0.7 0 0.7
v -0.7 0 -0.8
v -0.7 0.2 0.7
v -0.7 0.2 -0.8
v -0.6 0.4 0.1
v -0.6 0.4 -0.2
v -0.6 0.5 0.1
v -0.6 0.5 -0.2
v -0.5 0.2 0.5
v -0.5 0.2 0
v -0.5 0.2 -0.1
v -0.5 0.2 -0.6
v -0.5 0.4 0.1
v -0.5 0.4 0
v -0.5 0.4 -0.1
v -0.5 0.4 -0.2
v -0.5 0.5 0.4
v -0.5 0.5 0.3
v -0.5 0.5 0.2
v -0.5 0.5 0.1
v -0.5 0.5 0
v -0.5 0.5 -0.1
v -0.5 0.5 -0.2
v -0.5 0.5 -0.3
v -0.5 0.5 -0.4
v -0.5 0.5 -0.5
v -0.5 0.7 0.4
v -0.5 0.7 0.3
v -0.5 0.7 0.2
v -0.5 0.7 0.1
v -0.5 0.7 0
v -0.5 0.7 -0.1
v -0.5 0.7 -0.2
v -0.5 0.7 -0.3
v -0.5 0.7 -0.4
v -0.5 0.7 -0.5
v -0.5 0.8 0.4
v -0.5 0.8 0.3
v -0.5 0.8 0.2
v -0.5 0.8 0.1
v -0.5 0.8 0
v -0.5 0.8 -0.1
v -0.5 0.8 -0.2
v -0.5 0.8 -0.3
v -0.5 0.8 -0.4
v -0.5 0.8 -0.5
v -0.5 1 0.4
v -0.5 1 0.3
v -0.5 1 0.2
v -0.5 1 0.1
v -0.5 1 0
v -0.5 1 -0.1
v -0.5 1 -0.2
v -0.5 1 -0.3
v -0.5 1 -0.4
v -0.5 1 -0.5
v -0.5 1.1 0.4
v -0.5 1.1 0.3
v -0.5 1.1 0.2
v -0.5 1.1 0.1
v -0.5 1.1 0
v -0.5 1.1 -0.1
v -0.5 1.1 -0.2
v -0.5 1.1 -0.3
v -0.5 1.1 -0.4
v -0.5 1.1 -0.5
v -0.5 1.3 0.4
v -0.5 1.3 0.3
v -0.5 1.3 0.2
v -0.5 1.3 0.1
v -0.5 1.3 0
v -0.5 1.3 -0.1
v -0.5 1.3 -0.2
v -0.5 1.3 -0.3
v -0.5 1.3 -0.4
v -0.5 1.3 -0.5
v -0.5 1.4 0.5
v -0.5 1.4 0.4
v -0.5 1.4 -0.5
v -0.5 1.4 -0.6
v -0.5 1.6 0.4
v -0.5 1.6 -0.5
v -0.4 1.4 0.5
v -0.4 1.4 0.4
v -0.4 1.4 -0.5
v -0.4 1.4 -0.6
v -0.4 1.6 0.5
v -0.4 1.6 0.4
v -0.4 1.6 -0.5
v -0.4 1.6 -0.6
v -0.3 1.5 0.3
v -0.3 1.5 -0.4
v -0.3 1.6 0.2
v -0.3 1.6 0.1
v -0.3 1.6 0
v -0.3 1.6 -0.1
v -0.3 1.6 -0.2
v -0.3 1.6 -0.3
v -0.3 1.8 0.2
v -0.3 1.8 0.1
v -0.3 1.8 0
v -0.3 1.8 -0.1
v -0.3 1.8 -0.2
v -0.3 1.8 -0.3
v -0.3 1.9 0.2
v -0.3 1.9 0.1
v -0.3 1.9 0
v -0.3 1.9 -0.1
v -0.3 1.9 -0.2
v -0.3 1.9 -0.3
v -0.3 2.1 0.2
v -0.3 2.1 0.1
v -0.3 2.1 0
v -0.3 2.1 -0.1
v -0.3 2.1 -0.2
v -0.3 2.1 -0.3
v -0.3 2.2 0.2
v -0.3 2.2 0.1
v -0.3 2.2 0
v -0.3 2.2 -0.1
v -0.3 2.2 -0.2
v -0.3 2.2 -0.3
v -0.3 2.4 0.2
v -0.3 2.4 0.1
v -0.3 2.4 0
v -0.3 2.4 -0.1
v -0.3 2.4 -0.2
v -0.3 2.4 -0.3
v -0.3 2.5 0.3
v -0.3 2.5 0.2
v -0.3 2.5 -0.3
v -0.3 2.5 -0.4
v -0.3 2.7 0.2
v -0.3 2.7 -0.3
v -0.2 2.5 0.3
v -0.2 2.5 0.2
v -0.2 2.5 -0.3
v -0.2 2.5 -0.4
v -0.2 2.7 0.3
v -0.2 2.7 0.2
v -0.2 2.7 -0.3
v -0.2 2.7 -0.4
v -0.1 2.6 0.1
v -0.1 2.6 0
v -0.1 2.6 -0.1
v -0.1 2.6 -0.2
v -0.1 2.8 0
v -0.1 2.8 -0.1
v -0.1 3.1 0.1
v -0.1 3.1 0
v -0.1 3.1 -0.1
v -0.1 3.1 -0.2
v -0.1 3.3 0
v -0.1 3.3 -0.1
v 0 3.1 0.1
v 0 3.1 0
v 0 3.1 -0.1
v 0 3.1 -0.2
v 0 3.3 0.1
v 0 3.3 0
v 0 3.3 -0.1
v 0 3.3 -0.2
v 0 3.9 0
v 0 3.9 -0.1
v 0.3 2.6 0.2
v 0.3 2.6 -0.3
v 0.3 2.7 0.2
v 0.3 2.7 -0.3
v 0.5 1.5 0.4
v 0.5 1.5 -0.5
v 0.5 1.6 0.4
v 0.5 1.6 -0.5
v -0.4 1.5 0.4
v -0.4 1.5 -0.5
v -0.4 1.6 0.4
v -0.4 1.6 -0.5
v -0.2 2.6 0.2
v -0.2 2.6 -0.3
v -0.2 2.7 0.2
v -0.2 2.7 -0.3
v 0.1 3.1 0.1
v 0.1 3.1 0
v 0.1 3.1 -0.1
v 0.1 3.1 -0.2
v 0.1 3.3 0.1
v 0.1 3.3 0
v 0.1 3.3 -0.1
v 0.1 3.3 -0.2
v 0.1 3.9 0
v 0.1 3.9 -0.1
v 0.2 2.6 0.1
v 0.2 2.6 0
v 0.2 2.6 -0.1
v 0.2 2.6 -0.2
v 0.2 2.8 0
v 0.2 2.8 -0.1
v 0.2 3.1 0.1
v 0.2 3.1 0
v 0.2 3.1 -0.1
v 0.2 3.1 -0.2
v 0.2 3.3 0
v 0.2 3.3 -0.1
v 0.3 2.5 0.3
v 0.3 2.5 0.2
v 0.3 2.5 -0.3
v 0.3 2.5 -0.4
v 0.3 2.7 0.3
v 0.3 2.7 0.2
v 0.3 2.7 -0.3
v 0.3 2.7 -0.4
v 0.4 1.5 0.3
v 0.4 1.5 -0.4
v 0.4 1.6 0.2
v 0.4 1.6 0.1
v 0.4 1.6 0
v 0.4 1.6 -0.1
v 0.4 1.6 -0.2
v 0.4 1.6 -0.3
v 0.4 1.8 0.2
v 0.4 1.8 0.1
v 0.4 1.8 0
v 0.4 1.8 -0.1
v 0.4 1.8 -0.2
v 0.4 1.8 -0.3
v 0.4 1.9 0.2
v 0.4 1.9 0.1
v 0.4 1.9 0
v 0.4 1.9 -0.1
v 0.4 1.9 -0.2
v 0.4 1.9 -0.3
v 0.4 2.1 0.2
v 0.4 2.1 0.1
v 0.4 2.1 0
v 0.4 2.1 -0.1
v 0.4 2.1 -0.2
v 0.4 2.1 -0.3
v 0.4 2.2 0.2
v 0.4 2.2 0.1
v 0.4 2.2 0
v 0.4 2.2 -0.1
v 0.4 2.2 -0.2
v 0.4 2.2 -0.3
v 0.4 2.4 0.2
v 0.4 2.4 0.1
v 0.4 2.4 0
v 0.4 2.4 -0.1
v 0.4 2.4 -0.2
v 0.4 2.4 -0.3
v 0.4 2.5 0.3
v 0.4 2.5 0.2
v 0.4 2.5 -0.3
v 0.4 2.5 -0.4
v 0.4 2.7 0.2
v 0.4 2.7 -0.3
v 0.5 1.4 0.5
v 0.5 1.4 0.4
v 0.5 1.4 -0.5
v 0.5 1.4 -0.6
v 0.5 1.6 0.5
v 0.5 1.6 0.4
v 0.5 1.6 -0.5
v 0.5 1.6 -0.6
v 0.6 0.2 0.5
v 0.6 0.2 0
v 0.6 0.2 -0.1
v 0.6 0.2 -0.6
v 0.6 0.4 0.1
v 0.6 0.4 0
v 0.6 0.4 -0.1
v 0.6 0.4 -0.2
v 0.6 0.5 0.4
v 0.6 0.5 0.3
v 0.6 0.5 0.2
v 0.6 0.5 0.1
v 0.6 0.5 0
v 0.6 0.5 -0.1
v 0.6 0.5 -0.2
v 0.6 0.5 -0.3
v 0.6 0.5 -0.4
v 0.6 0.5 -0.5
v 0.6 0.7 0.4
v 0.6 0.7 0.3
v 0.6 0.7 0.2
v 0.6 0.7 0.1
v 0.6 0.7 0
v 0.6 0.7 -0.1
v 0.6 0.7 -0.2
v 0.6 0.7 -0.3
v 0.6 0.7 -0.4
v 0.6 0.7 -0.5
v 0.6 0.8 0.4
v 0.6 0.8 0.3
v 0.6 0.8 0.2
v 0.6 0.8 0.1
v 0.6 0.8 0
v 0.6 0.8 -0.1
v 0.6 0.8 -0.2
v 0.6 0.8 -0.3
v 0.6 0.8 -0.4
v 0.6 0.8 -0.5
v 0.6 1 0.4
v 0.6 1 0.3
v 0.6 1 0.2
v 0.6 1 0.1
v 0.6 1 0
v 0.6 1 -0.1
v 0.6 1 -0.2
v 0.6 1 -0.3
v 0.6 1 -0.4
v 0.6 1 -0.5
v 0.6 1.1 0.4
v 0.6 1.1 0.3
v 0.6 1.1 0.2
v 0.6 1.1 0.1
v 0.6 1.1 0
v 0.6 1.1 -0.1
v 0.6 1.1 -0.2
v 0.6 1.1 -0.3
v 0.6 1.1 -0.4
v 0.6 1.1 -0.5
v 0.6 1.3 0.4
v 0.6 1.3 0.3
v 0.6 1.3 0.2
v 0.6 1.3 0.1
v 0.6 1.3 0
v 0.6 1.3 -0.1
v 0.6 1.3 -0.2
v 0.6 1.3 -0.3
v 0.6 1.3 -0.4
v 0.6 1.3 -0.5
v 0.6 1.4 0.5
v 0.6 1.4 0.4
v 0.6 1.4 -0.5
v 0.6 1.4 -0.6
v 0.6 1.6 0.4
v 0.6 1.6 -0.5
v 0.7 0.4 0.1
v 0.7 0.4 -0.2
v 0.7 0.5 0.1
v 0.7 0.5 -0.2
v 0.8 0 0.7
v 0.8 0 -0.8
v 0.8 0.2 0.7
v 0.8 0.2 -0.8
v -0.7 0 0.7
v -0.7 0.2 0.7
v 0.8 0 0.7
v 0.8 0.2 0.7
v -0.5 0.2 0.5
v -0.5 1.4 0.5
v -0.4 0.5 0.5
v -0.4 0.7 0.5
v -0.4 0.8 0.5
v -0.4 1 0.5
v -0.4 1.1 0.5
v -0.4 1.3 0.5
v -0.4 1.4 0.5
v -0.4 1.6 0.5
v -0.3 0.5 0.5
v -0.3 0.7 0.5
v -0.3 0.8 0.5
v -0.3 1 0.5
v -0.3 1.1 0.5
v -0.3 1.3 0.5
v -0.2 0.5 0.5
v -0.2 0.7 0.5
v -0.2 0.8 0.5
v -0.2 1 0.5
v -0.2 1.1 0.5
v -0.2 1.3 0.5
v -0.1 0.5 0.5
v -0.1 0.7 0.5
v -0.1 0.8 0.5
v -0.1 1 0.5
v -0.1 1.1 0.5
v -0.1 1.3 0.5
v 0 0.5 0.5
v 0 0.7 0.5
v 0 0.8 0.5
v 0 1 0.5
v 0 1.1 0.5
v 0 1.3 0.5
v 0.1 0.5 0.5
v 0.1 0.7 0.5
v 0.1 0.8 0.5
v 0.1 1 0.5
v 0.1 1.1 0.5
v 0.1 1.3 0.5
v 0.2 0.5 0.5
v 0.2 0.7 0.5
v 0.2 0.8 0.5
v 0.2 1 0.5
v 0.2 1.1 0.5
v 0.2 1.3 0.5
v 0.3 0.5 0.5
v 0.3 0.7 0.5
v 0.3 0.8 0.5
v 0.3 1 0.5
v 0.3 1.1 0.5
v 0.3 1.3 0.5
v 0.4 0.5 0.5
v 0.4 0.7 0.5
v 0.4 0.8 0.5
v 0.4 1 0.5
v 0.4 1.1 0.5
v 0.4 1.3 0.5
v 0.5 0.5 0.5
v 0.5 0.7 0.5
v 0.5 0.8 0.5
v 0.5 1 0.5
v 0.5 1.1 0.5
v 0.5 1.3 0.5
v 0.5 1.4 0.5
v 0.5 1.6 0.5
v 0.6 0.2 0.5
v 0.6 1.4 0.5
v -0.5 1.4 0.4
v -0.5 1.6 0.4
v -0.4 1.4 0.4
v -0.4 1.6 0.4
v 0.5 1.4 0.4
v 0.5 1.6 0.4
v 0.6 1.4 0.4
v 0.6 1.6 0.4
v -0.3 1.5 0.3
v -0.3 2.5 0.3
v -0.2 1.6 0.3
v -0.2 1.8 0.3
v -0.2 1.9 0.3
v -0.2 2.1 0.3
v -0.2 2.2 0.3
v -0.2 2.4 0.3
v -0.2 2.5 0.3
v -0.2 2.7 0.3
v -0.1 1.6 0.3
v -0.1 1.8 0.3
v -0.1 1.9 0.3
v -0.1 2.1 0.3
v -0.1 2.2 0.3
v -0.1 2.4 0.3
v 0 1.6 0.3
v 0 1.8 0.3
v 0 1.9 0.3
v 0 2.1 0.3
v 0 2.2 0.3
v 0 2.4 0.3
v 0.1 1.6 0.3
v 0.1 1.8 0.3
v 0.1 1.9 0.3
v 0.1 2.1 0.3
v 0.1 2.2 0.3
v 0.1 2.4 0.3
v 0.2 1.6 0.3
v 0.2 1.8 0.3
v 0.2 1.9 0.3
v 0.2 2.1 0.3
v 0.2 2.2 0.3
v 0.2 2.4 0.3
v 0.3 1.6 0.3
v 0.3 1.8 0.3
v 0.3 1.9 0.3
v 0.3 2.1 0.3
v 0.3 2.2 0.3
v 0.3 2.4 0.3
v 0.3 2.5 0.3
v 0.3 2.7 0.3
v 0.4 1.5 0.3
v 0.4 2.5 0.3
v -0.3 2.5 0.2
v -0.3 2.7 0.2
v -0.2 2.5 0.2
v -0.2 2.7 0.2
v 0.3 2.5 0.2
v 0.3 2.7 0.2
v 0.4 2.5 0.2
v 0.4 2.7 0.2
v -0.6 0.4 0.1
v -0.6 0.5 0.1
v -0.5 0.4 0.1
v -0.5 0.5 0.1
v -0.1 2.6 0.1
v -0.1 3.1 0.1
v 0 3.1 0.1
v 0 3.3 0.1
v 0.1 3.1 0.1
v 0.1 3.3 0.1
v 0.2 2.6 0.1
v 0.2 3.1 0.1
v 0.6 0.4 0.1
v 0.6 0.5 0.1
v 0.7 0.4 0.1
v 0.7 0.5 0.1
v -0.1 3.1 0
v -0.1 3.3 0
v 0 3.1 0
v 0 3.3 0
v 0 3.9 0
v 0.1 3.1 0
v 0.1 3.3 0
v 0.1 3.9 0
v 0.2 3.1 0
v 0.2 3.3 0
v -0.2 2.6 -0.3
v -0.2 2.7 -0.3
v 0.3 2.6 -0.3
v 0.3 2.7 -0.3
v -0.4 1.5 -0.5
v -0.4 1.6 -0.5
v 0.5 1.5 -0.5
v 0.5 1.6 -0.5
v -0.4 1.5 0.4
v -0.4 1.6 0.4
v 0.5 1.5 0.4
v 0.5 1.6 0.4
v -0.2 2.6 0.2
v -0.2 2.7 0.2
v 0.3 2.6 0.2
v 0.3 2.7 0.2
v -0.1 3.1 -0.1
v -0.1 3.3 -0.1
v 0 3.1 -0.1
v 0 3.3 -0.1
v 0 3.9 -0.1
v 0.1 3.1 -0.1
v 0.1 3.3 -0.1
v 0.1 3.9 -0.1
v 0.2 3.1 -0.1
v 0.2 3.3 -0.1
v -0.6 0.4 -0.2
v -0.6 0.5 -0.2
v -0.5 0.4 -0.2
v -0.5 0.5 -0.2
v -0.1 2.6 -0.2
v -0.1 3.1 -0.2
v 0 3.1 -0.2
v 0 3.3 -0.2
v 0.1 3.1 -0.2
v 0.1 3.3 -0.2
v 0.2 2.6 -0.2
v 0.2 3.1 -0.2
v 0.6 0.4 -0.2
v 0.6 0.5 -0.2
v 0.7 0.4 -0.2
v 0.7 0.5 -0.2
v -0.3 2.5 -0.3
v -0.3 2.7 -0.3
v -0.2 2.5 -0.3
v -0.2 2.7 -0.3
v 0.3 2.5 -0.3
v 0.3 2.7 -0.3
v 0.4 2.5 -0.3
v 0.4 2.7 -0.3
v -0.3 1.5 -0.4
v -0.3 2.5 -0.4
v -0.2 1.6 -0.4
v -0.2 1.8 -0.4
v -0.2 1.9 -0.4
v -0.2 2.1 -0.4
v -0.2 2.2 -0.4
v -0.2 2.4 -0.4
v -0.2 2.5 -0.4
v -0.2 2.7 -0.4
v -0.1 1.6 -0.4
v -0.1 1.8 -0.4
v -0.1 1.9 -0.4
v -0.1 2.1 -0.4
v -0.1 2.2 -0.4
v -0.1 2.4 -0.4
v 0 1.6 -0.4
v 0 1.8 -0.4
v 0 1.9 -0.4
v 0 2.1 -0.4
v 0 2.2 -0.4
v 0 2.4 -0.4
v 0.1 1.6 -0.4
v 0.1 1.8 -0.4
v 0.1 1.9 -0.4
v 0.1 2.1 -0.4
v 0.1 2.2 -0.4
v 0.1 2.4 -0.4
v 0.2 1.6 -0.4
v 0.2 1.8 -0.4
v 0.2 1.9 -0.4
v 0.2 2.1 -0.4
v 0.2 2.2 -0.4
v 0.2 2.4 -0.4
v 0.3 1.6 -0.4
v 0.3 1.8 -0.4
v 0.3 1.9 -0.4
v 0.3 2.1 -0.4
v 0.3 2.2 -0.4
v 0.3 2.4 -0.4
v 0.3 2.5 -0.4
v 0.3 2.7 -0.4
v 0.4 1.5 -0.4
v 0.4 2.5 -0.4
v -0.5 1.4 -0.5
v -0.5 1.6 -0.5
v -0.4 1.4 -0.5
v -0.4 1.6 -0.5
v 0.5 1.4 -0.5
v 0.5 1.6 -0.5
v 0.6 1.4 -0.5
v 0.6 1.6 -0.5
v -0.5 0.2 -0.6
v -0.5 1.4 -0.6
v -0.4 0.5 -0.6
v -0.4 0.7 -0.6
v -0.4 0.8 -0.6
v -0.4 1 -0.6
v -0.4 1.1 -0.6
v -0.4 1.3 -0.6
v -0.4 1.4 -0.6
v -0.4 1.6 -0.6
v -0.3 0.5 -0.6
v -0.3 0.7 -0.6
v -0.3 0.8 -0.6
v -0.3 1 -0.6
v -0.3 1.1 -0.6
v -0.3 1.3 -0.6
v -0.2 0.5 -0.6
v -0.2 0.7 -0.6
v -0.2 0.8 -0.6
v -0.2 1 -0.6
v -0.2 1.1 -0.6
v -0.2 1.3 -0.6
v -0.1 0.5 -0.6
v -0.1 0.7 -0.6
v -0.1 0.8 -0.6
v -0.1 1 -0.6
v -0.1 1.1 -0.6
v -0.1 1.3 -0.6
v 0 0.5 -0.6
v 0 0.7 -0.6
v 0 0.8 -0.6
v 0 1 -0.6
v 0 1.1 -0.6
v 0 1.3 -0.6
v 0.1 0.5 -0.6
v 0.1 0.7 -0.6
v 0.1 0.8 -0.6
v 0.1 1 -0.6
v 0.1 1.1 -0.6
v 0.1 1.3 -0.6
v 0.2 0.5 -0.6
v 0.2 0.7 -0.6
v 0.2 0.8 -0.6
v 0.2 1 -0.6
v 0.2 1.1 -0.6
v 0.2 1.3 -0.6
v 0.3 0.5 -0.6
v 0.3 0.7 -0.6
v 0.3 0.8 -0.6
v 0.3 1 -0.6
v 0.3 1.1 -0.6
v 0.3 1.3 -0.6
v 0.4 0.5 -0.6
v 0.4 0.7 -0.6
v 0.4 0.8 -0.6
v 0.4 1 -0.6
v 0.4 1.1 -0.6
v 0.4 1.3 -0.6
v 0.5 0.5 -0.6
v 0.5 0.7 -0.6
v 0.5 0.8 -0.6
v 0.5 1 -0.6
v 0.5 1.1 -0.6
v 0.5 1.3 -0.6
v 0.5 1.4 -0.6
v 0.5 1.6 -0.6
v 0.6 0.2 -0.6
v 0.6 1.4 -0.6
v -0.7 0 -0.8
v -0.7 0.2 -0.8
v 0.8 0 -0.8
v 0.8 0.2 -0.8
v -0.7 0 0.7
v 0.8 0 0.7
v -0.7 0 -0.8
v 0.8 0 -0.8
v -0.6 0.4 0.1
v -0.5 0.4 0.1
v 0.6 0.4 0.1
v 0.7 0.4 0.1
v -0.5 0.4 0
v 0.6 0.4 0
v -0.5 0.4 -0.1
v 0.6 0.4 -0.1
v -0.6 0.4 -0.2
v -0.5 0.4 -0.2
v 0.6 0.4 -0.2
v 0.7 0.4 -0.2
v -0.7 0.2 0.7
v 0.8 0.2 0.7
v -0.5 0.2 0.5
v 0.6 0.2 0.5
v -0.5 0.2 0
v 0.6 0.2 0
v -0.5 0.2 -0.1
v 0.6 0.2 -0.1
v -0.5 0.2 -0.6
v 0.6 0.2 -0.6
v -0.7 0.2 -0.8
v 0.8 0.2 -0.8
v -0.6 0.5 0.1
v -0.5 0.5 0.1
v 0.6 0.5 0.1
v 0.7 0.5 0.1
v -0.5 0.5 0
v 0.6 0.5 0
v -0.5 0.5 -0.1
v 0.6 0.5 -0.1
v -0.6 0.5 -0.2
v -0.5 0.5 -0.2
v 0.6 0.5 -0.2
v 0.7 0.5 -0.2
v -0.5 1.4 0.5
v -0.4 1.4 0.5
v 0.5 1.4 0.5
v 0.6 1.4 0.5
v -0.5 1.4 0.4
v -0.4 1.4 0.4
v 0.5 1.4 0.4
v 0.6 1.4 0.4
v -0.5 1.4 -0.5
v -0.4 1.4 -0.5
v 0.5 1.4 -0.5
v 0.6 1.4 -0.5
v -0.5 1.4 -0.6
v -0.4 1.4 -0.6
v 0.5 1.4 -0.6
v 0.6 1.4 -0.6
v -0.4 1.5 0.4
v 0.5 1.5 0.4
v -0.3 1.5 0.3
v 0.4 1.5 0.3
v -0.3 1.5 -0.4
v 0.4 1.5 -0.4
v -0.4 1.5 -0.5
v 0.5 1.5 -0.5
v -0.4 1.6 0.5
v 0.5 1.6 0.5
v -0.5 1.6 0.4
v -0.4 1.6 0.4
v 0.5 1.6 0.4
v 0.6 1.6 0.4
v -0.5 1.6 -0.5
v -0.4 1.6 -0.5
v 0.5 1.6 -0.5
v 0.6 1.6 -0.5
v -0.4 1.6 -0.6
v 0.5 1.6 -0.6
v -0.3 2.5 0.3
v -0.2 2.5 0.3
v 0.3 2.5 0.3
v 0.4 2.5 0.3
v -0.3 2.5 0.2
v -0.2 2.5 0.2
v 0.3 2.5 0.2
v 0.4 2.5 0.2
v -0.3 2.5 -0.3
v -0.2 2.5 -0.3
v 0.3 2.5 -0.3
v 0.4 2.5 -0.3
v -0.3 2.5 -0.4
v -0.2 2.5 -0.4
v 0.3 2.5 -0.4
v 0.4 2.5 -0.4
v -0.2 2.6 0.2
v 0.3 2.6 0.2
v -0.1 2.6 0.1
v 0.2 2.6 0.1
v -0.1 2.6 0
v 0.2 2.6 0
v -0.1 2.6 -0.1
v 0.2 2.6 -0.1
v -0.1 2.6 -0.2
v 0.2 2.6 -0.2
v -0.2 2.6 -0.3
v 0.3 2.6 -0.3
v -0.2 2.7 0.3
v 0.3 2.7 0.3
v -0.3 2.7 0.2
v -0.2 2.7 0.2
v 0.3 2.7 0.2
v 0.4 2.7 0.2
v -0.3 2.7 -0.3
v -0.2 2.7 -0.3
v 0.3 2.7 -0.3
v 0.4 2.7 -0.3
v -0.2 2.7 -0.4
v 0.3 2.7 -0.4
v -0.1 3.1 0.1
v 0 3.1 0.1
v 0.1 3.1 0.1
v 0.2 3.1 0.1
v -0.1 3.1 0
v 0 3.1 0
v 0.1 3.1 0
v 0.2 3.1 0
v -0.1 3.1 -0.1
v 0 3.1 -0.1
v 0.1 3.1 -0.1
v 0.2 3.1 -0.1
v -0.1 3.1 -0.2
v 0 3.1 -0.2
v 0.1 3.1 -0.2
v 0.2 3.1 -0.2
v 0 3.3 0.1
v 0.1 3.3 0.1
v -0.1 3.3 0
v 0 3.3 0
v 0.1 3.3 0
v 0.2 3.3 0
v -0.1 3.3 -0.1
v 0 3.3 -0.1
v 0.1 3.3 -0.1
v 0.2 3.3 -0.1
v 0 3.3 -0.2
v 0.1 3.3 -0.2
v 0 3.9 0
v 0.1 3.9 0
v 0 3.9 -0.1
v 0.1 3.9 -0.1

# faces
f 3/5/1 2/5/1 1/5/1
f 4/5/1 2/5/1 3/5/1
f 7/1/1 6/1/1 5/1/1
f 8/1/1 6/1/1 7/1/1
f 13/1/1 10/1/1 9/1/1
f 14/2/1 11/2/1 10/2/1
f 14/1/1 10/1/1 13/1/1
f 15/1/1 12/1/1 11/1/1
f 15/2/1 11/2/1 14/2/1
f 16/1/1 12/1/1 15/1/1
f 17/1/1 13/1/1 9/1/1
f 18/1/1 13/1/1 17/1/1
f 19/1/1 13/1/1 18/1/1
f 20/1/1 13/1/1 19/1/1
f 23/1/1 12/1/1 16/1/1
f 24/1/1 12/1/1 23/1/1
f 25/1/1 12/1/1 24/1/1
f 26/1/1 12/1/1 25/1/1
f 27/1/1 17/1/1 9/1/1
f 27/2/1 18/2/1 17/2/1
f 28/1/1 19/1/1 18/1/1
f 28/2/1 18/2/1 27/2/1
f 29/2/1 20/2/1 19/2/1
f 29/1/1 19/1/1 28/1/1
f 30/1/1 21/1/1 20/1/1
f 30/2/1 20/2/1 29/2/1
f 31/2/1 22/2/1 21/2/1
f 31/1/1 21/1/1 30/1/1
f 32/1/1 23/1/1 22/1/1
f 32/2/1 22/2/1 31/2/1
f 33/2/1 24/2/1 23/2/1
f 33/1/1 23/1/1 32/1/1
f 34/1/1 25/1/1 24/1/1
f 34/2/1 24/2/1 33/2/1
f 35/2/1 26/2/1 25/2/1
f 35/1/1 25/1/1 34/1/1
f 36/1/1 12/1/1 26/1/1
f 36/2/1 26/2/1 35/2/1
f 37/1/1 30/1/1 29/1/1
f 37/1/1 35/1/1 34/1/1
f 37/1/1 36/1/1 35/1/1
f 37/1/1 33/1/1 32/1/1
f 37/1/1 32/1/1 31/1/1
f 37/1/1 31/1/1 30/1/1
f 37/1/1 34/1/1 33/1/1
f 37/1/1 29/1/1 28/1/1
f 37/1/1 28/1/1 27/1/1
f 37/1/1 27/1/1 9/1/1
f 38/1/1 36/1/1 37/1/1
f 39/1/1 36/1/1 38/1/1
f 40/1/1 36/1/1 39/1/1
f 41/1/1 36/1/1 40/1/1
f 42/1/1 36/1/1 41/1/1
f 43/1/1 36/1/1 42/1/1
f 44/1/1 36/1/1 43/1/1
f 45/1/1 36/1/1 44/1/1
f 46/1/1 12/1/1 36/1/1
f 46/1/1 36/1/1 45/1/1
f 47/1/1 37/1/1 9/1/1
f 47/2/1 38/2/1 37/2/1
f 48/1/1 39/1/1 38/1/1
f 48/2/1 38/2/1 47/2/1
f 49/2/1 40/2/1 39/2/1
f 49/1/1 39/1/1 48/1/1
f 50/1/1 41/1/1 40/1/1
f 50/2/1 40/2/1 49/2/1
f 51/2/1 42/2/1 41/2/1
f 51/1/1 41/1/1 50/1/1
f 52/1/1 43/1/1 42/1/1
f 52/2/1 42/2/1 51/2/1
f 53/2/1 44/2/1 43/2/1
f 53/1/1 43/1/1 52/1/1
f 54/1/1 45/1/1 44/1/1
f 54/2/1 44/2/1 53/2/1
f 55/2/1 46/2/1 45/2/1
f 55/1/1 45/1/1 54/1/1
f 56/1/1 12/1/1 46/1/1
f 56/2/1 46/2/1 55/2/1
f 57/1/1 53/1/1 52/1/1
f 57/1/1 55/1/1 54/1/1
f 57/1/1 56/1/1 55/1/1
f 57/1/1 52/1/1 51/1/1
f 57/1/1 51/1/1 50/1/1
f 57/1/1 50/1/1 49/1/1
f 57/1/1 49/1/1 48/1/1
f 57/1/1 48/1/1 47/1/1
f 57/1/1 47/1/1 9/1/1
f 57/1/1 54/1/1 53/1/1
f 58/1/1 56/1/1 57/1/1
f 59/1/1 56/1/1 58/1/1
f 60/1/1 56/1/1 59/1/1
f 61/1/1 56/1/1 60/1/1
f 62/1/1 56/1/1 61/1/1
f 63/1/1 56/1/1 62/1/1
f 64/1/1 56/1/1 63/1/1
f 65/1/1 56/1/1 64/1/1
f 66/1/1 12/1/1 56/1/1
f 66/1/1 56/1/1 65/1/1
f 67/1/1 57/1/1 9/1/1
f 67/2/1 58/2/1 57/2/1
f 68/1/1 59/1/1 58/1/1
f 68/2/1 58/2/1 67/2/1
f 69/2/1 60/2/1 59/2/1
f 69/1/1 59/1/1 68/1/1
f 70/1/1 61/1/1 60/1/1
f 70/2/1 60/2/1 69/2/1
f 71/2/1 62/2/1 61/2/1
f 71/1/1 61/1/1 70/1/1
f 72/1/1 63/1/1 62/1/1
f 72/2/1 62/2/1 71/2/1
f 73/2/1 64/2/1 63/2/1
f 73/1/1 63/1/1 72/1/1
f 74/1/1 65/1/1 64/1/1
f 74/2/1 64/2/1 73/2/1
f 75/2/1 66/2/1 65/2/1
f 75/1/1 65/1/1 74/1/1
f 76/1/1 12/1/1 66/1/1
f 76/2/1 66/2/1 75/2/1
f 77/1/1 73/1/1 72/1/1
f 77/1/1 75/1/1 74/1/1
f 77/1/1 76/1/1 75/1/1
f 77/1/1 72/1/1 71/1/1
f 77/1/1 71/1/1 70/1/1
f 77/1/1 70/1/1 69/1/1
f 77/1/1 69/1/1 68/1/1
f 77/1/1 68/1/1 67/1/1
f 77/1/1 67/1/1 9/1/1
f 77/1/1 74/1/1 73/1/1
f 78/1/1 76/1/1 77/1/1
f 79/1/1 12/1/1 76/1/1
f 79/1/1 76/1/1 78/1/1
f 80/1/1 12/1/1 79/1/1
f 81/1/1 79/1/1 78/1/1
f 82/1/1 79/1/1 81/1/1
f 87/1/1 84/1/1 83/1/1
f 88/1/1 84/1/1 87/1/1
f 89/1/1 86/1/1 85/1/1
f 90/1/1 86/1/1 89/1/1
f 93/1/1 92/1/1 91/1/1
f 94/1/1 92/1/1 93/1/1
f 95/1/1 92/1/1 94/1/1
f 96/1/1 92/1/1 95/1/1
f 97/1/1 92/1/1 96/1/1
f 98/1/1 92/1/1 97/1/1
f 99/1/1 93/1/1 91/1/1
f 99/2/1 94/2/1 93/2/1
f 100/1/1 95/1/1 94/1/1
f 100/2/1 94/2/1 99/2/1
f 101/2/1 96/2/1 95/2/1
f 101/1/1 95/1/1 100/1/1
f 102/1/1 97/1/1 96/1/1
f 102/2/1 96/2/1 101/2/1
f 103/2/1 98/2/1 97/2/1
f 103/1/1 97/1/1 102/1/1
f 104/1/1 92/1/1 98/1/1
f 104/2/1 98/2/1 103/2/1
f 105/1/1 103/1/1 102/1/1
f 105/1/1 102/1/1 101/1/1
f 105/1/1 104/1/1 103/1/1
f 105/1/1 101/1/1 100/1/1
f 105/1/1 100/1/1 99/1/1
f 105/1/1 99/1/1 91/1/1
f 106/1/1 104/1/1 105/1/1
f 107/1/1 104/1/1 106/1/1
f 108/1/1 104/1/1 107/1/1
f 109/1/1 104/1/1 108/1/1
f 110/1/1 92/1/1 104/1/1
f 110/1/1 104/1/1 109/1/1
f 111/1/1 105/1/1 91/1/1
f 111/2/1 106/2/1 105/2/1
f 112/1/1 107/1/1 106/1/1
f 112/2/1 106/2/1 111/2/1
f 113/2/1 108/2/1 107/2/1
f 113/1/1 107/1/1 112/1/1
f 114/1/1 109/1/1 108/1/1
f 114/2/1 108/2/1 113/2/1
f 115/2/1 110/2/1 109/2/1
f 115/1/1 109/1/1 114/1/1
f 116/1/1 92/1/1 110/1/1
f 116/2/1 110/2/1 115/2/1
f 117/1/1 113/1/1 112/1/1
f 117/1/1 115/1/1 114/1/1
f 117/1/1 116/1/1 115/1/1
f 117/1/1 112/1/1 111/1/1
f 117/1/1 111/1/1 91/1/1
f 117/1/1 114/1/1 113/1/1
f 118/1/1 116/1/1 117/1/1
f 119/1/1 116/1/1 118/1/1
f 120/1/1 116/1/1 119/1/1
f 121/1/1 116/1/1 120/1/1
f 122/1/1 92/1/1 116/1/1
f 122/1/1 116/1/1 121/1/1
f 123/1/1 117/1/1 91/1/1
f 123/2/1 118/2/1 117/2/1
f 124/1/1 119/1/1 118/1/1
f 124/2/1 118/2/1 123/2/1
f 125/2/1 120/2/1 119/2/1
f 125/1/1 119/1/1 124/1/1
f 126/1/1 121/1/1 120/1/1
f 126/2/1 120/2/1 125/2/1
f 127/2/1 122/2/1 121/2/1
f 127/1/1 121/1/1 126/1/1
f 128/1/1 92/1/1 122/1/1
f 128/2/1 122/2/1 127/2/1
f 129/1/1 125/1/1 124/1/1
f 129/1/1 127/1/1 126/1/1
f 129/1/1 128/1/1 127/1/1
f 129/1/1 124/1/1 123/1/1
f 129/1/1 123/1/1 91/1/1
f 129/1/1 126/1/1 125/1/1
f 130/1/1 128/1/1 129/1/1
f 131/1/1 92/1/1 128/1/1
f 131/1/1 128/1/1 130/1/1
f 132/1/1 92/1/1 131/1/1
f 133/1/1 131/1/1 130/1/1
f 134/1/1 131/1/1 133/1/1
f 139/1/1 136/1/1 135/1/1
f 140/1/1 136/1/1 139/1/1
f 141/1/1 138/1/1 137/1/1
f 142/1/1 138/1/1 141/1/1
f 147/1/1 144/1/1 143/1/1
f 147/2/1 145/2/1 144/2/1
f 148/1/1 146/1/1 145/1/1
f 148/2/1 145/2/1 147/2/1
f 149/1/1 147/1/1 143/1/1
f 149/1/1 148/1/1 147/1/1
f 150/1/1 148/1/1 149/1/1
f 151/1/1 146/1/1 148/1/1
f 151/1/1 148/1/1 150/1/1
f 152/1/1 146/1/1 151/1/1
f 153/1/1 151/1/1 150/1/1
f 154/1/1 151/1/1 153/1/1
f 159/1/1 156/1/1 155/1/1
f 160/1/1 156/1/1 159/1/1
f 161/1/1 158/1/1 157/1/1
f 162/1/1 158/1/1 161/1/1
f 163/1/1 161/1/1 160/1/1
f 164/1/1 161/1/1 163/1/1
f 167/1/1 166/1/1 165/1/1
f 168/1/1 166/1/1 167/1/1
f 171/1/1 170/1/1 169/1/1
f 172/1/1 170/1/1 171/1/1
f 173/1/2 174/1/2 175/1/2
f 175/1/2 174/1/2 176/1/2
f 177/1/2 178/1/2 179/1/2
f 179/1/2 178/1/2 180/1/2
f 181/1/2 182/1/2 185/1/2
f 185/1/2 182/1/2 186/1/2
f 183/1/2 184/1/2 187/1/2
f 187/1/2 184/1/2 188/1/2
f 186/1/2 187/1/2 189/1/2
f 189/1/2 187/1/2 190/1/2
f 191/1/2 192/1/2 195/1/2
f 192/2/2 193/2/2 195/2/2
f 193/1/2 194/1/2 196/1/2
f 195/2/2 193/2/2 196/2/2
f 191/1/2 195/1/2 197/1/2
f 195/1/2 196/1/2 197/1/2
f 197/1/2 196/1/2 198/1/2
f 196/1/2 194/1/2 199/1/2
f 198/1/2 196/1/2 199/1/2
f 199/1/2 194/1/2 200/1/2
f 198/1/2 199/1/2 201/1/2
f 201/1/2 199/1/2 202/1/2
f 203/1/2 204/1/2 207/1/2
f 207/1/2 204/1/2 208/1/2
f 205/1/2 206/1/2 209/1/2
f 209/1/2 206/1/2 210/1/2
f 211/1/2 212/1/2 213/1/2
f 213/1/2 212/1/2 214/1/2
f 214/1/2 212/1/2 215/1/2
f 215/1/2 212/1/2 216/1/2
f 216/1/2 212/1/2 217/1/2
f 217/1/2 212/1/2 218/1/2
f 211/1/2 213/1/2 219/1/2
f 213/2/2 214/2/2 219/2/2
f 214/1/2 215/1/2 220/1/2
f 219/2/2 214/2/2 220/2/2
f 215/2/2 216/2/2 221/2/2
f 220/1/2 215/1/2 221/1/2
f 216/1/2 217/1/2 222/1/2
f 221/2/2 216/2/2 222/2/2
f 217/2/2 218/2/2 223/2/2
f 222/1/2 217/1/2 223/1/2
f 218/1/2 212/1/2 224/1/2
f 223/2/2 218/2/2 224/2/2
f 222/1/2 223/1/2 225/1/2
f 221/1/2 222/1/2 225/1/2
f 223/1/2 224/1/2 225/1/2
f 220/1/2 221/1/2 225/1/2
f 219/1/2 220/1/2 225/1/2
f 211/1/2 219/1/2 225/1/2
f 225/1/2 224/1/2 226/1/2
f 226/1/2 224/1/2 227/1/2
f 227/1/2 224/1/2 228/1/2
f 228/1/2 224/1/2 229/1/2
f 224/1/2 212/1/2 230/1/2
f 229/1/2 224/1/2 230/1/2
f 211/1/2 225/1/2 231/1/2
f 225/2/2 226/2/2 231/2/2
f 226/1/2 227/1/2 232/1/2
f 231/2/2 226/2/2 232/2/2
f 227/2/2 228/2/2 233/2/2
f 232/1/2 227/1/2 233/1/2
f 228/1/2 229/1/2 234/1/2
f 233/2/2 228/2/2 234/2/2
f 229/2/2 230/2/2 235/2/2
f 234/1/2 229/1/2 235/1/2
f 230/1/2 212/1/2 236/1/2
f 235/2/2 230/2/2 236/2/2
f 232/1/2 233/1/2 237/1/2
f 234/1/2 235/1/2 237/1/2
f 235/1/2 236/1/2 237/1/2
f 231/1/2 232/1/2 237/1/2
f 211/1/2 231/1/2 237/1/2
f 233/1/2 234/1/2 237/1/2
f 237/1/2 236/1/2 238/1/2
f 238/1/2 236/1/2 239/1/2
f 239/1/2 236/1/2 240/1/2
f 240/1/2 236/1/2 241/1/2
f 236/1/2 212/1/2 242/1/2
f 241/1/2 236/1/2 242/1/2
f 211/1/2 237/1/2 243/1/2
f 237/2/2 238/2/2 243/2/2
f 238/1/2 239/1/2 244/1/2
f 243/2/2 238/2/2 244/2/2
f 239/2/2 240/2/2 245/2/2
f 244/1/2 239/1/2 245/1/2
f 240/1/2 241/1/2 246/1/2
f 245/2/2 240/2/2 246/2/2
f 241/2/2 242/2/2 247/2/2
f 246/1/2 241/1/2 247/1/2
f 242/1/2 212/1/2 248/1/2
f 247/2/2 242/2/2 248/2/2
f 244/1/2 245/1/2 249/1/2
f 246/1/2 247/1/2 249/1/2
f 247/1/2 248/1/2 249/1/2
f 243/1/2 244/1/2 249/1/2
f 211/1/2 243/1/2 249/1/2
f 245/1/2 246/1/2 249/1/2
f 249/1/2 248/1/2 250/1/2
f 248/1/2 212/1/2 251/1/2
f 250/1/2 248/1/2 251/1/2
f 251/1/2 212/1/2 252/1/2
f 250/1/2 251/1/2 253/1/2
f 253/1/2 251/1/2 254/1/2
f 255/1/2 256/1/2 259/1/2
f 259/1/2 256/1/2 260/1/2
f 257/1/2 258/1/2 261/1/2
f 261/1/2 258/1/2 262/1/2
f 263/1/2 264/1/2 267/1/2
f 264/2/2 265/2/2 268/2/2
f 267/1/2 264/1/2 268/1/2
f 265/1/2 266/1/2 269/1/2
f 268/2/2 265/2/2 269/2/2
f 269/1/2 266/1/2 270/1/2
f 263/1/2 267/1/2 271/1/2
f 271/1/2 267/1/2 272/1/2
f 272/1/2 267/1/2 273/1/2
f 273/1/2 267/1/2 274/1/2
f 270/1/2 266/1/2 277/1/2
f 277/1/2 266/1/2 278/1/2
f 278/1/2 266/1/2 279/1/2
f 279/1/2 266/1/2 280/1/2
f 263/1/2 271/1/2 281/1/2
f 271/2/2 272/2/2 281/2/2
f 272/1/2 273/1/2 282/1/2
f 281/2/2 272/2/2 282/2/2
f 273/2/2 274/2/2 283/2/2
f 282/1/2 273/1/2 283/1/2
f 274/1/2 275/1/2 284/1/2
f 283/2/2 274/2/2 284/2/2
f 275/2/2 276/2/2 285/2/2
f 284/1/2 275/1/2 285/1/2
f 276/1/2 277/1/2 286/1/2
f 285/2/2 276/2/2 286/2/2
f 277/2/2 278/2/2 287/2/2
f 286/1/2 277/1/2 287/1/2
f 278/1/2 279/1/2 288/1/2
f 287/2/2 278/2/2 288/2/2
f 279/2/2 280/2/2 289/2/2
f 288/1/2 279/1/2 289/1/2
f 280/1/2 266/1/2 290/1/2
f 289/2/2 280/2/2 290/2/2
f 283/1/2 284/1/2 291/1/2
f 288/1/2 289/1/2 291/1/2
f 289/1/2 290/1/2 291/1/2
f 286/1/2 287/1/2 291/1/2
f 285/1/2 286/1/2 291/1/2
f 284/1/2 285/1/2 291/1/2
f 287/1/2 288/1/2 291/1/2
f 282/1/2 283/1/2 291/1/2
f 281/1/2 282/1/2 291/1/2
f 263/1/2 281/1/2 291/1/2
f 291/1/2 290/1/2 292/1/2
f 292/1/2 290/1/2 293/1/2
f 293/1/2 290/1/2 294/1/2
f 294/1/2 290/1/2 295/1/2
f 295/1/2 290/1/2 296/1/2
f 296/1/2 290/1/2 297/1/2
f 297/1/2 290/1/2 298/1/2
f 298/1/2 290/1/2 299/1/2
f 290/1/2 266/1/2 300/1/2
f 299/1/2 290/1/2 300/1/2
f 263/1/2 291/1/2 301/1/2
f 291/2/2 292/2/2 301/2/2
f 292/1/2 293/1/2 302/1/2
f 301/2/2 292/2/2 302/2/2
f 293/2/2 294/2/2 303/2/2
f 302/1/2 293/1/2 303/1/2
f 294/1/2 295/1/2 304/1/2
f 303/2/2 294/2/2 304/2/2
f 295/2/2 296/2/2 305/2/2
f 304/1/2 295/1/2 305/1/2
f 296/1/2 297/1/2 306/1/2
f 305/2/2 296/2/2 306/2/2
f 297/2/2 298/2/2 307/2/2
f 306/1/2 297/1/2 307/1/2
f 298/1/2 299/1/2 308/1/2
f 307/2/2 298/2/2 308/2/2
f 299/2/2 300/2/2 309/2/2
f 308/1/2 299/1/2 309/1/2
f 300/1/2 266/1/2 310/1/2
f 309/2/2 300/2/2 310/2/2
f 306/1/2 307/1/2 311/1/2
f 308/1/2 309/1/2 311/1/2
f 309/1/2 310/1/2 311/1/2
f 305/1/2 306/1/2 311/1/2
f 304/1/2 305/1/2 311/1/2
f 303/1/2 304/1/2 311/1/2
f 302/1/2 303/1/2 311/1/2
f 301/1/2 302/1/2 311/1/2
f 263/1/2 301/1/2 311/1/2
f 307/1/2 308/1/2 311/1/2
f 311/1/2 310/1/2 312/1/2
f 312/1/2 310/1/2 313/1/2
f 313/1/2 310/1/2 314/1/2
f 314/1/2 310/1/2 315/1/2
f 315/1/2 310/1/2 316/1/2
f 316/1/2 310/1/2 317/1/2
f 317/1/2 310/1/2 318/1/2
f 318/1/2 310/1/2 319/1/2
f 310/1/2 266/1/2 320/1/2
f 319/1/2 310/1/2 320/1/2
f 263/1/2 311/1/2 321/1/2
f 311/2/2 312/2/2 321/2/2
f 312/1/2 313/1/2 322/1/2
f 321/2/2 312/2/2 322/2/2
f 313/2/2 314/2/2 323/2/2
f 322/1/2 313/1/2 323/1/2
f 314/1/2 315/1/2 324/1/2
f 323/2/2 314/2/2 324/2/2
f 315/2/2 316/2/2 325/2/2
f 324/1/2 315/1/2 325/1/2
f 316/1/2 317/1/2 326/1/2
f 325/2/2 316/2/2 326/2/2
f 317/2/2 318/2/2 327/2/2
f 326/1/2 317/1/2 327/1/2
f 318/1/2 319/1/2 328/1/2
f 327/2/2 318/2/2 328/2/2
f 319/2/2 320/2/2 329/2/2
f 328/1/2 319/1/2 329/1/2
f 320/1/2 266/1/2 330/1/2
f 329/2/2 320/2/2 330/2/2
f 326/1/2 327/1/2 331/1/2
f 328/1/2 329/1/2 331/1/2
f 329/1/2 330/1/2 331/1/2
f 325/1/2 326/1/2 331/1/2
f 324/1/2 325/1/2 331/1/2
f 323/1/2 324/1/2 331/1/2
f 322/1/2 323/1/2 331/1/2
f 321/1/2 322/1/2 331/1/2
f 263/1/2 321/1/2 331/1/2
f 327/1/2 328/1/2 331/1/2
f 331/1/2 330/1/2 332/1/2
f 330/1/2 266/1/2 333/1/2
f 332/1/2 330/1/2 333/1/2
f 333/1/2 266/1/2 334/1/2
f 332/1/2 333/1/2 335/1/2
f 335/1/2 333/1/2 336/1/2
f 337/1/2 338/1/2 339/1/2
f 339/1/2 338/1/2 340/1/2
f 341/5/2 342/5/2 343/5/2
f 343/5/2 342/5/2 344/5/2
f 347/5/3 346/5/3 345/5/3
f 348/5/3 346/5/3 347/5/3
f 351/1/3 350/1/3 349/1/3
f 352/1/3 350/1/3 351/1/3
f 353/1/3 350/1/3 352/1/3
f 354/1/3 350/1/3 353/1/3
f 355/1/3 350/1/3 354/1/3
f 356/1/3 350/1/3 355/1/3
f 357/1/3 350/1/3 356/1/3
f 359/1/3 351/1/3 349/1/3
f 359/2/3 352/2/3 351/2/3
f 360/1/3 353/1/3 352/1/3
f 360/2/3 352/2/3 359/2/3
f 361/2/3 354/2/3 353/2/3
f 361/1/3 353/1/3 360/1/3
f 362/1/3 355/1/3 354/1/3
f 362/2/3 354/2/3 361/2/3
f 363/2/3 356/2/3 355/2/3
f 363/1/3 355/1/3 362/1/3
f 364/1/3 358/1/3 357/1/3
f 364/2/3 356/2/3 363/2/3
f 364/1/3 357/1/3 356/1/3
f 365/1/3 363/1/3 362/1/3
f 365/1/3 362/1/3 361/1/3
f 365/1/3 364/1/3 363/1/3
f 365/1/3 361/1/3 360/1/3
f 365/1/3 360/1/3 359/1/3
f 365/1/3 359/1/3 349/1/3
f 366/1/3 364/1/3 365/1/3
f 367/1/3 364/1/3 366/1/3
f 368/1/3 364/1/3 367/1/3
f 369/1/3 364/1/3 368/1/3
f 370/1/3 358/1/3 364/1/3
f 370/1/3 364/1/3 369/1/3
f 371/1/3 365/1/3 349/1/3
f 371/2/3 366/2/3 365/2/3
f 372/1/3 367/1/3 366/1/3
f 372/2/3 366/2/3 371/2/3
f 373/2/3 368/2/3 367/2/3
f 373/1/3 367/1/3 372/1/3
f 374/1/3 369/1/3 368/1/3
f 374/2/3 368/2/3 373/2/3
f 375/2/3 370/2/3 369/2/3
f 375/1/3 369/1/3 374/1/3
f 376/1/3 358/1/3 370/1/3
f 376/2/3 370/2/3 375/2/3
f 377/1/3 373/1/3 372/1/3
f 377/1/3 375/1/3 374/1/3
f 377/1/3 376/1/3 375/1/3
f 377/1/3 372/1/3 371/1/3
f 377/1/3 371/1/3 349/1/3
f 377/1/3 374/1/3 373/1/3
f 378/1/3 376/1/3 377/1/3
f 379/1/3 376/1/3 378/1/3
f 380/1/3 376/1/3 379/1/3
f 381/1/3 376/1/3 380/1/3
f 382/1/3 358/1/3 376/1/3
f 382/1/3 376/1/3 381/1/3
f 383/1/3 377/1/3 349/1/3
f 383/2/3 378/2/3 377/2/3
f 384/1/3 379/1/3 378/1/3
f 384/2/3 378/2/3 383/2/3
f 385/2/3 380/2/3 379/2/3
f 385/1/3 379/1/3 384/1/3
f 386/1/3 381/1/3 380/1/3
f 386/2/3 380/2/3 385/2/3
f 387/2/3 382/2/3 381/2/3
f 387/1/3 381/1/3 386/1/3
f 388/1/3 358/1/3 382/1/3
f 388/2/3 382/2/3 387/2/3
f 389/1/3 385/1/3 384/1/3
f 389/1/3 387/1/3 386/1/3
f 389/1/3 388/1/3 387/1/3
f 389/1/3 384/1/3 383/1/3
f 389/1/3 383/1/3 349/1/3
f 389/1/3 386/1/3 385/1/3
f 390/1/3 388/1/3 389/1/3
f 391/1/3 388/1/3 390/1/3
f 392/1/3 388/1/3 391/1/3
f 393/1/3 388/1/3 392/1/3
f 394/1/3 358/1/3 388/1/3
f 394/1/3 388/1/3 393/1/3
f 395/1/3 389/1/3 349/1/3
f 395/2/3 390/2/3 389/2/3
f 396/1/3 391/1/3 390/1/3
f 396/2/3 390/2/3 395/2/3
f 397/2/3 392/2/3 391/2/3
f 397/1/3 391/1/3 396/1/3
f 398/1/3 393/1/3 392/1/3
f 398/2/3 392/2/3 397/2/3
f 399/2/3 394/2/3 393/2/3
f 399/1/3 393/1/3 398/1/3
f 400/1/3 358/1/3 394/1/3
f 400/2/3 394/2/3 399/2/3
f 401/1/3 397/1/3 396/1/3
f 401/1/3 399/1/3 398/1/3
f 401/1/3 400/1/3 399/1/3
f 401/1/3 396/1/3 395/1/3
f 401/1/3 395/1/3 349/1/3
f 401/1/3 398/1/3 397/1/3
f 402/1/3 400/1/3 401/1/3
f 403/1/3 400/1/3 402/1/3
f 404/1/3 400/1/3 403/1/3
f 405/1/3 400/1/3 404/1/3
f 406/1/3 358/1/3 400/1/3
f 406/1/3 400/1/3 405/1/3
f 407/1/3 401/1/3 349/1/3
f 407/2/3 402/2/3 401/2/3
f 408/1/3 403/1/3 402/1/3
f 408/2/3 402/2/3 407/2/3
f 409/2/3 404/2/3 403/2/3
f 409/1/3 403/1/3 408/1/3
f 410/1/3 405/1/3 404/1/3
f 410/2/3 404/2/3 409/2/3
f 411/2/3 406/2/3 405/2/3
f 411/1/3 405/1/3 410/1/3
f 412/1/3 358/1/3 406/1/3
f 412/2/3 406/2/3 411/2/3
f 413/1/3 358/1/3 412/1/3
f 414/1/3 358/1/3 413/1/3
f 415/1/3 409/1/3 408/1/3
f 415/1/3 411/1/3 410/1/3
f 415/1/3 413/1/3 412/1/3
f 415/1/3 412/1/3 411/1/3
f 415/1/3 408/1/3 407/1/3
f 415/1/3 407/1/3 349/1/3
f 415/1/3 410/1/3 409/1/3
f 416/1/3 413/1/3 415/1/3
f 419/1/3 418/1/3 417/1/3
f 420/1/3 418/1/3 419/1/3
f 423/1/3 422/1/3 421/1/3
f 424/1/3 422/1/3 423/1/3
f 427/1/3 426/1/3 425/1/3
f 428/1/3 426/1/3 427/1/3
f 429/1/3 426/1/3 428/1/3
f 430/1/3 426/1/3 429/1/3
f 431/1/3 426/1/3 430/1/3
f 432/1/3 426/1/3 431/1/3
f 433/1/3 426/1/3 432/1/3
f 435/1/3 427/1/3 425/1/3
f 435/2/3 428/2/3 427/2/3
f 436/1/3 429/1/3 428/1/3
f 436/2/3 428/2/3 435/2/3
f 437/2/3 430/2/3 429/2/3
f 437/1/3 429/1/3 436/1/3
f 438/1/3 431/1/3 430/1/3
f 438/2/3 430/2/3 437/2/3
f 439/2/3 432/2/3 431/2/3
f 439/1/3 431/1/3 438/1/3
f 440/1/3 434/1/3 433/1/3
f 440/2/3 432/2/3 439/2/3
f 440/1/3 433/1/3 432/1/3
f 441/1/3 439/1/3 438/1/3
f 441/1/3 438/1/3 437/1/3
f 441/1/3 440/1/3 439/1/3
f 441/1/3 437/1/3 436/1/3
f 441/1/3 436/1/3 435/1/3
f 441/1/3 435/1/3 425/1/3
f 442/1/3 440/1/3 441/1/3
f 443/1/3 440/1/3 442/1/3
f 444/1/3 440/1/3 443/1/3
f 445/1/3 440/1/3 444/1/3
f 446/1/3 434/1/3 440/1/3
f 446/1/3 440/1/3 445/1/3
f 447/1/3 441/1/3 425/1/3
f 447/2/3 442/2/3 441/2/3
f 448/1/3 443/1/3 442/1/3
f 448/2/3 442/2/3 447/2/3
f 449/2/3 444/2/3 443/2/3
f 449/1/3 443/1/3 448/1/3
f 450/1/3 445/1/3 444/1/3
f 450/2/3 444/2/3 449/2/3
f 451/2/3 446/2/3 445/2/3
f 451/1/3 445/1/3 450/1/3
f 452/1/3 434/1/3 446/1/3
f 452/2/3 446/2/3 451/2/3
f 453/1/3 449/1/3 448/1/3
f 453/1/3 451/1/3 450/1/3
f 453/1/3 452/1/3 451/1/3
f 453/1/3 448/1/3 447/1/3
f 453/1/3 447/1/3 425/1/3
f 453/1/3 450/1/3 449/1/3
f 454/1/3 452/1/3 453/1/3
f 455/1/3 452/1/3 454/1/3
f 456/1/3 452/1/3 455/1/3
f 457/1/3 452/1/3 456/1/3
f 458/1/3 434/1/3 452/1/3
f 458/1/3 452/1/3 457/1/3
f 459/1/3 453/1/3 425/1/3
f 459/2/3 454/2/3 453/2/3
f 460/1/3 455/1/3 454/1/3
f 460/2/3 454/2/3 459/2/3
f 461/2/3 456/2/3 455/2/3
f 461/1/3 455/1/3 460/1/3
f 462/1/3 457/1/3 456/1/3
f 462/2/3 456/2/3 461/2/3
f 463/2/3 458/2/3 457/2/3
f 463/1/3 457/1/3 462/1/3
f 464/1/3 434/1/3 458/1/3
f 464/2/3 458/2/3 463/2/3
f 465/1/3 434/1/3 464/1/3
f 466/1/3 434/1/3 465/1/3
f 467/1/3 461/1/3 460/1/3
f 467/1/3 463/1/3 462/1/3
f 467/1/3 465/1/3 464/1/3
f 467/1/3 464/1/3 463/1/3
f 467/1/3 460/1/3 459/1/3
f 467/1/3 459/1/3 425/1/3
f 467/1/3 462/1/3 461/1/3
f 468/1/3 465/1/3 467/1/3
f 471/1/3 470/1/3 469/1/3
f 472/1/3 470/1/3 471/1/3
f 475/1/3 474/1/3 473/1/3
f 476/1/3 474/1/3 475/1/3
f 479/1/3 478/1/3 477/1/3
f 480/1/3 478/1/3 479/1/3
f 483/1/3 482/1/3 481/1/3
f 485/1/3 483/1/3 481/1/3
f 485/1/3 484/1/3 483/1/3
f 486/1/3 484/1/3 485/1/3
f 487/1/3 485/1/3 481/1/3
f 488/1/3 485/1/3 487/1/3
f 491/1/3 490/1/3 489/1/3
f 492/1/3 490/1/3 491/1/3
f 495/1/3 494/1/3 493/1/3
f 496/1/3 494/1/3 495/1/3
f 499/1/3 497/1/3 496/1/3
f 500/1/3 497/1/3 499/1/3
f 501/1/3 499/1/3 498/1/3
f 502/1/3 499/1/3 501/1/3
f 505/1/3 504/1/3 503/1/3
f 506/1/3 504/1/3 505/1/3
f 509/1/3 508/1/3 507/1/3
f 510/1/3 508/1/3 509/1/3
f 511/1/4 512/1/4 513/1/4
f 513/1/4 512/1/4 514/1/4
f 515/1/4 516/1/4 517/1/4
f 517/1/4 516/1/4 518/1/4
f 519/1/4 520/1/4 521/1/4
f 521/1/4 520/1/4 522/1/4
f 522/1/4 523/1/4 525/1/4
f 525/1/4 523/1/4 526/1/4
f 524/1/4 525/1/4 527/1/4
f 527/1/4 525/1/4 528/1/4
f 529/1/4 530/1/4 531/1/4
f 531/1/4 530/1/4 532/1/4
f 533/1/4 534/1/4 535/1/4
f 533/1/4 535/1/4 537/1/4
f 535/1/4 536/1/4 537/1/4
f 537/1/4 536/1/4 538/1/4
f 533/1/4 537/1/4 539/1/4
f 539/1/4 537/1/4 540/1/4
f 541/1/4 542/1/4 543/1/4
f 543/1/4 542/1/4 544/1/4
f 545/1/4 546/1/4 547/1/4
f 547/1/4 546/1/4 548/1/4
f 549/1/4 550/1/4 551/1/4
f 551/1/4 550/1/4 552/1/4
f 553/1/4 554/1/4 555/1/4
f 555/1/4 554/1/4 556/1/4
f 556/1/4 554/1/4 557/1/4
f 557/1/4 554/1/4 558/1/4
f 558/1/4 554/1/4 559/1/4
f 559/1/4 554/1/4 560/1/4
f 560/1/4 554/1/4 561/1/4
f 553/1/4 555/1/4 563/1/4
f 555/2/4 556/2/4 563/2/4
f 556/1/4 557/1/4 564/1/4
f 563/2/4 556/2/4 564/2/4
f 557/2/4 558/2/4 565/2/4
f 564/1/4 557/1/4 565/1/4
f 558/1/4 559/1/4 566/1/4
f 565/2/4 558/2/4 566/2/4
f 559/2/4 560/2/4 567/2/4
f 566/1/4 559/1/4 567/1/4
f 561/1/4 562/1/4 568/1/4
f 567/2/4 560/2/4 568/2/4
f 560/1/4 561/1/4 568/1/4
f 566/1/4 567/1/4 569/1/4
f 565/1/4 566/1/4 569/1/4
f 567/1/4 568/1/4 569/1/4
f 564/1/4 565/1/4 569/1/4
f 563/1/4 564/1/4 569/1/4
f 553/1/4 563/1/4 569/1/4
f 569/1/4 568/1/4 570/1/4
f 570/1/4 568/1/4 571/1/4
f 571/1/4 568/1/4 572/1/4
f 572/1/4 568/1/4 573/1/4
f 568/1/4 562/1/4 574/1/4
f 573/1/4 568/1/4 574/1/4
f 553/1/4 569/1/4 575/1/4
f 569/2/4 570/2/4 575/2/4
f 570/1/4 571/1/4 576/1/4
f 575/2/4 570/2/4 576/2/4
f 571/2/4 572/2/4 577/2/4
f 576/1/4 571/1/4 577/1/4
f 572/1/4 573/1/4 578/1/4
f 577/2/4 572/2/4 578/2/4
f 573/2/4 574/2/4 579/2/4
f 578/1/4 573/1/4 579/1/4
f 574/1/4 562/1/4 580/1/4
f 579/2/4 574/2/4 580/2/4
f 576/1/4 577/1/4 581/1/4
f 578/1/4 579/1/4 581/1/4
f 579/1/4 580/1/4 581/1/4
f 575/1/4 576/1/4 581/1/4
f 553/1/4 575/1/4 581/1/4
f 577/1/4 578/1/4 581/1/4
f 581/1/4 580/1/4 582/1/4
f 582/1/4 580/1/4 583/1/4
f 583/1/4 580/1/4 584/1/4
f 584/1/4 580/1/4 585/1/4
f 580/1/4 562/1/4 586/1/4
f 585/1/4 580/1/4 586/1/4
f 553/1/4 581/1/4 587/1/4
f 581/2/4 582/2/4 587/2/4
f 582/1/4 583/1/4 588/1/4
f 587/2/4 582/2/4 588/2/4
f 583/2/4 584/2/4 589/2/4
f 588/1/4 583/1/4 589/1/4
f 584/1/4 585/1/4 590/1/4
f 589/2/4 584/2/4 590/2/4
f 585/2/4 586/2/4 591/2/4
f 590/1/4 585/1/4 591/1/4
f 586/1/4 562/1/4 592/1/4
f 591/2/4 586/2/4 592/2/4
f 592/1/4 562/1/4 593/1/4
f 593/1/4 562/1/4 594/1/4
f 588/1/4 589/1/4 595/1/4
f 590/1/4 591/1/4 595/1/4
f 592/1/4 593/1/4 595/1/4
f 591/1/4 592/1/4 595/1/4
f 587/1/4 588/1/4 595/1/4
f 553/1/4 587/1/4 595/1/4
f 589/1/4 590/1/4 595/1/4
f 595/1/4 593/1/4 596/1/4
f 597/1/4 598/1/4 599/1/4
f 599/1/4 598/1/4 600/1/4
f 601/1/4 602/1/4 603/1/4
f 603/1/4 602/1/4 604/1/4
f 605/1/4 606/1/4 607/1/4
f 607/1/4 606/1/4 608/1/4
f 608/1/4 606/1/4 609/1/4
f 609/1/4 606/1/4 610/1/4
f 610/1/4 606/1/4 611/1/4
f 611/1/4 606/1/4 612/1/4
f 612/1/4 606/1/4 613/1/4
f 605/1/4 607/1/4 615/1/4
f 607/2/4 608/2/4 615/2/4
f 608/1/4 609/1/4 616/1/4
f 615/2/4 608/2/4 616/2/4
f 609/2/4 610/2/4 617/2/4
f 616/1/4 609/1/4 617/1/4
f 610/1/4 611/1/4 618/1/4
f 617/2/4 610/2/4 618/2/4
f 611/2/4 612/2/4 619/2/4
f 618/1/4 611/1/4 619/1/4
f 613/1/4 614/1/4 620/1/4
f 619/2/4 612/2/4 620/2/4
f 612/1/4 613/1/4 620/1/4
f 618/1/4 619/1/4 621/1/4
f 617/1/4 618/1/4 621/1/4
f 619/1/4 620/1/4 621/1/4
f 616/1/4 617/1/4 621/1/4
f 615/1/4 616/1/4 621/1/4
f 605/1/4 615/1/4 621/1/4
f 621/1/4 620/1/4 622/1/4
f 622/1/4 620/1/4 623/1/4
f 623/1/4 620/1/4 624/1/4
f 624/1/4 620/1/4 625/1/4
f 620/1/4 614/1/4 626/1/4
f 625/1/4 620/1/4 626/1/4
f 605/1/4 621/1/4 627/1/4
f 621/2/4 622/2/4 627/2/4
f 622/1/4 623/1/4 628/1/4
f 627/2/4 622/2/4 628/2/4
f 623/2/4 624/2/4 629/2/4
f 628/1/4 623/1/4 629/1/4
f 624/1/4 625/1/4 630/1/4
f 629/2/4 624/2/4 630/2/4
f 625/2/4 626/2/4 631/2/4
f 630/1/4 625/1/4 631/1/4
f 626/1/4 614/1/4 632/1/4
f 631/2/4 626/2/4 632/2/4
f 628/1/4 629/1/4 633/1/4
f 630/1/4 631/1/4 633/1/4
f 631/1/4 632/1/4 633/1/4
f 627/1/4 628/1/4 633/1/4
f 605/1/4 627/1/4 633/1/4
f 629/1/4 630/1/4 633/1/4
f 633/1/4 632/1/4 634/1/4
f 634/1/4 632/1/4 635/1/4
f 635/1/4 632/1/4 636/1/4
f 636/1/4 632/1/4 637/1/4
f 632/1/4 614/1/4 638/1/4
f 637/1/4 632/1/4 638/1/4
f 605/1/4 633/1/4 639/1/4
f 633/2/4 634/2/4 639/2/4
f 634/1/4 635/1/4 640/1/4
f 639/2/4 634/2/4 640/2/4
f 635/2/4 636/2/4 641/2/4
f 640/1/4 635/1/4 641/1/4
f 636/1/4 637/1/4 642/1/4
f 641/2/4 636/2/4 642/2/4
f 637/2/4 638/2/4 643/2/4
f 642/1/4 637/1/4 643/1/4
f 638/1/4 614/1/4 644/1/4
f 643/2/4 638/2/4 644/2/4
f 640/1/4 641/1/4 645/1/4
f 642/1/4 643/1/4 645/1/4
f 643/1/4 644/1/4 645/1/4
f 639/1/4 640/1/4 645/1/4
f 605/1/4 639/1/4 645/1/4
f 641/1/4 642/1/4 645/1/4
f 645/1/4 644/1/4 646/1/4
f 646/1/4 644/1/4 647/1/4
f 647/1/4 644/1/4 648/1/4
f 648/1/4 644/1/4 649/1/4
f 644/1/4 614/1/4 650/1/4
f 649/1/4 644/1/4 650/1/4
f 605/1/4 645/1/4 651/1/4
f 645/2/4 646/2/4 651/2/4
f 646/1/4 647/1/4 652/1/4
f 651/2/4 646/2/4 652/2/4
f 647/2/4 648/2/4 653/2/4
f 652/1/4 647/1/4 653/1/4
f 648/1/4 649/1/4 654/1/4
f 653/2/4 648/2/4 654/2/4
f 649/2/4 650/2/4 655/2/4
f 654/1/4 649/1/4 655/1/4
f 650/1/4 614/1/4 656/1/4
f 655/2/4 650/2/4 656/2/4
f 652/1/4 653/1/4 657/1/4
f 654/1/4 655/1/4 657/1/4
f 655/1/4 656/1/4 657/1/4
f 651/1/4 652/1/4 657/1/4
f 605/1/4 651/1/4 657/1/4
f 653/1/4 654/1/4 657/1/4
f 657/1/4 656/1/4 658/1/4
f 658/1/4 656/1/4 659/1/4
f 659/1/4 656/1/4 660/1/4
f 660/1/4 656/1/4 661/1/4
f 656/1/4 614/1/4 662/1/4
f 661/1/4 656/1/4 662/1/4
f 605/1/4 657/1/4 663/1/4
f 657/2/4 658/2/4 663/2/4
f 658/1/4 659/1/4 664/1/4
f 663/2/4 658/2/4 664/2/4
f 659/2/4 660/2/4 665/2/4
f 664/1/4 659/1/4 665/1/4
f 660/1/4 661/1/4 666/1/4
f 665/2/4 660/2/4 666/2/4
f 661/2/4 662/2/4 667/2/4
f 666/1/4 661/1/4 667/1/4
f 662/1/4 614/1/4 668/1/4
f 667/2/4 662/2/4 668/2/4
f 668/1/4 614/1/4 669/1/4
f 669/1/4 614/1/4 670/1/4
f 664/1/4 665/1/4 671/1/4
f 666/1/4 667/1/4 671/1/4
f 668/1/4 669/1/4 671/1/4
f 667/1/4 668/1/4 671/1/4
f 663/1/4 664/1/4 671/1/4
f 605/1/4 663/1/4 671/1/4
f 665/1/4 666/1/4 671/1/4
f 671/1/4 669/1/4 672/1/4
f 673/5/4 674/5/4 675/5/4
f 675/5/4 674/5/4 676/5/4
f 679/5/5 678/5/5 677/5/5
f 680/5/5 678/5/5 679/5/5
f 685/1/5 682/1/5 681/1/5
f 686/1/5 684/1/5 683/1/5
f 687/1/5 685/1/5 681/1/5
f 688/1/5 684/1/5 686/1/5
f 689/1/5 687/1/5 681/1/5
f 690/1/5 687/1/5 689/1/5
f 691/1/5 684/1/5 688/1/5
f 692/1/5 684/1/5 691/1/5
f 693/5/6 694/5/6 695/5/6
f 695/5/6 694/5/6 696/5/6
f 693/5/6 695/5/6 697/5/6
f 696/5/6 694/5/6 698/5/6
f 693/5/6 697/5/6 699/5/6
f 698/5/6 694/5/6 700/5/6
f 693/5/6 699/5/6 701/5/6
f 700/5/6 694/5/6 702/5/6
f 693/5/6 701/5/6 703/5/6
f 701/5/6 702/5/6 703/5/6
f 702/5/6 694/5/6 704/5/6
f 703/5/6 702/5/6 704/5/6
f 705/1/6 706/1/6 709/1/6
f 707/1/6 708/1/6 710/1/6
f 705/1/6 709/1/6 711/1/6
f 710/1/6 708/1/6 712/1/6
f 705/1/6 711/1/6 713/1/6
f 713/1/6 711/1/6 714/1/6
f 712/1/6 708/1/6 715/1/6
f 715/1/6 708/1/6 716/1/6
f 717/1/6 718/1/6 721/1/6
f 721/1/6 718/1/6 722/1/6
f 719/1/6 720/1/6 723/1/6
f 723/1/6 720/1/6 724/1/6
f 725/1/6 726/1/6 729/1/6
f 729/1/6 726/1/6 730/1/6
f 727/1/6 728/1/6 731/1/6
f 731/1/6 728/1/6 732/1/6
f 733/3/6 734/3/6 735/3/6
f 735/3/6 734/3/6 736/3/6
f 733/3/6 735/3/6 737/3/6
f 736/3/6 734/3/6 738/3/6
f 733/3/6 737/3/6 739/3/6
f 737/3/6 738/3/6 739/3/6
f 738/3/6 734/3/6 740/3/6
f 739/3/6 738/3/6 740/3/6
f 741/1/6 742/1/6 744/1/6
f 744/1/6 742/1/6 745/1/6
f 743/1/6 744/1/6 747/1/6
f 747/1/6 744/1/6 748/1/6
f 745/1/6 746/1/6 749/1/6
f 749/1/6 746/1/6 750/1/6
f 748/1/6 749/1/6 751/1/6
f 751/1/6 749/1/6 752/1/6
f 753/1/6 754/1/6 757/1/6
f 757/1/6 754/1/6 758/1/6
f 755/1/6 756/1/6 759/1/6
f 759/1/6 756/1/6 760/1/6
f 761/1/6 762/1/6 765/1/6
f 765/1/6 762/1/6 766/1/6
f 763/1/6 764/1/6 767/1/6
f 767/1/6 764/1/6 768/1/6
f 769/3/6 770/3/6 771/3/6
f 771/3/6 770/3/6 772/3/6
f 769/3/6 771/3/6 773/3/6
f 772/3/6 770/3/6 774/3/6
f 769/3/6 773/3/6 775/3/6
f 774/3/6 770/3/6 776/3/6
f 769/3/6 775/3/6 777/3/6
f 776/3/6 770/3/6 778/3/6
f 769/3/6 777/3/6 779/3/6
f 777/3/6 778/3/6 779/3/6
f 778/3/6 770/3/6 780/3/6
f 779/3/6 778/3/6 780/3/6
f 781/1/6 782/1/6 784/1/6
f 784/1/6 782/1/6 785/1/6
f 783/1/6 784/1/6 787/1/6
f 787/1/6 784/1/6 788/1/6
f 785/1/6 786/1/6 789/1/6
f 789/1/6 786/1/6 790/1/6
f 788/1/6 789/1/6 791/1/6
f 791/1/6 789/1/6 792/1/6
f 793/1/6 794/1/6 797/1/6
f 797/1/6 794/1/6 798/1/6
f 795/1/6 796/1/6 799/1/6
f 799/1/6 796/1/6 800/1/6
f 801/1/6 802/1/6 805/1/6
f 805/1/6 802/1/6 806/1/6
f 803/1/6 804/1/6 807/1/6
f 807/1/6 804/1/6 808/1/6
f 809/1/6 810/1/6 812/1/6
f 812/1/6 810/1/6 813/1/6
f 811/1/6 812/1/6 815/1/6
f 815/1/6 812/1/6 816/1/6
f 813/1/6 814/1/6 817/1/6
f 817/1/6 814/1/6 818/1/6
f 816/1/6 817/1/6 819/1/6
f 819/1/6 817/1/6 820/1/6
f 821/1/6 822/1/6 823/1/6
f 823/1/6 822/1/6 824/1/6
