# MagicaVoxel @ Ephtracy

# group
o 

# material
mtllib CityVoxelPack-9.mtl
usemtl palette

# normals
vn -1 0 0
vn 1 0 0
vn 0 0 1
vn 0 0 -1
vn 0 -1 0
vn 0 1 0

# texcoords
vt 0.876953 0.5
vt 0.908203 0.5
vt 0.939453 0.5

# verts
v -0.7 0 0.7
v -0.7 0 -0.8
v -0.7 0.2 0.7
v -0.7 0.2 -0.8
v 0.5 0.1 -0.5
v 0.5 0.1 -0.8
v 0.5 0.2 -0.5
v 0.5 0.2 -0.8
v -0.4 0.1 0.4
v -0.4 0.1 -0.8
v -0.4 0.2 0.4
v -0.4 0.2 -0.8
v 0.8 0 0.7
v 0.8 0 0.4
v 0.8 0 -0.5
v 0.8 0 -0.8
v 0.8 0.1 0.4
v 0.8 0.1 -0.5
v 0.8 0.2 0.7
v 0.8 0.2 0.4
v 0.8 0.2 -0.5
v 0.8 0.2 -0.8
v -0.7 0 0.7
v -0.7 0.2 0.7
v 0.8 0 0.7
v 0.8 0.2 0.7
v 0.5 0.1 -0.5
v 0.5 0.2 -0.5
v 0.8 0.1 -0.5
v 0.8 0.2 -0.5
v -0.4 0.1 0.4
v -0.4 0.2 0.4
v 0.8 0.1 0.4
v 0.8 0.2 0.4
v -0.7 0 -0.8
v -0.7 0.2 -0.8
v -0.4 0 -0.8
v -0.4 0.1 -0.8
v -0.4 0.2 -0.8
v 0.5 0 -0.8
v 0.5 0.1 -0.8
v 0.5 0.2 -0.8
v 0.8 0 -0.8
v 0.8 0.2 -0.8
v -0.7 0 0.7
v 0.8 0 0.7
v -0.4 0 0.4
v 0.8 0 0.4
v 0.1 0 0
v 0.2 0 0
v 0.4 0 0
v 0.7 0 0
v 0 0 -0.1
v 0.1 0 -0.1
v 0.2 0 -0.1
v 0.4 0 -0.1
v 0.7 0 -0.1
v 0 0 -0.2
v 0.1 0 -0.2
v 0 0 -0.4
v 0.1 0 -0.4
v 0.5 0 -0.5
v 0.8 0 -0.5
v 0 0 -0.7
v 0.1 0 -0.7
v -0.7 0 -0.8
v -0.4 0 -0.8
v 0.5 0 -0.8
v 0.8 0 -0.8
v -0.4 0.1 0.4
v 0.8 0.1 0.4
v 0.1 0.1 0
v 0.2 0.1 0
v 0.4 0.1 0
v 0.7 0.1 0
v 0 0.1 -0.1
v 0.1 0.1 -0.1
v 0.2 0.1 -0.1
v 0.4 0.1 -0.1
v 0.7 0.1 -0.1
v 0 0.1 -0.2
v 0.1 0.1 -0.2
v 0 0.1 -0.4
v 0.1 0.1 -0.4
v 0.5 0.1 -0.5
v 0.8 0.1 -0.5
v 0 0.1 -0.7
v 0.1 0.1 -0.7
v -0.4 0.1 -0.8
v 0.5 0.1 -0.8
v -0.7 0.2 0.7
v 0.8 0.2 0.7
v -0.4 0.2 0.4
v 0.8 0.2 0.4
v 0.5 0.2 -0.5
v 0.8 0.2 -0.5
v -0.7 0.2 -0.8
v -0.4 0.2 -0.8
v 0.5 0.2 -0.8
v 0.8 0.2 -0.8

# faces
f 3/3/1 2/3/1 1/3/1
f 4/3/1 2/3/1 3/3/1
f 7/3/1 6/3/1 5/3/1
f 8/3/1 6/3/1 7/3/1
f 9/3/2 10/3/2 11/3/2
f 11/3/2 10/3/2 12/3/2
f 13/3/2 14/3/2 17/3/2
f 14/2/2 15/2/2 17/2/2
f 15/3/2 16/3/2 18/3/2
f 17/2/2 15/2/2 18/2/2
f 13/3/2 17/3/2 19/3/2
f 19/3/2 17/3/2 20/3/2
f 18/3/2 16/3/2 21/3/2
f 21/3/2 16/3/2 22/3/2
f 25/3/3 24/3/3 23/3/3
f 26/3/3 24/3/3 25/3/3
f 29/3/3 28/3/3 27/3/3
f 30/3/3 28/3/3 29/3/3
f 31/3/4 32/3/4 33/3/4
f 33/3/4 32/3/4 34/3/4
f 35/3/4 36/3/4 37/3/4
f 37/3/4 36/3/4 38/3/4
f 38/3/4 36/3/4 39/3/4
f 37/2/4 38/2/4 40/2/4
f 40/2/4 38/2/4 41/2/4
f 40/3/4 41/3/4 43/3/4
f 41/3/4 42/3/4 43/3/4
f 43/3/4 42/3/4 44/3/4
f 47/3/5 46/3/5 45/3/5
f 48/3/5 46/3/5 47/3/5
f 49/2/5 48/2/5 47/2/5
f 50/2/5 48/2/5 49/2/5
f 51/2/5 48/2/5 50/2/5
f 52/2/5 48/2/5 51/2/5
f 53/2/5 49/2/5 47/2/5
f 54/1/5 50/1/5 49/1/5
f 54/2/5 49/2/5 53/2/5
f 55/2/5 51/2/5 50/2/5
f 55/1/5 50/1/5 54/1/5
f 56/1/5 52/1/5 51/1/5
f 56/2/5 51/2/5 55/2/5
f 57/2/5 48/2/5 52/2/5
f 57/1/5 52/1/5 56/1/5
f 58/2/5 53/2/5 47/2/5
f 58/1/5 54/1/5 53/1/5
f 59/2/5 56/2/5 55/2/5
f 59/1/5 54/1/5 58/1/5
f 59/2/5 57/2/5 56/2/5
f 59/2/5 55/2/5 54/2/5
f 60/2/5 58/2/5 47/2/5
f 60/2/5 59/2/5 58/2/5
f 61/2/5 57/2/5 59/2/5
f 61/2/5 59/2/5 60/2/5
f 62/2/5 57/2/5 61/2/5
f 63/2/5 48/2/5 57/2/5
f 63/2/5 57/2/5 62/2/5
f 64/2/5 60/2/5 47/2/5
f 64/1/5 61/1/5 60/1/5
f 65/2/5 62/2/5 61/2/5
f 65/1/5 61/1/5 64/1/5
f 66/3/5 47/3/5 45/3/5
f 67/2/5 64/2/5 47/2/5
f 67/3/5 47/3/5 66/3/5
f 67/2/5 65/2/5 64/2/5
f 68/2/5 62/2/5 65/2/5
f 68/2/5 65/2/5 67/2/5
f 68/3/5 63/3/5 62/3/5
f 69/3/5 63/3/5 68/3/5
f 70/2/6 71/2/6 72/2/6
f 72/2/6 71/2/6 73/2/6
f 73/2/6 71/2/6 74/2/6
f 74/2/6 71/2/6 75/2/6
f 70/2/6 72/2/6 76/2/6
f 72/1/6 73/1/6 77/1/6
f 76/2/6 72/2/6 77/2/6
f 73/2/6 74/2/6 78/2/6
f 77/1/6 73/1/6 78/1/6
f 74/1/6 75/1/6 79/1/6
f 78/2/6 74/2/6 79/2/6
f 75/2/6 71/2/6 80/2/6
f 79/1/6 75/1/6 80/1/6
f 70/2/6 76/2/6 81/2/6
f 76/1/6 77/1/6 81/1/6
f 78/2/6 79/2/6 82/2/6
f 81/1/6 77/1/6 82/1/6
f 79/2/6 80/2/6 82/2/6
f 77/2/6 78/2/6 82/2/6
f 70/2/6 81/2/6 83/2/6
f 81/2/6 82/2/6 83/2/6
f 82/2/6 80/2/6 84/2/6
f 83/2/6 82/2/6 84/2/6
f 84/2/6 80/2/6 85/2/6
f 80/2/6 71/2/6 86/2/6
f 85/2/6 80/2/6 86/2/6
f 70/2/6 83/2/6 87/2/6
f 83/1/6 84/1/6 87/1/6
f 84/2/6 85/2/6 88/2/6
f 87/1/6 84/1/6 88/1/6
f 70/2/6 87/2/6 89/2/6
f 87/2/6 88/2/6 89/2/6
f 88/2/6 85/2/6 90/2/6
f 89/2/6 88/2/6 90/2/6
f 91/3/6 92/3/6 93/3/6
f 93/3/6 92/3/6 94/3/6
f 91/3/6 93/3/6 97/3/6
f 97/3/6 93/3/6 98/3/6
f 95/3/6 96/3/6 99/3/6
f 99/3/6 96/3/6 100/3/6
