# MagicaVoxel @ Ephtracy

# group
o 

# material
mtllib CityVoxelPack-5.mtl
usemtl palette

# normals
vn -1 0 0
vn 1 0 0
vn 0 0 1
vn 0 0 -1
vn 0 -1 0
vn 0 1 0

# texcoords
vt 0.794922 0.5
vt 0.798828 0.5
vt 0.802734 0.5
vt 0.806641 0.5
vt 0.939453 0.5

# verts
v -0.7 0 0.7
v -0.7 0 -0.8
v -0.7 0.2 0.7
v -0.7 0.2 -0.8
v -0.6 0.2 0.6
v -0.6 0.2 0.5
v -0.6 0.2 0.3
v -0.6 0.2 0.2
v -0.6 0.2 0
v -0.6 0.2 -0.1
v -0.6 0.2 -0.3
v -0.6 0.2 -0.4
v -0.6 0.2 -0.6
v -0.6 0.2 -0.7
v -0.6 0.3 0.3
v -0.6 0.3 0.2
v -0.6 0.3 0
v -0.6 0.3 -0.1
v -0.6 0.3 -0.3
v -0.6 0.3 -0.4
v -0.6 0.4 0.6
v -0.6 0.4 0.5
v -0.6 0.4 -0.6
v -0.6 0.4 -0.7
v -0.5 0.4 0.4
v -0.5 0.4 0.3
v -0.5 0.4 -0.1
v -0.5 0.4 -0.2
v -0.5 0.6 0.4
v -0.5 0.6 0.3
v -0.5 0.6 -0.1
v -0.5 0.6 -0.2
v -0.4 0.2 0.4
v -0.4 0.2 0.3
v -0.4 0.2 -0.1
v -0.4 0.2 -0.2
v -0.4 0.4 0.5
v -0.4 0.4 0.4
v -0.4 0.4 0.3
v -0.4 0.4 0.2
v -0.4 0.4 0
v -0.4 0.4 -0.1
v -0.4 0.4 -0.2
v -0.4 0.4 -0.3
v -0.4 0.4 -0.4
v -0.4 0.4 -0.5
v -0.4 0.6 0.5
v -0.4 0.6 0.4
v -0.4 0.6 0.3
v -0.4 0.6 0.2
v -0.4 0.6 0
v -0.4 0.6 -0.1
v -0.4 0.6 -0.2
v -0.4 0.6 -0.3
v -0.4 0.6 -0.4
v -0.4 0.6 -0.5
v -0.4 0.7 0.4
v -0.4 0.7 0.3
v -0.4 0.7 -0.1
v -0.4 0.7 -0.2
v -0.3 0.2 0.6
v -0.3 0.2 0.5
v -0.3 0.2 -0.4
v -0.3 0.2 -0.5
v -0.3 0.2 -0.6
v -0.3 0.2 -0.7
v -0.3 0.3 0.6
v -0.3 0.3 0.5
v -0.3 0.3 -0.6
v -0.3 0.3 -0.7
v -0.3 0.4 -0.3
v -0.3 0.4 -0.4
v -0.3 0.4 -0.5
v -0.3 0.4 -0.6
v -0.3 0.6 -0.3
v -0.3 0.6 -0.4
v -0.3 0.6 -0.5
v -0.3 0.6 -0.6
v -0.3 0.7 -0.4
v -0.3 0.7 -0.5
v -0.1 0.4 0.2
v -0.1 0.4 0.1
v -0.1 0.4 -0.2
v -0.1 0.4 -0.3
v -0.1 0.6 0.2
v -0.1 0.6 0.1
v -0.1 0.6 -0.2
v -0.1 0.6 -0.3
v 0 0.2 0.6
v 0 0.2 0.5
v 0 0.2 0.2
v 0 0.2 0.1
v 0 0.2 -0.2
v 0 0.2 -0.3
v 0 0.2 -0.6
v 0 0.2 -0.7
v 0 0.3 0.6
v 0 0.3 0.5
v 0 0.3 -0.6
v 0 0.3 -0.7
v 0 0.4 0.3
v 0 0.4 0.2
v 0 0.4 0.1
v 0 0.4 0
v 0 0.4 -0.1
v 0 0.4 -0.2
v 0 0.4 -0.3
v 0 0.4 -0.4
v 0 0.6 0.3
v 0 0.6 0.2
v 0 0.6 0.1
v 0 0.6 0
v 0 0.6 -0.1
v 0 0.6 -0.2
v 0 0.6 -0.3
v 0 0.6 -0.4
v 0 0.7 0.2
v 0 0.7 0.1
v 0 0.7 -0.2
v 0 0.7 -0.3
v 0.2 0.4 0.4
v 0.2 0.4 0.3
v 0.2 0.4 -0.4
v 0.2 0.4 -0.5
v 0.2 0.6 0.4
v 0.2 0.6 0.3
v 0.2 0.6 -0.4
v 0.2 0.6 -0.5
v 0.3 0.2 0.6
v 0.3 0.2 0.5
v 0.3 0.2 0.4
v 0.3 0.2 0.3
v 0.3 0.2 -0.4
v 0.3 0.2 -0.5
v 0.3 0.2 -0.6
v 0.3 0.2 -0.7
v 0.3 0.3 0.6
v 0.3 0.3 0.5
v 0.3 0.3 -0.6
v 0.3 0.3 -0.7
v 0.3 0.4 0.5
v 0.3 0.4 0.4
v 0.3 0.4 0.3
v 0.3 0.4 0.2
v 0.3 0.4 0
v 0.3 0.4 -0.1
v 0.3 0.4 -0.3
v 0.3 0.4 -0.4
v 0.3 0.4 -0.5
v 0.3 0.4 -0.6
v 0.3 0.6 0.5
v 0.3 0.6 0.4
v 0.3 0.6 0.3
v 0.3 0.6 0.2
v 0.3 0.6 0
v 0.3 0.6 -0.1
v 0.3 0.6 -0.3
v 0.3 0.6 -0.4
v 0.3 0.6 -0.5
v 0.3 0.6 -0.6
v 0.3 0.7 0.4
v 0.3 0.7 0.3
v 0.3 0.7 -0.4
v 0.3 0.7 -0.5
v 0.4 0.2 0
v 0.4 0.2 -0.1
v 0.4 0.4 0.1
v 0.4 0.4 0
v 0.4 0.4 -0.1
v 0.4 0.4 -0.2
v 0.4 0.6 0.1
v 0.4 0.6 0
v 0.4 0.6 -0.1
v 0.4 0.6 -0.2
v 0.4 0.7 0
v 0.4 0.7 -0.1
v 0.6 0.2 0.6
v 0.6 0.2 0.5
v 0.6 0.2 0.3
v 0.6 0.2 0.2
v 0.6 0.2 0
v 0.6 0.2 -0.1
v 0.6 0.2 -0.3
v 0.6 0.2 -0.4
v 0.6 0.2 -0.6
v 0.6 0.2 -0.7
v 0.6 0.3 0.3
v 0.6 0.3 0.2
v 0.6 0.3 0
v 0.6 0.3 -0.1
v 0.6 0.3 -0.3
v 0.6 0.3 -0.4
v 0.6 0.4 0.6
v 0.6 0.4 0.5
v 0.6 0.4 -0.6
v 0.6 0.4 -0.7
v -0.5 0.2 0.6
v -0.5 0.2 0.5
v -0.5 0.2 0.3
v -0.5 0.2 0.2
v -0.5 0.2 0
v -0.5 0.2 -0.1
v -0.5 0.2 -0.3
v -0.5 0.2 -0.4
v -0.5 0.2 -0.6
v -0.5 0.2 -0.7
v -0.5 0.3 0.3
v -0.5 0.3 0.2
v -0.5 0.3 0
v -0.5 0.3 -0.1
v -0.5 0.3 -0.3
v -0.5 0.3 -0.4
v -0.5 0.4 0.6
v -0.5 0.4 0.5
v -0.5 0.4 -0.6
v -0.5 0.4 -0.7
v -0.3 0.2 0.4
v -0.3 0.2 0.3
v -0.3 0.2 -0.1
v -0.3 0.2 -0.2
v -0.3 0.4 0.5
v -0.3 0.4 0.4
v -0.3 0.4 0.3
v -0.3 0.4 0.2
v -0.3 0.4 0
v -0.3 0.4 -0.1
v -0.3 0.4 -0.2
v -0.3 0.4 -0.3
v -0.3 0.6 0.5
v -0.3 0.6 0.4
v -0.3 0.6 0.3
v -0.3 0.6 0.2
v -0.3 0.6 0
v -0.3 0.6 -0.1
v -0.3 0.6 -0.2
v -0.3 0.6 -0.3
v -0.3 0.7 0.4
v -0.3 0.7 0.3
v -0.3 0.7 -0.1
v -0.3 0.7 -0.2
v -0.2 0.2 0.6
v -0.2 0.2 0.5
v -0.2 0.2 -0.4
v -0.2 0.2 -0.5
v -0.2 0.2 -0.6
v -0.2 0.2 -0.7
v -0.2 0.3 0.6
v -0.2 0.3 0.5
v -0.2 0.3 -0.6
v -0.2 0.3 -0.7
v -0.2 0.4 0.4
v -0.2 0.4 0.3
v -0.2 0.4 -0.1
v -0.2 0.4 -0.2
v -0.2 0.4 -0.3
v -0.2 0.4 -0.4
v -0.2 0.4 -0.5
v -0.2 0.4 -0.6
v -0.2 0.6 0.4
v -0.2 0.6 0.3
v -0.2 0.6 -0.1
v -0.2 0.6 -0.2
v -0.2 0.6 -0.3
v -0.2 0.6 -0.4
v -0.2 0.6 -0.5
v -0.2 0.6 -0.6
v -0.2 0.7 -0.4
v -0.2 0.7 -0.5
v -0.1 0.4 -0.4
v -0.1 0.4 -0.5
v -0.1 0.6 -0.4
v -0.1 0.6 -0.5
v 0.1 0.2 0.6
v 0.1 0.2 0.5
v 0.1 0.2 0.2
v 0.1 0.2 0.1
v 0.1 0.2 -0.2
v 0.1 0.2 -0.3
v 0.1 0.2 -0.6
v 0.1 0.2 -0.7
v 0.1 0.3 0.6
v 0.1 0.3 0.5
v 0.1 0.3 -0.6
v 0.1 0.3 -0.7
v 0.1 0.4 0.3
v 0.1 0.4 0.2
v 0.1 0.4 0.1
v 0.1 0.4 0
v 0.1 0.4 -0.1
v 0.1 0.4 -0.2
v 0.1 0.4 -0.3
v 0.1 0.4 -0.4
v 0.1 0.6 0.3
v 0.1 0.6 0.2
v 0.1 0.6 0.1
v 0.1 0.6 0
v 0.1 0.6 -0.1
v 0.1 0.6 -0.2
v 0.1 0.6 -0.3
v 0.1 0.6 -0.4
v 0.1 0.7 0.2
v 0.1 0.7 0.1
v 0.1 0.7 -0.2
v 0.1 0.7 -0.3
v 0.2 0.4 0.2
v 0.2 0.4 0.1
v 0.2 0.4 -0.2
v 0.2 0.4 -0.3
v 0.2 0.6 0.2
v 0.2 0.6 0.1
v 0.2 0.6 -0.2
v 0.2 0.6 -0.3
v 0.4 0.2 0.6
v 0.4 0.2 0.5
v 0.4 0.2 0.4
v 0.4 0.2 0.3
v 0.4 0.2 -0.4
v 0.4 0.2 -0.5
v 0.4 0.2 -0.6
v 0.4 0.2 -0.7
v 0.4 0.3 0.6
v 0.4 0.3 0.5
v 0.4 0.3 -0.6
v 0.4 0.3 -0.7
v 0.4 0.4 0.5
v 0.4 0.4 0.4
v 0.4 0.4 0.3
v 0.4 0.4 0.2
v 0.4 0.4 -0.3
v 0.4 0.4 -0.4
v 0.4 0.4 -0.5
v 0.4 0.4 -0.6
v 0.4 0.6 0.5
v 0.4 0.6 0.4
v 0.4 0.6 0.3
v 0.4 0.6 0.2
v 0.4 0.6 -0.3
v 0.4 0.6 -0.4
v 0.4 0.6 -0.5
v 0.4 0.6 -0.6
v 0.4 0.7 0.4
v 0.4 0.7 0.3
v 0.4 0.7 -0.4
v 0.4 0.7 -0.5
v 0.5 0.2 0
v 0.5 0.2 -0.1
v 0.5 0.4 0.4
v 0.5 0.4 0.3
v 0.5 0.4 0.1
v 0.5 0.4 0
v 0.5 0.4 -0.1
v 0.5 0.4 -0.2
v 0.5 0.4 -0.4
v 0.5 0.4 -0.5
v 0.5 0.6 0.4
v 0.5 0.6 0.3
v 0.5 0.6 0.1
v 0.5 0.6 0
v 0.5 0.6 -0.1
v 0.5 0.6 -0.2
v 0.5 0.6 -0.4
v 0.5 0.6 -0.5
v 0.5 0.7 0
v 0.5 0.7 -0.1
v 0.6 0.4 0
v 0.6 0.4 -0.1
v 0.6 0.6 0
v 0.6 0.6 -0.1
v 0.7 0.2 0.6
v 0.7 0.2 0.5
v 0.7 0.2 0.3
v 0.7 0.2 0.2
v 0.7 0.2 0
v 0.7 0.2 -0.1
v 0.7 0.2 -0.3
v 0.7 0.2 -0.4
v 0.7 0.2 -0.6
v 0.7 0.2 -0.7
v 0.7 0.3 0.3
v 0.7 0.3 0.2
v 0.7 0.3 0
v 0.7 0.3 -0.1
v 0.7 0.3 -0.3
v 0.7 0.3 -0.4
v 0.7 0.4 0.6
v 0.7 0.4 0.5
v 0.7 0.4 -0.6
v 0.7 0.4 -0.7
v 0.8 0 0.7
v 0.8 0 -0.8
v 0.8 0.2 0.7
v 0.8 0.2 -0.8
v -0.7 0 0.7
v -0.7 0.2 0.7
v 0.8 0 0.7
v 0.8 0.2 0.7
v -0.6 0.2 0.6
v -0.6 0.4 0.6
v -0.5 0.2 0.6
v -0.5 0.4 0.6
v -0.3 0.2 0.6
v -0.3 0.3 0.6
v -0.2 0.2 0.6
v -0.2 0.3 0.6
v 0 0.2 0.6
v 0 0.3 0.6
v 0.1 0.2 0.6
v 0.1 0.3 0.6
v 0.3 0.2 0.6
v 0.3 0.3 0.6
v 0.4 0.2 0.6
v 0.4 0.3 0.6
v 0.6 0.2 0.6
v 0.6 0.4 0.6
v 0.7 0.2 0.6
v 0.7 0.4 0.6
v -0.4 0.4 0.5
v -0.4 0.6 0.5
v -0.3 0.4 0.5
v -0.3 0.6 0.5
v 0.3 0.4 0.5
v 0.3 0.6 0.5
v 0.4 0.4 0.5
v 0.4 0.6 0.5
v -0.5 0.4 0.4
v -0.5 0.6 0.4
v -0.4 0.2 0.4
v -0.4 0.4 0.4
v -0.4 0.6 0.4
v -0.4 0.7 0.4
v -0.3 0.2 0.4
v -0.3 0.4 0.4
v -0.3 0.6 0.4
v -0.3 0.7 0.4
v -0.2 0.4 0.4
v -0.2 0.6 0.4
v 0.2 0.4 0.4
v 0.2 0.6 0.4
v 0.3 0.2 0.4
v 0.3 0.4 0.4
v 0.3 0.6 0.4
v 0.3 0.7 0.4
v 0.4 0.2 0.4
v 0.4 0.4 0.4
v 0.4 0.6 0.4
v 0.4 0.7 0.4
v 0.5 0.4 0.4
v 0.5 0.6 0.4
v -0.6 0.2 0.3
v -0.6 0.3 0.3
v -0.5 0.2 0.3
v -0.5 0.3 0.3
v 0 0.4 0.3
v 0 0.6 0.3
v 0.1 0.4 0.3
v 0.1 0.6 0.3
v 0.6 0.2 0.3
v 0.6 0.3 0.3
v 0.7 0.2 0.3
v 0.7 0.3 0.3
v -0.1 0.4 0.2
v -0.1 0.6 0.2
v 0 0.2 0.2
v 0 0.4 0.2
v 0 0.6 0.2
v 0 0.7 0.2
v 0.1 0.2 0.2
v 0.1 0.4 0.2
v 0.1 0.6 0.2
v 0.1 0.7 0.2
v 0.2 0.4 0.2
v 0.2 0.6 0.2
v 0.4 0.4 0.1
v 0.4 0.6 0.1
v 0.5 0.4 0.1
v 0.5 0.6 0.1
v -0.6 0.2 0
v -0.6 0.3 0
v -0.5 0.2 0
v -0.5 0.3 0
v -0.4 0.4 0
v -0.4 0.6 0
v -0.3 0.4 0
v -0.3 0.6 0
v 0.3 0.4 0
v 0.3 0.6 0
v 0.4 0.2 0
v 0.4 0.4 0
v 0.4 0.6 0
v 0.4 0.7 0
v 0.5 0.2 0
v 0.5 0.4 0
v 0.5 0.6 0
v 0.5 0.7 0
v 0.6 0.2 0
v 0.6 0.3 0
v 0.6 0.4 0
v 0.6 0.6 0
v 0.7 0.2 0
v 0.7 0.3 0
v -0.5 0.4 -0.1
v -0.5 0.6 -0.1
v -0.4 0.2 -0.1
v -0.4 0.4 -0.1
v -0.4 0.6 -0.1
v -0.4 0.7 -0.1
v -0.3 0.2 -0.1
v -0.3 0.4 -0.1
v -0.3 0.6 -0.1
v -0.3 0.7 -0.1
v -0.2 0.4 -0.1
v -0.2 0.6 -0.1
v 0 0.4 -0.1
v 0 0.6 -0.1
v 0.1 0.4 -0.1
v 0.1 0.6 -0.1
v -0.1 0.4 -0.2
v -0.1 0.6 -0.2
v 0 0.2 -0.2
v 0 0.4 -0.2
v 0 0.6 -0.2
v 0 0.7 -0.2
v 0.1 0.2 -0.2
v 0.1 0.4 -0.2
v 0.1 0.6 -0.2
v 0.1 0.7 -0.2
v 0.2 0.4 -0.2
v 0.2 0.6 -0.2
v -0.6 0.2 -0.3
v -0.6 0.3 -0.3
v -0.5 0.2 -0.3
v -0.5 0.3 -0.3
v -0.3 0.4 -0.3
v -0.3 0.6 -0.3
v -0.2 0.4 -0.3
v -0.2 0.6 -0.3
v 0.3 0.4 -0.3
v 0.3 0.6 -0.3
v 0.4 0.4 -0.3
v 0.4 0.6 -0.3
v 0.6 0.2 -0.3
v 0.6 0.3 -0.3
v 0.7 0.2 -0.3
v 0.7 0.3 -0.3
v -0.4 0.4 -0.4
v -0.4 0.6 -0.4
v -0.3 0.2 -0.4
v -0.3 0.4 -0.4
v -0.3 0.6 -0.4
v -0.3 0.7 -0.4
v -0.2 0.2 -0.4
v -0.2 0.4 -0.4
v -0.2 0.6 -0.4
v -0.2 0.7 -0.4
v -0.1 0.4 -0.4
v -0.1 0.6 -0.4
v 0.2 0.4 -0.4
v 0.2 0.6 -0.4
v 0.3 0.2 -0.4
v 0.3 0.4 -0.4
v 0.3 0.6 -0.4
v 0.3 0.7 -0.4
v 0.4 0.2 -0.4
v 0.4 0.4 -0.4
v 0.4 0.6 -0.4
v 0.4 0.7 -0.4
v 0.5 0.4 -0.4
v 0.5 0.6 -0.4
v -0.6 0.2 -0.6
v -0.6 0.4 -0.6
v -0.5 0.2 -0.6
v -0.5 0.4 -0.6
v -0.3 0.2 -0.6
v -0.3 0.3 -0.6
v -0.2 0.2 -0.6
v -0.2 0.3 -0.6
v 0 0.2 -0.6
v 0 0.3 -0.6
v 0.1 0.2 -0.6
v 0.1 0.3 -0.6
v 0.3 0.2 -0.6
v 0.3 0.3 -0.6
v 0.4 0.2 -0.6
v 0.4 0.3 -0.6
v 0.6 0.2 -0.6
v 0.6 0.4 -0.6
v 0.7 0.2 -0.6
v 0.7 0.4 -0.6
v -0.6 0.2 0.5
v -0.6 0.4 0.5
v -0.5 0.2 0.5
v -0.5 0.4 0.5
v -0.3 0.2 0.5
v -0.3 0.3 0.5
v -0.2 0.2 0.5
v -0.2 0.3 0.5
v 0 0.2 0.5
v 0 0.3 0.5
v 0.1 0.2 0.5
v 0.1 0.3 0.5
v 0.3 0.2 0.5
v 0.3 0.3 0.5
v 0.4 0.2 0.5
v 0.4 0.3 0.5
v 0.6 0.2 0.5
v 0.6 0.4 0.5
v 0.7 0.2 0.5
v 0.7 0.4 0.5
v -0.5 0.4 0.3
v -0.5 0.6 0.3
v -0.4 0.2 0.3
v -0.4 0.4 0.3
v -0.4 0.6 0.3
v -0.4 0.7 0.3
v -0.3 0.2 0.3
v -0.3 0.4 0.3
v -0.3 0.6 0.3
v -0.3 0.7 0.3
v -0.2 0.4 0.3
v -0.2 0.6 0.3
v 0.2 0.4 0.3
v 0.2 0.6 0.3
v 0.3 0.2 0.3
v 0.3 0.4 0.3
v 0.3 0.6 0.3
v 0.3 0.7 0.3
v 0.4 0.2 0.3
v 0.4 0.4 0.3
v 0.4 0.6 0.3
v 0.4 0.7 0.3
v 0.5 0.4 0.3
v 0.5 0.6 0.3
v -0.6 0.2 0.2
v -0.6 0.3 0.2
v -0.5 0.2 0.2
v -0.5 0.3 0.2
v -0.4 0.4 0.2
v -0.4 0.6 0.2
v -0.3 0.4 0.2
v -0.3 0.6 0.2
v 0.3 0.4 0.2
v 0.3 0.6 0.2
v 0.4 0.4 0.2
v 0.4 0.6 0.2
v 0.6 0.2 0.2
v 0.6 0.3 0.2
v 0.7 0.2 0.2
v 0.7 0.3 0.2
v -0.1 0.4 0.1
v -0.1 0.6 0.1
v 0 0.2 0.1
v 0 0.4 0.1
v 0 0.6 0.1
v 0 0.7 0.1
v 0.1 0.2 0.1
v 0.1 0.4 0.1
v 0.1 0.6 0.1
v 0.1 0.7 0.1
v 0.2 0.4 0.1
v 0.2 0.6 0.1
v 0 0.4 0
v 0 0.6 0
v 0.1 0.4 0
v 0.1 0.6 0
v -0.6 0.2 -0.1
v -0.6 0.3 -0.1
v -0.5 0.2 -0.1
v -0.5 0.3 -0.1
v 0.3 0.4 -0.1
v 0.3 0.6 -0.1
v 0.4 0.2 -0.1
v 0.4 0.4 -0.1
v 0.4 0.6 -0.1
v 0.4 0.7 -0.1
v 0.5 0.2 -0.1
v 0.5 0.4 -0.1
v 0.5 0.6 -0.1
v 0.5 0.7 -0.1
v 0.6 0.2 -0.1
v 0.6 0.3 -0.1
v 0.6 0.4 -0.1
v 0.6 0.6 -0.1
v 0.7 0.2 -0.1
v 0.7 0.3 -0.1
v -0.5 0.4 -0.2
v -0.5 0.6 -0.2
v -0.4 0.2 -0.2
v -0.4 0.4 -0.2
v -0.4 0.6 -0.2
v -0.4 0.7 -0.2
v -0.3 0.2 -0.2
v -0.3 0.4 -0.2
v -0.3 0.6 -0.2
v -0.3 0.7 -0.2
v -0.2 0.4 -0.2
v -0.2 0.6 -0.2
v 0.4 0.4 -0.2
v 0.4 0.6 -0.2
v 0.5 0.4 -0.2
v 0.5 0.6 -0.2
v -0.4 0.4 -0.3
v -0.4 0.6 -0.3
v -0.3 0.4 -0.3
v -0.3 0.6 -0.3
v -0.1 0.4 -0.3
v -0.1 0.6 -0.3
v 0 0.2 -0.3
v 0 0.4 -0.3
v 0 0.6 -0.3
v 0 0.7 -0.3
v 0.1 0.2 -0.3
v 0.1 0.4 -0.3
v 0.1 0.6 -0.3
v 0.1 0.7 -0.3
v 0.2 0.4 -0.3
v 0.2 0.6 -0.3
v -0.6 0.2 -0.4
v -0.6 0.3 -0.4
v -0.5 0.2 -0.4
v -0.5 0.3 -0.4
v 0 0.4 -0.4
v 0 0.6 -0.4
v 0.1 0.4 -0.4
v 0.1 0.6 -0.4
v 0.6 0.2 -0.4
v 0.6 0.3 -0.4
v 0.7 0.2 -0.4
v 0.7 0.3 -0.4
v -0.4 0.4 -0.5
v -0.4 0.6 -0.5
v -0.3 0.2 -0.5
v -0.3 0.4 -0.5
v -0.3 0.6 -0.5
v -0.3 0.7 -0.5
v -0.2 0.2 -0.5
v -0.2 0.4 -0.5
v -0.2 0.6 -0.5
v -0.2 0.7 -0.5
v -0.1 0.4 -0.5
v -0.1 0.6 -0.5
v 0.2 0.4 -0.5
v 0.2 0.6 -0.5
v 0.3 0.2 -0.5
v 0.3 0.4 -0.5
v 0.3 0.6 -0.5
v 0.3 0.7 -0.5
v 0.4 0.2 -0.5
v 0.4 0.4 -0.5
v 0.4 0.6 -0.5
v 0.4 0.7 -0.5
v 0.5 0.4 -0.5
v 0.5 0.6 -0.5
v -0.3 0.4 -0.6
v -0.3 0.6 -0.6
v -0.2 0.4 -0.6
v -0.2 0.6 -0.6
v 0.3 0.4 -0.6
v 0.3 0.6 -0.6
v 0.4 0.4 -0.6
v 0.4 0.6 -0.6
v -0.6 0.2 -0.7
v -0.6 0.4 -0.7
v -0.5 0.2 -0.7
v -0.5 0.4 -0.7
v -0.3 0.2 -0.7
v -0.3 0.3 -0.7
v -0.2 0.2 -0.7
v -0.2 0.3 -0.7
v 0 0.2 -0.7
v 0 0.3 -0.7
v 0.1 0.2 -0.7
v 0.1 0.3 -0.7
v 0.3 0.2 -0.7
v 0.3 0.3 -0.7
v 0.4 0.2 -0.7
v 0.4 0.3 -0.7
v 0.6 0.2 -0.7
v 0.6 0.4 -0.7
v 0.7 0.2 -0.7
v 0.7 0.4 -0.7
v -0.7 0 -0.8
v -0.7 0.2 -0.8
v 0.8 0 -0.8
v 0.8 0.2 -0.8
v -0.7 0 0.7
v 0.8 0 0.7
v -0.7 0 -0.8
v 0.8 0 -0.8
v -0.4 0.4 0.5
v -0.3 0.4 0.5
v 0.3 0.4 0.5
v 0.4 0.4 0.5
v -0.5 0.4 0.4
v -0.4 0.4 0.4
v -0.3 0.4 0.4
v -0.2 0.4 0.4
v 0.2 0.4 0.4
v 0.3 0.4 0.4
v 0.4 0.4 0.4
v 0.5 0.4 0.4
v -0.5 0.4 0.3
v -0.4 0.4 0.3
v -0.3 0.4 0.3
v -0.2 0.4 0.3
v 0 0.4 0.3
v 0.1 0.4 0.3
v 0.2 0.4 0.3
v 0.3 0.4 0.3
v 0.4 0.4 0.3
v 0.5 0.4 0.3
v -0.4 0.4 0.2
v -0.3 0.4 0.2
v -0.1 0.4 0.2
v 0 0.4 0.2
v 0.1 0.4 0.2
v 0.2 0.4 0.2
v 0.3 0.4 0.2
v 0.4 0.4 0.2
v -0.1 0.4 0.1
v 0 0.4 0.1
v 0.1 0.4 0.1
v 0.2 0.4 0.1
v 0.4 0.4 0.1
v 0.5 0.4 0.1
v -0.4 0.4 0
v -0.3 0.4 0
v 0 0.4 0
v 0.1 0.4 0
v 0.3 0.4 0
v 0.4 0.4 0
v 0.5 0.4 0
v 0.6 0.4 0
v -0.5 0.4 -0.1
v -0.4 0.4 -0.1
v -0.3 0.4 -0.1
v -0.2 0.4 -0.1
v 0 0.4 -0.1
v 0.1 0.4 -0.1
v 0.3 0.4 -0.1
v 0.4 0.4 -0.1
v 0.5 0.4 -0.1
v 0.6 0.4 -0.1
v -0.5 0.4 -0.2
v -0.4 0.4 -0.2
v -0.3 0.4 -0.2
v -0.2 0.4 -0.2
v -0.1 0.4 -0.2
v 0 0.4 -0.2
v 0.1 0.4 -0.2
v 0.2 0.4 -0.2
v 0.4 0.4 -0.2
v 0.5 0.4 -0.2
v -0.4 0.4 -0.3
v -0.3 0.4 -0.3
v -0.2 0.4 -0.3
v -0.1 0.4 -0.3
v 0 0.4 -0.3
v 0.1 0.4 -0.3
v 0.2 0.4 -0.3
v 0.3 0.4 -0.3
v 0.4 0.4 -0.3
v -0.4 0.4 -0.4
v -0.3 0.4 -0.4
v -0.2 0.4 -0.4
v -0.1 0.4 -0.4
v 0 0.4 -0.4
v 0.1 0.4 -0.4
v 0.2 0.4 -0.4
v 0.3 0.4 -0.4
v 0.4 0.4 -0.4
v 0.5 0.4 -0.4
v -0.4 0.4 -0.5
v -0.3 0.4 -0.5
v -0.2 0.4 -0.5
v -0.1 0.4 -0.5
v 0.2 0.4 -0.5
v 0.3 0.4 -0.5
v 0.4 0.4 -0.5
v 0.5 0.4 -0.5
v -0.3 0.4 -0.6
v -0.2 0.4 -0.6
v 0.3 0.4 -0.6
v 0.4 0.4 -0.6
v -0.7 0.2 0.7
v 0.8 0.2 0.7
v -0.6 0.2 0.6
v -0.5 0.2 0.6
v -0.3 0.2 0.6
v -0.2 0.2 0.6
v 0 0.2 0.6
v 0.1 0.2 0.6
v 0.3 0.2 0.6
v 0.4 0.2 0.6
v 0.6 0.2 0.6
v 0.7 0.2 0.6
v -0.6 0.2 0.5
v -0.5 0.2 0.5
v -0.3 0.2 0.5
v -0.2 0.2 0.5
v 0 0.2 0.5
v 0.1 0.2 0.5
v 0.3 0.2 0.5
v 0.4 0.2 0.5
v 0.6 0.2 0.5
v 0.7 0.2 0.5
v -0.4 0.2 0.4
v -0.3 0.2 0.4
v 0.3 0.2 0.4
v 0.4 0.2 0.4
v -0.6 0.2 0.3
v -0.5 0.2 0.3
v -0.4 0.2 0.3
v -0.3 0.2 0.3
v 0.3 0.2 0.3
v 0.4 0.2 0.3
v 0.6 0.2 0.3
v 0.7 0.2 0.3
v -0.6 0.2 0.2
v -0.5 0.2 0.2
v 0 0.2 0.2
v 0.1 0.2 0.2
v 0.6 0.2 0.2
v 0.7 0.2 0.2
v 0 0.2 0.1
v 0.1 0.2 0.1
v -0.6 0.2 0
v -0.5 0.2 0
v 0.4 0.2 0
v 0.5 0.2 0
v 0.6 0.2 0
v 0.7 0.2 0
v -0.6 0.2 -0.1
v -0.5 0.2 -0.1
v -0.4 0.2 -0.1
v -0.3 0.2 -0.1
v 0.4 0.2 -0.1
v 0.5 0.2 -0.1
v 0.6 0.2 -0.1
v 0.7 0.2 -0.1
v -0.4 0.2 -0.2
v -0.3 0.2 -0.2
v 0 0.2 -0.2
v 0.1 0.2 -0.2
v -0.6 0.2 -0.3
v -0.5 0.2 -0.3
v 0 0.2 -0.3
v 0.1 0.2 -0.3
v 0.6 0.2 -0.3
v 0.7 0.2 -0.3
v -0.6 0.2 -0.4
v -0.5 0.2 -0.4
v -0.3 0.2 -0.4
v -0.2 0.2 -0.4
v 0.3 0.2 -0.4
v 0.4 0.2 -0.4
v 0.6 0.2 -0.4
v 0.7 0.2 -0.4
v -0.3 0.2 -0.5
v -0.2 0.2 -0.5
v 0.3 0.2 -0.5
v 0.4 0.2 -0.5
v -0.6 0.2 -0.6
v -0.5 0.2 -0.6
v -0.3 0.2 -0.6
v -0.2 0.2 -0.6
v 0 0.2 -0.6
v 0.1 0.2 -0.6
v 0.3 0.2 -0.6
v 0.4 0.2 -0.6
v 0.6 0.2 -0.6
v 0.7 0.2 -0.6
v -0.6 0.2 -0.7
v -0.5 0.2 -0.7
v -0.3 0.2 -0.7
v -0.2 0.2 -0.7
v 0 0.2 -0.7
v 0.1 0.2 -0.7
v 0.3 0.2 -0.7
v 0.4 0.2 -0.7
v 0.6 0.2 -0.7
v 0.7 0.2 -0.7
v -0.7 0.2 -0.8
v 0.8 0.2 -0.8
v -0.3 0.3 0.6
v -0.2 0.3 0.6
v 0 0.3 0.6
v 0.1 0.3 0.6
v 0.3 0.3 0.6
v 0.4 0.3 0.6
v -0.3 0.3 0.5
v -0.2 0.3 0.5
v 0 0.3 0.5
v 0.1 0.3 0.5
v 0.3 0.3 0.5
v 0.4 0.3 0.5
v -0.6 0.3 0.3
v -0.5 0.3 0.3
v 0.6 0.3 0.3
v 0.7 0.3 0.3
v -0.6 0.3 0.2
v -0.5 0.3 0.2
v 0.6 0.3 0.2
v 0.7 0.3 0.2
v -0.6 0.3 0
v -0.5 0.3 0
v 0.6 0.3 0
v 0.7 0.3 0
v -0.6 0.3 -0.1
v -0.5 0.3 -0.1
v 0.6 0.3 -0.1
v 0.7 0.3 -0.1
v -0.6 0.3 -0.3
v -0.5 0.3 -0.3
v 0.6 0.3 -0.3
v 0.7 0.3 -0.3
v -0.6 0.3 -0.4
v -0.5 0.3 -0.4
v 0.6 0.3 -0.4
v 0.7 0.3 -0.4
v -0.3 0.3 -0.6
v -0.2 0.3 -0.6
v 0 0.3 -0.6
v 0.1 0.3 -0.6
v 0.3 0.3 -0.6
v 0.4 0.3 -0.6
v -0.3 0.3 -0.7
v -0.2 0.3 -0.7
v 0 0.3 -0.7
v 0.1 0.3 -0.7
v 0.3 0.3 -0.7
v 0.4 0.3 -0.7
v -0.6 0.4 0.6
v -0.5 0.4 0.6
v 0.6 0.4 0.6
v 0.7 0.4 0.6
v -0.6 0.4 0.5
v -0.5 0.4 0.5
v 0.6 0.4 0.5
v 0.7 0.4 0.5
v -0.6 0.4 -0.6
v -0.5 0.4 -0.6
v 0.6 0.4 -0.6
v 0.7 0.4 -0.6
v -0.6 0.4 -0.7
v -0.5 0.4 -0.7
v 0.6 0.4 -0.7
v 0.7 0.4 -0.7
v -0.4 0.6 0.5
v -0.3 0.6 0.5
v 0.3 0.6 0.5
v 0.4 0.6 0.5
v -0.5 0.6 0.4
v -0.4 0.6 0.4
v -0.3 0.6 0.4
v -0.2 0.6 0.4
v 0.2 0.6 0.4
v 0.3 0.6 0.4
v 0.4 0.6 0.4
v 0.5 0.6 0.4
v -0.5 0.6 0.3
v -0.4 0.6 0.3
v -0.3 0.6 0.3
v -0.2 0.6 0.3
v 0 0.6 0.3
v 0.1 0.6 0.3
v 0.2 0.6 0.3
v 0.3 0.6 0.3
v 0.4 0.6 0.3
v 0.5 0.6 0.3
v -0.4 0.6 0.2
v -0.3 0.6 0.2
v -0.1 0.6 0.2
v 0 0.6 0.2
v 0.1 0.6 0.2
v 0.2 0.6 0.2
v 0.3 0.6 0.2
v 0.4 0.6 0.2
v -0.1 0.6 0.1
v 0 0.6 0.1
v 0.1 0.6 0.1
v 0.2 0.6 0.1
v 0.4 0.6 0.1
v 0.5 0.6 0.1
v -0.4 0.6 0
v -0.3 0.6 0
v 0 0.6 0
v 0.1 0.6 0
v 0.3 0.6 0
v 0.4 0.6 0
v 0.5 0.6 0
v 0.6 0.6 0
v -0.5 0.6 -0.1
v -0.4 0.6 -0.1
v -0.3 0.6 -0.1
v -0.2 0.6 -0.1
v 0 0.6 -0.1
v 0.1 0.6 -0.1
v 0.3 0.6 -0.1
v 0.4 0.6 -0.1
v 0.5 0.6 -0.1
v 0.6 0.6 -0.1
v -0.5 0.6 -0.2
v -0.4 0.6 -0.2
v -0.3 0.6 -0.2
v -0.2 0.6 -0.2
v -0.1 0.6 -0.2
v 0 0.6 -0.2
v 0.1 0.6 -0.2
v 0.2 0.6 -0.2
v 0.4 0.6 -0.2
v 0.5 0.6 -0.2
v -0.4 0.6 -0.3
v -0.3 0.6 -0.3
v -0.2 0.6 -0.3
v -0.1 0.6 -0.3
v 0 0.6 -0.3
v 0.1 0.6 -0.3
v 0.2 0.6 -0.3
v 0.3 0.6 -0.3
v 0.4 0.6 -0.3
v -0.4 0.6 -0.4
v -0.3 0.6 -0.4
v -0.2 0.6 -0.4
v -0.1 0.6 -0.4
v 0 0.6 -0.4
v 0.1 0.6 -0.4
v 0.2 0.6 -0.4
v 0.3 0.6 -0.4
v 0.4 0.6 -0.4
v 0.5 0.6 -0.4
v -0.4 0.6 -0.5
v -0.3 0.6 -0.5
v -0.2 0.6 -0.5
v -0.1 0.6 -0.5
v 0.2 0.6 -0.5
v 0.3 0.6 -0.5
v 0.4 0.6 -0.5
v 0.5 0.6 -0.5
v -0.3 0.6 -0.6
v -0.2 0.6 -0.6
v 0.3 0.6 -0.6
v 0.4 0.6 -0.6
v -0.4 0.7 0.4
v -0.3 0.7 0.4
v 0.3 0.7 0.4
v 0.4 0.7 0.4
v -0.4 0.7 0.3
v -0.3 0.7 0.3
v 0.3 0.7 0.3
v 0.4 0.7 0.3
v 0 0.7 0.2
v 0.1 0.7 0.2
v 0 0.7 0.1
v 0.1 0.7 0.1
v 0.4 0.7 0
v 0.5 0.7 0
v -0.4 0.7 -0.1
v -0.3 0.7 -0.1
v 0.4 0.7 -0.1
v 0.5 0.7 -0.1
v -0.4 0.7 -0.2
v -0.3 0.7 -0.2
v 0 0.7 -0.2
v 0.1 0.7 -0.2
v 0 0.7 -0.3
v 0.1 0.7 -0.3
v -0.3 0.7 -0.4
v -0.2 0.7 -0.4
v 0.3 0.7 -0.4
v 0.4 0.7 -0.4
v -0.3 0.7 -0.5
v -0.2 0.7 -0.5
v 0.3 0.7 -0.5
v 0.4 0.7 -0.5

# faces
f 3/5/1 2/5/1 1/5/1
f 4/5/1 2/5/1 3/5/1
f 15/1/1 8/1/1 7/1/1
f 16/1/1 8/1/1 15/1/1
f 17/1/1 10/1/1 9/1/1
f 18/1/1 10/1/1 17/1/1
f 19/1/1 12/1/1 11/1/1
f 20/1/1 12/1/1 19/1/1
f 21/1/1 6/1/1 5/1/1
f 22/1/1 6/1/1 21/1/1
f 23/1/1 14/1/1 13/1/1
f 24/1/1 14/1/1 23/1/1
f 29/4/1 26/4/1 25/4/1
f 30/4/1 26/4/1 29/4/1
f 31/4/1 28/4/1 27/4/1
f 32/4/1 28/4/1 31/4/1
f 38/3/1 34/3/1 33/3/1
f 39/3/1 34/3/1 38/3/1
f 42/3/1 36/3/1 35/3/1
f 43/3/1 36/3/1 42/3/1
f 47/4/1 38/4/1 37/4/1
f 48/4/1 38/4/1 47/4/1
f 49/4/1 40/4/1 39/4/1
f 50/4/1 40/4/1 49/4/1
f 51/4/1 42/4/1 41/4/1
f 52/4/1 42/4/1 51/4/1
f 53/4/1 44/4/1 43/4/1
f 54/4/1 44/4/1 53/4/1
f 55/4/1 46/4/1 45/4/1
f 56/4/1 46/4/1 55/4/1
f 57/4/1 49/4/1 48/4/1
f 58/4/1 49/4/1 57/4/1
f 59/4/1 53/4/1 52/4/1
f 60/4/1 53/4/1 59/4/1
f 67/1/1 62/1/1 61/1/1
f 68/1/1 62/1/1 67/1/1
f 69/1/1 66/1/1 65/1/1
f 70/1/1 66/1/1 69/1/1
f 72/3/1 64/3/1 63/3/1
f 73/3/1 64/3/1 72/3/1
f 75/4/1 72/4/1 71/4/1
f 76/4/1 72/4/1 75/4/1
f 77/4/1 74/4/1 73/4/1
f 78/4/1 74/4/1 77/4/1
f 79/4/1 77/4/1 76/4/1
f 80/4/1 77/4/1 79/4/1
f 85/4/1 82/4/1 81/4/1
f 86/4/1 82/4/1 85/4/1
f 87/4/1 84/4/1 83/4/1
f 88/4/1 84/4/1 87/4/1
f 97/1/1 90/1/1 89/1/1
f 98/1/1 90/1/1 97/1/1
f 99/1/1 96/1/1 95/1/1
f 100/1/1 96/1/1 99/1/1
f 102/3/1 92/3/1 91/3/1
f 103/3/1 92/3/1 102/3/1
f 106/3/1 94/3/1 93/3/1
f 107/3/1 94/3/1 106/3/1
f 109/4/1 102/4/1 101/4/1
f 110/4/1 102/4/1 109/4/1
f 111/4/1 104/4/1 103/4/1
f 112/4/1 104/4/1 111/4/1
f 113/4/1 106/4/1 105/4/1
f 114/4/1 106/4/1 113/4/1
f 115/4/1 108/4/1 107/4/1
f 116/4/1 108/4/1 115/4/1
f 117/4/1 111/4/1 110/4/1
f 118/4/1 111/4/1 117/4/1
f 119/4/1 115/4/1 114/4/1
f 120/4/1 115/4/1 119/4/1
f 125/4/1 122/4/1 121/4/1
f 126/4/1 122/4/1 125/4/1
f 127/4/1 124/4/1 123/4/1
f 128/4/1 124/4/1 127/4/1
f 137/1/1 130/1/1 129/1/1
f 138/1/1 130/1/1 137/1/1
f 139/1/1 136/1/1 135/1/1
f 140/1/1 136/1/1 139/1/1
f 142/3/1 132/3/1 131/3/1
f 143/3/1 132/3/1 142/3/1
f 148/3/1 134/3/1 133/3/1
f 149/3/1 134/3/1 148/3/1
f 151/4/1 142/4/1 141/4/1
f 152/4/1 142/4/1 151/4/1
f 153/4/1 144/4/1 143/4/1
f 154/4/1 144/4/1 153/4/1
f 155/4/1 146/4/1 145/4/1
f 156/4/1 146/4/1 155/4/1
f 157/4/1 148/4/1 147/4/1
f 158/4/1 148/4/1 157/4/1
f 159/4/1 150/4/1 149/4/1
f 160/4/1 150/4/1 159/4/1
f 161/4/1 153/4/1 152/4/1
f 162/4/1 153/4/1 161/4/1
f 163/4/1 159/4/1 158/4/1
f 164/4/1 159/4/1 163/4/1
f 168/3/1 166/3/1 165/3/1
f 169/3/1 166/3/1 168/3/1
f 171/4/1 168/4/1 167/4/1
f 172/4/1 168/4/1 171/4/1
f 173/4/1 170/4/1 169/4/1
f 174/4/1 170/4/1 173/4/1
f 175/4/1 173/4/1 172/4/1
f 176/4/1 173/4/1 175/4/1
f 187/1/1 180/1/1 179/1/1
f 188/1/1 180/1/1 187/1/1
f 189/1/1 182/1/1 181/1/1
f 190/1/1 182/1/1 189/1/1
f 191/1/1 184/1/1 183/1/1
f 192/1/1 184/1/1 191/1/1
f 193/1/1 178/1/1 177/1/1
f 194/1/1 178/1/1 193/1/1
f 195/1/1 186/1/1 185/1/1
f 196/1/1 186/1/1 195/1/1
f 199/1/2 200/1/2 207/1/2
f 207/1/2 200/1/2 208/1/2
f 201/1/2 202/1/2 209/1/2
f 209/1/2 202/1/2 210/1/2
f 203/1/2 204/1/2 211/1/2
f 211/1/2 204/1/2 212/1/2
f 197/1/2 198/1/2 213/1/2
f 213/1/2 198/1/2 214/1/2
f 205/1/2 206/1/2 215/1/2
f 215/1/2 206/1/2 216/1/2
f 217/3/2 218/3/2 222/3/2
f 222/3/2 218/3/2 223/3/2
f 219/3/2 220/3/2 226/3/2
f 226/3/2 220/3/2 227/3/2
f 221/4/2 222/4/2 229/4/2
f 229/4/2 222/4/2 230/4/2
f 223/4/2 224/4/2 231/4/2
f 231/4/2 224/4/2 232/4/2
f 225/4/2 226/4/2 233/4/2
f 233/4/2 226/4/2 234/4/2
f 227/4/2 228/4/2 235/4/2
f 235/4/2 228/4/2 236/4/2
f 230/4/2 231/4/2 237/4/2
f 237/4/2 231/4/2 238/4/2
f 234/4/2 235/4/2 239/4/2
f 239/4/2 235/4/2 240/4/2
f 241/1/2 242/1/2 247/1/2
f 247/1/2 242/1/2 248/1/2
f 245/1/2 246/1/2 249/1/2
f 249/1/2 246/1/2 250/1/2
f 243/3/2 244/3/2 256/3/2
f 256/3/2 244/3/2 257/3/2
f 251/4/2 252/4/2 259/4/2
f 259/4/2 252/4/2 260/4/2
f 253/4/2 254/4/2 261/4/2
f 261/4/2 254/4/2 262/4/2
f 255/4/2 256/4/2 263/4/2
f 263/4/2 256/4/2 264/4/2
f 257/4/2 258/4/2 265/4/2
f 265/4/2 258/4/2 266/4/2
f 264/4/2 265/4/2 267/4/2
f 267/4/2 265/4/2 268/4/2
f 269/4/2 270/4/2 271/4/2
f 271/4/2 270/4/2 272/4/2
f 273/1/2 274/1/2 281/1/2
f 281/1/2 274/1/2 282/1/2
f 279/1/2 280/1/2 283/1/2
f 283/1/2 280/1/2 284/1/2
f 275/3/2 276/3/2 286/3/2
f 286/3/2 276/3/2 287/3/2
f 277/3/2 278/3/2 290/3/2
f 290/3/2 278/3/2 291/3/2
f 285/4/2 286/4/2 293/4/2
f 293/4/2 286/4/2 294/4/2
f 287/4/2 288/4/2 295/4/2
f 295/4/2 288/4/2 296/4/2
f 289/4/2 290/4/2 297/4/2
f 297/4/2 290/4/2 298/4/2
f 291/4/2 292/4/2 299/4/2
f 299/4/2 292/4/2 300/4/2
f 294/4/2 295/4/2 301/4/2
f 301/4/2 295/4/2 302/4/2
f 298/4/2 299/4/2 303/4/2
f 303/4/2 299/4/2 304/4/2
f 305/4/2 306/4/2 309/4/2
f 309/4/2 306/4/2 310/4/2
f 307/4/2 308/4/2 311/4/2
f 311/4/2 308/4/2 312/4/2
f 313/1/2 314/1/2 321/1/2
f 321/1/2 314/1/2 322/1/2
f 319/1/2 320/1/2 323/1/2
f 323/1/2 320/1/2 324/1/2
f 315/3/2 316/3/2 326/3/2
f 326/3/2 316/3/2 327/3/2
f 317/3/2 318/3/2 330/3/2
f 330/3/2 318/3/2 331/3/2
f 325/4/2 326/4/2 333/4/2
f 333/4/2 326/4/2 334/4/2
f 327/4/2 328/4/2 335/4/2
f 335/4/2 328/4/2 336/4/2
f 329/4/2 330/4/2 337/4/2
f 337/4/2 330/4/2 338/4/2
f 331/4/2 332/4/2 339/4/2
f 339/4/2 332/4/2 340/4/2
f 334/4/2 335/4/2 341/4/2
f 341/4/2 335/4/2 342/4/2
f 338/4/2 339/4/2 343/4/2
f 343/4/2 339/4/2 344/4/2
f 345/3/2 346/3/2 350/3/2
f 350/3/2 346/3/2 351/3/2
f 347/4/2 348/4/2 355/4/2
f 355/4/2 348/4/2 356/4/2
f 349/4/2 350/4/2 357/4/2
f 357/4/2 350/4/2 358/4/2
f 351/4/2 352/4/2 359/4/2
f 359/4/2 352/4/2 360/4/2
f 353/4/2 354/4/2 361/4/2
f 361/4/2 354/4/2 362/4/2
f 358/4/2 359/4/2 363/4/2
f 363/4/2 359/4/2 364/4/2
f 365/4/2 366/4/2 367/4/2
f 367/4/2 366/4/2 368/4/2
f 371/1/2 372/1/2 379/1/2
f 379/1/2 372/1/2 380/1/2
f 373/1/2 374/1/2 381/1/2
f 381/1/2 374/1/2 382/1/2
f 375/1/2 376/1/2 383/1/2
f 383/1/2 376/1/2 384/1/2
f 369/1/2 370/1/2 385/1/2
f 385/1/2 370/1/2 386/1/2
f 377/1/2 378/1/2 387/1/2
f 387/1/2 378/1/2 388/1/2
f 389/5/2 390/5/2 391/5/2
f 391/5/2 390/5/2 392/5/2
f 395/5/3 394/5/3 393/5/3
f 396/5/3 394/5/3 395/5/3
f 399/1/3 398/1/3 397/1/3
f 400/1/3 398/1/3 399/1/3
f 403/1/3 402/1/3 401/1/3
f 404/1/3 402/1/3 403/1/3
f 407/1/3 406/1/3 405/1/3
f 408/1/3 406/1/3 407/1/3
f 411/1/3 410/1/3 409/1/3
f 412/1/3 410/1/3 411/1/3
f 415/1/3 414/1/3 413/1/3
f 416/1/3 414/1/3 415/1/3
f 419/4/3 418/4/3 417/4/3
f 420/4/3 418/4/3 419/4/3
f 423/4/3 422/4/3 421/4/3
f 424/4/3 422/4/3 423/4/3
f 428/4/3 426/4/3 425/4/3
f 429/4/3 426/4/3 428/4/3
f 431/3/3 428/3/3 427/3/3
f 432/3/3 428/3/3 431/3/3
f 433/4/3 430/4/3 429/4/3
f 434/4/3 430/4/3 433/4/3
f 435/4/3 433/4/3 432/4/3
f 436/4/3 433/4/3 435/4/3
f 440/4/3 438/4/3 437/4/3
f 441/4/3 438/4/3 440/4/3
f 443/3/3 440/3/3 439/3/3
f 444/3/3 440/3/3 443/3/3
f 445/4/3 442/4/3 441/4/3
f 446/4/3 442/4/3 445/4/3
f 447/4/3 445/4/3 444/4/3
f 448/4/3 445/4/3 447/4/3
f 451/1/3 450/1/3 449/1/3
f 452/1/3 450/1/3 451/1/3
f 455/4/3 454/4/3 453/4/3
f 456/4/3 454/4/3 455/4/3
f 459/1/3 458/1/3 457/1/3
f 460/1/3 458/1/3 459/1/3
f 464/4/3 462/4/3 461/4/3
f 465/4/3 462/4/3 464/4/3
f 467/3/3 464/3/3 463/3/3
f 468/3/3 464/3/3 467/3/3
f 469/4/3 466/4/3 465/4/3
f 470/4/3 466/4/3 469/4/3
f 471/4/3 469/4/3 468/4/3
f 472/4/3 469/4/3 471/4/3
f 475/4/3 474/4/3 473/4/3
f 476/4/3 474/4/3 475/4/3
f 479/1/3 478/1/3 477/1/3
f 480/1/3 478/1/3 479/1/3
f 483/4/3 482/4/3 481/4/3
f 484/4/3 482/4/3 483/4/3
f 488/4/3 486/4/3 485/4/3
f 489/4/3 486/4/3 488/4/3
f 491/3/3 488/3/3 487/3/3
f 492/3/3 488/3/3 491/3/3
f 493/4/3 490/4/3 489/4/3
f 494/4/3 490/4/3 493/4/3
f 497/4/3 493/4/3 492/4/3
f 498/4/3 493/4/3 497/4/3
f 499/1/3 496/1/3 495/1/3
f 500/1/3 496/1/3 499/1/3
f 504/4/3 502/4/3 501/4/3
f 505/4/3 502/4/3 504/4/3
f 507/3/3 504/3/3 503/3/3
f 508/3/3 504/3/3 507/3/3
f 509/4/3 506/4/3 505/4/3
f 510/4/3 506/4/3 509/4/3
f 511/4/3 509/4/3 508/4/3
f 512/4/3 509/4/3 511/4/3
f 515/4/3 514/4/3 513/4/3
f 516/4/3 514/4/3 515/4/3
f 520/4/3 518/4/3 517/4/3
f 521/4/3 518/4/3 520/4/3
f 523/3/3 520/3/3 519/3/3
f 524/3/3 520/3/3 523/3/3
f 525/4/3 522/4/3 521/4/3
f 526/4/3 522/4/3 525/4/3
f 527/4/3 525/4/3 524/4/3
f 528/4/3 525/4/3 527/4/3
f 531/1/3 530/1/3 529/1/3
f 532/1/3 530/1/3 531/1/3
f 535/4/3 534/4/3 533/4/3
f 536/4/3 534/4/3 535/4/3
f 539/4/3 538/4/3 537/4/3
f 540/4/3 538/4/3 539/4/3
f 543/1/3 542/1/3 541/1/3
f 544/1/3 542/1/3 543/1/3
f 548/4/3 546/4/3 545/4/3
f 549/4/3 546/4/3 548/4/3
f 551/3/3 548/3/3 547/3/3
f 552/3/3 548/3/3 551/3/3
f 553/4/3 550/4/3 549/4/3
f 554/4/3 550/4/3 553/4/3
f 555/4/3 553/4/3 552/4/3
f 556/4/3 553/4/3 555/4/3
f 560/4/3 558/4/3 557/4/3
f 561/4/3 558/4/3 560/4/3
f 563/3/3 560/3/3 559/3/3
f 564/3/3 560/3/3 563/3/3
f 565/4/3 562/4/3 561/4/3
f 566/4/3 562/4/3 565/4/3
f 567/4/3 565/4/3 564/4/3
f 568/4/3 565/4/3 567/4/3
f 571/1/3 570/1/3 569/1/3
f 572/1/3 570/1/3 571/1/3
f 575/1/3 574/1/3 573/1/3
f 576/1/3 574/1/3 575/1/3
f 579/1/3 578/1/3 577/1/3
f 580/1/3 578/1/3 579/1/3
f 583/1/3 582/1/3 581/1/3
f 584/1/3 582/1/3 583/1/3
f 587/1/3 586/1/3 585/1/3
f 588/1/3 586/1/3 587/1/3
f 589/1/4 590/1/4 591/1/4
f 591/1/4 590/1/4 592/1/4
f 593/1/4 594/1/4 595/1/4
f 595/1/4 594/1/4 596/1/4
f 597/1/4 598/1/4 599/1/4
f 599/1/4 598/1/4 600/1/4
f 601/1/4 602/1/4 603/1/4
f 603/1/4 602/1/4 604/1/4
f 605/1/4 606/1/4 607/1/4
f 607/1/4 606/1/4 608/1/4
f 609/4/4 610/4/4 612/4/4
f 612/4/4 610/4/4 613/4/4
f 611/3/4 612/3/4 615/3/4
f 615/3/4 612/3/4 616/3/4
f 613/4/4 614/4/4 617/4/4
f 617/4/4 614/4/4 618/4/4
f 616/4/4 617/4/4 619/4/4
f 619/4/4 617/4/4 620/4/4
f 621/4/4 622/4/4 624/4/4
f 624/4/4 622/4/4 625/4/4
f 623/3/4 624/3/4 627/3/4
f 627/3/4 624/3/4 628/3/4
f 625/4/4 626/4/4 629/4/4
f 629/4/4 626/4/4 630/4/4
f 628/4/4 629/4/4 631/4/4
f 631/4/4 629/4/4 632/4/4
f 633/1/4 634/1/4 635/1/4
f 635/1/4 634/1/4 636/1/4
f 637/4/4 638/4/4 639/4/4
f 639/4/4 638/4/4 640/4/4
f 641/4/4 642/4/4 643/4/4
f 643/4/4 642/4/4 644/4/4
f 645/1/4 646/1/4 647/1/4
f 647/1/4 646/1/4 648/1/4
f 649/4/4 650/4/4 652/4/4
f 652/4/4 650/4/4 653/4/4
f 651/3/4 652/3/4 655/3/4
f 655/3/4 652/3/4 656/3/4
f 653/4/4 654/4/4 657/4/4
f 657/4/4 654/4/4 658/4/4
f 656/4/4 657/4/4 659/4/4
f 659/4/4 657/4/4 660/4/4
f 661/4/4 662/4/4 663/4/4
f 663/4/4 662/4/4 664/4/4
f 665/1/4 666/1/4 667/1/4
f 667/1/4 666/1/4 668/1/4
f 669/4/4 670/4/4 672/4/4
f 672/4/4 670/4/4 673/4/4
f 671/3/4 672/3/4 675/3/4
f 675/3/4 672/3/4 676/3/4
f 673/4/4 674/4/4 677/4/4
f 677/4/4 674/4/4 678/4/4
f 676/4/4 677/4/4 681/4/4
f 681/4/4 677/4/4 682/4/4
f 679/1/4 680/1/4 683/1/4
f 683/1/4 680/1/4 684/1/4
f 685/4/4 686/4/4 688/4/4
f 688/4/4 686/4/4 689/4/4
f 687/3/4 688/3/4 691/3/4
f 691/3/4 688/3/4 692/3/4
f 689/4/4 690/4/4 693/4/4
f 693/4/4 690/4/4 694/4/4
f 692/4/4 693/4/4 695/4/4
f 695/4/4 693/4/4 696/4/4
f 697/4/4 698/4/4 699/4/4
f 699/4/4 698/4/4 700/4/4
f 701/4/4 702/4/4 703/4/4
f 703/4/4 702/4/4 704/4/4
f 705/4/4 706/4/4 708/4/4
f 708/4/4 706/4/4 709/4/4
f 707/3/4 708/3/4 711/3/4
f 711/3/4 708/3/4 712/3/4
f 709/4/4 710/4/4 713/4/4
f 713/4/4 710/4/4 714/4/4
f 712/4/4 713/4/4 715/4/4
f 715/4/4 713/4/4 716/4/4
f 717/1/4 718/1/4 719/1/4
f 719/1/4 718/1/4 720/1/4
f 721/4/4 722/4/4 723/4/4
f 723/4/4 722/4/4 724/4/4
f 725/1/4 726/1/4 727/1/4
f 727/1/4 726/1/4 728/1/4
f 729/4/4 730/4/4 732/4/4
f 732/4/4 730/4/4 733/4/4
f 731/3/4 732/3/4 735/3/4
f 735/3/4 732/3/4 736/3/4
f 733/4/4 734/4/4 737/4/4
f 737/4/4 734/4/4 738/4/4
f 736/4/4 737/4/4 739/4/4
f 739/4/4 737/4/4 740/4/4
f 741/4/4 742/4/4 744/4/4
f 744/4/4 742/4/4 745/4/4
f 743/3/4 744/3/4 747/3/4
f 747/3/4 744/3/4 748/3/4
f 745/4/4 746/4/4 749/4/4
f 749/4/4 746/4/4 750/4/4
f 748/4/4 749/4/4 751/4/4
f 751/4/4 749/4/4 752/4/4
f 753/4/4 754/4/4 755/4/4
f 755/4/4 754/4/4 756/4/4
f 757/4/4 758/4/4 759/4/4
f 759/4/4 758/4/4 760/4/4
f 761/1/4 762/1/4 763/1/4
f 763/1/4 762/1/4 764/1/4
f 765/1/4 766/1/4 767/1/4
f 767/1/4 766/1/4 768/1/4
f 769/1/4 770/1/4 771/1/4
f 771/1/4 770/1/4 772/1/4
f 773/1/4 774/1/4 775/1/4
f 775/1/4 774/1/4 776/1/4
f 777/1/4 778/1/4 779/1/4
f 779/1/4 778/1/4 780/1/4
f 781/5/4 782/5/4 783/5/4
f 783/5/4 782/5/4 784/5/4
f 787/5/5 786/5/5 785/5/5
f 788/5/5 786/5/5 787/5/5
f 794/4/5 790/4/5 789/4/5
f 795/4/5 790/4/5 794/4/5
f 798/4/5 792/4/5 791/4/5
f 799/4/5 792/4/5 798/4/5
f 801/4/5 794/4/5 793/4/5
f 802/4/5 794/4/5 801/4/5
f 803/4/5 796/4/5 795/4/5
f 804/4/5 796/4/5 803/4/5
f 807/4/5 798/4/5 797/4/5
f 808/4/5 798/4/5 807/4/5
f 809/4/5 800/4/5 799/4/5
f 810/4/5 800/4/5 809/4/5
f 811/4/5 803/4/5 802/4/5
f 812/4/5 803/4/5 811/4/5
f 814/4/5 806/4/5 805/4/5
f 815/4/5 806/4/5 814/4/5
f 817/4/5 809/4/5 808/4/5
f 818/4/5 809/4/5 817/4/5
f 819/4/5 814/4/5 813/4/5
f 820/4/5 814/4/5 819/4/5
f 821/4/5 816/4/5 815/4/5
f 822/4/5 816/4/5 821/4/5
f 827/4/5 821/4/5 820/4/5
f 828/4/5 821/4/5 827/4/5
f 830/4/5 824/4/5 823/4/5
f 831/4/5 824/4/5 830/4/5
f 834/4/5 826/4/5 825/4/5
f 835/4/5 826/4/5 834/4/5
f 839/4/5 830/4/5 829/4/5
f 840/4/5 830/4/5 839/4/5
f 841/4/5 832/4/5 831/4/5
f 842/4/5 832/4/5 841/4/5
f 843/4/5 834/4/5 833/4/5
f 844/4/5 834/4/5 843/4/5
f 845/4/5 836/4/5 835/4/5
f 846/4/5 836/4/5 845/4/5
f 848/4/5 838/4/5 837/4/5
f 849/4/5 838/4/5 848/4/5
f 851/4/5 841/4/5 840/4/5
f 852/4/5 841/4/5 851/4/5
f 853/4/5 845/4/5 844/4/5
f 854/4/5 845/4/5 853/4/5
f 856/4/5 848/4/5 847/4/5
f 857/4/5 848/4/5 856/4/5
f 858/4/5 850/4/5 849/4/5
f 859/4/5 850/4/5 858/4/5
f 863/4/5 855/4/5 854/4/5
f 864/4/5 855/4/5 863/4/5
f 866/4/5 858/4/5 857/4/5
f 867/4/5 858/4/5 866/4/5
f 869/4/5 861/4/5 860/4/5
f 870/4/5 861/4/5 869/4/5
f 872/4/5 863/4/5 862/4/5
f 873/4/5 863/4/5 872/4/5
f 874/4/5 865/4/5 864/4/5
f 875/4/5 865/4/5 874/4/5
f 876/4/5 869/4/5 868/4/5
f 877/4/5 869/4/5 876/4/5
f 878/4/5 871/4/5 870/4/5
f 879/4/5 871/4/5 878/4/5
f 880/4/5 874/4/5 873/4/5
f 881/4/5 874/4/5 880/4/5
f 882/4/5 878/4/5 877/4/5
f 883/4/5 878/4/5 882/4/5
f 884/5/6 885/5/6 886/5/6
f 886/5/6 885/5/6 887/5/6
f 887/5/6 885/5/6 888/5/6
f 888/5/6 885/5/6 889/5/6
f 889/5/6 885/5/6 890/5/6
f 890/5/6 885/5/6 891/5/6
f 891/5/6 885/5/6 892/5/6
f 892/5/6 885/5/6 893/5/6
f 893/5/6 885/5/6 894/5/6
f 894/5/6 885/5/6 895/5/6
f 884/5/6 886/5/6 896/5/6
f 887/5/6 888/5/6 897/5/6
f 897/5/6 888/5/6 898/5/6
f 889/5/6 890/5/6 899/5/6
f 899/5/6 890/5/6 900/5/6
f 891/5/6 892/5/6 901/5/6
f 901/5/6 892/5/6 902/5/6
f 893/5/6 894/5/6 903/5/6
f 903/5/6 894/5/6 904/5/6
f 895/5/6 885/5/6 905/5/6
f 903/2/6 904/2/6 906/2/6
f 901/2/6 902/2/6 906/2/6
f 899/2/6 900/2/6 906/2/6
f 897/2/6 898/2/6 906/2/6
f 902/2/6 903/2/6 906/2/6
f 898/2/6 899/2/6 906/2/6
f 900/2/6 901/2/6 906/2/6
f 906/2/6 904/2/6 907/2/6
f 907/2/6 904/2/6 908/2/6
f 908/2/6 904/2/6 909/2/6
f 884/5/6 896/5/6 910/5/6
f 896/5/6 897/5/6 910/5/6
f 897/2/6 906/2/6 911/2/6
f 910/5/6 897/5/6 911/5/6
f 911/2/6 906/2/6 912/2/6
f 907/2/6 908/2/6 913/2/6
f 913/2/6 908/2/6 914/2/6
f 909/2/6 904/2/6 915/2/6
f 904/5/6 905/5/6 916/5/6
f 915/2/6 904/2/6 916/2/6
f 905/5/6 885/5/6 917/5/6
f 916/5/6 905/5/6 917/5/6
f 884/5/6 910/5/6 918/5/6
f 914/2/6 915/2/6 919/2/6
f 915/2/6 916/2/6 919/2/6
f 912/2/6 913/2/6 919/2/6
f 913/2/6 914/2/6 919/2/6
f 911/2/6 912/2/6 919/2/6
f 919/2/6 916/2/6 920/2/6
f 920/2/6 916/2/6 921/2/6
f 921/2/6 916/2/6 922/2/6
f 917/5/6 885/5/6 923/5/6
f 919/2/6 920/2/6 924/2/6
f 921/2/6 922/2/6 925/2/6
f 884/5/6 918/5/6 926/5/6
f 918/5/6 919/5/6 926/5/6
f 924/2/6 925/2/6 927/2/6
f 926/5/6 919/5/6 927/5/6
f 919/2/6 924/2/6 927/2/6
f 925/2/6 922/2/6 928/2/6
f 927/2/6 925/2/6 928/2/6
f 928/2/6 922/2/6 929/2/6
f 922/5/6 923/5/6 930/5/6
f 929/2/6 922/2/6 930/2/6
f 923/5/6 885/5/6 931/5/6
f 930/5/6 923/5/6 931/5/6
f 884/5/6 926/5/6 932/5/6
f 927/2/6 928/2/6 933/2/6
f 933/2/6 928/2/6 934/2/6
f 934/2/6 928/2/6 935/2/6
f 935/2/6 928/2/6 936/2/6
f 929/2/6 930/2/6 937/2/6
f 937/2/6 930/2/6 938/2/6
f 931/5/6 885/5/6 939/5/6
f 933/2/6 934/2/6 940/2/6
f 937/2/6 938/2/6 941/2/6
f 935/2/6 936/2/6 941/2/6
f 936/2/6 937/2/6 941/2/6
f 941/2/6 938/2/6 942/2/6
f 942/2/6 938/2/6 943/2/6
f 884/5/6 932/5/6 944/5/6
f 932/5/6 933/5/6 944/5/6
f 933/2/6 940/2/6 945/2/6
f 944/5/6 933/5/6 945/5/6
f 941/2/6 942/2/6 945/2/6
f 940/2/6 941/2/6 945/2/6
f 945/2/6 942/2/6 946/2/6
f 943/2/6 938/2/6 947/2/6
f 938/5/6 939/5/6 948/5/6
f 947/2/6 938/2/6 948/2/6
f 939/5/6 885/5/6 949/5/6
f 948/5/6 939/5/6 949/5/6
f 884/5/6 944/5/6 950/5/6
f 945/2/6 946/2/6 951/2/6
f 946/2/6 947/2/6 951/2/6
f 947/2/6 948/2/6 951/2/6
f 951/2/6 948/2/6 952/2/6
f 952/2/6 948/2/6 953/2/6
f 953/2/6 948/2/6 954/2/6
f 954/2/6 948/2/6 955/2/6
f 955/2/6 948/2/6 956/2/6
f 949/5/6 885/5/6 957/5/6
f 951/2/6 952/2/6 958/2/6
f 953/2/6 954/2/6 959/2/6
f 959/2/6 954/2/6 960/2/6
f 955/2/6 956/2/6 961/2/6
f 884/5/6 950/5/6 962/5/6
f 950/5/6 951/5/6 962/5/6
f 959/2/6 960/2/6 963/2/6
f 962/5/6 951/5/6 963/5/6
f 960/2/6 961/2/6 963/2/6
f 951/2/6 958/2/6 963/2/6
f 958/2/6 959/2/6 963/2/6
f 963/2/6 961/2/6 964/2/6
f 964/2/6 961/2/6 965/2/6
f 965/2/6 961/2/6 966/2/6
f 966/2/6 961/2/6 967/2/6
f 967/2/6 961/2/6 968/2/6
f 961/2/6 956/2/6 969/2/6
f 968/2/6 961/2/6 969/2/6
f 956/5/6 957/5/6 970/5/6
f 969/2/6 956/2/6 970/2/6
f 957/5/6 885/5/6 971/5/6
f 970/5/6 957/5/6 971/5/6
f 884/5/6 962/5/6 972/5/6
f 963/5/6 964/5/6 973/5/6
f 973/5/6 964/5/6 974/5/6
f 965/5/6 966/5/6 975/5/6
f 975/5/6 966/5/6 976/5/6
f 967/5/6 968/5/6 977/5/6
f 977/5/6 968/5/6 978/5/6
f 969/5/6 970/5/6 979/5/6
f 979/5/6 970/5/6 980/5/6
f 971/5/6 885/5/6 981/5/6
f 979/5/6 980/5/6 982/5/6
f 980/5/6 981/5/6 982/5/6
f 975/5/6 976/5/6 982/5/6
f 973/5/6 974/5/6 982/5/6
f 978/5/6 979/5/6 982/5/6
f 977/5/6 978/5/6 982/5/6
f 976/5/6 977/5/6 982/5/6
f 884/5/6 972/5/6 982/5/6
f 974/5/6 975/5/6 982/5/6
f 972/5/6 973/5/6 982/5/6
f 981/5/6 885/5/6 983/5/6
f 982/5/6 981/5/6 983/5/6
f 984/1/6 985/1/6 990/1/6
f 990/1/6 985/1/6 991/1/6
f 986/1/6 987/1/6 992/1/6
f 992/1/6 987/1/6 993/1/6
f 988/1/6 989/1/6 994/1/6
f 994/1/6 989/1/6 995/1/6
f 996/1/6 997/1/6 1000/1/6
f 1000/1/6 997/1/6 1001/1/6
f 998/1/6 999/1/6 1002/1/6
f 1002/1/6 999/1/6 1003/1/6
f 1004/1/6 1005/1/6 1008/1/6
f 1008/1/6 1005/1/6 1009/1/6
f 1006/1/6 1007/1/6 1010/1/6
f 1010/1/6 1007/1/6 1011/1/6
f 1012/1/6 1013/1/6 1016/1/6
f 1016/1/6 1013/1/6 1017/1/6
f 1014/1/6 1015/1/6 1018/1/6
f 1018/1/6 1015/1/6 1019/1/6
f 1020/1/6 1021/1/6 1026/1/6
f 1026/1/6 1021/1/6 1027/1/6
f 1022/1/6 1023/1/6 1028/1/6
f 1028/1/6 1023/1/6 1029/1/6
f 1024/1/6 1025/1/6 1030/1/6
f 1030/1/6 1025/1/6 1031/1/6
f 1032/1/6 1033/1/6 1036/1/6
f 1036/1/6 1033/1/6 1037/1/6
f 1034/1/6 1035/1/6 1038/1/6
f 1038/1/6 1035/1/6 1039/1/6
f 1040/1/6 1041/1/6 1044/1/6
f 1044/1/6 1041/1/6 1045/1/6
f 1042/1/6 1043/1/6 1046/1/6
f 1046/1/6 1043/1/6 1047/1/6
f 1048/4/6 1049/4/6 1053/4/6
f 1053/4/6 1049/4/6 1054/4/6
f 1050/4/6 1051/4/6 1057/4/6
f 1057/4/6 1051/4/6 1058/4/6
f 1052/4/6 1053/4/6 1060/4/6
f 1060/4/6 1053/4/6 1061/4/6
f 1054/4/6 1055/4/6 1062/4/6
f 1062/4/6 1055/4/6 1063/4/6
f 1056/4/6 1057/4/6 1066/4/6
f 1066/4/6 1057/4/6 1067/4/6
f 1058/4/6 1059/4/6 1068/4/6
f 1068/4/6 1059/4/6 1069/4/6
f 1061/4/6 1062/4/6 1070/4/6
f 1070/4/6 1062/4/6 1071/4/6
f 1064/4/6 1065/4/6 1073/4/6
f 1073/4/6 1065/4/6 1074/4/6
f 1067/4/6 1068/4/6 1076/4/6
f 1076/4/6 1068/4/6 1077/4/6
f 1072/4/6 1073/4/6 1078/4/6
f 1078/4/6 1073/4/6 1079/4/6
f 1074/4/6 1075/4/6 1080/4/6
f 1080/4/6 1075/4/6 1081/4/6
f 1079/4/6 1080/4/6 1086/4/6
f 1086/4/6 1080/4/6 1087/4/6
f 1082/4/6 1083/4/6 1089/4/6
f 1089/4/6 1083/4/6 1090/4/6
f 1084/4/6 1085/4/6 1093/4/6
f 1093/4/6 1085/4/6 1094/4/6
f 1088/4/6 1089/4/6 1098/4/6
f 1098/4/6 1089/4/6 1099/4/6
f 1090/4/6 1091/4/6 1100/4/6
f 1100/4/6 1091/4/6 1101/4/6
f 1092/4/6 1093/4/6 1102/4/6
f 1102/4/6 1093/4/6 1103/4/6
f 1094/4/6 1095/4/6 1104/4/6
f 1104/4/6 1095/4/6 1105/4/6
f 1096/4/6 1097/4/6 1107/4/6
f 1107/4/6 1097/4/6 1108/4/6
f 1099/4/6 1100/4/6 1110/4/6
f 1110/4/6 1100/4/6 1111/4/6
f 1103/4/6 1104/4/6 1112/4/6
f 1112/4/6 1104/4/6 1113/4/6
f 1106/4/6 1107/4/6 1115/4/6
f 1115/4/6 1107/4/6 1116/4/6
f 1108/4/6 1109/4/6 1117/4/6
f 1117/4/6 1109/4/6 1118/4/6
f 1113/4/6 1114/4/6 1122/4/6
f 1122/4/6 1114/4/6 1123/4/6
f 1116/4/6 1117/4/6 1125/4/6
f 1125/4/6 1117/4/6 1126/4/6
f 1119/4/6 1120/4/6 1128/4/6
f 1128/4/6 1120/4/6 1129/4/6
f 1121/4/6 1122/4/6 1131/4/6
f 1131/4/6 1122/4/6 1132/4/6
f 1123/4/6 1124/4/6 1133/4/6
f 1133/4/6 1124/4/6 1134/4/6
f 1127/4/6 1128/4/6 1135/4/6
f 1135/4/6 1128/4/6 1136/4/6
f 1129/4/6 1130/4/6 1137/4/6
f 1137/4/6 1130/4/6 1138/4/6
f 1132/4/6 1133/4/6 1139/4/6
f 1139/4/6 1133/4/6 1140/4/6
f 1136/4/6 1137/4/6 1141/4/6
f 1141/4/6 1137/4/6 1142/4/6
f 1143/4/6 1144/4/6 1147/4/6
f 1147/4/6 1144/4/6 1148/4/6
f 1145/4/6 1146/4/6 1149/4/6
f 1149/4/6 1146/4/6 1150/4/6
f 1151/4/6 1152/4/6 1153/4/6
f 1153/4/6 1152/4/6 1154/4/6
f 1155/4/6 1156/4/6 1159/4/6
f 1159/4/6 1156/4/6 1160/4/6
f 1157/4/6 1158/4/6 1161/4/6
f 1161/4/6 1158/4/6 1162/4/6
f 1163/4/6 1164/4/6 1165/4/6
f 1165/4/6 1164/4/6 1166/4/6
f 1167/4/6 1168/4/6 1171/4/6
f 1171/4/6 1168/4/6 1172/4/6
f 1169/4/6 1170/4/6 1173/4/6
f 1173/4/6 1170/4/6 1174/4/6
