# Blender 4.3.2
# www.blender.org
mtllib BasketTile.mtl
o BasketTile
v -0.700000 0.000000 0.700000
v -0.700000 -0.000000 -0.800000
v -0.700000 0.100000 0.400000
v -0.700000 0.100000 -0.500000
v -0.700000 0.200000 0.700000
v -0.700000 0.200000 0.400000
v -0.700000 0.200000 -0.500000
v -0.700000 0.200000 -0.800000
v -0.600000 0.200000 0.600000
v -0.600000 0.200000 0.500000
v -0.600000 0.200000 -0.600000
v -0.600000 0.200000 -0.700000
v -0.600000 0.300000 0.600000
v -0.600000 0.300000 0.500000
v -0.600000 0.300000 -0.600000
v -0.600000 0.300000 -0.700000
v -0.300000 0.200000 0.600000
v -0.300000 0.200000 0.500000
v -0.300000 0.200000 -0.600000
v -0.300000 0.200000 -0.700000
v -0.300000 0.300000 0.600000
v -0.300000 0.300000 0.500000
v -0.300000 0.300000 -0.600000
v -0.300000 0.300000 -0.700000
v 0.000000 0.200000 0.600000
v 0.000000 0.200000 0.500000
v 0.000000 0.200000 -0.600000
v 0.000000 0.200000 -0.700000
v 0.000000 0.300000 0.600000
v 0.000000 0.300000 0.500000
v 0.000000 0.300000 -0.600000
v 0.000000 0.300000 -0.700000
v 0.300000 0.200000 0.600000
v 0.300000 0.200000 0.500000
v 0.300000 0.200000 -0.600000
v 0.300000 0.200000 -0.700000
v 0.300000 0.300000 0.600000
v 0.300000 0.300000 0.500000
v 0.300000 0.300000 -0.600000
v 0.300000 0.300000 -0.700000
v 0.600000 0.200000 0.600000
v 0.600000 0.200000 0.500000
v 0.600000 0.200000 -0.600000
v 0.600000 0.200000 -0.700000
v 0.600000 0.300000 0.600000
v 0.600000 0.300000 0.500000
v 0.600000 0.300000 -0.600000
v 0.600000 0.300000 -0.700000
v -0.500000 0.200000 0.600000
v -0.500000 0.200000 0.500000
v -0.500000 0.200000 -0.600000
v -0.500000 0.200000 -0.700000
v -0.500000 0.300000 0.600000
v -0.500000 0.300000 0.500000
v -0.500000 0.300000 -0.600000
v -0.500000 0.300000 -0.700000
v -0.200000 0.200000 0.600000
v -0.200000 0.200000 0.500000
v -0.200000 0.200000 -0.600000
v -0.200000 0.200000 -0.700000
v -0.200000 0.300000 0.600000
v -0.200000 0.300000 0.500000
v -0.200000 0.300000 -0.600000
v -0.200000 0.300000 -0.700000
v 0.100000 0.200000 0.600000
v 0.100000 0.200000 0.500000
v 0.100000 0.200000 -0.600000
v 0.100000 0.200000 -0.700000
v 0.100000 0.300000 0.600000
v 0.100000 0.300000 0.500000
v 0.100000 0.300000 -0.600000
v 0.100000 0.300000 -0.700000
v 0.400000 0.200000 0.600000
v 0.400000 0.200000 0.500000
v 0.400000 0.200000 -0.600000
v 0.400000 0.200000 -0.700000
v 0.400000 0.300000 0.600000
v 0.400000 0.300000 0.500000
v 0.400000 0.300000 -0.600000
v 0.400000 0.300000 -0.700000
v 0.700000 0.200000 0.600000
v 0.700000 0.200000 0.500000
v 0.700000 0.200000 -0.600000
v 0.700000 0.200000 -0.700000
v 0.700000 0.300000 0.600000
v 0.700000 0.300000 0.500000
v 0.700000 0.300000 -0.600000
v 0.700000 0.300000 -0.700000
v 0.800000 0.000000 0.700000
v 0.800000 -0.000000 -0.800000
v 0.800000 0.100000 0.400000
v 0.800000 0.100000 -0.500000
v 0.800000 0.200000 0.700000
v 0.800000 0.200000 0.400000
v 0.800000 0.200000 -0.500000
v 0.800000 0.200000 -0.800000
v -0.700000 0.000000 0.700000
v -0.700000 0.200000 0.700000
v 0.800000 0.000000 0.700000
v 0.800000 0.200000 0.700000
v -0.600000 0.200000 0.600000
v -0.600000 0.300000 0.600000
v -0.500000 0.200000 0.600000
v -0.500000 0.300000 0.600000
v -0.300000 0.200000 0.600000
v -0.300000 0.300000 0.600000
v -0.200000 0.200000 0.600000
v -0.200000 0.300000 0.600000
v 0.000000 0.200000 0.600000
v 0.000000 0.300000 0.600000
v 0.100000 0.200000 0.600000
v 0.100000 0.300000 0.600000
v 0.300000 0.200000 0.600000
v 0.300000 0.300000 0.600000
v 0.400000 0.200000 0.600000
v 0.400000 0.300000 0.600000
v 0.600000 0.200000 0.600000
v 0.600000 0.300000 0.600000
v 0.700000 0.200000 0.600000
v 0.700000 0.300000 0.600000
v -0.600000 0.200000 -0.600000
v -0.600000 0.300000 -0.600000
v -0.500000 0.200000 -0.600000
v -0.500000 0.300000 -0.600000
v -0.300000 0.200000 -0.600000
v -0.300000 0.300000 -0.600000
v -0.200000 0.200000 -0.600000
v -0.200000 0.300000 -0.600000
v 0.000000 0.200000 -0.600000
v 0.000000 0.300000 -0.600000
v 0.100000 0.200000 -0.600000
v 0.100000 0.300000 -0.600000
v 0.300000 0.200000 -0.600000
v 0.300000 0.300000 -0.600000
v 0.400000 0.200000 -0.600000
v 0.400000 0.300000 -0.600000
v 0.600000 0.200000 -0.600000
v 0.600000 0.300000 -0.600000
v 0.700000 0.200000 -0.600000
v 0.700000 0.300000 -0.600000
v -0.600000 0.200000 0.500000
v -0.600000 0.300000 0.500000
v -0.500000 0.200000 0.500000
v -0.500000 0.300000 0.500000
v -0.300000 0.200000 0.500000
v -0.300000 0.300000 0.500000
v -0.200000 0.200000 0.500000
v -0.200000 0.300000 0.500000
v 0.000000 0.200000 0.500000
v 0.000000 0.300000 0.500000
v 0.100000 0.200000 0.500000
v 0.100000 0.300000 0.500000
v 0.300000 0.200000 0.500000
v 0.300000 0.300000 0.500000
v 0.400000 0.200000 0.500000
v 0.400000 0.300000 0.500000
v 0.600000 0.200000 0.500000
v 0.600000 0.300000 0.500000
v 0.700000 0.200000 0.500000
v 0.700000 0.300000 0.500000
v -0.600000 0.200000 -0.700000
v -0.600000 0.300000 -0.700000
v -0.500000 0.200000 -0.700000
v -0.500000 0.300000 -0.700000
v -0.300000 0.200000 -0.700000
v -0.300000 0.300000 -0.700000
v -0.200000 0.200000 -0.700000
v -0.200000 0.300000 -0.700000
v 0.000000 0.200000 -0.700000
v 0.000000 0.300000 -0.700000
v 0.100000 0.200000 -0.700000
v 0.100000 0.300000 -0.700000
v 0.300000 0.200000 -0.700000
v 0.300000 0.300000 -0.700000
v 0.400000 0.200000 -0.700000
v 0.400000 0.300000 -0.700000
v 0.600000 0.200000 -0.700000
v 0.600000 0.300000 -0.700000
v 0.700000 0.200000 -0.700000
v 0.700000 0.300000 -0.700000
v -0.700000 -0.000000 -0.800000
v -0.700000 0.200000 -0.800000
v 0.800000 -0.000000 -0.800000
v 0.800000 0.200000 -0.800000
v -0.700000 0.000000 0.700000
v 0.800000 0.000000 0.700000
v -0.700000 -0.000000 -0.800000
v 0.800000 -0.000000 -0.800000
v -0.700000 0.200000 0.700000
v 0.800000 0.200000 0.700000
v -0.600000 0.200000 0.600000
v -0.500000 0.200000 0.600000
v -0.300000 0.200000 0.600000
v -0.200000 0.200000 0.600000
v 0.000000 0.200000 0.600000
v 0.100000 0.200000 0.600000
v 0.300000 0.200000 0.600000
v 0.400000 0.200000 0.600000
v 0.600000 0.200000 0.600000
v 0.700000 0.200000 0.600000
v -0.600000 0.200000 0.500000
v -0.500000 0.200000 0.500000
v -0.300000 0.200000 0.500000
v -0.200000 0.200000 0.500000
v 0.000000 0.200000 0.500000
v 0.100000 0.200000 0.500000
v 0.300000 0.200000 0.500000
v 0.400000 0.200000 0.500000
v 0.600000 0.200000 0.500000
v 0.700000 0.200000 0.500000
v -0.700000 0.200000 0.400000
v 0.800000 0.200000 0.400000
v -0.600000 0.200000 0.300000
v 0.000000 0.200000 0.300000
v 0.100000 0.200000 0.300000
v 0.700000 0.200000 0.300000
v -0.600000 0.200000 0.200000
v -0.400000 0.200000 0.200000
v 0.500000 0.200000 0.200000
v 0.700000 0.200000 0.200000
v -0.600000 0.200000 0.100000
v -0.400000 0.200000 0.100000
v -0.300000 0.200000 0.100000
v -0.100000 0.200000 0.100000
v 0.000000 0.200000 0.100000
v 0.100000 0.200000 0.100000
v 0.200000 0.200000 0.100000
v 0.400000 0.200000 0.100000
v 0.500000 0.200000 0.100000
v 0.700000 0.200000 0.100000
v 0.000000 0.200000 -0.000000
v 0.100000 0.200000 -0.000000
v 0.000000 0.200000 -0.100000
v 0.100000 0.200000 -0.100000
v -0.600000 0.200000 -0.200000
v -0.400000 0.200000 -0.200000
v -0.300000 0.200000 -0.200000
v -0.100000 0.200000 -0.200000
v 0.000000 0.200000 -0.200000
v 0.100000 0.200000 -0.200000
v 0.200000 0.200000 -0.200000
v 0.400000 0.200000 -0.200000
v 0.500000 0.200000 -0.200000
v 0.700000 0.200000 -0.200000
v -0.600000 0.200000 -0.300000
v -0.400000 0.200000 -0.300000
v 0.500000 0.200000 -0.300000
v 0.700000 0.200000 -0.300000
v -0.600000 0.200000 -0.400000
v 0.000000 0.200000 -0.400000
v 0.100000 0.200000 -0.400000
v 0.700000 0.200000 -0.400000
v -0.700000 0.200000 -0.500000
v 0.800000 0.200000 -0.500000
v -0.600000 0.200000 -0.600000
v -0.500000 0.200000 -0.600000
v -0.300000 0.200000 -0.600000
v -0.200000 0.200000 -0.600000
v 0.000000 0.200000 -0.600000
v 0.100000 0.200000 -0.600000
v 0.300000 0.200000 -0.600000
v 0.400000 0.200000 -0.600000
v 0.600000 0.200000 -0.600000
v 0.700000 0.200000 -0.600000
v -0.600000 0.200000 -0.700000
v -0.500000 0.200000 -0.700000
v -0.300000 0.200000 -0.700000
v -0.200000 0.200000 -0.700000
v 0.000000 0.200000 -0.700000
v 0.100000 0.200000 -0.700000
v 0.300000 0.200000 -0.700000
v 0.400000 0.200000 -0.700000
v 0.600000 0.200000 -0.700000
v 0.700000 0.200000 -0.700000
v -0.700000 0.200000 -0.800000
v 0.800000 0.200000 -0.800000
v -0.600000 0.300000 0.600000
v -0.500000 0.300000 0.600000
v -0.300000 0.300000 0.600000
v -0.200000 0.300000 0.600000
v 0.000000 0.300000 0.600000
v 0.100000 0.300000 0.600000
v 0.300000 0.300000 0.600000
v 0.400000 0.300000 0.600000
v 0.600000 0.300000 0.600000
v 0.700000 0.300000 0.600000
v -0.600000 0.300000 0.500000
v -0.500000 0.300000 0.500000
v -0.300000 0.300000 0.500000
v -0.200000 0.300000 0.500000
v 0.000000 0.300000 0.500000
v 0.100000 0.300000 0.500000
v 0.300000 0.300000 0.500000
v 0.400000 0.300000 0.500000
v 0.600000 0.300000 0.500000
v 0.700000 0.300000 0.500000
v -0.600000 0.300000 -0.600000
v -0.500000 0.300000 -0.600000
v -0.300000 0.300000 -0.600000
v -0.200000 0.300000 -0.600000
v 0.000000 0.300000 -0.600000
v 0.100000 0.300000 -0.600000
v 0.300000 0.300000 -0.600000
v 0.400000 0.300000 -0.600000
v 0.600000 0.300000 -0.600000
v 0.700000 0.300000 -0.600000
v -0.600000 0.300000 -0.700000
v -0.500000 0.300000 -0.700000
v -0.300000 0.300000 -0.700000
v -0.200000 0.300000 -0.700000
v 0.000000 0.300000 -0.700000
v 0.100000 0.300000 -0.700000
v 0.300000 0.300000 -0.700000
v 0.400000 0.300000 -0.700000
v 0.600000 0.300000 -0.700000
v 0.700000 0.300000 -0.700000
vn -1.0000 -0.0000 -0.0000
vn 1.0000 -0.0000 -0.0000
vn -0.0000 -0.0000 1.0000
vn -0.0000 -0.0000 -1.0000
vn -0.0000 -1.0000 -0.0000
vn -0.0000 1.0000 -0.0000
vt 0.939453 0.500000
vt 0.783203 0.500000
vt 0.794922 0.500000
vt 0.751953 0.500000
s 1
usemtl palette
f 3/1/1 2/1/1 1/1/1
f 4/1/1 2/1/1 3/1/1
f 5/1/1 3/1/1 1/1/1
f 6/2/1 4/2/1 3/2/1
f 6/1/1 3/1/1 5/1/1
f 7/1/1 2/1/1 4/1/1
f 7/2/1 4/2/1 6/2/1
f 8/1/1 2/1/1 7/1/1
f 13/3/1 10/3/1 9/3/1
f 14/3/1 10/3/1 13/3/1
f 15/3/1 12/3/1 11/3/1
f 16/3/1 12/3/1 15/3/1
f 21/3/1 18/3/1 17/3/1
f 22/3/1 18/3/1 21/3/1
f 23/3/1 20/3/1 19/3/1
f 24/3/1 20/3/1 23/3/1
f 29/3/1 26/3/1 25/3/1
f 30/3/1 26/3/1 29/3/1
f 31/3/1 28/3/1 27/3/1
f 32/3/1 28/3/1 31/3/1
f 37/3/1 34/3/1 33/3/1
f 38/3/1 34/3/1 37/3/1
f 39/3/1 36/3/1 35/3/1
f 40/3/1 36/3/1 39/3/1
f 45/3/1 42/3/1 41/3/1
f 46/3/1 42/3/1 45/3/1
f 47/3/1 44/3/1 43/3/1
f 48/3/1 44/3/1 47/3/1
f 49/3/2 50/3/2 53/3/2
f 53/3/2 50/3/2 54/3/2
f 51/3/2 52/3/2 55/3/2
f 55/3/2 52/3/2 56/3/2
f 57/3/2 58/3/2 61/3/2
f 61/3/2 58/3/2 62/3/2
f 59/3/2 60/3/2 63/3/2
f 63/3/2 60/3/2 64/3/2
f 65/3/2 66/3/2 69/3/2
f 69/3/2 66/3/2 70/3/2
f 67/3/2 68/3/2 71/3/2
f 71/3/2 68/3/2 72/3/2
f 73/3/2 74/3/2 77/3/2
f 77/3/2 74/3/2 78/3/2
f 75/3/2 76/3/2 79/3/2
f 79/3/2 76/3/2 80/3/2
f 81/3/2 82/3/2 85/3/2
f 85/3/2 82/3/2 86/3/2
f 83/3/2 84/3/2 87/3/2
f 87/3/2 84/3/2 88/3/2
f 89/1/2 90/1/2 91/1/2
f 91/1/2 90/1/2 92/1/2
f 89/1/2 91/1/2 93/1/2
f 91/2/2 92/2/2 94/2/2
f 93/1/2 91/1/2 94/1/2
f 92/1/2 90/1/2 95/1/2
f 94/2/2 92/2/2 95/2/2
f 95/1/2 90/1/2 96/1/2
f 99/1/3 98/1/3 97/1/3
f 100/1/3 98/1/3 99/1/3
f 103/3/3 102/3/3 101/3/3
f 104/3/3 102/3/3 103/3/3
f 107/3/3 106/3/3 105/3/3
f 108/3/3 106/3/3 107/3/3
f 111/3/3 110/3/3 109/3/3
f 112/3/3 110/3/3 111/3/3
f 115/3/3 114/3/3 113/3/3
f 116/3/3 114/3/3 115/3/3
f 119/3/3 118/3/3 117/3/3
f 120/3/3 118/3/3 119/3/3
f 123/3/3 122/3/3 121/3/3
f 124/3/3 122/3/3 123/3/3
f 127/3/3 126/3/3 125/3/3
f 128/3/3 126/3/3 127/3/3
f 131/3/3 130/3/3 129/3/3
f 132/3/3 130/3/3 131/3/3
f 135/3/3 134/3/3 133/3/3
f 136/3/3 134/3/3 135/3/3
f 139/3/3 138/3/3 137/3/3
f 140/3/3 138/3/3 139/3/3
f 141/3/4 142/3/4 143/3/4
f 143/3/4 142/3/4 144/3/4
f 145/3/4 146/3/4 147/3/4
f 147/3/4 146/3/4 148/3/4
f 149/3/4 150/3/4 151/3/4
f 151/3/4 150/3/4 152/3/4
f 153/3/4 154/3/4 155/3/4
f 155/3/4 154/3/4 156/3/4
f 157/3/4 158/3/4 159/3/4
f 159/3/4 158/3/4 160/3/4
f 161/3/4 162/3/4 163/3/4
f 163/3/4 162/3/4 164/3/4
f 165/3/4 166/3/4 167/3/4
f 167/3/4 166/3/4 168/3/4
f 169/3/4 170/3/4 171/3/4
f 171/3/4 170/3/4 172/3/4
f 173/3/4 174/3/4 175/3/4
f 175/3/4 174/3/4 176/3/4
f 177/3/4 178/3/4 179/3/4
f 179/3/4 178/3/4 180/3/4
f 181/1/4 182/1/4 183/1/4
f 183/1/4 182/1/4 184/1/4
f 187/1/5 186/1/5 185/1/5
f 188/1/5 186/1/5 187/1/5
f 189/1/6 190/1/6 191/1/6
f 191/1/6 190/1/6 192/1/6
f 192/1/6 190/1/6 193/1/6
f 193/1/6 190/1/6 194/1/6
f 194/1/6 190/1/6 195/1/6
f 195/1/6 190/1/6 196/1/6
f 196/1/6 190/1/6 197/1/6
f 197/1/6 190/1/6 198/1/6
f 198/1/6 190/1/6 199/1/6
f 199/1/6 190/1/6 200/1/6
f 189/1/6 191/1/6 201/1/6
f 192/1/6 193/1/6 202/1/6
f 202/1/6 193/1/6 203/1/6
f 194/1/6 195/1/6 204/1/6
f 204/1/6 195/1/6 205/1/6
f 196/1/6 197/1/6 206/1/6
f 206/1/6 197/1/6 207/1/6
f 198/1/6 199/1/6 208/1/6
f 208/1/6 199/1/6 209/1/6
f 200/1/6 190/1/6 210/1/6
f 208/1/6 209/1/6 211/1/6
f 209/1/6 210/1/6 211/1/6
f 206/1/6 207/1/6 211/1/6
f 189/1/6 201/1/6 211/1/6
f 207/1/6 208/1/6 211/1/6
f 204/1/6 205/1/6 211/1/6
f 205/1/6 206/1/6 211/1/6
f 202/1/6 203/1/6 211/1/6
f 203/1/6 204/1/6 211/1/6
f 201/1/6 202/1/6 211/1/6
f 210/1/6 190/1/6 212/1/6
f 211/1/6 210/1/6 212/1/6
f 211/2/6 212/2/6 213/2/6
f 213/2/6 212/2/6 214/2/6
f 214/2/6 212/2/6 215/2/6
f 215/2/6 212/2/6 216/2/6
f 211/2/6 213/2/6 217/2/6
f 213/4/6 214/4/6 217/4/6
f 217/4/6 214/4/6 218/4/6
f 215/4/6 216/4/6 219/4/6
f 216/2/6 212/2/6 220/2/6
f 219/4/6 216/4/6 220/4/6
f 211/2/6 217/2/6 221/2/6
f 217/2/6 218/2/6 221/2/6
f 218/4/6 214/4/6 222/4/6
f 221/2/6 218/2/6 222/2/6
f 222/4/6 214/4/6 223/4/6
f 223/4/6 214/4/6 224/4/6
f 214/2/6 215/2/6 225/2/6
f 224/4/6 214/4/6 225/4/6
f 215/4/6 219/4/6 226/4/6
f 225/2/6 215/2/6 226/2/6
f 226/4/6 219/4/6 227/4/6
f 227/4/6 219/4/6 228/4/6
f 219/2/6 220/2/6 229/2/6
f 228/4/6 219/4/6 229/4/6
f 220/2/6 212/2/6 230/2/6
f 229/2/6 220/2/6 230/2/6
f 224/2/6 225/2/6 231/2/6
f 225/2/6 226/2/6 231/2/6
f 226/2/6 227/2/6 231/2/6
f 231/2/6 227/2/6 232/2/6
f 224/2/6 231/2/6 233/2/6
f 231/4/6 232/4/6 233/4/6
f 232/2/6 227/2/6 234/2/6
f 233/4/6 232/4/6 234/4/6
f 211/2/6 221/2/6 235/2/6
f 221/4/6 222/4/6 235/4/6
f 222/2/6 223/2/6 236/2/6
f 235/4/6 222/4/6 236/4/6
f 223/4/6 224/4/6 237/4/6
f 236/2/6 223/2/6 237/2/6
f 233/2/6 234/2/6 238/2/6
f 237/4/6 224/4/6 238/4/6
f 224/2/6 233/2/6 238/2/6
f 238/2/6 234/2/6 239/2/6
f 234/2/6 227/2/6 240/2/6
f 239/2/6 234/2/6 240/2/6
f 227/4/6 228/4/6 241/4/6
f 240/2/6 227/2/6 241/2/6
f 228/2/6 229/2/6 242/2/6
f 241/4/6 228/4/6 242/4/6
f 229/4/6 230/4/6 243/4/6
f 242/2/6 229/2/6 243/2/6
f 230/2/6 212/2/6 244/2/6
f 243/4/6 230/4/6 244/4/6
f 235/2/6 236/2/6 245/2/6
f 211/2/6 235/2/6 245/2/6
f 238/4/6 239/4/6 246/4/6
f 245/2/6 236/2/6 246/2/6
f 236/4/6 237/4/6 246/4/6
f 237/4/6 238/4/6 246/4/6
f 242/4/6 243/4/6 247/4/6
f 240/4/6 241/4/6 247/4/6
f 241/4/6 242/4/6 247/4/6
f 243/2/6 244/2/6 247/2/6
f 244/2/6 212/2/6 248/2/6
f 247/2/6 244/2/6 248/2/6
f 211/2/6 245/2/6 249/2/6
f 245/4/6 246/4/6 249/4/6
f 246/4/6 239/4/6 250/4/6
f 249/4/6 246/4/6 250/4/6
f 239/2/6 240/2/6 250/2/6
f 240/4/6 247/4/6 251/4/6
f 250/2/6 240/2/6 251/2/6
f 247/4/6 248/4/6 251/4/6
f 248/2/6 212/2/6 252/2/6
f 251/4/6 248/4/6 252/4/6
f 211/2/6 249/2/6 253/2/6
f 250/2/6 251/2/6 253/2/6
f 251/2/6 252/2/6 253/2/6
f 249/2/6 250/2/6 253/2/6
f 252/2/6 212/2/6 254/2/6
f 253/2/6 252/2/6 254/2/6
f 253/1/6 254/1/6 255/1/6
f 255/1/6 254/1/6 256/1/6
f 256/1/6 254/1/6 257/1/6
f 257/1/6 254/1/6 258/1/6
f 258/1/6 254/1/6 259/1/6
f 259/1/6 254/1/6 260/1/6
f 260/1/6 254/1/6 261/1/6
f 261/1/6 254/1/6 262/1/6
f 262/1/6 254/1/6 263/1/6
f 263/1/6 254/1/6 264/1/6
f 253/1/6 255/1/6 265/1/6
f 256/1/6 257/1/6 266/1/6
f 266/1/6 257/1/6 267/1/6
f 258/1/6 259/1/6 268/1/6
f 268/1/6 259/1/6 269/1/6
f 260/1/6 261/1/6 270/1/6
f 270/1/6 261/1/6 271/1/6
f 262/1/6 263/1/6 272/1/6
f 272/1/6 263/1/6 273/1/6
f 264/1/6 254/1/6 274/1/6
f 272/1/6 273/1/6 275/1/6
f 273/1/6 274/1/6 275/1/6
f 270/1/6 271/1/6 275/1/6
f 253/1/6 265/1/6 275/1/6
f 271/1/6 272/1/6 275/1/6
f 268/1/6 269/1/6 275/1/6
f 269/1/6 270/1/6 275/1/6
f 266/1/6 267/1/6 275/1/6
f 267/1/6 268/1/6 275/1/6
f 265/1/6 266/1/6 275/1/6
f 274/1/6 254/1/6 276/1/6
f 275/1/6 274/1/6 276/1/6
f 277/3/6 278/3/6 287/3/6
f 287/3/6 278/3/6 288/3/6
f 279/3/6 280/3/6 289/3/6
f 289/3/6 280/3/6 290/3/6
f 281/3/6 282/3/6 291/3/6
f 291/3/6 282/3/6 292/3/6
f 283/3/6 284/3/6 293/3/6
f 293/3/6 284/3/6 294/3/6
f 285/3/6 286/3/6 295/3/6
f 295/3/6 286/3/6 296/3/6
f 297/3/6 298/3/6 307/3/6
f 307/3/6 298/3/6 308/3/6
f 299/3/6 300/3/6 309/3/6
f 309/3/6 300/3/6 310/3/6
f 301/3/6 302/3/6 311/3/6
f 311/3/6 302/3/6 312/3/6
f 303/3/6 304/3/6 313/3/6
f 313/3/6 304/3/6 314/3/6
f 305/3/6 306/3/6 315/3/6
f 315/3/6 306/3/6 316/3/6
