# Blender 4.3.2
# www.blender.org
mtllib Building01.mtl
o Building01
v -0.700000 0.000000 0.700000
v -0.700000 -0.000000 -0.800000
v -0.700000 0.200000 0.700000
v -0.700000 0.200000 -0.800000
v -0.600000 0.200000 0.600000
v -0.600000 0.200000 -0.700000
v -0.600000 0.400000 0.500000
v -0.600000 0.400000 0.400000
v -0.600000 0.400000 0.300000
v -0.600000 0.400000 0.200000
v -0.600000 0.400000 0.100000
v -0.600000 0.400000 -0.000000
v -0.600000 0.400000 -0.100000
v -0.600000 0.400000 -0.200000
v -0.600000 0.400000 -0.300000
v -0.600000 0.400000 -0.400000
v -0.600000 0.400000 -0.500000
v -0.600000 0.400000 -0.600000
v -0.600000 0.600000 0.500000
v -0.600000 0.600000 0.400000
v -0.600000 0.600000 0.300000
v -0.600000 0.600000 0.200000
v -0.600000 0.600000 0.100000
v -0.600000 0.600000 -0.000000
v -0.600000 0.600000 -0.100000
v -0.600000 0.600000 -0.200000
v -0.600000 0.600000 -0.300000
v -0.600000 0.600000 -0.400000
v -0.600000 0.600000 -0.500000
v -0.600000 0.600000 -0.600000
v -0.600000 0.700000 0.500000
v -0.600000 0.700000 0.400000
v -0.600000 0.700000 0.300000
v -0.600000 0.700000 0.200000
v -0.600000 0.700000 0.100000
v -0.600000 0.700000 -0.000000
v -0.600000 0.700000 -0.100000
v -0.600000 0.700000 -0.200000
v -0.600000 0.700000 -0.300000
v -0.600000 0.700000 -0.400000
v -0.600000 0.700000 -0.500000
v -0.600000 0.700000 -0.600000
v -0.600000 0.900000 0.500000
v -0.600000 0.900000 0.400000
v -0.600000 0.900000 0.300000
v -0.600000 0.900000 0.200000
v -0.600000 0.900000 0.100000
v -0.600000 0.900000 -0.000000
v -0.600000 0.900000 -0.100000
v -0.600000 0.900000 -0.200000
v -0.600000 0.900000 -0.300000
v -0.600000 0.900000 -0.400000
v -0.600000 0.900000 -0.500000
v -0.600000 0.900000 -0.600000
v -0.600000 1.000000 0.600000
v -0.600000 1.000000 -0.700000
v -0.200000 0.900000 0.500000
v -0.200000 0.900000 -0.600000
v -0.200000 1.000000 0.500000
v -0.200000 1.000000 -0.600000
v 0.200000 0.200000 0.600000
v 0.200000 0.200000 -0.000000
v 0.200000 0.200000 -0.100000
v 0.200000 0.200000 -0.700000
v 0.200000 0.300000 0.500000
v 0.200000 0.300000 0.400000
v 0.200000 0.300000 0.300000
v 0.200000 0.300000 0.200000
v 0.200000 0.300000 -0.300000
v 0.200000 0.300000 -0.400000
v 0.200000 0.300000 -0.500000
v 0.200000 0.300000 -0.600000
v 0.200000 0.400000 -0.000000
v 0.200000 0.400000 -0.100000
v 0.200000 0.500000 0.500000
v 0.200000 0.500000 0.400000
v 0.200000 0.500000 0.300000
v 0.200000 0.500000 0.200000
v 0.200000 0.500000 -0.300000
v 0.200000 0.500000 -0.400000
v 0.200000 0.500000 -0.500000
v 0.200000 0.500000 -0.600000
v 0.200000 0.600000 0.500000
v 0.200000 0.600000 0.400000
v 0.200000 0.600000 0.300000
v 0.200000 0.600000 0.200000
v 0.200000 0.600000 0.100000
v 0.200000 0.600000 -0.000000
v 0.200000 0.600000 -0.100000
v 0.200000 0.600000 -0.200000
v 0.200000 0.600000 -0.300000
v 0.200000 0.600000 -0.400000
v 0.200000 0.600000 -0.500000
v 0.200000 0.600000 -0.600000
v 0.200000 0.800000 0.500000
v 0.200000 0.800000 0.400000
v 0.200000 0.800000 0.300000
v 0.200000 0.800000 0.200000
v 0.200000 0.800000 0.100000
v 0.200000 0.800000 -0.000000
v 0.200000 0.800000 -0.100000
v 0.200000 0.800000 -0.200000
v 0.200000 0.800000 -0.300000
v 0.200000 0.800000 -0.400000
v 0.200000 0.800000 -0.500000
v 0.200000 0.800000 -0.600000
v 0.200000 1.000000 0.600000
v 0.200000 1.000000 -0.700000
v 0.600000 0.900000 0.500000
v 0.600000 0.900000 -0.600000
v 0.600000 1.000000 0.500000
v 0.600000 1.000000 -0.600000
v -0.500000 0.900000 0.500000
v -0.500000 0.900000 -0.600000
v -0.500000 1.000000 0.500000
v -0.500000 1.000000 -0.600000
v -0.100000 0.200000 0.600000
v -0.100000 0.200000 -0.000000
v -0.100000 0.200000 -0.100000
v -0.100000 0.200000 -0.700000
v -0.100000 0.300000 0.500000
v -0.100000 0.300000 0.400000
v -0.100000 0.300000 0.300000
v -0.100000 0.300000 0.200000
v -0.100000 0.300000 -0.300000
v -0.100000 0.300000 -0.400000
v -0.100000 0.300000 -0.500000
v -0.100000 0.300000 -0.600000
v -0.100000 0.400000 -0.000000
v -0.100000 0.400000 -0.100000
v -0.100000 0.500000 0.500000
v -0.100000 0.500000 0.400000
v -0.100000 0.500000 0.300000
v -0.100000 0.500000 0.200000
v -0.100000 0.500000 -0.300000
v -0.100000 0.500000 -0.400000
v -0.100000 0.500000 -0.500000
v -0.100000 0.500000 -0.600000
v -0.100000 0.600000 0.500000
v -0.100000 0.600000 0.400000
v -0.100000 0.600000 0.300000
v -0.100000 0.600000 0.200000
v -0.100000 0.600000 0.100000
v -0.100000 0.600000 -0.000000
v -0.100000 0.600000 -0.100000
v -0.100000 0.600000 -0.200000
v -0.100000 0.600000 -0.300000
v -0.100000 0.600000 -0.400000
v -0.100000 0.600000 -0.500000
v -0.100000 0.600000 -0.600000
v -0.100000 0.800000 0.500000
v -0.100000 0.800000 0.400000
v -0.100000 0.800000 0.300000
v -0.100000 0.800000 0.200000
v -0.100000 0.800000 0.100000
v -0.100000 0.800000 -0.000000
v -0.100000 0.800000 -0.100000
v -0.100000 0.800000 -0.200000
v -0.100000 0.800000 -0.300000
v -0.100000 0.800000 -0.400000
v -0.100000 0.800000 -0.500000
v -0.100000 0.800000 -0.600000
v -0.100000 1.000000 0.600000
v -0.100000 1.000000 -0.700000
v 0.300000 0.900000 0.500000
v 0.300000 0.900000 -0.600000
v 0.300000 1.000000 0.500000
v 0.300000 1.000000 -0.600000
v 0.700000 0.200000 0.600000
v 0.700000 0.200000 -0.700000
v 0.700000 0.400000 0.500000
v 0.700000 0.400000 0.400000
v 0.700000 0.400000 0.300000
v 0.700000 0.400000 0.200000
v 0.700000 0.400000 0.100000
v 0.700000 0.400000 -0.000000
v 0.700000 0.400000 -0.100000
v 0.700000 0.400000 -0.200000
v 0.700000 0.400000 -0.300000
v 0.700000 0.400000 -0.400000
v 0.700000 0.400000 -0.500000
v 0.700000 0.400000 -0.600000
v 0.700000 0.600000 0.500000
v 0.700000 0.600000 0.400000
v 0.700000 0.600000 0.300000
v 0.700000 0.600000 0.200000
v 0.700000 0.600000 0.100000
v 0.700000 0.600000 -0.000000
v 0.700000 0.600000 -0.100000
v 0.700000 0.600000 -0.200000
v 0.700000 0.600000 -0.300000
v 0.700000 0.600000 -0.400000
v 0.700000 0.600000 -0.500000
v 0.700000 0.600000 -0.600000
v 0.700000 0.700000 0.500000
v 0.700000 0.700000 0.400000
v 0.700000 0.700000 0.300000
v 0.700000 0.700000 0.200000
v 0.700000 0.700000 0.100000
v 0.700000 0.700000 -0.000000
v 0.700000 0.700000 -0.100000
v 0.700000 0.700000 -0.200000
v 0.700000 0.700000 -0.300000
v 0.700000 0.700000 -0.400000
v 0.700000 0.700000 -0.500000
v 0.700000 0.700000 -0.600000
v 0.700000 0.900000 0.500000
v 0.700000 0.900000 0.400000
v 0.700000 0.900000 0.300000
v 0.700000 0.900000 0.200000
v 0.700000 0.900000 0.100000
v 0.700000 0.900000 -0.000000
v 0.700000 0.900000 -0.100000
v 0.700000 0.900000 -0.200000
v 0.700000 0.900000 -0.300000
v 0.700000 0.900000 -0.400000
v 0.700000 0.900000 -0.500000
v 0.700000 0.900000 -0.600000
v 0.700000 1.000000 0.600000
v 0.700000 1.000000 -0.700000
v 0.800000 0.000000 0.700000
v 0.800000 -0.000000 -0.800000
v 0.800000 0.200000 0.700000
v 0.800000 0.200000 -0.800000
v -0.700000 0.000000 0.700000
v -0.700000 0.200000 0.700000
v 0.800000 0.000000 0.700000
v 0.800000 0.200000 0.700000
v -0.600000 0.200000 0.600000
v -0.600000 1.000000 0.600000
v -0.500000 0.400000 0.600000
v -0.500000 0.600000 0.600000
v -0.500000 0.700000 0.600000
v -0.500000 0.900000 0.600000
v -0.400000 0.400000 0.600000
v -0.400000 0.600000 0.600000
v -0.400000 0.700000 0.600000
v -0.400000 0.900000 0.600000
v -0.300000 0.400000 0.600000
v -0.300000 0.600000 0.600000
v -0.300000 0.700000 0.600000
v -0.300000 0.900000 0.600000
v -0.200000 0.400000 0.600000
v -0.200000 0.600000 0.600000
v -0.200000 0.700000 0.600000
v -0.200000 0.900000 0.600000
v -0.100000 0.200000 0.600000
v -0.100000 1.000000 0.600000
v 0.200000 0.200000 0.600000
v 0.200000 1.000000 0.600000
v 0.300000 0.400000 0.600000
v 0.300000 0.600000 0.600000
v 0.300000 0.700000 0.600000
v 0.300000 0.900000 0.600000
v 0.400000 0.400000 0.600000
v 0.400000 0.600000 0.600000
v 0.400000 0.700000 0.600000
v 0.400000 0.900000 0.600000
v 0.500000 0.400000 0.600000
v 0.500000 0.600000 0.600000
v 0.500000 0.700000 0.600000
v 0.500000 0.900000 0.600000
v 0.600000 0.400000 0.600000
v 0.600000 0.600000 0.600000
v 0.600000 0.700000 0.600000
v 0.600000 0.900000 0.600000
v 0.700000 0.200000 0.600000
v 0.700000 1.000000 0.600000
v -0.500000 0.900000 -0.600000
v -0.500000 1.000000 -0.600000
v -0.200000 0.900000 -0.600000
v -0.200000 1.000000 -0.600000
v 0.300000 0.900000 -0.600000
v 0.300000 1.000000 -0.600000
v 0.600000 0.900000 -0.600000
v 0.600000 1.000000 -0.600000
v -0.500000 0.900000 0.500000
v -0.500000 1.000000 0.500000
v -0.200000 0.900000 0.500000
v -0.200000 1.000000 0.500000
v 0.300000 0.900000 0.500000
v 0.300000 1.000000 0.500000
v 0.600000 0.900000 0.500000
v 0.600000 1.000000 0.500000
v -0.600000 0.200000 -0.700000
v -0.600000 1.000000 -0.700000
v -0.500000 0.300000 -0.700000
v -0.500000 0.500000 -0.700000
v -0.500000 0.600000 -0.700000
v -0.500000 0.800000 -0.700000
v -0.400000 0.300000 -0.700000
v -0.400000 0.500000 -0.700000
v -0.400000 0.600000 -0.700000
v -0.400000 0.800000 -0.700000
v -0.300000 0.300000 -0.700000
v -0.300000 0.500000 -0.700000
v -0.300000 0.600000 -0.700000
v -0.300000 0.800000 -0.700000
v -0.200000 0.300000 -0.700000
v -0.200000 0.500000 -0.700000
v -0.200000 0.600000 -0.700000
v -0.200000 0.800000 -0.700000
v -0.100000 0.200000 -0.700000
v -0.100000 1.000000 -0.700000
v 0.200000 0.200000 -0.700000
v 0.200000 1.000000 -0.700000
v 0.300000 0.300000 -0.700000
v 0.300000 0.500000 -0.700000
v 0.300000 0.600000 -0.700000
v 0.300000 0.800000 -0.700000
v 0.400000 0.300000 -0.700000
v 0.400000 0.500000 -0.700000
v 0.400000 0.600000 -0.700000
v 0.400000 0.800000 -0.700000
v 0.500000 0.300000 -0.700000
v 0.500000 0.500000 -0.700000
v 0.500000 0.600000 -0.700000
v 0.500000 0.800000 -0.700000
v 0.600000 0.300000 -0.700000
v 0.600000 0.500000 -0.700000
v 0.600000 0.600000 -0.700000
v 0.600000 0.800000 -0.700000
v 0.700000 0.200000 -0.700000
v 0.700000 1.000000 -0.700000
v -0.700000 -0.000000 -0.800000
v -0.700000 0.200000 -0.800000
v 0.800000 -0.000000 -0.800000
v 0.800000 0.200000 -0.800000
v -0.700000 0.000000 0.700000
v 0.800000 0.000000 0.700000
v -0.700000 -0.000000 -0.800000
v 0.800000 -0.000000 -0.800000
v -0.700000 0.200000 0.700000
v 0.800000 0.200000 0.700000
v -0.600000 0.200000 0.600000
v -0.100000 0.200000 0.600000
v 0.200000 0.200000 0.600000
v 0.700000 0.200000 0.600000
v -0.100000 0.200000 -0.000000
v 0.200000 0.200000 -0.000000
v -0.100000 0.200000 -0.100000
v 0.200000 0.200000 -0.100000
v -0.600000 0.200000 -0.700000
v -0.100000 0.200000 -0.700000
v 0.200000 0.200000 -0.700000
v 0.700000 0.200000 -0.700000
v -0.700000 0.200000 -0.800000
v 0.800000 0.200000 -0.800000
v -0.500000 0.900000 0.500000
v -0.200000 0.900000 0.500000
v 0.300000 0.900000 0.500000
v 0.600000 0.900000 0.500000
v -0.500000 0.900000 -0.600000
v -0.200000 0.900000 -0.600000
v 0.300000 0.900000 -0.600000
v 0.600000 0.900000 -0.600000
v -0.600000 1.000000 0.600000
v -0.100000 1.000000 0.600000
v 0.200000 1.000000 0.600000
v 0.700000 1.000000 0.600000
v -0.500000 1.000000 0.500000
v -0.200000 1.000000 0.500000
v 0.300000 1.000000 0.500000
v 0.600000 1.000000 0.500000
v -0.500000 1.000000 -0.600000
v -0.200000 1.000000 -0.600000
v 0.300000 1.000000 -0.600000
v 0.600000 1.000000 -0.600000
v -0.600000 1.000000 -0.700000
v -0.100000 1.000000 -0.700000
v 0.200000 1.000000 -0.700000
v 0.700000 1.000000 -0.700000
vn -1.0000 -0.0000 -0.0000
vn 1.0000 -0.0000 -0.0000
vn -0.0000 -0.0000 1.0000
vn -0.0000 -0.0000 -1.0000
vn -0.0000 -1.0000 -0.0000
vn -0.0000 1.0000 -0.0000
vt 0.939453 0.500000
vt 0.783203 0.500000
vt 0.787109 0.500000
vt 0.791016 0.500000
s 1
usemtl palette
f 3/1/1 2/1/1 1/1/1
f 4/1/1 2/1/1 3/1/1
f 7/2/1 6/2/1 5/2/1
f 8/2/1 6/2/1 7/2/1
f 9/2/1 6/2/1 8/2/1
f 10/2/1 6/2/1 9/2/1
f 11/2/1 6/2/1 10/2/1
f 12/2/1 6/2/1 11/2/1
f 13/2/1 6/2/1 12/2/1
f 14/2/1 6/2/1 13/2/1
f 15/2/1 6/2/1 14/2/1
f 16/2/1 6/2/1 15/2/1
f 17/2/1 6/2/1 16/2/1
f 18/2/1 6/2/1 17/2/1
f 19/2/1 7/2/1 5/2/1
f 19/3/1 8/3/1 7/3/1
f 20/2/1 9/2/1 8/2/1
f 20/3/1 8/3/1 19/3/1
f 21/3/1 10/3/1 9/3/1
f 21/2/1 9/2/1 20/2/1
f 22/2/1 11/2/1 10/2/1
f 22/3/1 10/3/1 21/3/1
f 23/3/1 12/3/1 11/3/1
f 23/2/1 11/2/1 22/2/1
f 24/2/1 13/2/1 12/2/1
f 24/3/1 12/3/1 23/3/1
f 25/3/1 14/3/1 13/3/1
f 25/2/1 13/2/1 24/2/1
f 26/2/1 15/2/1 14/2/1
f 26/3/1 14/3/1 25/3/1
f 27/3/1 16/3/1 15/3/1
f 27/2/1 15/2/1 26/2/1
f 28/2/1 17/2/1 16/2/1
f 28/3/1 16/3/1 27/3/1
f 29/3/1 18/3/1 17/3/1
f 29/2/1 17/2/1 28/2/1
f 30/2/1 6/2/1 18/2/1
f 30/3/1 18/3/1 29/3/1
f 31/2/1 29/2/1 28/2/1
f 31/2/1 28/2/1 27/2/1
f 31/2/1 30/2/1 29/2/1
f 31/2/1 27/2/1 26/2/1
f 31/2/1 26/2/1 25/2/1
f 31/2/1 25/2/1 24/2/1
f 31/2/1 24/2/1 23/2/1
f 31/2/1 23/2/1 22/2/1
f 31/2/1 22/2/1 21/2/1
f 31/2/1 21/2/1 20/2/1
f 31/2/1 20/2/1 19/2/1
f 31/2/1 19/2/1 5/2/1
f 32/2/1 30/2/1 31/2/1
f 33/2/1 30/2/1 32/2/1
f 34/2/1 30/2/1 33/2/1
f 35/2/1 30/2/1 34/2/1
f 36/2/1 30/2/1 35/2/1
f 37/2/1 30/2/1 36/2/1
f 38/2/1 30/2/1 37/2/1
f 39/2/1 30/2/1 38/2/1
f 40/2/1 30/2/1 39/2/1
f 41/2/1 30/2/1 40/2/1
f 42/2/1 6/2/1 30/2/1
f 42/2/1 30/2/1 41/2/1
f 43/2/1 31/2/1 5/2/1
f 43/3/1 32/3/1 31/3/1
f 44/2/1 33/2/1 32/2/1
f 44/3/1 32/3/1 43/3/1
f 45/3/1 34/3/1 33/3/1
f 45/2/1 33/2/1 44/2/1
f 46/2/1 35/2/1 34/2/1
f 46/3/1 34/3/1 45/3/1
f 47/3/1 36/3/1 35/3/1
f 47/2/1 35/2/1 46/2/1
f 48/2/1 37/2/1 36/2/1
f 48/3/1 36/3/1 47/3/1
f 49/3/1 38/3/1 37/3/1
f 49/2/1 37/2/1 48/2/1
f 50/2/1 39/2/1 38/2/1
f 50/3/1 38/3/1 49/3/1
f 51/3/1 40/3/1 39/3/1
f 51/2/1 39/2/1 50/2/1
f 52/2/1 41/2/1 40/2/1
f 52/3/1 40/3/1 51/3/1
f 53/3/1 42/3/1 41/3/1
f 53/2/1 41/2/1 52/2/1
f 54/2/1 6/2/1 42/2/1
f 54/3/1 42/3/1 53/3/1
f 55/2/1 51/2/1 50/2/1
f 55/2/1 53/2/1 52/2/1
f 55/2/1 54/2/1 53/2/1
f 55/2/1 50/2/1 49/2/1
f 55/2/1 49/2/1 48/2/1
f 55/2/1 48/2/1 47/2/1
f 55/2/1 47/2/1 46/2/1
f 55/2/1 46/2/1 45/2/1
f 55/2/1 45/2/1 44/2/1
f 55/2/1 44/2/1 43/2/1
f 55/2/1 43/2/1 5/2/1
f 55/2/1 52/2/1 51/2/1
f 56/2/1 6/2/1 54/2/1
f 56/2/1 54/2/1 55/2/1
f 59/2/1 58/2/1 57/2/1
f 60/2/1 58/2/1 59/2/1
f 65/2/1 62/2/1 61/2/1
f 66/2/1 62/2/1 65/2/1
f 67/2/1 62/2/1 66/2/1
f 68/2/1 62/2/1 67/2/1
f 69/2/1 64/2/1 63/2/1
f 70/2/1 64/2/1 69/2/1
f 71/2/1 64/2/1 70/2/1
f 72/2/1 64/2/1 71/2/1
f 73/2/1 62/2/1 68/2/1
f 73/3/1 63/3/1 62/3/1
f 74/2/1 69/2/1 63/2/1
f 74/3/1 63/3/1 73/3/1
f 75/2/1 65/2/1 61/2/1
f 75/3/1 66/3/1 65/3/1
f 76/2/1 67/2/1 66/2/1
f 76/3/1 66/3/1 75/3/1
f 77/3/1 68/3/1 67/3/1
f 77/2/1 67/2/1 76/2/1
f 78/2/1 74/2/1 73/2/1
f 78/3/1 68/3/1 77/3/1
f 78/2/1 73/2/1 68/2/1
f 79/2/1 69/2/1 74/2/1
f 79/2/1 74/2/1 78/2/1
f 79/3/1 70/3/1 69/3/1
f 80/2/1 71/2/1 70/2/1
f 80/3/1 70/3/1 79/3/1
f 81/3/1 72/3/1 71/3/1
f 81/2/1 71/2/1 80/2/1
f 82/2/1 64/2/1 72/2/1
f 82/3/1 72/3/1 81/3/1
f 83/2/1 81/2/1 80/2/1
f 83/2/1 80/2/1 79/2/1
f 83/2/1 82/2/1 81/2/1
f 83/2/1 79/2/1 78/2/1
f 83/2/1 76/2/1 75/2/1
f 83/2/1 75/2/1 61/2/1
f 83/2/1 77/2/1 76/2/1
f 83/2/1 78/2/1 77/2/1
f 84/2/1 82/2/1 83/2/1
f 85/2/1 82/2/1 84/2/1
f 86/2/1 82/2/1 85/2/1
f 87/2/1 82/2/1 86/2/1
f 88/2/1 82/2/1 87/2/1
f 89/2/1 82/2/1 88/2/1
f 90/2/1 82/2/1 89/2/1
f 91/2/1 82/2/1 90/2/1
f 92/2/1 82/2/1 91/2/1
f 93/2/1 82/2/1 92/2/1
f 94/2/1 64/2/1 82/2/1
f 94/2/1 82/2/1 93/2/1
f 95/2/1 83/2/1 61/2/1
f 95/3/1 84/3/1 83/3/1
f 96/2/1 85/2/1 84/2/1
f 96/3/1 84/3/1 95/3/1
f 97/3/1 86/3/1 85/3/1
f 97/2/1 85/2/1 96/2/1
f 98/2/1 87/2/1 86/2/1
f 98/3/1 86/3/1 97/3/1
f 99/3/1 88/3/1 87/3/1
f 99/2/1 87/2/1 98/2/1
f 100/2/1 89/2/1 88/2/1
f 100/3/1 88/3/1 99/3/1
f 101/3/1 90/3/1 89/3/1
f 101/2/1 89/2/1 100/2/1
f 102/2/1 91/2/1 90/2/1
f 102/3/1 90/3/1 101/3/1
f 103/3/1 92/3/1 91/3/1
f 103/2/1 91/2/1 102/2/1
f 104/2/1 93/2/1 92/2/1
f 104/3/1 92/3/1 103/3/1
f 105/3/1 94/3/1 93/3/1
f 105/2/1 93/2/1 104/2/1
f 106/2/1 64/2/1 94/2/1
f 106/3/1 94/3/1 105/3/1
f 107/2/1 103/2/1 102/2/1
f 107/2/1 105/2/1 104/2/1
f 107/2/1 106/2/1 105/2/1
f 107/2/1 102/2/1 101/2/1
f 107/2/1 101/2/1 100/2/1
f 107/2/1 100/2/1 99/2/1
f 107/2/1 99/2/1 98/2/1
f 107/2/1 98/2/1 97/2/1
f 107/2/1 97/2/1 96/2/1
f 107/2/1 96/2/1 95/2/1
f 107/2/1 95/2/1 61/2/1
f 107/2/1 104/2/1 103/2/1
f 108/2/1 64/2/1 106/2/1
f 108/2/1 106/2/1 107/2/1
f 111/2/1 110/2/1 109/2/1
f 112/2/1 110/2/1 111/2/1
f 113/2/2 114/2/2 115/2/2
f 115/2/2 114/2/2 116/2/2
f 117/2/2 118/2/2 121/2/2
f 121/2/2 118/2/2 122/2/2
f 122/2/2 118/2/2 123/2/2
f 123/2/2 118/2/2 124/2/2
f 119/2/2 120/2/2 125/2/2
f 125/2/2 120/2/2 126/2/2
f 126/2/2 120/2/2 127/2/2
f 127/2/2 120/2/2 128/2/2
f 124/2/2 118/2/2 129/2/2
f 118/3/2 119/3/2 129/3/2
f 119/2/2 125/2/2 130/2/2
f 129/3/2 119/3/2 130/3/2
f 117/2/2 121/2/2 131/2/2
f 121/3/2 122/3/2 131/3/2
f 122/2/2 123/2/2 132/2/2
f 131/3/2 122/3/2 132/3/2
f 123/3/2 124/3/2 133/3/2
f 132/2/2 123/2/2 133/2/2
f 129/2/2 130/2/2 134/2/2
f 133/3/2 124/3/2 134/3/2
f 124/2/2 129/2/2 134/2/2
f 130/2/2 125/2/2 135/2/2
f 134/2/2 130/2/2 135/2/2
f 125/3/2 126/3/2 135/3/2
f 126/2/2 127/2/2 136/2/2
f 135/3/2 126/3/2 136/3/2
f 127/3/2 128/3/2 137/3/2
f 136/2/2 127/2/2 137/2/2
f 128/2/2 120/2/2 138/2/2
f 137/3/2 128/3/2 138/3/2
f 136/2/2 137/2/2 139/2/2
f 135/2/2 136/2/2 139/2/2
f 137/2/2 138/2/2 139/2/2
f 134/2/2 135/2/2 139/2/2
f 131/2/2 132/2/2 139/2/2
f 117/2/2 131/2/2 139/2/2
f 132/2/2 133/2/2 139/2/2
f 133/2/2 134/2/2 139/2/2
f 139/2/2 138/2/2 140/2/2
f 140/2/2 138/2/2 141/2/2
f 141/2/2 138/2/2 142/2/2
f 142/2/2 138/2/2 143/2/2
f 143/2/2 138/2/2 144/2/2
f 144/2/2 138/2/2 145/2/2
f 145/2/2 138/2/2 146/2/2
f 146/2/2 138/2/2 147/2/2
f 147/2/2 138/2/2 148/2/2
f 148/2/2 138/2/2 149/2/2
f 138/2/2 120/2/2 150/2/2
f 149/2/2 138/2/2 150/2/2
f 117/2/2 139/2/2 151/2/2
f 139/3/2 140/3/2 151/3/2
f 140/2/2 141/2/2 152/2/2
f 151/3/2 140/3/2 152/3/2
f 141/3/2 142/3/2 153/3/2
f 152/2/2 141/2/2 153/2/2
f 142/2/2 143/2/2 154/2/2
f 153/3/2 142/3/2 154/3/2
f 143/3/2 144/3/2 155/3/2
f 154/2/2 143/2/2 155/2/2
f 144/2/2 145/2/2 156/2/2
f 155/3/2 144/3/2 156/3/2
f 145/3/2 146/3/2 157/3/2
f 156/2/2 145/2/2 157/2/2
f 146/2/2 147/2/2 158/2/2
f 157/3/2 146/3/2 158/3/2
f 147/3/2 148/3/2 159/3/2
f 158/2/2 147/2/2 159/2/2
f 148/2/2 149/2/2 160/2/2
f 159/3/2 148/3/2 160/3/2
f 149/3/2 150/3/2 161/3/2
f 160/2/2 149/2/2 161/2/2
f 150/2/2 120/2/2 162/2/2
f 161/3/2 150/3/2 162/3/2
f 158/2/2 159/2/2 163/2/2
f 160/2/2 161/2/2 163/2/2
f 161/2/2 162/2/2 163/2/2
f 157/2/2 158/2/2 163/2/2
f 156/2/2 157/2/2 163/2/2
f 155/2/2 156/2/2 163/2/2
f 154/2/2 155/2/2 163/2/2
f 153/2/2 154/2/2 163/2/2
f 152/2/2 153/2/2 163/2/2
f 151/2/2 152/2/2 163/2/2
f 117/2/2 151/2/2 163/2/2
f 159/2/2 160/2/2 163/2/2
f 162/2/2 120/2/2 164/2/2
f 163/2/2 162/2/2 164/2/2
f 165/2/2 166/2/2 167/2/2
f 167/2/2 166/2/2 168/2/2
f 169/2/2 170/2/2 171/2/2
f 171/2/2 170/2/2 172/2/2
f 172/2/2 170/2/2 173/2/2
f 173/2/2 170/2/2 174/2/2
f 174/2/2 170/2/2 175/2/2
f 175/2/2 170/2/2 176/2/2
f 176/2/2 170/2/2 177/2/2
f 177/2/2 170/2/2 178/2/2
f 178/2/2 170/2/2 179/2/2
f 179/2/2 170/2/2 180/2/2
f 180/2/2 170/2/2 181/2/2
f 181/2/2 170/2/2 182/2/2
f 169/2/2 171/2/2 183/2/2
f 171/3/2 172/3/2 183/3/2
f 172/2/2 173/2/2 184/2/2
f 183/3/2 172/3/2 184/3/2
f 173/3/2 174/3/2 185/3/2
f 184/2/2 173/2/2 185/2/2
f 174/2/2 175/2/2 186/2/2
f 185/3/2 174/3/2 186/3/2
f 175/3/2 176/3/2 187/3/2
f 186/2/2 175/2/2 187/2/2
f 176/2/2 177/2/2 188/2/2
f 187/3/2 176/3/2 188/3/2
f 177/3/2 178/3/2 189/3/2
f 188/2/2 177/2/2 189/2/2
f 178/2/2 179/2/2 190/2/2
f 189/3/2 178/3/2 190/3/2
f 179/3/2 180/3/2 191/3/2
f 190/2/2 179/2/2 191/2/2
f 180/2/2 181/2/2 192/2/2
f 191/3/2 180/3/2 192/3/2
f 181/3/2 182/3/2 193/3/2
f 192/2/2 181/2/2 193/2/2
f 182/2/2 170/2/2 194/2/2
f 193/3/2 182/3/2 194/3/2
f 192/2/2 193/2/2 195/2/2
f 191/2/2 192/2/2 195/2/2
f 193/2/2 194/2/2 195/2/2
f 190/2/2 191/2/2 195/2/2
f 189/2/2 190/2/2 195/2/2
f 188/2/2 189/2/2 195/2/2
f 187/2/2 188/2/2 195/2/2
f 186/2/2 187/2/2 195/2/2
f 185/2/2 186/2/2 195/2/2
f 184/2/2 185/2/2 195/2/2
f 183/2/2 184/2/2 195/2/2
f 169/2/2 183/2/2 195/2/2
f 195/2/2 194/2/2 196/2/2
f 196/2/2 194/2/2 197/2/2
f 197/2/2 194/2/2 198/2/2
f 198/2/2 194/2/2 199/2/2
f 199/2/2 194/2/2 200/2/2
f 200/2/2 194/2/2 201/2/2
f 201/2/2 194/2/2 202/2/2
f 202/2/2 194/2/2 203/2/2
f 203/2/2 194/2/2 204/2/2
f 204/2/2 194/2/2 205/2/2
f 194/2/2 170/2/2 206/2/2
f 205/2/2 194/2/2 206/2/2
f 169/2/2 195/2/2 207/2/2
f 195/3/2 196/3/2 207/3/2
f 196/2/2 197/2/2 208/2/2
f 207/3/2 196/3/2 208/3/2
f 197/3/2 198/3/2 209/3/2
f 208/2/2 197/2/2 209/2/2
f 198/2/2 199/2/2 210/2/2
f 209/3/2 198/3/2 210/3/2
f 199/3/2 200/3/2 211/3/2
f 210/2/2 199/2/2 211/2/2
f 200/2/2 201/2/2 212/2/2
f 211/3/2 200/3/2 212/3/2
f 201/3/2 202/3/2 213/3/2
f 212/2/2 201/2/2 213/2/2
f 202/2/2 203/2/2 214/2/2
f 213/3/2 202/3/2 214/3/2
f 203/3/2 204/3/2 215/3/2
f 214/2/2 203/2/2 215/2/2
f 204/2/2 205/2/2 216/2/2
f 215/3/2 204/3/2 216/3/2
f 205/3/2 206/3/2 217/3/2
f 216/2/2 205/2/2 217/2/2
f 206/2/2 170/2/2 218/2/2
f 217/3/2 206/3/2 218/3/2
f 214/2/2 215/2/2 219/2/2
f 216/2/2 217/2/2 219/2/2
f 217/2/2 218/2/2 219/2/2
f 213/2/2 214/2/2 219/2/2
f 212/2/2 213/2/2 219/2/2
f 211/2/2 212/2/2 219/2/2
f 210/2/2 211/2/2 219/2/2
f 209/2/2 210/2/2 219/2/2
f 208/2/2 209/2/2 219/2/2
f 207/2/2 208/2/2 219/2/2
f 169/2/2 207/2/2 219/2/2
f 215/2/2 216/2/2 219/2/2
f 218/2/2 170/2/2 220/2/2
f 219/2/2 218/2/2 220/2/2
f 221/1/2 222/1/2 223/1/2
f 223/1/2 222/1/2 224/1/2
f 227/1/3 226/1/3 225/1/3
f 228/1/3 226/1/3 227/1/3
f 231/2/3 230/2/3 229/2/3
f 232/2/3 230/2/3 231/2/3
f 233/2/3 230/2/3 232/2/3
f 234/2/3 230/2/3 233/2/3
f 235/2/3 231/2/3 229/2/3
f 235/3/3 232/3/3 231/3/3
f 236/2/3 233/2/3 232/2/3
f 236/3/3 232/3/3 235/3/3
f 237/3/3 234/3/3 233/3/3
f 237/2/3 233/2/3 236/2/3
f 238/2/3 230/2/3 234/2/3
f 238/3/3 234/3/3 237/3/3
f 239/2/3 237/2/3 236/2/3
f 239/2/3 236/2/3 235/2/3
f 239/2/3 238/2/3 237/2/3
f 239/2/3 235/2/3 229/2/3
f 240/2/3 238/2/3 239/2/3
f 241/2/3 238/2/3 240/2/3
f 242/2/3 230/2/3 238/2/3
f 242/2/3 238/2/3 241/2/3
f 243/2/3 239/2/3 229/2/3
f 243/3/3 240/3/3 239/3/3
f 244/2/3 241/2/3 240/2/3
f 244/3/3 240/3/3 243/3/3
f 245/3/3 242/3/3 241/3/3
f 245/2/3 241/2/3 244/2/3
f 246/2/3 230/2/3 242/2/3
f 246/3/3 242/3/3 245/3/3
f 247/2/3 243/2/3 229/2/3
f 247/2/3 245/2/3 244/2/3
f 247/2/3 246/2/3 245/2/3
f 247/2/3 244/2/3 243/2/3
f 248/2/3 230/2/3 246/2/3
f 248/2/3 246/2/3 247/2/3
f 251/2/3 250/2/3 249/2/3
f 252/2/3 250/2/3 251/2/3
f 253/2/3 250/2/3 252/2/3
f 254/2/3 250/2/3 253/2/3
f 255/2/3 251/2/3 249/2/3
f 255/3/3 252/3/3 251/3/3
f 256/2/3 253/2/3 252/2/3
f 256/3/3 252/3/3 255/3/3
f 257/3/3 254/3/3 253/3/3
f 257/2/3 253/2/3 256/2/3
f 258/2/3 250/2/3 254/2/3
f 258/3/3 254/3/3 257/3/3
f 259/2/3 257/2/3 256/2/3
f 259/2/3 256/2/3 255/2/3
f 259/2/3 258/2/3 257/2/3
f 259/2/3 255/2/3 249/2/3
f 260/2/3 258/2/3 259/2/3
f 261/2/3 258/2/3 260/2/3
f 262/2/3 250/2/3 258/2/3
f 262/2/3 258/2/3 261/2/3
f 263/2/3 259/2/3 249/2/3
f 263/3/3 260/3/3 259/3/3
f 264/2/3 261/2/3 260/2/3
f 264/3/3 260/3/3 263/3/3
f 265/3/3 262/3/3 261/3/3
f 265/2/3 261/2/3 264/2/3
f 266/2/3 250/2/3 262/2/3
f 266/3/3 262/3/3 265/3/3
f 267/2/3 263/2/3 249/2/3
f 267/2/3 265/2/3 264/2/3
f 267/2/3 266/2/3 265/2/3
f 267/2/3 264/2/3 263/2/3
f 268/2/3 250/2/3 266/2/3
f 268/2/3 266/2/3 267/2/3
f 271/2/3 270/2/3 269/2/3
f 272/2/3 270/2/3 271/2/3
f 275/2/3 274/2/3 273/2/3
f 276/2/3 274/2/3 275/2/3
f 277/2/4 278/2/4 279/2/4
f 279/2/4 278/2/4 280/2/4
f 281/2/4 282/2/4 283/2/4
f 283/2/4 282/2/4 284/2/4
f 285/2/4 286/2/4 287/2/4
f 287/2/4 286/2/4 288/2/4
f 288/2/4 286/2/4 289/2/4
f 289/2/4 286/2/4 290/2/4
f 285/2/4 287/2/4 291/2/4
f 287/3/4 288/3/4 291/3/4
f 288/2/4 289/2/4 292/2/4
f 291/3/4 288/3/4 292/3/4
f 289/3/4 290/3/4 293/3/4
f 292/2/4 289/2/4 293/2/4
f 290/2/4 286/2/4 294/2/4
f 293/3/4 290/3/4 294/3/4
f 292/2/4 293/2/4 295/2/4
f 291/2/4 292/2/4 295/2/4
f 293/2/4 294/2/4 295/2/4
f 285/2/4 291/2/4 295/2/4
f 295/2/4 294/2/4 296/2/4
f 296/2/4 294/2/4 297/2/4
f 294/2/4 286/2/4 298/2/4
f 297/2/4 294/2/4 298/2/4
f 285/2/4 295/2/4 299/2/4
f 295/3/4 296/3/4 299/3/4
f 296/2/4 297/2/4 300/2/4
f 299/3/4 296/3/4 300/3/4
f 297/3/4 298/3/4 301/3/4
f 300/2/4 297/2/4 301/2/4
f 298/2/4 286/2/4 302/2/4
f 301/3/4 298/3/4 302/3/4
f 285/2/4 299/2/4 303/2/4
f 300/2/4 301/2/4 303/2/4
f 301/2/4 302/2/4 303/2/4
f 299/2/4 300/2/4 303/2/4
f 302/2/4 286/2/4 304/2/4
f 303/2/4 302/2/4 304/2/4
f 305/2/4 306/2/4 307/2/4
f 307/2/4 306/2/4 308/2/4
f 308/2/4 306/2/4 309/2/4
f 309/2/4 306/2/4 310/2/4
f 305/2/4 307/2/4 311/2/4
f 307/3/4 308/3/4 311/3/4
f 308/2/4 309/2/4 312/2/4
f 311/3/4 308/3/4 312/3/4
f 309/3/4 310/3/4 313/3/4
f 312/2/4 309/2/4 313/2/4
f 310/2/4 306/2/4 314/2/4
f 313/3/4 310/3/4 314/3/4
f 312/2/4 313/2/4 315/2/4
f 311/2/4 312/2/4 315/2/4
f 313/2/4 314/2/4 315/2/4
f 305/2/4 311/2/4 315/2/4
f 315/2/4 314/2/4 316/2/4
f 316/2/4 314/2/4 317/2/4
f 314/2/4 306/2/4 318/2/4
f 317/2/4 314/2/4 318/2/4
f 305/2/4 315/2/4 319/2/4
f 315/3/4 316/3/4 319/3/4
f 316/2/4 317/2/4 320/2/4
f 319/3/4 316/3/4 320/3/4
f 317/3/4 318/3/4 321/3/4
f 320/2/4 317/2/4 321/2/4
f 318/2/4 306/2/4 322/2/4
f 321/3/4 318/3/4 322/3/4
f 305/2/4 319/2/4 323/2/4
f 320/2/4 321/2/4 323/2/4
f 321/2/4 322/2/4 323/2/4
f 319/2/4 320/2/4 323/2/4
f 322/2/4 306/2/4 324/2/4
f 323/2/4 322/2/4 324/2/4
f 325/1/4 326/1/4 327/1/4
f 327/1/4 326/1/4 328/1/4
f 331/1/5 330/1/5 329/1/5
f 332/1/5 330/1/5 331/1/5
f 333/1/6 334/1/6 335/1/6
f 335/1/6 334/1/6 336/1/6
f 336/1/6 334/1/6 337/1/6
f 337/1/6 334/1/6 338/1/6
f 336/1/6 337/1/6 339/1/6
f 339/1/6 337/1/6 340/1/6
f 339/1/6 340/1/6 341/1/6
f 341/1/6 340/1/6 342/1/6
f 333/1/6 335/1/6 343/1/6
f 341/1/6 342/1/6 344/1/6
f 344/1/6 342/1/6 345/1/6
f 338/1/6 334/1/6 346/1/6
f 344/1/6 345/1/6 347/1/6
f 345/1/6 346/1/6 347/1/6
f 343/1/6 344/1/6 347/1/6
f 333/1/6 343/1/6 347/1/6
f 346/1/6 334/1/6 348/1/6
f 347/1/6 346/1/6 348/1/6
f 349/4/6 350/4/6 353/4/6
f 353/4/6 350/4/6 354/4/6
f 351/4/6 352/4/6 355/4/6
f 355/4/6 352/4/6 356/4/6
f 357/2/6 358/2/6 361/2/6
f 361/2/6 358/2/6 362/2/6
f 359/2/6 360/2/6 363/2/6
f 363/2/6 360/2/6 364/2/6
f 357/2/6 361/2/6 365/2/6
f 362/2/6 358/2/6 366/2/6
f 359/2/6 363/2/6 367/2/6
f 364/2/6 360/2/6 368/2/6
f 357/2/6 365/2/6 369/2/6
f 365/2/6 366/2/6 369/2/6
f 366/2/6 358/2/6 370/2/6
f 369/2/6 366/2/6 370/2/6
f 367/2/6 368/2/6 371/2/6
f 359/2/6 367/2/6 371/2/6
f 368/2/6 360/2/6 372/2/6
f 371/2/6 368/2/6 372/2/6
