# Blender 4.3.2
# www.blender.org
mtllib Building03.mtl
o Building03
v -0.700000 0.000000 0.700000
v -0.700000 -0.000000 -0.800000
v -0.700000 0.200000 0.700000
v -0.700000 0.200000 -0.800000
v -0.500000 0.200000 0.500000
v -0.500000 0.200000 0.400000
v -0.500000 0.200000 0.100000
v -0.500000 0.200000 -0.000000
v -0.500000 0.200000 -0.500000
v -0.500000 0.200000 -0.600000
v -0.500000 0.400000 0.400000
v -0.500000 0.400000 0.100000
v -0.500000 0.400000 -0.000000
v -0.500000 0.400000 -0.500000
v -0.500000 0.500000 0.400000
v -0.500000 0.500000 0.300000
v -0.500000 0.500000 0.200000
v -0.500000 0.500000 0.100000
v -0.500000 0.500000 -0.000000
v -0.500000 0.500000 -0.100000
v -0.500000 0.500000 -0.200000
v -0.500000 0.500000 -0.300000
v -0.500000 0.500000 -0.400000
v -0.500000 0.500000 -0.500000
v -0.500000 0.700000 0.400000
v -0.500000 0.700000 0.300000
v -0.500000 0.700000 0.200000
v -0.500000 0.700000 0.100000
v -0.500000 0.700000 -0.000000
v -0.500000 0.700000 -0.100000
v -0.500000 0.700000 -0.200000
v -0.500000 0.700000 -0.300000
v -0.500000 0.700000 -0.400000
v -0.500000 0.700000 -0.500000
v -0.500000 0.900000 0.500000
v -0.500000 0.900000 -0.600000
v -0.400000 0.400000 0.700000
v -0.400000 0.400000 0.500000
v -0.400000 0.500000 0.700000
v -0.400000 0.500000 0.600000
v -0.400000 0.600000 0.600000
v -0.400000 0.600000 0.500000
v -0.300000 0.200000 0.700000
v -0.300000 0.200000 0.600000
v -0.300000 0.400000 0.700000
v -0.300000 0.400000 0.600000
v 0.300000 0.200000 0.700000
v 0.300000 0.200000 0.600000
v 0.300000 0.400000 0.700000
v 0.300000 0.400000 0.600000
v 0.400000 0.400000 0.600000
v 0.400000 0.400000 0.500000
v 0.400000 0.500000 0.600000
v 0.400000 0.500000 0.500000
v 0.500000 0.800000 0.400000
v 0.500000 0.800000 -0.500000
v 0.500000 0.900000 0.400000
v 0.500000 0.900000 -0.500000
v -0.400000 0.800000 0.400000
v -0.400000 0.800000 -0.500000
v -0.400000 0.900000 0.400000
v -0.400000 0.900000 -0.500000
v -0.300000 0.400000 0.600000
v -0.300000 0.400000 0.500000
v -0.300000 0.500000 0.600000
v -0.300000 0.500000 0.500000
v -0.200000 0.200000 0.700000
v -0.200000 0.200000 0.600000
v -0.200000 0.400000 0.700000
v -0.200000 0.400000 0.600000
v 0.400000 0.200000 0.700000
v 0.400000 0.200000 0.600000
v 0.400000 0.400000 0.700000
v 0.400000 0.400000 0.600000
v 0.500000 0.400000 0.700000
v 0.500000 0.400000 0.500000
v 0.500000 0.500000 0.700000
v 0.500000 0.500000 0.600000
v 0.500000 0.600000 0.600000
v 0.500000 0.600000 0.500000
v 0.600000 0.200000 0.500000
v 0.600000 0.200000 0.400000
v 0.600000 0.200000 0.100000
v 0.600000 0.200000 -0.000000
v 0.600000 0.200000 -0.100000
v 0.600000 0.200000 -0.200000
v 0.600000 0.200000 -0.500000
v 0.600000 0.200000 -0.600000
v 0.600000 0.400000 0.400000
v 0.600000 0.400000 0.100000
v 0.600000 0.400000 -0.000000
v 0.600000 0.400000 -0.100000
v 0.600000 0.400000 -0.200000
v 0.600000 0.400000 -0.500000
v 0.600000 0.500000 0.400000
v 0.600000 0.500000 0.300000
v 0.600000 0.500000 0.200000
v 0.600000 0.500000 0.100000
v 0.600000 0.500000 -0.000000
v 0.600000 0.500000 -0.100000
v 0.600000 0.500000 -0.200000
v 0.600000 0.500000 -0.300000
v 0.600000 0.500000 -0.400000
v 0.600000 0.500000 -0.500000
v 0.600000 0.700000 0.400000
v 0.600000 0.700000 0.300000
v 0.600000 0.700000 0.200000
v 0.600000 0.700000 0.100000
v 0.600000 0.700000 -0.000000
v 0.600000 0.700000 -0.100000
v 0.600000 0.700000 -0.200000
v 0.600000 0.700000 -0.300000
v 0.600000 0.700000 -0.400000
v 0.600000 0.700000 -0.500000
v 0.600000 0.900000 0.500000
v 0.600000 0.900000 -0.600000
v 0.800000 0.000000 0.700000
v 0.800000 -0.000000 -0.800000
v 0.800000 0.200000 0.700000
v 0.800000 0.200000 -0.800000
v -0.700000 0.000000 0.700000
v -0.700000 0.200000 0.700000
v -0.400000 0.400000 0.700000
v -0.400000 0.500000 0.700000
v -0.300000 0.200000 0.700000
v -0.300000 0.400000 0.700000
v -0.200000 0.200000 0.700000
v -0.200000 0.400000 0.700000
v 0.300000 0.200000 0.700000
v 0.300000 0.400000 0.700000
v 0.400000 0.200000 0.700000
v 0.400000 0.400000 0.700000
v 0.500000 0.400000 0.700000
v 0.500000 0.500000 0.700000
v 0.800000 0.000000 0.700000
v 0.800000 0.200000 0.700000
v -0.400000 0.500000 0.600000
v -0.400000 0.600000 0.600000
v 0.500000 0.500000 0.600000
v 0.500000 0.600000 0.600000
v -0.500000 0.200000 0.500000
v -0.500000 0.900000 0.500000
v -0.400000 0.200000 0.500000
v -0.400000 0.400000 0.500000
v -0.400000 0.600000 0.500000
v -0.300000 0.400000 0.500000
v -0.300000 0.500000 0.500000
v -0.100000 0.200000 0.500000
v -0.100000 0.400000 0.500000
v 0.000000 0.200000 0.500000
v 0.000000 0.400000 0.500000
v 0.400000 0.200000 0.500000
v 0.400000 0.400000 0.500000
v 0.400000 0.500000 0.500000
v 0.500000 0.400000 0.500000
v 0.500000 0.600000 0.500000
v 0.600000 0.200000 0.500000
v 0.600000 0.900000 0.500000
v -0.400000 0.800000 -0.500000
v -0.400000 0.900000 -0.500000
v 0.500000 0.800000 -0.500000
v 0.500000 0.900000 -0.500000
v -0.300000 0.200000 0.600000
v -0.300000 0.400000 0.600000
v -0.300000 0.500000 0.600000
v -0.200000 0.200000 0.600000
v -0.200000 0.400000 0.600000
v 0.300000 0.200000 0.600000
v 0.300000 0.400000 0.600000
v 0.400000 0.200000 0.600000
v 0.400000 0.400000 0.600000
v 0.400000 0.500000 0.600000
v -0.400000 0.800000 0.400000
v -0.400000 0.900000 0.400000
v 0.500000 0.800000 0.400000
v 0.500000 0.900000 0.400000
v -0.500000 0.200000 -0.600000
v -0.500000 0.900000 -0.600000
v -0.400000 0.200000 -0.600000
v -0.400000 0.400000 -0.600000
v -0.400000 0.500000 -0.600000
v -0.400000 0.700000 -0.600000
v -0.300000 0.500000 -0.600000
v -0.300000 0.700000 -0.600000
v -0.200000 0.500000 -0.600000
v -0.200000 0.700000 -0.600000
v -0.100000 0.500000 -0.600000
v -0.100000 0.700000 -0.600000
v 0.000000 0.200000 -0.600000
v 0.000000 0.400000 -0.600000
v 0.000000 0.500000 -0.600000
v 0.000000 0.700000 -0.600000
v 0.100000 0.200000 -0.600000
v 0.100000 0.400000 -0.600000
v 0.100000 0.500000 -0.600000
v 0.100000 0.700000 -0.600000
v 0.200000 0.500000 -0.600000
v 0.200000 0.700000 -0.600000
v 0.300000 0.500000 -0.600000
v 0.300000 0.700000 -0.600000
v 0.400000 0.500000 -0.600000
v 0.400000 0.700000 -0.600000
v 0.500000 0.200000 -0.600000
v 0.500000 0.400000 -0.600000
v 0.500000 0.500000 -0.600000
v 0.500000 0.700000 -0.600000
v 0.600000 0.200000 -0.600000
v 0.600000 0.900000 -0.600000
v -0.700000 -0.000000 -0.800000
v -0.700000 0.200000 -0.800000
v 0.800000 -0.000000 -0.800000
v 0.800000 0.200000 -0.800000
v -0.700000 0.000000 0.700000
v 0.800000 0.000000 0.700000
v -0.700000 -0.000000 -0.800000
v 0.800000 -0.000000 -0.800000
v -0.400000 0.400000 0.700000
v -0.300000 0.400000 0.700000
v -0.200000 0.400000 0.700000
v 0.300000 0.400000 0.700000
v 0.400000 0.400000 0.700000
v 0.500000 0.400000 0.700000
v -0.300000 0.400000 0.600000
v -0.200000 0.400000 0.600000
v 0.300000 0.400000 0.600000
v 0.400000 0.400000 0.600000
v -0.400000 0.400000 0.500000
v -0.300000 0.400000 0.500000
v 0.400000 0.400000 0.500000
v 0.500000 0.400000 0.500000
v -0.300000 0.500000 0.600000
v 0.400000 0.500000 0.600000
v -0.300000 0.500000 0.500000
v 0.400000 0.500000 0.500000
v -0.700000 0.200000 0.700000
v -0.300000 0.200000 0.700000
v -0.200000 0.200000 0.700000
v 0.300000 0.200000 0.700000
v 0.400000 0.200000 0.700000
v 0.800000 0.200000 0.700000
v -0.300000 0.200000 0.600000
v -0.200000 0.200000 0.600000
v 0.300000 0.200000 0.600000
v 0.400000 0.200000 0.600000
v -0.500000 0.200000 0.500000
v -0.400000 0.200000 0.500000
v -0.100000 0.200000 0.500000
v 0.000000 0.200000 0.500000
v 0.400000 0.200000 0.500000
v 0.600000 0.200000 0.500000
v -0.500000 0.200000 0.400000
v 0.600000 0.200000 0.400000
v -0.500000 0.200000 0.100000
v 0.600000 0.200000 0.100000
v -0.500000 0.200000 -0.000000
v 0.600000 0.200000 -0.000000
v 0.600000 0.200000 -0.100000
v 0.600000 0.200000 -0.200000
v -0.500000 0.200000 -0.500000
v 0.600000 0.200000 -0.500000
v -0.500000 0.200000 -0.600000
v -0.400000 0.200000 -0.600000
v 0.000000 0.200000 -0.600000
v 0.100000 0.200000 -0.600000
v 0.500000 0.200000 -0.600000
v 0.600000 0.200000 -0.600000
v -0.700000 0.200000 -0.800000
v 0.800000 0.200000 -0.800000
v -0.400000 0.500000 0.700000
v 0.500000 0.500000 0.700000
v -0.400000 0.500000 0.600000
v 0.500000 0.500000 0.600000
v -0.400000 0.600000 0.600000
v 0.500000 0.600000 0.600000
v -0.400000 0.600000 0.500000
v 0.500000 0.600000 0.500000
v -0.400000 0.800000 0.400000
v 0.500000 0.800000 0.400000
v -0.400000 0.800000 -0.500000
v 0.500000 0.800000 -0.500000
v -0.500000 0.900000 0.500000
v 0.600000 0.900000 0.500000
v -0.400000 0.900000 0.400000
v 0.500000 0.900000 0.400000
v -0.400000 0.900000 -0.500000
v 0.500000 0.900000 -0.500000
v -0.500000 0.900000 -0.600000
v 0.600000 0.900000 -0.600000
vn -1.0000 -0.0000 -0.0000
vn 1.0000 -0.0000 -0.0000
vn -0.0000 -0.0000 1.0000
vn -0.0000 -0.0000 -1.0000
vn -0.0000 -1.0000 -0.0000
vn -0.0000 1.0000 -0.0000
vt 0.939453 0.500000
vt 0.783203 0.500000
vt 0.787109 0.500000
vt 0.810547 0.500000
vt 0.791016 0.500000
s 1
usemtl palette
f 3/1/1 2/1/1 1/1/1
f 4/1/1 2/1/1 3/1/1
f 11/2/1 6/2/1 5/2/1
f 11/3/1 7/3/1 6/3/1
f 12/2/1 8/2/1 7/2/1
f 12/3/1 7/3/1 11/3/1
f 13/3/1 9/3/1 8/3/1
f 13/2/1 8/2/1 12/2/1
f 14/2/1 10/2/1 9/2/1
f 14/3/1 9/3/1 13/3/1
f 15/2/1 13/2/1 12/2/1
f 15/2/1 12/2/1 11/2/1
f 15/2/1 14/2/1 13/2/1
f 15/2/1 11/2/1 5/2/1
f 16/2/1 14/2/1 15/2/1
f 17/2/1 14/2/1 16/2/1
f 18/2/1 14/2/1 17/2/1
f 19/2/1 14/2/1 18/2/1
f 20/2/1 14/2/1 19/2/1
f 21/2/1 14/2/1 20/2/1
f 22/2/1 14/2/1 21/2/1
f 23/2/1 14/2/1 22/2/1
f 24/2/1 10/2/1 14/2/1
f 24/2/1 14/2/1 23/2/1
f 25/2/1 15/2/1 5/2/1
f 25/3/1 16/3/1 15/3/1
f 26/2/1 17/2/1 16/2/1
f 26/3/1 16/3/1 25/3/1
f 27/3/1 18/3/1 17/3/1
f 27/2/1 17/2/1 26/2/1
f 28/2/1 19/2/1 18/2/1
f 28/3/1 18/3/1 27/3/1
f 29/3/1 20/3/1 19/3/1
f 29/2/1 19/2/1 28/2/1
f 30/2/1 21/2/1 20/2/1
f 30/3/1 20/3/1 29/3/1
f 31/3/1 22/3/1 21/3/1
f 31/2/1 21/2/1 30/2/1
f 32/2/1 23/2/1 22/2/1
f 32/3/1 22/3/1 31/3/1
f 33/3/1 24/3/1 23/3/1
f 33/2/1 23/2/1 32/2/1
f 34/2/1 10/2/1 24/2/1
f 34/3/1 24/3/1 33/3/1
f 35/2/1 31/2/1 30/2/1
f 35/2/1 33/2/1 32/2/1
f 35/2/1 34/2/1 33/2/1
f 35/2/1 30/2/1 29/2/1
f 35/2/1 29/2/1 28/2/1
f 35/2/1 28/2/1 27/2/1
f 35/2/1 27/2/1 26/2/1
f 35/2/1 26/2/1 25/2/1
f 35/2/1 25/2/1 5/2/1
f 35/2/1 32/2/1 31/2/1
f 36/2/1 10/2/1 34/2/1
f 36/2/1 34/2/1 35/2/1
f 39/4/1 38/4/1 37/4/1
f 40/4/1 38/4/1 39/4/1
f 41/4/1 38/4/1 40/4/1
f 42/4/1 38/4/1 41/4/1
f 45/5/1 44/5/1 43/5/1
f 46/5/1 44/5/1 45/5/1
f 49/5/1 48/5/1 47/5/1
f 50/5/1 48/5/1 49/5/1
f 53/4/1 52/4/1 51/4/1
f 54/4/1 52/4/1 53/4/1
f 57/2/1 56/2/1 55/2/1
f 58/2/1 56/2/1 57/2/1
f 59/2/2 60/2/2 61/2/2
f 61/2/2 60/2/2 62/2/2
f 63/4/2 64/4/2 65/4/2
f 65/4/2 64/4/2 66/4/2
f 67/5/2 68/5/2 69/5/2
f 69/5/2 68/5/2 70/5/2
f 71/5/2 72/5/2 73/5/2
f 73/5/2 72/5/2 74/5/2
f 75/4/2 76/4/2 77/4/2
f 77/4/2 76/4/2 78/4/2
f 78/4/2 76/4/2 79/4/2
f 79/4/2 76/4/2 80/4/2
f 81/2/2 82/2/2 89/2/2
f 82/3/2 83/3/2 89/3/2
f 83/2/2 84/2/2 90/2/2
f 89/3/2 83/3/2 90/3/2
f 84/3/2 85/3/2 91/3/2
f 90/2/2 84/2/2 91/2/2
f 85/2/2 86/2/2 92/2/2
f 91/3/2 85/3/2 92/3/2
f 86/3/2 87/3/2 93/3/2
f 92/2/2 86/2/2 93/2/2
f 87/2/2 88/2/2 94/2/2
f 93/3/2 87/3/2 94/3/2
f 92/2/2 93/2/2 95/2/2
f 91/2/2 92/2/2 95/2/2
f 93/2/2 94/2/2 95/2/2
f 90/2/2 91/2/2 95/2/2
f 89/2/2 90/2/2 95/2/2
f 81/2/2 89/2/2 95/2/2
f 95/2/2 94/2/2 96/2/2
f 96/2/2 94/2/2 97/2/2
f 97/2/2 94/2/2 98/2/2
f 98/2/2 94/2/2 99/2/2
f 99/2/2 94/2/2 100/2/2
f 100/2/2 94/2/2 101/2/2
f 101/2/2 94/2/2 102/2/2
f 102/2/2 94/2/2 103/2/2
f 94/2/2 88/2/2 104/2/2
f 103/2/2 94/2/2 104/2/2
f 81/2/2 95/2/2 105/2/2
f 95/3/2 96/3/2 105/3/2
f 96/2/2 97/2/2 106/2/2
f 105/3/2 96/3/2 106/3/2
f 97/3/2 98/3/2 107/3/2
f 106/2/2 97/2/2 107/2/2
f 98/2/2 99/2/2 108/2/2
f 107/3/2 98/3/2 108/3/2
f 99/3/2 100/3/2 109/3/2
f 108/2/2 99/2/2 109/2/2
f 100/2/2 101/2/2 110/2/2
f 109/3/2 100/3/2 110/3/2
f 101/3/2 102/3/2 111/3/2
f 110/2/2 101/2/2 111/2/2
f 102/2/2 103/2/2 112/2/2
f 111/3/2 102/3/2 112/3/2
f 103/3/2 104/3/2 113/3/2
f 112/2/2 103/2/2 113/2/2
f 104/2/2 88/2/2 114/2/2
f 113/3/2 104/3/2 114/3/2
f 110/2/2 111/2/2 115/2/2
f 112/2/2 113/2/2 115/2/2
f 113/2/2 114/2/2 115/2/2
f 109/2/2 110/2/2 115/2/2
f 108/2/2 109/2/2 115/2/2
f 107/2/2 108/2/2 115/2/2
f 106/2/2 107/2/2 115/2/2
f 105/2/2 106/2/2 115/2/2
f 81/2/2 105/2/2 115/2/2
f 111/2/2 112/2/2 115/2/2
f 114/2/2 88/2/2 116/2/2
f 115/2/2 114/2/2 116/2/2
f 117/1/2 118/1/2 119/1/2
f 119/1/2 118/1/2 120/1/2
f 125/1/3 122/1/3 121/1/3
f 126/4/3 124/4/3 123/4/3
f 127/1/3 125/1/3 121/1/3
f 127/5/3 126/5/3 125/5/3
f 128/4/3 124/4/3 126/4/3
f 128/5/3 126/5/3 127/5/3
f 129/1/3 127/1/3 121/1/3
f 130/4/3 124/4/3 128/4/3
f 131/1/3 129/1/3 121/1/3
f 131/5/3 130/5/3 129/5/3
f 132/4/3 124/4/3 130/4/3
f 132/5/3 130/5/3 131/5/3
f 133/4/3 124/4/3 132/4/3
f 134/4/3 124/4/3 133/4/3
f 135/1/3 131/1/3 121/1/3
f 136/1/3 131/1/3 135/1/3
f 139/4/3 138/4/3 137/4/3
f 140/4/3 138/4/3 139/4/3
f 143/2/3 142/2/3 141/2/3
f 144/2/3 142/2/3 143/2/3
f 145/2/3 142/2/3 144/2/3
f 146/3/3 144/3/3 143/3/3
f 148/3/3 146/3/3 143/3/3
f 149/2/3 147/2/3 146/2/3
f 149/3/3 146/3/3 148/3/3
f 150/2/3 149/2/3 148/2/3
f 151/2/3 147/2/3 149/2/3
f 151/2/3 149/2/3 150/2/3
f 152/3/3 151/3/3 150/3/3
f 153/2/3 147/2/3 151/2/3
f 153/3/3 151/3/3 152/3/3
f 154/2/3 147/2/3 153/2/3
f 155/2/3 153/2/3 152/2/3
f 156/2/3 142/2/3 145/2/3
f 157/2/3 155/2/3 152/2/3
f 157/2/3 156/2/3 155/2/3
f 158/2/3 142/2/3 156/2/3
f 158/2/3 156/2/3 157/2/3
f 161/2/3 160/2/3 159/2/3
f 162/2/3 160/2/3 161/2/3
f 163/5/4 164/5/4 166/5/4
f 164/4/4 165/4/4 167/4/4
f 166/5/4 164/5/4 167/5/4
f 167/4/4 165/4/4 169/4/4
f 168/5/4 169/5/4 170/5/4
f 169/4/4 165/4/4 171/4/4
f 170/5/4 169/5/4 171/5/4
f 171/4/4 165/4/4 172/4/4
f 173/2/4 174/2/4 175/2/4
f 175/2/4 174/2/4 176/2/4
f 177/2/4 178/2/4 179/2/4
f 179/2/4 178/2/4 180/2/4
f 180/2/4 178/2/4 181/2/4
f 181/2/4 178/2/4 182/2/4
f 180/2/4 181/2/4 183/2/4
f 181/3/4 182/3/4 183/3/4
f 182/2/4 178/2/4 184/2/4
f 183/3/4 182/3/4 184/3/4
f 180/2/4 183/2/4 185/2/4
f 183/2/4 184/2/4 185/2/4
f 184/2/4 178/2/4 186/2/4
f 185/2/4 184/2/4 186/2/4
f 180/2/4 185/2/4 187/2/4
f 185/3/4 186/3/4 187/3/4
f 186/2/4 178/2/4 188/2/4
f 187/3/4 186/3/4 188/3/4
f 179/3/4 180/3/4 189/3/4
f 180/2/4 187/2/4 190/2/4
f 189/3/4 180/3/4 190/3/4
f 187/2/4 188/2/4 190/2/4
f 190/2/4 188/2/4 191/2/4
f 188/2/4 178/2/4 192/2/4
f 191/2/4 188/2/4 192/2/4
f 190/2/4 191/2/4 193/2/4
f 189/2/4 190/2/4 193/2/4
f 193/2/4 191/2/4 194/2/4
f 191/3/4 192/3/4 195/3/4
f 194/2/4 191/2/4 195/2/4
f 192/2/4 178/2/4 196/2/4
f 195/3/4 192/3/4 196/3/4
f 194/2/4 195/2/4 197/2/4
f 195/2/4 196/2/4 197/2/4
f 196/2/4 178/2/4 198/2/4
f 197/2/4 196/2/4 198/2/4
f 194/2/4 197/2/4 199/2/4
f 197/3/4 198/3/4 199/3/4
f 198/2/4 178/2/4 200/2/4
f 199/3/4 198/3/4 200/3/4
f 194/2/4 199/2/4 201/2/4
f 199/2/4 200/2/4 201/2/4
f 200/2/4 178/2/4 202/2/4
f 201/2/4 200/2/4 202/2/4
f 193/3/4 194/3/4 203/3/4
f 194/2/4 201/2/4 204/2/4
f 203/3/4 194/3/4 204/3/4
f 201/3/4 202/3/4 205/3/4
f 204/2/4 201/2/4 205/2/4
f 202/2/4 178/2/4 206/2/4
f 205/3/4 202/3/4 206/3/4
f 204/2/4 205/2/4 207/2/4
f 203/2/4 204/2/4 207/2/4
f 205/2/4 206/2/4 207/2/4
f 206/2/4 178/2/4 208/2/4
f 207/2/4 206/2/4 208/2/4
f 209/1/4 210/1/4 211/1/4
f 211/1/4 210/1/4 212/1/4
f 215/1/5 214/1/5 213/1/5
f 216/1/5 214/1/5 215/1/5
f 223/4/5 218/4/5 217/4/5
f 224/4/5 220/4/5 219/4/5
f 225/4/5 220/4/5 224/4/5
f 226/4/5 222/4/5 221/4/5
f 227/4/5 223/4/5 217/4/5
f 228/4/5 223/4/5 227/4/5
f 229/4/5 222/4/5 226/4/5
f 230/4/5 222/4/5 229/4/5
f 233/4/5 232/4/5 231/4/5
f 234/4/5 232/4/5 233/4/5
f 235/1/6 236/1/6 241/1/6
f 237/1/6 238/1/6 242/1/6
f 242/1/6 238/1/6 243/1/6
f 239/1/6 240/1/6 244/1/6
f 242/1/6 243/1/6 245/1/6
f 243/1/6 244/1/6 245/1/6
f 235/1/6 241/1/6 245/1/6
f 241/1/6 242/1/6 245/1/6
f 245/1/6 244/1/6 246/1/6
f 246/1/6 244/1/6 247/1/6
f 247/1/6 244/1/6 248/1/6
f 244/1/6 240/1/6 249/1/6
f 248/1/6 244/1/6 249/1/6
f 249/1/6 240/1/6 250/1/6
f 235/1/6 245/1/6 251/1/6
f 250/1/6 240/1/6 252/1/6
f 235/1/6 251/1/6 253/1/6
f 252/1/6 240/1/6 254/1/6
f 235/1/6 253/1/6 255/1/6
f 254/1/6 240/1/6 256/1/6
f 256/1/6 240/1/6 257/1/6
f 257/1/6 240/1/6 258/1/6
f 235/1/6 255/1/6 259/1/6
f 258/1/6 240/1/6 260/1/6
f 235/1/6 259/1/6 261/1/6
f 260/1/6 240/1/6 266/1/6
f 264/1/6 265/1/6 267/1/6
f 265/1/6 266/1/6 267/1/6
f 235/1/6 261/1/6 267/1/6
f 261/1/6 262/1/6 267/1/6
f 263/1/6 264/1/6 267/1/6
f 262/1/6 263/1/6 267/1/6
f 266/1/6 240/1/6 268/1/6
f 267/1/6 266/1/6 268/1/6
f 269/4/6 270/4/6 271/4/6
f 271/4/6 270/4/6 272/4/6
f 273/4/6 274/4/6 275/4/6
f 275/4/6 274/4/6 276/4/6
f 277/5/6 278/5/6 279/5/6
f 279/5/6 278/5/6 280/5/6
f 281/2/6 282/2/6 283/2/6
f 283/2/6 282/2/6 284/2/6
f 281/2/6 283/2/6 285/2/6
f 284/2/6 282/2/6 286/2/6
f 281/2/6 285/2/6 287/2/6
f 285/2/6 286/2/6 287/2/6
f 286/2/6 282/2/6 288/2/6
f 287/2/6 286/2/6 288/2/6
