# Blender 4.3.2
# www.blender.org
mtllib Intersection03.mtl
o Intersection03
v -0.700000 0.000000 0.700000
v -0.700000 0.000000 0.400000
v -0.700000 -0.000000 -0.500000
v -0.700000 -0.000000 -0.800000
v -0.700000 0.100000 0.400000
v -0.700000 0.100000 -0.500000
v -0.700000 0.200000 0.700000
v -0.700000 0.200000 0.400000
v -0.700000 0.200000 -0.500000
v -0.700000 0.200000 -0.800000
v 0.500000 0.100000 0.700000
v 0.500000 0.100000 0.500000
v 0.500000 0.100000 0.400000
v 0.500000 0.100000 -0.500000
v 0.500000 0.100000 -0.800000
v 0.500000 0.200000 0.700000
v 0.500000 0.200000 0.400000
v 0.500000 0.200000 -0.500000
v 0.500000 0.200000 -0.800000
v -0.400000 0.100000 0.700000
v -0.400000 0.100000 0.400000
v -0.400000 0.100000 -0.500000
v -0.400000 0.100000 -0.600000
v -0.400000 0.100000 -0.800000
v -0.400000 0.200000 0.700000
v -0.400000 0.200000 0.400000
v -0.400000 0.200000 -0.500000
v -0.400000 0.200000 -0.800000
v 0.800000 0.000000 0.700000
v 0.800000 0.000000 0.400000
v 0.800000 -0.000000 -0.500000
v 0.800000 -0.000000 -0.800000
v 0.800000 0.100000 0.400000
v 0.800000 0.100000 -0.500000
v 0.800000 0.200000 0.700000
v 0.800000 0.200000 0.400000
v 0.800000 0.200000 -0.500000
v 0.800000 0.200000 -0.800000
v -0.700000 0.000000 0.700000
v -0.700000 0.200000 0.700000
v -0.400000 0.000000 0.700000
v -0.400000 0.100000 0.700000
v -0.400000 0.200000 0.700000
v 0.500000 0.000000 0.700000
v 0.500000 0.100000 0.700000
v 0.500000 0.200000 0.700000
v 0.800000 0.000000 0.700000
v 0.800000 0.200000 0.700000
v -0.700000 0.100000 -0.500000
v -0.700000 0.200000 -0.500000
v -0.400000 0.100000 -0.500000
v -0.400000 0.200000 -0.500000
v 0.500000 0.100000 -0.500000
v 0.500000 0.200000 -0.500000
v 0.600000 0.100000 -0.500000
v 0.800000 0.100000 -0.500000
v 0.800000 0.200000 -0.500000
v -0.700000 0.100000 0.400000
v -0.700000 0.200000 0.400000
v -0.500000 0.100000 0.400000
v -0.400000 0.100000 0.400000
v -0.400000 0.200000 0.400000
v 0.500000 0.100000 0.400000
v 0.500000 0.200000 0.400000
v 0.800000 0.100000 0.400000
v 0.800000 0.200000 0.400000
v -0.700000 -0.000000 -0.800000
v -0.700000 0.200000 -0.800000
v -0.400000 -0.000000 -0.800000
v -0.400000 0.100000 -0.800000
v -0.400000 0.200000 -0.800000
v 0.500000 -0.000000 -0.800000
v 0.500000 0.100000 -0.800000
v 0.500000 0.200000 -0.800000
v 0.800000 -0.000000 -0.800000
v 0.800000 0.200000 -0.800000
v -0.700000 0.000000 0.700000
v -0.400000 0.000000 0.700000
v 0.500000 0.000000 0.700000
v 0.800000 0.000000 0.700000
v 0.000000 0.000000 0.500000
v 0.100000 0.000000 0.500000
v 0.200000 0.000000 0.500000
v 0.300000 0.000000 0.500000
v 0.400000 0.000000 0.500000
v 0.500000 0.000000 0.500000
v -0.700000 0.000000 0.400000
v -0.500000 0.000000 0.400000
v -0.400000 0.000000 0.400000
v 0.000000 0.000000 0.400000
v 0.100000 0.000000 0.400000
v 0.200000 0.000000 0.400000
v 0.300000 0.000000 0.400000
v 0.400000 0.000000 0.400000
v 0.500000 0.000000 0.400000
v 0.800000 0.000000 0.400000
v -0.500000 0.000000 0.300000
v -0.400000 0.000000 0.300000
v -0.500000 0.000000 0.200000
v -0.400000 0.000000 0.200000
v -0.500000 0.000000 0.100000
v -0.400000 0.000000 0.100000
v -0.500000 0.000000 0.000000
v -0.400000 0.000000 0.000000
v 0.500000 0.000000 0.000000
v 0.600000 0.000000 0.000000
v -0.500000 -0.000000 -0.100000
v -0.400000 -0.000000 -0.100000
v 0.500000 -0.000000 -0.100000
v 0.600000 -0.000000 -0.100000
v 0.500000 -0.000000 -0.200000
v 0.600000 -0.000000 -0.200000
v 0.500000 -0.000000 -0.300000
v 0.600000 -0.000000 -0.300000
v 0.500000 -0.000000 -0.400000
v 0.600000 -0.000000 -0.400000
v -0.700000 -0.000000 -0.500000
v -0.400000 -0.000000 -0.500000
v -0.300000 -0.000000 -0.500000
v -0.200000 -0.000000 -0.500000
v -0.100000 -0.000000 -0.500000
v 0.000000 -0.000000 -0.500000
v 0.100000 -0.000000 -0.500000
v 0.500000 -0.000000 -0.500000
v 0.600000 -0.000000 -0.500000
v 0.800000 -0.000000 -0.500000
v -0.400000 -0.000000 -0.600000
v -0.300000 -0.000000 -0.600000
v -0.200000 -0.000000 -0.600000
v -0.100000 -0.000000 -0.600000
v 0.000000 -0.000000 -0.600000
v 0.100000 -0.000000 -0.600000
v -0.700000 -0.000000 -0.800000
v -0.400000 -0.000000 -0.800000
v 0.500000 -0.000000 -0.800000
v 0.800000 -0.000000 -0.800000
v -0.400000 0.100000 0.700000
v 0.500000 0.100000 0.700000
v 0.000000 0.100000 0.500000
v 0.100000 0.100000 0.500000
v 0.200000 0.100000 0.500000
v 0.300000 0.100000 0.500000
v 0.400000 0.100000 0.500000
v 0.500000 0.100000 0.500000
v -0.700000 0.100000 0.400000
v -0.500000 0.100000 0.400000
v -0.400000 0.100000 0.400000
v 0.000000 0.100000 0.400000
v 0.100000 0.100000 0.400000
v 0.200000 0.100000 0.400000
v 0.300000 0.100000 0.400000
v 0.400000 0.100000 0.400000
v 0.500000 0.100000 0.400000
v 0.800000 0.100000 0.400000
v -0.500000 0.100000 0.300000
v -0.400000 0.100000 0.300000
v -0.500000 0.100000 0.200000
v -0.400000 0.100000 0.200000
v -0.500000 0.100000 0.100000
v -0.400000 0.100000 0.100000
v -0.500000 0.100000 -0.000000
v -0.400000 0.100000 -0.000000
v 0.500000 0.100000 -0.000000
v 0.600000 0.100000 -0.000000
v -0.500000 0.100000 -0.100000
v -0.400000 0.100000 -0.100000
v 0.500000 0.100000 -0.100000
v 0.600000 0.100000 -0.100000
v 0.500000 0.100000 -0.200000
v 0.600000 0.100000 -0.200000
v 0.500000 0.100000 -0.300000
v 0.600000 0.100000 -0.300000
v 0.500000 0.100000 -0.400000
v 0.600000 0.100000 -0.400000
v -0.700000 0.100000 -0.500000
v -0.400000 0.100000 -0.500000
v -0.300000 0.100000 -0.500000
v -0.200000 0.100000 -0.500000
v -0.100000 0.100000 -0.500000
v 0.000000 0.100000 -0.500000
v 0.100000 0.100000 -0.500000
v 0.500000 0.100000 -0.500000
v 0.600000 0.100000 -0.500000
v 0.800000 0.100000 -0.500000
v -0.400000 0.100000 -0.600000
v -0.300000 0.100000 -0.600000
v -0.200000 0.100000 -0.600000
v -0.100000 0.100000 -0.600000
v 0.000000 0.100000 -0.600000
v 0.100000 0.100000 -0.600000
v -0.400000 0.100000 -0.800000
v 0.500000 0.100000 -0.800000
v -0.700000 0.200000 0.700000
v -0.400000 0.200000 0.700000
v 0.500000 0.200000 0.700000
v 0.800000 0.200000 0.700000
v -0.700000 0.200000 0.400000
v -0.400000 0.200000 0.400000
v 0.500000 0.200000 0.400000
v 0.800000 0.200000 0.400000
v -0.700000 0.200000 -0.500000
v -0.400000 0.200000 -0.500000
v 0.500000 0.200000 -0.500000
v 0.800000 0.200000 -0.500000
v -0.700000 0.200000 -0.800000
v -0.400000 0.200000 -0.800000
v 0.500000 0.200000 -0.800000
v 0.800000 0.200000 -0.800000
vn -1.0000 -0.0000 -0.0000
vn 1.0000 -0.0000 -0.0000
vn -0.0000 -0.0000 1.0000
vn -0.0000 -0.0000 -1.0000
vn -0.0000 -1.0000 -0.0000
vn -0.0000 1.0000 -0.0000
vt 0.939453 0.500000
vt 0.908203 0.500000
vt 0.876953 0.500000
s 1
usemtl palette
f 5/1/1 2/1/1 1/1/1
f 5/2/1 3/2/1 2/2/1
f 6/1/1 4/1/1 3/1/1
f 6/2/1 3/2/1 5/2/1
f 7/1/1 5/1/1 1/1/1
f 8/1/1 5/1/1 7/1/1
f 9/1/1 4/1/1 6/1/1
f 10/1/1 4/1/1 9/1/1
f 16/1/1 12/1/1 11/1/1
f 16/1/1 13/1/1 12/1/1
f 17/1/1 13/1/1 16/1/1
f 18/1/1 15/1/1 14/1/1
f 19/1/1 15/1/1 18/1/1
f 20/1/2 21/1/2 25/1/2
f 25/1/2 21/1/2 26/1/2
f 23/1/2 24/1/2 27/1/2
f 22/1/2 23/1/2 27/1/2
f 27/1/2 24/1/2 28/1/2
f 29/1/2 30/1/2 33/1/2
f 30/2/2 31/2/2 33/2/2
f 31/1/2 32/1/2 34/1/2
f 33/2/2 31/2/2 34/2/2
f 29/1/2 33/1/2 35/1/2
f 35/1/2 33/1/2 36/1/2
f 34/1/2 32/1/2 37/1/2
f 37/1/2 32/1/2 38/1/2
f 41/1/3 40/1/3 39/1/3
f 42/1/3 40/1/3 41/1/3
f 43/1/3 40/1/3 42/1/3
f 44/2/3 42/2/3 41/2/3
f 45/2/3 42/2/3 44/2/3
f 47/1/3 45/1/3 44/1/3
f 47/1/3 46/1/3 45/1/3
f 48/1/3 46/1/3 47/1/3
f 51/1/3 50/1/3 49/1/3
f 52/1/3 50/1/3 51/1/3
f 55/1/3 54/1/3 53/1/3
f 56/1/3 54/1/3 55/1/3
f 57/1/3 54/1/3 56/1/3
f 58/1/4 59/1/4 60/1/4
f 60/1/4 59/1/4 61/1/4
f 61/1/4 59/1/4 62/1/4
f 63/1/4 64/1/4 65/1/4
f 65/1/4 64/1/4 66/1/4
f 67/1/4 68/1/4 69/1/4
f 69/1/4 68/1/4 70/1/4
f 70/1/4 68/1/4 71/1/4
f 69/2/4 70/2/4 72/2/4
f 72/2/4 70/2/4 73/2/4
f 72/1/4 73/1/4 75/1/4
f 73/1/4 74/1/4 75/1/4
f 75/1/4 74/1/4 76/1/4
f 81/2/5 79/2/5 78/2/5
f 82/2/5 79/2/5 81/2/5
f 83/2/5 79/2/5 82/2/5
f 84/2/5 79/2/5 83/2/5
f 85/2/5 79/2/5 84/2/5
f 86/1/5 80/1/5 79/1/5
f 86/2/5 79/2/5 85/2/5
f 87/1/5 78/1/5 77/1/5
f 88/1/5 78/1/5 87/1/5
f 89/2/5 81/2/5 78/2/5
f 89/1/5 78/1/5 88/1/5
f 90/3/5 82/3/5 81/3/5
f 90/2/5 81/2/5 89/2/5
f 91/2/5 83/2/5 82/2/5
f 91/3/5 82/3/5 90/3/5
f 92/3/5 84/3/5 83/3/5
f 92/2/5 83/2/5 91/2/5
f 93/2/5 85/2/5 84/2/5
f 93/3/5 84/3/5 92/3/5
f 94/3/5 86/3/5 85/3/5
f 94/2/5 85/2/5 93/2/5
f 95/1/5 80/1/5 86/1/5
f 95/3/5 86/3/5 94/3/5
f 96/1/5 80/1/5 95/1/5
f 97/2/5 88/2/5 87/2/5
f 97/3/5 89/3/5 88/3/5
f 98/2/5 94/2/5 93/2/5
f 98/3/5 89/3/5 97/3/5
f 98/2/5 92/2/5 91/2/5
f 98/2/5 95/2/5 94/2/5
f 98/2/5 96/2/5 95/2/5
f 98/2/5 93/2/5 92/2/5
f 98/2/5 91/2/5 90/2/5
f 98/2/5 90/2/5 89/2/5
f 99/2/5 97/2/5 87/2/5
f 99/2/5 98/2/5 97/2/5
f 100/2/5 96/2/5 98/2/5
f 100/2/5 98/2/5 99/2/5
f 101/2/5 99/2/5 87/2/5
f 101/3/5 100/3/5 99/3/5
f 102/2/5 96/2/5 100/2/5
f 102/3/5 100/3/5 101/3/5
f 103/2/5 101/2/5 87/2/5
f 103/2/5 102/2/5 101/2/5
f 104/2/5 96/2/5 102/2/5
f 104/2/5 102/2/5 103/2/5
f 105/2/5 96/2/5 104/2/5
f 106/2/5 96/2/5 105/2/5
f 107/2/5 103/2/5 87/2/5
f 107/3/5 104/3/5 103/3/5
f 108/2/5 105/2/5 104/2/5
f 108/3/5 104/3/5 107/3/5
f 109/3/5 106/3/5 105/3/5
f 109/2/5 105/2/5 108/2/5
f 110/2/5 96/2/5 106/2/5
f 110/3/5 106/3/5 109/3/5
f 111/2/5 109/2/5 108/2/5
f 111/2/5 108/2/5 107/2/5
f 111/2/5 110/2/5 109/2/5
f 112/2/5 96/2/5 110/2/5
f 112/2/5 110/2/5 111/2/5
f 113/2/5 111/2/5 107/2/5
f 113/3/5 112/3/5 111/3/5
f 114/2/5 96/2/5 112/2/5
f 114/3/5 112/3/5 113/3/5
f 115/2/5 113/2/5 107/2/5
f 115/2/5 114/2/5 113/2/5
f 116/2/5 96/2/5 114/2/5
f 116/2/5 114/2/5 115/2/5
f 117/2/5 115/2/5 107/2/5
f 117/2/5 107/2/5 87/2/5
f 118/2/5 115/2/5 117/2/5
f 119/2/5 115/2/5 118/2/5
f 120/2/5 115/2/5 119/2/5
f 121/2/5 115/2/5 120/2/5
f 122/2/5 115/2/5 121/2/5
f 123/2/5 115/2/5 122/2/5
f 124/3/5 116/3/5 115/3/5
f 124/2/5 115/2/5 123/2/5
f 125/2/5 96/2/5 116/2/5
f 125/3/5 116/3/5 124/3/5
f 126/2/5 96/2/5 125/2/5
f 127/1/5 118/1/5 117/1/5
f 127/3/5 119/3/5 118/3/5
f 128/2/5 120/2/5 119/2/5
f 128/3/5 119/3/5 127/3/5
f 129/3/5 121/3/5 120/3/5
f 129/2/5 120/2/5 128/2/5
f 130/2/5 122/2/5 121/2/5
f 130/3/5 121/3/5 129/3/5
f 131/3/5 123/3/5 122/3/5
f 131/2/5 122/2/5 130/2/5
f 132/2/5 124/2/5 123/2/5
f 132/3/5 123/3/5 131/3/5
f 133/1/5 127/1/5 117/1/5
f 134/2/5 131/2/5 130/2/5
f 134/1/5 127/1/5 133/1/5
f 134/2/5 130/2/5 129/2/5
f 134/2/5 132/2/5 131/2/5
f 134/2/5 128/2/5 127/2/5
f 134/2/5 129/2/5 128/2/5
f 135/1/5 125/1/5 124/1/5
f 135/2/5 132/2/5 134/2/5
f 135/1/5 126/1/5 125/1/5
f 135/2/5 124/2/5 132/2/5
f 136/1/5 126/1/5 135/1/5
f 137/2/6 138/2/6 139/2/6
f 139/2/6 138/2/6 140/2/6
f 140/2/6 138/2/6 141/2/6
f 141/2/6 138/2/6 142/2/6
f 142/2/6 138/2/6 143/2/6
f 143/2/6 138/2/6 144/2/6
f 137/2/6 139/2/6 147/2/6
f 139/3/6 140/3/6 148/3/6
f 147/2/6 139/2/6 148/2/6
f 140/2/6 141/2/6 149/2/6
f 148/3/6 140/3/6 149/3/6
f 141/3/6 142/3/6 150/3/6
f 149/2/6 141/2/6 150/2/6
f 142/2/6 143/2/6 151/2/6
f 150/3/6 142/3/6 151/3/6
f 143/3/6 144/3/6 152/3/6
f 151/2/6 143/2/6 152/2/6
f 152/3/6 144/3/6 153/3/6
f 145/2/6 146/2/6 155/2/6
f 146/3/6 147/3/6 155/3/6
f 153/2/6 154/2/6 156/2/6
f 155/3/6 147/3/6 156/3/6
f 151/2/6 152/2/6 156/2/6
f 147/2/6 148/2/6 156/2/6
f 152/2/6 153/2/6 156/2/6
f 150/2/6 151/2/6 156/2/6
f 149/2/6 150/2/6 156/2/6
f 148/2/6 149/2/6 156/2/6
f 145/2/6 155/2/6 157/2/6
f 155/2/6 156/2/6 157/2/6
f 156/2/6 154/2/6 158/2/6
f 157/2/6 156/2/6 158/2/6
f 145/2/6 157/2/6 159/2/6
f 157/3/6 158/3/6 159/3/6
f 158/2/6 154/2/6 160/2/6
f 159/3/6 158/3/6 160/3/6
f 145/2/6 159/2/6 161/2/6
f 159/2/6 160/2/6 161/2/6
f 160/2/6 154/2/6 162/2/6
f 161/2/6 160/2/6 162/2/6
f 162/2/6 154/2/6 163/2/6
f 163/2/6 154/2/6 164/2/6
f 145/2/6 161/2/6 165/2/6
f 161/3/6 162/3/6 165/3/6
f 162/2/6 163/2/6 166/2/6
f 165/3/6 162/3/6 166/3/6
f 163/3/6 164/3/6 167/3/6
f 166/2/6 163/2/6 167/2/6
f 164/2/6 154/2/6 168/2/6
f 167/3/6 164/3/6 168/3/6
f 166/2/6 167/2/6 169/2/6
f 165/2/6 166/2/6 169/2/6
f 167/2/6 168/2/6 169/2/6
f 168/2/6 154/2/6 170/2/6
f 169/2/6 168/2/6 170/2/6
f 165/2/6 169/2/6 171/2/6
f 169/3/6 170/3/6 171/3/6
f 170/2/6 154/2/6 172/2/6
f 171/3/6 170/3/6 172/3/6
f 165/2/6 171/2/6 173/2/6
f 171/2/6 172/2/6 173/2/6
f 172/2/6 154/2/6 174/2/6
f 173/2/6 172/2/6 174/2/6
f 165/2/6 173/2/6 175/2/6
f 145/2/6 165/2/6 175/2/6
f 175/2/6 173/2/6 176/2/6
f 176/2/6 173/2/6 177/2/6
f 177/2/6 173/2/6 178/2/6
f 178/2/6 173/2/6 179/2/6
f 179/2/6 173/2/6 180/2/6
f 180/2/6 173/2/6 181/2/6
f 173/3/6 174/3/6 182/3/6
f 181/2/6 173/2/6 182/2/6
f 174/2/6 154/2/6 183/2/6
f 182/3/6 174/3/6 183/3/6
f 183/2/6 154/2/6 184/2/6
f 176/3/6 177/3/6 185/3/6
f 177/2/6 178/2/6 186/2/6
f 185/3/6 177/3/6 186/3/6
f 178/3/6 179/3/6 187/3/6
f 186/2/6 178/2/6 187/2/6
f 179/2/6 180/2/6 188/2/6
f 187/3/6 179/3/6 188/3/6
f 180/3/6 181/3/6 189/3/6
f 188/2/6 180/2/6 189/2/6
f 181/2/6 182/2/6 190/2/6
f 189/3/6 181/3/6 190/3/6
f 188/2/6 189/2/6 191/2/6
f 187/2/6 188/2/6 191/2/6
f 189/2/6 190/2/6 191/2/6
f 185/2/6 186/2/6 191/2/6
f 186/2/6 187/2/6 191/2/6
f 190/2/6 182/2/6 192/2/6
f 191/2/6 190/2/6 192/2/6
f 193/1/6 194/1/6 197/1/6
f 197/1/6 194/1/6 198/1/6
f 195/1/6 196/1/6 199/1/6
f 199/1/6 196/1/6 200/1/6
f 201/1/6 202/1/6 205/1/6
f 205/1/6 202/1/6 206/1/6
f 203/1/6 204/1/6 207/1/6
f 207/1/6 204/1/6 208/1/6
