# Blender 4.3.2
# www.blender.org
mtllib SimpleTurn.mtl
o SimpleTurn
v -0.700000 0.000000 0.700000
v -0.700000 -0.000000 -0.800000
v -0.700000 0.200000 0.700000
v -0.700000 0.200000 -0.800000
v 0.500000 0.100000 -0.500000
v 0.500000 0.100000 -0.800000
v 0.500000 0.200000 -0.500000
v 0.500000 0.200000 -0.800000
v -0.400000 0.100000 0.400000
v -0.400000 0.100000 -0.800000
v -0.400000 0.200000 0.400000
v -0.400000 0.200000 -0.800000
v 0.800000 0.000000 0.700000
v 0.800000 0.000000 0.400000
v 0.800000 -0.000000 -0.500000
v 0.800000 -0.000000 -0.800000
v 0.800000 0.100000 0.400000
v 0.800000 0.100000 -0.500000
v 0.800000 0.200000 0.700000
v 0.800000 0.200000 0.400000
v 0.800000 0.200000 -0.500000
v 0.800000 0.200000 -0.800000
v -0.700000 0.000000 0.700000
v -0.700000 0.200000 0.700000
v 0.800000 0.000000 0.700000
v 0.800000 0.200000 0.700000
v 0.500000 0.100000 -0.500000
v 0.500000 0.200000 -0.500000
v 0.800000 0.100000 -0.500000
v 0.800000 0.200000 -0.500000
v -0.400000 0.100000 0.400000
v -0.400000 0.200000 0.400000
v 0.800000 0.100000 0.400000
v 0.800000 0.200000 0.400000
v -0.700000 -0.000000 -0.800000
v -0.700000 0.200000 -0.800000
v -0.400000 -0.000000 -0.800000
v -0.400000 0.100000 -0.800000
v -0.400000 0.200000 -0.800000
v 0.500000 -0.000000 -0.800000
v 0.500000 0.100000 -0.800000
v 0.500000 0.200000 -0.800000
v 0.800000 -0.000000 -0.800000
v 0.800000 0.200000 -0.800000
v -0.700000 0.000000 0.700000
v 0.800000 0.000000 0.700000
v -0.400000 0.000000 0.400000
v 0.800000 0.000000 0.400000
v 0.100000 0.000000 0.000000
v 0.200000 0.000000 0.000000
v 0.400000 0.000000 0.000000
v 0.700000 0.000000 0.000000
v 0.000000 -0.000000 -0.100000
v 0.100000 -0.000000 -0.100000
v 0.200000 -0.000000 -0.100000
v 0.400000 -0.000000 -0.100000
v 0.700000 -0.000000 -0.100000
v 0.000000 -0.000000 -0.200000
v 0.100000 -0.000000 -0.200000
v 0.000000 -0.000000 -0.400000
v 0.100000 -0.000000 -0.400000
v 0.500000 -0.000000 -0.500000
v 0.800000 -0.000000 -0.500000
v 0.000000 -0.000000 -0.700000
v 0.100000 -0.000000 -0.700000
v -0.700000 -0.000000 -0.800000
v -0.400000 -0.000000 -0.800000
v 0.500000 -0.000000 -0.800000
v 0.800000 -0.000000 -0.800000
v -0.400000 0.100000 0.400000
v 0.800000 0.100000 0.400000
v 0.100000 0.100000 -0.000000
v 0.200000 0.100000 -0.000000
v 0.400000 0.100000 -0.000000
v 0.700000 0.100000 -0.000000
v 0.000000 0.100000 -0.100000
v 0.100000 0.100000 -0.100000
v 0.200000 0.100000 -0.100000
v 0.400000 0.100000 -0.100000
v 0.700000 0.100000 -0.100000
v 0.000000 0.100000 -0.200000
v 0.100000 0.100000 -0.200000
v 0.000000 0.100000 -0.400000
v 0.100000 0.100000 -0.400000
v 0.500000 0.100000 -0.500000
v 0.800000 0.100000 -0.500000
v 0.000000 0.100000 -0.700000
v 0.100000 0.100000 -0.700000
v -0.400000 0.100000 -0.800000
v 0.500000 0.100000 -0.800000
v -0.700000 0.200000 0.700000
v 0.800000 0.200000 0.700000
v -0.400000 0.200000 0.400000
v 0.800000 0.200000 0.400000
v 0.500000 0.200000 -0.500000
v 0.800000 0.200000 -0.500000
v -0.700000 0.200000 -0.800000
v -0.400000 0.200000 -0.800000
v 0.500000 0.200000 -0.800000
v 0.800000 0.200000 -0.800000
vn -1.0000 -0.0000 -0.0000
vn 1.0000 -0.0000 -0.0000
vn -0.0000 -0.0000 1.0000
vn -0.0000 -0.0000 -1.0000
vn -0.0000 -1.0000 -0.0000
vn -0.0000 1.0000 -0.0000
vt 0.939453 0.500000
vt 0.908203 0.500000
vt 0.876953 0.500000
s 1
usemtl palette
f 3/1/1 2/1/1 1/1/1
f 4/1/1 2/1/1 3/1/1
f 7/1/1 6/1/1 5/1/1
f 8/1/1 6/1/1 7/1/1
f 9/1/2 10/1/2 11/1/2
f 11/1/2 10/1/2 12/1/2
f 13/1/2 14/1/2 17/1/2
f 14/2/2 15/2/2 17/2/2
f 15/1/2 16/1/2 18/1/2
f 17/2/2 15/2/2 18/2/2
f 13/1/2 17/1/2 19/1/2
f 19/1/2 17/1/2 20/1/2
f 18/1/2 16/1/2 21/1/2
f 21/1/2 16/1/2 22/1/2
f 25/1/3 24/1/3 23/1/3
f 26/1/3 24/1/3 25/1/3
f 29/1/3 28/1/3 27/1/3
f 30/1/3 28/1/3 29/1/3
f 31/1/4 32/1/4 33/1/4
f 33/1/4 32/1/4 34/1/4
f 35/1/4 36/1/4 37/1/4
f 37/1/4 36/1/4 38/1/4
f 38/1/4 36/1/4 39/1/4
f 37/2/4 38/2/4 40/2/4
f 40/2/4 38/2/4 41/2/4
f 40/1/4 41/1/4 43/1/4
f 41/1/4 42/1/4 43/1/4
f 43/1/4 42/1/4 44/1/4
f 47/1/5 46/1/5 45/1/5
f 48/1/5 46/1/5 47/1/5
f 49/2/5 48/2/5 47/2/5
f 50/2/5 48/2/5 49/2/5
f 51/2/5 48/2/5 50/2/5
f 52/2/5 48/2/5 51/2/5
f 53/2/5 49/2/5 47/2/5
f 54/3/5 50/3/5 49/3/5
f 54/2/5 49/2/5 53/2/5
f 55/2/5 51/2/5 50/2/5
f 55/3/5 50/3/5 54/3/5
f 56/3/5 52/3/5 51/3/5
f 56/2/5 51/2/5 55/2/5
f 57/2/5 48/2/5 52/2/5
f 57/3/5 52/3/5 56/3/5
f 58/2/5 53/2/5 47/2/5
f 58/3/5 54/3/5 53/3/5
f 59/2/5 56/2/5 55/2/5
f 59/3/5 54/3/5 58/3/5
f 59/2/5 57/2/5 56/2/5
f 59/2/5 55/2/5 54/2/5
f 60/2/5 58/2/5 47/2/5
f 60/2/5 59/2/5 58/2/5
f 61/2/5 57/2/5 59/2/5
f 61/2/5 59/2/5 60/2/5
f 62/2/5 57/2/5 61/2/5
f 63/2/5 48/2/5 57/2/5
f 63/2/5 57/2/5 62/2/5
f 64/2/5 60/2/5 47/2/5
f 64/3/5 61/3/5 60/3/5
f 65/2/5 62/2/5 61/2/5
f 65/3/5 61/3/5 64/3/5
f 66/1/5 47/1/5 45/1/5
f 67/2/5 64/2/5 47/2/5
f 67/1/5 47/1/5 66/1/5
f 67/2/5 65/2/5 64/2/5
f 68/2/5 62/2/5 65/2/5
f 68/2/5 65/2/5 67/2/5
f 68/1/5 63/1/5 62/1/5
f 69/1/5 63/1/5 68/1/5
f 70/2/6 71/2/6 72/2/6
f 72/2/6 71/2/6 73/2/6
f 73/2/6 71/2/6 74/2/6
f 74/2/6 71/2/6 75/2/6
f 70/2/6 72/2/6 76/2/6
f 72/3/6 73/3/6 77/3/6
f 76/2/6 72/2/6 77/2/6
f 73/2/6 74/2/6 78/2/6
f 77/3/6 73/3/6 78/3/6
f 74/3/6 75/3/6 79/3/6
f 78/2/6 74/2/6 79/2/6
f 75/2/6 71/2/6 80/2/6
f 79/3/6 75/3/6 80/3/6
f 70/2/6 76/2/6 81/2/6
f 76/3/6 77/3/6 81/3/6
f 78/2/6 79/2/6 82/2/6
f 81/3/6 77/3/6 82/3/6
f 79/2/6 80/2/6 82/2/6
f 77/2/6 78/2/6 82/2/6
f 70/2/6 81/2/6 83/2/6
f 81/2/6 82/2/6 83/2/6
f 82/2/6 80/2/6 84/2/6
f 83/2/6 82/2/6 84/2/6
f 84/2/6 80/2/6 85/2/6
f 80/2/6 71/2/6 86/2/6
f 85/2/6 80/2/6 86/2/6
f 70/2/6 83/2/6 87/2/6
f 83/3/6 84/3/6 87/3/6
f 84/2/6 85/2/6 88/2/6
f 87/3/6 84/3/6 88/3/6
f 70/2/6 87/2/6 89/2/6
f 87/2/6 88/2/6 89/2/6
f 88/2/6 85/2/6 90/2/6
f 89/2/6 88/2/6 90/2/6
f 91/1/6 92/1/6 93/1/6
f 93/1/6 92/1/6 94/1/6
f 91/1/6 93/1/6 97/1/6
f 97/1/6 93/1/6 98/1/6
f 95/1/6 96/1/6 99/1/6
f 99/1/6 96/1/6 100/1/6
