# MagicaVoxel @ Ephtracy

# group
o 

# material
mtllib CityVoxelPack-3.mtl
usemtl palette

# normals
vn -1 0 0
vn 1 0 0
vn 0 0 1
vn 0 0 -1
vn 0 -1 0
vn 0 1 0

# texcoords
vt 0.751953 0.5
vt 0.783203 0.5
vt 0.794922 0.5
vt 0.939453 0.5

# verts
v -0.7 0 0.7
v -0.7 0 -0.8
v -0.7 0.1 0.4
v -0.7 0.1 -0.5
v -0.7 0.2 0.7
v -0.7 0.2 0.4
v -0.7 0.2 -0.5
v -0.7 0.2 -0.8
v -0.6 0.2 0.6
v -0.6 0.2 0.5
v -0.6 0.2 -0.6
v -0.6 0.2 -0.7
v -0.6 0.3 0.6
v -0.6 0.3 0.5
v -0.6 0.3 -0.6
v -0.6 0.3 -0.7
v -0.3 0.2 0.6
v -0.3 0.2 0.5
v -0.3 0.2 -0.6
v -0.3 0.2 -0.7
v -0.3 0.3 0.6
v -0.3 0.3 0.5
v -0.3 0.3 -0.6
v -0.3 0.3 -0.7
v 0 0.2 0.6
v 0 0.2 0.5
v 0 0.2 -0.6
v 0 0.2 -0.7
v 0 0.3 0.6
v 0 0.3 0.5
v 0 0.3 -0.6
v 0 0.3 -0.7
v 0.3 0.2 0.6
v 0.3 0.2 0.5
v 0.3 0.2 -0.6
v 0.3 0.2 -0.7
v 0.3 0.3 0.6
v 0.3 0.3 0.5
v 0.3 0.3 -0.6
v 0.3 0.3 -0.7
v 0.6 0.2 0.6
v 0.6 0.2 0.5
v 0.6 0.2 -0.6
v 0.6 0.2 -0.7
v 0.6 0.3 0.6
v 0.6 0.3 0.5
v 0.6 0.3 -0.6
v 0.6 0.3 -0.7
v -0.5 0.2 0.6
v -0.5 0.2 0.5
v -0.5 0.2 -0.6
v -0.5 0.2 -0.7
v -0.5 0.3 0.6
v -0.5 0.3 0.5
v -0.5 0.3 -0.6
v -0.5 0.3 -0.7
v -0.2 0.2 0.6
v -0.2 0.2 0.5
v -0.2 0.2 -0.6
v -0.2 0.2 -0.7
v -0.2 0.3 0.6
v -0.2 0.3 0.5
v -0.2 0.3 -0.6
v -0.2 0.3 -0.7
v 0.1 0.2 0.6
v 0.1 0.2 0.5
v 0.1 0.2 -0.6
v 0.1 0.2 -0.7
v 0.1 0.3 0.6
v 0.1 0.3 0.5
v 0.1 0.3 -0.6
v 0.1 0.3 -0.7
v 0.4 0.2 0.6
v 0.4 0.2 0.5
v 0.4 0.2 -0.6
v 0.4 0.2 -0.7
v 0.4 0.3 0.6
v 0.4 0.3 0.5
v 0.4 0.3 -0.6
v 0.4 0.3 -0.7
v 0.7 0.2 0.6
v 0.7 0.2 0.5
v 0.7 0.2 -0.6
v 0.7 0.2 -0.7
v 0.7 0.3 0.6
v 0.7 0.3 0.5
v 0.7 0.3 -0.6
v 0.7 0.3 -0.7
v 0.8 0 0.7
v 0.8 0 -0.8
v 0.8 0.1 0.4
v 0.8 0.1 -0.5
v 0.8 0.2 0.7
v 0.8 0.2 0.4
v 0.8 0.2 -0.5
v 0.8 0.2 -0.8
v -0.7 0 0.7
v -0.7 0.2 0.7
v 0.8 0 0.7
v 0.8 0.2 0.7
v -0.6 0.2 0.6
v -0.6 0.3 0.6
v -0.5 0.2 0.6
v -0.5 0.3 0.6
v -0.3 0.2 0.6
v -0.3 0.3 0.6
v -0.2 0.2 0.6
v -0.2 0.3 0.6
v 0 0.2 0.6
v 0 0.3 0.6
v 0.1 0.2 0.6
v 0.1 0.3 0.6
v 0.3 0.2 0.6
v 0.3 0.3 0.6
v 0.4 0.2 0.6
v 0.4 0.3 0.6
v 0.6 0.2 0.6
v 0.6 0.3 0.6
v 0.7 0.2 0.6
v 0.7 0.3 0.6
v -0.6 0.2 -0.6
v -0.6 0.3 -0.6
v -0.5 0.2 -0.6
v -0.5 0.3 -0.6
v -0.3 0.2 -0.6
v -0.3 0.3 -0.6
v -0.2 0.2 -0.6
v -0.2 0.3 -0.6
v 0 0.2 -0.6
v 0 0.3 -0.6
v 0.1 0.2 -0.6
v 0.1 0.3 -0.6
v 0.3 0.2 -0.6
v 0.3 0.3 -0.6
v 0.4 0.2 -0.6
v 0.4 0.3 -0.6
v 0.6 0.2 -0.6
v 0.6 0.3 -0.6
v 0.7 0.2 -0.6
v 0.7 0.3 -0.6
v -0.6 0.2 0.5
v -0.6 0.3 0.5
v -0.5 0.2 0.5
v -0.5 0.3 0.5
v -0.3 0.2 0.5
v -0.3 0.3 0.5
v -0.2 0.2 0.5
v -0.2 0.3 0.5
v 0 0.2 0.5
v 0 0.3 0.5
v 0.1 0.2 0.5
v 0.1 0.3 0.5
v 0.3 0.2 0.5
v 0.3 0.3 0.5
v 0.4 0.2 0.5
v 0.4 0.3 0.5
v 0.6 0.2 0.5
v 0.6 0.3 0.5
v 0.7 0.2 0.5
v 0.7 0.3 0.5
v -0.6 0.2 -0.7
v -0.6 0.3 -0.7
v -0.5 0.2 -0.7
v -0.5 0.3 -0.7
v -0.3 0.2 -0.7
v -0.3 0.3 -0.7
v -0.2 0.2 -0.7
v -0.2 0.3 -0.7
v 0 0.2 -0.7
v 0 0.3 -0.7
v 0.1 0.2 -0.7
v 0.1 0.3 -0.7
v 0.3 0.2 -0.7
v 0.3 0.3 -0.7
v 0.4 0.2 -0.7
v 0.4 0.3 -0.7
v 0.6 0.2 -0.7
v 0.6 0.3 -0.7
v 0.7 0.2 -0.7
v 0.7 0.3 -0.7
v -0.7 0 -0.8
v -0.7 0.2 -0.8
v 0.8 0 -0.8
v 0.8 0.2 -0.8
v -0.7 0 0.7
v 0.8 0 0.7
v -0.7 0 -0.8
v 0.8 0 -0.8
v -0.7 0.2 0.7
v 0.8 0.2 0.7
v -0.6 0.2 0.6
v -0.5 0.2 0.6
v -0.3 0.2 0.6
v -0.2 0.2 0.6
v 0 0.2 0.6
v 0.1 0.2 0.6
v 0.3 0.2 0.6
v 0.4 0.2 0.6
v 0.6 0.2 0.6
v 0.7 0.2 0.6
v -0.6 0.2 0.5
v -0.5 0.2 0.5
v -0.3 0.2 0.5
v -0.2 0.2 0.5
v 0 0.2 0.5
v 0.1 0.2 0.5
v 0.3 0.2 0.5
v 0.4 0.2 0.5
v 0.6 0.2 0.5
v 0.7 0.2 0.5
v -0.7 0.2 0.4
v 0.8 0.2 0.4
v -0.6 0.2 0.3
v 0 0.2 0.3
v 0.1 0.2 0.3
v 0.7 0.2 0.3
v -0.6 0.2 0.2
v -0.4 0.2 0.2
v 0.5 0.2 0.2
v 0.7 0.2 0.2
v -0.6 0.2 0.1
v -0.4 0.2 0.1
v -0.3 0.2 0.1
v -0.1 0.2 0.1
v 0 0.2 0.1
v 0.1 0.2 0.1
v 0.2 0.2 0.1
v 0.4 0.2 0.1
v 0.5 0.2 0.1
v 0.7 0.2 0.1
v 0 0.2 0
v 0.1 0.2 0
v 0 0.2 -0.1
v 0.1 0.2 -0.1
v -0.6 0.2 -0.2
v -0.4 0.2 -0.2
v -0.3 0.2 -0.2
v -0.1 0.2 -0.2
v 0 0.2 -0.2
v 0.1 0.2 -0.2
v 0.2 0.2 -0.2
v 0.4 0.2 -0.2
v 0.5 0.2 -0.2
v 0.7 0.2 -0.2
v -0.6 0.2 -0.3
v -0.4 0.2 -0.3
v 0.5 0.2 -0.3
v 0.7 0.2 -0.3
v -0.6 0.2 -0.4
v 0 0.2 -0.4
v 0.1 0.2 -0.4
v 0.7 0.2 -0.4
v -0.7 0.2 -0.5
v 0.8 0.2 -0.5
v -0.6 0.2 -0.6
v -0.5 0.2 -0.6
v -0.3 0.2 -0.6
v -0.2 0.2 -0.6
v 0 0.2 -0.6
v 0.1 0.2 -0.6
v 0.3 0.2 -0.6
v 0.4 0.2 -0.6
v 0.6 0.2 -0.6
v 0.7 0.2 -0.6
v -0.6 0.2 -0.7
v -0.5 0.2 -0.7
v -0.3 0.2 -0.7
v -0.2 0.2 -0.7
v 0 0.2 -0.7
v 0.1 0.2 -0.7
v 0.3 0.2 -0.7
v 0.4 0.2 -0.7
v 0.6 0.2 -0.7
v 0.7 0.2 -0.7
v -0.7 0.2 -0.8
v 0.8 0.2 -0.8
v -0.6 0.3 0.6
v -0.5 0.3 0.6
v -0.3 0.3 0.6
v -0.2 0.3 0.6
v 0 0.3 0.6
v 0.1 0.3 0.6
v 0.3 0.3 0.6
v 0.4 0.3 0.6
v 0.6 0.3 0.6
v 0.7 0.3 0.6
v -0.6 0.3 0.5
v -0.5 0.3 0.5
v -0.3 0.3 0.5
v -0.2 0.3 0.5
v 0 0.3 0.5
v 0.1 0.3 0.5
v 0.3 0.3 0.5
v 0.4 0.3 0.5
v 0.6 0.3 0.5
v 0.7 0.3 0.5
v -0.6 0.3 -0.6
v -0.5 0.3 -0.6
v -0.3 0.3 -0.6
v -0.2 0.3 -0.6
v 0 0.3 -0.6
v 0.1 0.3 -0.6
v 0.3 0.3 -0.6
v 0.4 0.3 -0.6
v 0.6 0.3 -0.6
v 0.7 0.3 -0.6
v -0.6 0.3 -0.7
v -0.5 0.3 -0.7
v -0.3 0.3 -0.7
v -0.2 0.3 -0.7
v 0 0.3 -0.7
v 0.1 0.3 -0.7
v 0.3 0.3 -0.7
v 0.4 0.3 -0.7
v 0.6 0.3 -0.7
v 0.7 0.3 -0.7

# faces
f 3/4/1 2/4/1 1/4/1
f 4/4/1 2/4/1 3/4/1
f 5/4/1 3/4/1 1/4/1
f 6/2/1 4/2/1 3/2/1
f 6/4/1 3/4/1 5/4/1
f 7/4/1 2/4/1 4/4/1
f 7/2/1 4/2/1 6/2/1
f 8/4/1 2/4/1 7/4/1
f 13/3/1 10/3/1 9/3/1
f 14/3/1 10/3/1 13/3/1
f 15/3/1 12/3/1 11/3/1
f 16/3/1 12/3/1 15/3/1
f 21/3/1 18/3/1 17/3/1
f 22/3/1 18/3/1 21/3/1
f 23/3/1 20/3/1 19/3/1
f 24/3/1 20/3/1 23/3/1
f 29/3/1 26/3/1 25/3/1
f 30/3/1 26/3/1 29/3/1
f 31/3/1 28/3/1 27/3/1
f 32/3/1 28/3/1 31/3/1
f 37/3/1 34/3/1 33/3/1
f 38/3/1 34/3/1 37/3/1
f 39/3/1 36/3/1 35/3/1
f 40/3/1 36/3/1 39/3/1
f 45/3/1 42/3/1 41/3/1
f 46/3/1 42/3/1 45/3/1
f 47/3/1 44/3/1 43/3/1
f 48/3/1 44/3/1 47/3/1
f 49/3/2 50/3/2 53/3/2
f 53/3/2 50/3/2 54/3/2
f 51/3/2 52/3/2 55/3/2
f 55/3/2 52/3/2 56/3/2
f 57/3/2 58/3/2 61/3/2
f 61/3/2 58/3/2 62/3/2
f 59/3/2 60/3/2 63/3/2
f 63/3/2 60/3/2 64/3/2
f 65/3/2 66/3/2 69/3/2
f 69/3/2 66/3/2 70/3/2
f 67/3/2 68/3/2 71/3/2
f 71/3/2 68/3/2 72/3/2
f 73/3/2 74/3/2 77/3/2
f 77/3/2 74/3/2 78/3/2
f 75/3/2 76/3/2 79/3/2
f 79/3/2 76/3/2 80/3/2
f 81/3/2 82/3/2 85/3/2
f 85/3/2 82/3/2 86/3/2
f 83/3/2 84/3/2 87/3/2
f 87/3/2 84/3/2 88/3/2
f 89/4/2 90/4/2 91/4/2
f 91/4/2 90/4/2 92/4/2
f 89/4/2 91/4/2 93/4/2
f 91/2/2 92/2/2 94/2/2
f 93/4/2 91/4/2 94/4/2
f 92/4/2 90/4/2 95/4/2
f 94/2/2 92/2/2 95/2/2
f 95/4/2 90/4/2 96/4/2
f 99/4/3 98/4/3 97/4/3
f 100/4/3 98/4/3 99/4/3
f 103/3/3 102/3/3 101/3/3
f 104/3/3 102/3/3 103/3/3
f 107/3/3 106/3/3 105/3/3
f 108/3/3 106/3/3 107/3/3
f 111/3/3 110/3/3 109/3/3
f 112/3/3 110/3/3 111/3/3
f 115/3/3 114/3/3 113/3/3
f 116/3/3 114/3/3 115/3/3
f 119/3/3 118/3/3 117/3/3
f 120/3/3 118/3/3 119/3/3
f 123/3/3 122/3/3 121/3/3
f 124/3/3 122/3/3 123/3/3
f 127/3/3 126/3/3 125/3/3
f 128/3/3 126/3/3 127/3/3
f 131/3/3 130/3/3 129/3/3
f 132/3/3 130/3/3 131/3/3
f 135/3/3 134/3/3 133/3/3
f 136/3/3 134/3/3 135/3/3
f 139/3/3 138/3/3 137/3/3
f 140/3/3 138/3/3 139/3/3
f 141/3/4 142/3/4 143/3/4
f 143/3/4 142/3/4 144/3/4
f 145/3/4 146/3/4 147/3/4
f 147/3/4 146/3/4 148/3/4
f 149/3/4 150/3/4 151/3/4
f 151/3/4 150/3/4 152/3/4
f 153/3/4 154/3/4 155/3/4
f 155/3/4 154/3/4 156/3/4
f 157/3/4 158/3/4 159/3/4
f 159/3/4 158/3/4 160/3/4
f 161/3/4 162/3/4 163/3/4
f 163/3/4 162/3/4 164/3/4
f 165/3/4 166/3/4 167/3/4
f 167/3/4 166/3/4 168/3/4
f 169/3/4 170/3/4 171/3/4
f 171/3/4 170/3/4 172/3/4
f 173/3/4 174/3/4 175/3/4
f 175/3/4 174/3/4 176/3/4
f 177/3/4 178/3/4 179/3/4
f 179/3/4 178/3/4 180/3/4
f 181/4/4 182/4/4 183/4/4
f 183/4/4 182/4/4 184/4/4
f 187/4/5 186/4/5 185/4/5
f 188/4/5 186/4/5 187/4/5
f 189/4/6 190/4/6 191/4/6
f 191/4/6 190/4/6 192/4/6
f 192/4/6 190/4/6 193/4/6
f 193/4/6 190/4/6 194/4/6
f 194/4/6 190/4/6 195/4/6
f 195/4/6 190/4/6 196/4/6
f 196/4/6 190/4/6 197/4/6
f 197/4/6 190/4/6 198/4/6
f 198/4/6 190/4/6 199/4/6
f 199/4/6 190/4/6 200/4/6
f 189/4/6 191/4/6 201/4/6
f 192/4/6 193/4/6 202/4/6
f 202/4/6 193/4/6 203/4/6
f 194/4/6 195/4/6 204/4/6
f 204/4/6 195/4/6 205/4/6
f 196/4/6 197/4/6 206/4/6
f 206/4/6 197/4/6 207/4/6
f 198/4/6 199/4/6 208/4/6
f 208/4/6 199/4/6 209/4/6
f 200/4/6 190/4/6 210/4/6
f 208/4/6 209/4/6 211/4/6
f 209/4/6 210/4/6 211/4/6
f 206/4/6 207/4/6 211/4/6
f 189/4/6 201/4/6 211/4/6
f 207/4/6 208/4/6 211/4/6
f 204/4/6 205/4/6 211/4/6
f 205/4/6 206/4/6 211/4/6
f 202/4/6 203/4/6 211/4/6
f 203/4/6 204/4/6 211/4/6
f 201/4/6 202/4/6 211/4/6
f 210/4/6 190/4/6 212/4/6
f 211/4/6 210/4/6 212/4/6
f 211/2/6 212/2/6 213/2/6
f 213/2/6 212/2/6 214/2/6
f 214/2/6 212/2/6 215/2/6
f 215/2/6 212/2/6 216/2/6
f 211/2/6 213/2/6 217/2/6
f 213/1/6 214/1/6 217/1/6
f 217/1/6 214/1/6 218/1/6
f 215/1/6 216/1/6 219/1/6
f 216/2/6 212/2/6 220/2/6
f 219/1/6 216/1/6 220/1/6
f 211/2/6 217/2/6 221/2/6
f 217/2/6 218/2/6 221/2/6
f 218/1/6 214/1/6 222/1/6
f 221/2/6 218/2/6 222/2/6
f 222/1/6 214/1/6 223/1/6
f 223/1/6 214/1/6 224/1/6
f 214/2/6 215/2/6 225/2/6
f 224/1/6 214/1/6 225/1/6
f 215/1/6 219/1/6 226/1/6
f 225/2/6 215/2/6 226/2/6
f 226/1/6 219/1/6 227/1/6
f 227/1/6 219/1/6 228/1/6
f 219/2/6 220/2/6 229/2/6
f 228/1/6 219/1/6 229/1/6
f 220/2/6 212/2/6 230/2/6
f 229/2/6 220/2/6 230/2/6
f 224/2/6 225/2/6 231/2/6
f 225/2/6 226/2/6 231/2/6
f 226/2/6 227/2/6 231/2/6
f 231/2/6 227/2/6 232/2/6
f 224/2/6 231/2/6 233/2/6
f 231/1/6 232/1/6 233/1/6
f 232/2/6 227/2/6 234/2/6
f 233/1/6 232/1/6 234/1/6
f 211/2/6 221/2/6 235/2/6
f 221/1/6 222/1/6 235/1/6
f 222/2/6 223/2/6 236/2/6
f 235/1/6 222/1/6 236/1/6
f 223/1/6 224/1/6 237/1/6
f 236/2/6 223/2/6 237/2/6
f 233/2/6 234/2/6 238/2/6
f 237/1/6 224/1/6 238/1/6
f 224/2/6 233/2/6 238/2/6
f 238/2/6 234/2/6 239/2/6
f 234/2/6 227/2/6 240/2/6
f 239/2/6 234/2/6 240/2/6
f 227/1/6 228/1/6 241/1/6
f 240/2/6 227/2/6 241/2/6
f 228/2/6 229/2/6 242/2/6
f 241/1/6 228/1/6 242/1/6
f 229/1/6 230/1/6 243/1/6
f 242/2/6 229/2/6 243/2/6
f 230/2/6 212/2/6 244/2/6
f 243/1/6 230/1/6 244/1/6
f 235/2/6 236/2/6 245/2/6
f 211/2/6 235/2/6 245/2/6
f 238/1/6 239/1/6 246/1/6
f 245/2/6 236/2/6 246/2/6
f 236/1/6 237/1/6 246/1/6
f 237/1/6 238/1/6 246/1/6
f 242/1/6 243/1/6 247/1/6
f 240/1/6 241/1/6 247/1/6
f 241/1/6 242/1/6 247/1/6
f 243/2/6 244/2/6 247/2/6
f 244/2/6 212/2/6 248/2/6
f 247/2/6 244/2/6 248/2/6
f 211/2/6 245/2/6 249/2/6
f 245/1/6 246/1/6 249/1/6
f 246/1/6 239/1/6 250/1/6
f 249/1/6 246/1/6 250/1/6
f 239/2/6 240/2/6 250/2/6
f 240/1/6 247/1/6 251/1/6
f 250/2/6 240/2/6 251/2/6
f 247/1/6 248/1/6 251/1/6
f 248/2/6 212/2/6 252/2/6
f 251/1/6 248/1/6 252/1/6
f 211/2/6 249/2/6 253/2/6
f 250/2/6 251/2/6 253/2/6
f 251/2/6 252/2/6 253/2/6
f 249/2/6 250/2/6 253/2/6
f 252/2/6 212/2/6 254/2/6
f 253/2/6 252/2/6 254/2/6
f 253/4/6 254/4/6 255/4/6
f 255/4/6 254/4/6 256/4/6
f 256/4/6 254/4/6 257/4/6
f 257/4/6 254/4/6 258/4/6
f 258/4/6 254/4/6 259/4/6
f 259/4/6 254/4/6 260/4/6
f 260/4/6 254/4/6 261/4/6
f 261/4/6 254/4/6 262/4/6
f 262/4/6 254/4/6 263/4/6
f 263/4/6 254/4/6 264/4/6
f 253/4/6 255/4/6 265/4/6
f 256/4/6 257/4/6 266/4/6
f 266/4/6 257/4/6 267/4/6
f 258/4/6 259/4/6 268/4/6
f 268/4/6 259/4/6 269/4/6
f 260/4/6 261/4/6 270/4/6
f 270/4/6 261/4/6 271/4/6
f 262/4/6 263/4/6 272/4/6
f 272/4/6 263/4/6 273/4/6
f 264/4/6 254/4/6 274/4/6
f 272/4/6 273/4/6 275/4/6
f 273/4/6 274/4/6 275/4/6
f 270/4/6 271/4/6 275/4/6
f 253/4/6 265/4/6 275/4/6
f 271/4/6 272/4/6 275/4/6
f 268/4/6 269/4/6 275/4/6
f 269/4/6 270/4/6 275/4/6
f 266/4/6 267/4/6 275/4/6
f 267/4/6 268/4/6 275/4/6
f 265/4/6 266/4/6 275/4/6
f 274/4/6 254/4/6 276/4/6
f 275/4/6 274/4/6 276/4/6
f 277/3/6 278/3/6 287/3/6
f 287/3/6 278/3/6 288/3/6
f 279/3/6 280/3/6 289/3/6
f 289/3/6 280/3/6 290/3/6
f 281/3/6 282/3/6 291/3/6
f 291/3/6 282/3/6 292/3/6
f 283/3/6 284/3/6 293/3/6
f 293/3/6 284/3/6 294/3/6
f 285/3/6 286/3/6 295/3/6
f 295/3/6 286/3/6 296/3/6
f 297/3/6 298/3/6 307/3/6
f 307/3/6 298/3/6 308/3/6
f 299/3/6 300/3/6 309/3/6
f 309/3/6 300/3/6 310/3/6
f 301/3/6 302/3/6 311/3/6
f 311/3/6 302/3/6 312/3/6
f 303/3/6 304/3/6 313/3/6
f 313/3/6 304/3/6 314/3/6
f 305/3/6 306/3/6 315/3/6
f 315/3/6 306/3/6 316/3/6
