# MagicaVoxel @ Ephtracy

# group
o 

# material
mtllib CityVoxelPack-8.mtl
usemtl palette

# normals
vn -1 0 0
vn 1 0 0
vn 0 0 1
vn 0 0 -1
vn 0 -1 0
vn 0 1 0

# texcoords
vt 0.876953 0.5
vt 0.908203 0.5
vt 0.939453 0.5

# verts
v -0.7 0 0.7
v -0.7 0 -0.8
v -0.7 0.2 0.7
v -0.7 0.2 -0.8
v 0.5 0.1 0.7
v 0.5 0.1 0.6
v 0.5 0.2 0.7
v 0.5 0.2 0.6
v 0.7 0.1 0.6
v 0.7 0.1 0.5
v 0.7 0.1 0.3
v 0.7 0.1 0.2
v 0.7 0.1 0
v 0.7 0.1 -0.1
v 0.7 0.1 -0.3
v 0.7 0.1 -0.4
v 0.7 0.1 -0.6
v 0.7 0.1 -0.7
v 0.7 0.2 0.6
v 0.7 0.2 -0.7
v -0.6 0.1 0.6
v -0.6 0.1 0.5
v -0.6 0.1 0.3
v -0.6 0.1 0.2
v -0.6 0.1 0
v -0.6 0.1 -0.1
v -0.6 0.1 -0.3
v -0.6 0.1 -0.4
v -0.6 0.1 -0.6
v -0.6 0.1 -0.7
v -0.6 0.2 0.6
v -0.6 0.2 -0.7
v -0.4 0.1 0.7
v -0.4 0.1 0.6
v -0.4 0.2 0.7
v -0.4 0.2 0.6
v 0.8 0 0.7
v 0.8 0 -0.8
v 0.8 0.2 0.7
v 0.8 0.2 -0.8
v -0.7 0 0.7
v -0.7 0.2 0.7
v -0.4 0 0.7
v -0.4 0.1 0.7
v -0.4 0.2 0.7
v 0.5 0 0.7
v 0.5 0.1 0.7
v 0.5 0.2 0.7
v 0.8 0 0.7
v 0.8 0.2 0.7
v -0.6 0.1 -0.7
v -0.6 0.2 -0.7
v -0.3 0.1 -0.7
v 0.4 0.1 -0.7
v 0.7 0.1 -0.7
v 0.7 0.2 -0.7
v -0.6 0.1 0.6
v -0.6 0.2 0.6
v -0.4 0.1 0.6
v -0.4 0.2 0.6
v 0.5 0.1 0.6
v 0.5 0.2 0.6
v 0.7 0.1 0.6
v 0.7 0.2 0.6
v -0.7 0 -0.8
v -0.7 0.2 -0.8
v 0.8 0 -0.8
v 0.8 0.2 -0.8
v -0.7 0 0.7
v -0.4 0 0.7
v 0.5 0 0.7
v 0.8 0 0.7
v -0.6 0 0.6
v -0.4 0 0.6
v -0.3 0 0.6
v 0.4 0 0.6
v 0.5 0 0.6
v 0.7 0 0.6
v -0.6 0 0.5
v -0.3 0 0.5
v 0.4 0 0.5
v 0.7 0 0.5
v -0.6 0 0.3
v -0.3 0 0.3
v 0.4 0 0.3
v 0.7 0 0.3
v -0.6 0 0.2
v -0.3 0 0.2
v 0.4 0 0.2
v 0.7 0 0.2
v -0.6 0 0
v -0.3 0 0
v 0.4 0 0
v 0.7 0 0
v -0.6 0 -0.1
v -0.3 0 -0.1
v 0.4 0 -0.1
v 0.7 0 -0.1
v -0.6 0 -0.3
v -0.3 0 -0.3
v 0.4 0 -0.3
v 0.7 0 -0.3
v -0.6 0 -0.4
v -0.3 0 -0.4
v 0.4 0 -0.4
v 0.7 0 -0.4
v -0.6 0 -0.6
v -0.3 0 -0.6
v 0.4 0 -0.6
v 0.7 0 -0.6
v -0.6 0 -0.7
v -0.3 0 -0.7
v 0.4 0 -0.7
v 0.7 0 -0.7
v -0.7 0 -0.8
v 0.8 0 -0.8
v -0.4 0.1 0.7
v 0.5 0.1 0.7
v -0.6 0.1 0.6
v -0.4 0.1 0.6
v -0.3 0.1 0.6
v 0.4 0.1 0.6
v 0.5 0.1 0.6
v 0.7 0.1 0.6
v -0.6 0.1 0.5
v -0.3 0.1 0.5
v 0.4 0.1 0.5
v 0.7 0.1 0.5
v -0.6 0.1 0.3
v -0.3 0.1 0.3
v 0.4 0.1 0.3
v 0.7 0.1 0.3
v -0.6 0.1 0.2
v -0.3 0.1 0.2
v 0.4 0.1 0.2
v 0.7 0.1 0.2
v -0.6 0.1 0
v -0.3 0.1 0
v 0.4 0.1 0
v 0.7 0.1 0
v -0.6 0.1 -0.1
v -0.3 0.1 -0.1
v 0.4 0.1 -0.1
v 0.7 0.1 -0.1
v -0.6 0.1 -0.3
v -0.3 0.1 -0.3
v 0.4 0.1 -0.3
v 0.7 0.1 -0.3
v -0.6 0.1 -0.4
v -0.3 0.1 -0.4
v 0.4 0.1 -0.4
v 0.7 0.1 -0.4
v -0.6 0.1 -0.6
v -0.3 0.1 -0.6
v 0.4 0.1 -0.6
v 0.7 0.1 -0.6
v -0.6 0.1 -0.7
v -0.3 0.1 -0.7
v 0.4 0.1 -0.7
v 0.7 0.1 -0.7
v -0.7 0.2 0.7
v -0.4 0.2 0.7
v 0.5 0.2 0.7
v 0.8 0.2 0.7
v -0.6 0.2 0.6
v -0.4 0.2 0.6
v 0.5 0.2 0.6
v 0.7 0.2 0.6
v -0.6 0.2 -0.7
v 0.7 0.2 -0.7
v -0.7 0.2 -0.8
v 0.8 0.2 -0.8

# faces
f 3/3/1 2/3/1 1/3/1
f 4/3/1 2/3/1 3/3/1
f 7/3/1 6/3/1 5/3/1
f 8/3/1 6/3/1 7/3/1
f 19/3/1 10/3/1 9/3/1
f 19/3/1 18/3/1 17/3/1
f 19/3/1 17/3/1 16/3/1
f 19/3/1 16/3/1 15/3/1
f 19/3/1 15/3/1 14/3/1
f 19/3/1 14/3/1 13/3/1
f 19/3/1 13/3/1 12/3/1
f 19/3/1 12/3/1 11/3/1
f 19/3/1 11/3/1 10/3/1
f 20/3/1 18/3/1 19/3/1
f 21/3/2 22/3/2 31/3/2
f 29/3/2 30/3/2 31/3/2
f 28/3/2 29/3/2 31/3/2
f 27/3/2 28/3/2 31/3/2
f 26/3/2 27/3/2 31/3/2
f 25/3/2 26/3/2 31/3/2
f 24/3/2 25/3/2 31/3/2
f 23/3/2 24/3/2 31/3/2
f 22/3/2 23/3/2 31/3/2
f 31/3/2 30/3/2 32/3/2
f 33/3/2 34/3/2 35/3/2
f 35/3/2 34/3/2 36/3/2
f 37/3/2 38/3/2 39/3/2
f 39/3/2 38/3/2 40/3/2
f 43/3/3 42/3/3 41/3/3
f 44/3/3 42/3/3 43/3/3
f 45/3/3 42/3/3 44/3/3
f 46/2/3 44/2/3 43/2/3
f 47/2/3 44/2/3 46/2/3
f 49/3/3 47/3/3 46/3/3
f 49/3/3 48/3/3 47/3/3
f 50/3/3 48/3/3 49/3/3
f 53/3/3 52/3/3 51/3/3
f 54/3/3 52/3/3 53/3/3
f 55/3/3 52/3/3 54/3/3
f 56/3/3 52/3/3 55/3/3
f 57/3/4 58/3/4 59/3/4
f 59/3/4 58/3/4 60/3/4
f 61/3/4 62/3/4 63/3/4
f 63/3/4 62/3/4 64/3/4
f 65/3/4 66/3/4 67/3/4
f 67/3/4 66/3/4 68/3/4
f 73/3/5 70/3/5 69/3/5
f 74/2/5 71/2/5 70/2/5
f 74/3/5 70/3/5 73/3/5
f 75/2/5 71/2/5 74/2/5
f 76/2/5 71/2/5 75/2/5
f 77/3/5 72/3/5 71/3/5
f 77/2/5 71/2/5 76/2/5
f 78/3/5 72/3/5 77/3/5
f 79/3/5 73/3/5 69/3/5
f 79/1/5 74/1/5 73/1/5
f 79/1/5 75/1/5 74/1/5
f 80/2/5 76/2/5 75/2/5
f 80/1/5 75/1/5 79/1/5
f 81/1/5 78/1/5 77/1/5
f 81/2/5 76/2/5 80/2/5
f 81/1/5 77/1/5 76/1/5
f 82/3/5 72/3/5 78/3/5
f 82/1/5 78/1/5 81/1/5
f 83/3/5 79/3/5 69/3/5
f 83/2/5 81/2/5 80/2/5
f 83/2/5 82/2/5 81/2/5
f 83/2/5 80/2/5 79/2/5
f 84/2/5 82/2/5 83/2/5
f 85/2/5 82/2/5 84/2/5
f 86/3/5 72/3/5 82/3/5
f 86/2/5 82/2/5 85/2/5
f 87/3/5 83/3/5 69/3/5
f 87/1/5 84/1/5 83/1/5
f 88/2/5 85/2/5 84/2/5
f 88/1/5 84/1/5 87/1/5
f 89/1/5 86/1/5 85/1/5
f 89/2/5 85/2/5 88/2/5
f 90/3/5 72/3/5 86/3/5
f 90/1/5 86/1/5 89/1/5
f 91/3/5 87/3/5 69/3/5
f 91/2/5 89/2/5 88/2/5
f 91/2/5 90/2/5 89/2/5
f 91/2/5 88/2/5 87/2/5
f 92/2/5 90/2/5 91/2/5
f 93/2/5 90/2/5 92/2/5
f 94/3/5 72/3/5 90/3/5
f 94/2/5 90/2/5 93/2/5
f 95/3/5 91/3/5 69/3/5
f 95/1/5 92/1/5 91/1/5
f 96/2/5 93/2/5 92/2/5
f 96/1/5 92/1/5 95/1/5
f 97/1/5 94/1/5 93/1/5
f 97/2/5 93/2/5 96/2/5
f 98/3/5 72/3/5 94/3/5
f 98/1/5 94/1/5 97/1/5
f 99/3/5 95/3/5 69/3/5
f 99/2/5 97/2/5 96/2/5
f 99/2/5 98/2/5 97/2/5
f 99/2/5 96/2/5 95/2/5
f 100/2/5 98/2/5 99/2/5
f 101/2/5 98/2/5 100/2/5
f 102/3/5 72/3/5 98/3/5
f 102/2/5 98/2/5 101/2/5
f 103/3/5 99/3/5 69/3/5
f 103/1/5 100/1/5 99/1/5
f 104/2/5 101/2/5 100/2/5
f 104/1/5 100/1/5 103/1/5
f 105/1/5 102/1/5 101/1/5
f 105/2/5 101/2/5 104/2/5
f 106/3/5 72/3/5 102/3/5
f 106/1/5 102/1/5 105/1/5
f 107/3/5 103/3/5 69/3/5
f 107/2/5 105/2/5 104/2/5
f 107/2/5 106/2/5 105/2/5
f 107/2/5 104/2/5 103/2/5
f 108/2/5 106/2/5 107/2/5
f 109/2/5 106/2/5 108/2/5
f 110/3/5 72/3/5 106/3/5
f 110/2/5 106/2/5 109/2/5
f 111/3/5 107/3/5 69/3/5
f 111/1/5 108/1/5 107/1/5
f 112/2/5 109/2/5 108/2/5
f 112/1/5 108/1/5 111/1/5
f 113/1/5 110/1/5 109/1/5
f 113/2/5 109/2/5 112/2/5
f 114/3/5 72/3/5 110/3/5
f 114/1/5 110/1/5 113/1/5
f 115/3/5 111/3/5 69/3/5
f 115/3/5 113/3/5 112/3/5
f 115/3/5 114/3/5 113/3/5
f 115/3/5 112/3/5 111/3/5
f 116/3/5 72/3/5 114/3/5
f 116/3/5 114/3/5 115/3/5
f 117/2/6 118/2/6 120/2/6
f 120/2/6 118/2/6 121/2/6
f 121/2/6 118/2/6 122/2/6
f 122/2/6 118/2/6 123/2/6
f 119/1/6 120/1/6 125/1/6
f 120/1/6 121/1/6 125/1/6
f 121/2/6 122/2/6 126/2/6
f 125/1/6 121/1/6 126/1/6
f 123/1/6 124/1/6 127/1/6
f 126/2/6 122/2/6 127/2/6
f 122/1/6 123/1/6 127/1/6
f 127/1/6 124/1/6 128/1/6
f 125/2/6 126/2/6 129/2/6
f 126/2/6 127/2/6 129/2/6
f 127/2/6 128/2/6 129/2/6
f 129/2/6 128/2/6 130/2/6
f 130/2/6 128/2/6 131/2/6
f 131/2/6 128/2/6 132/2/6
f 129/1/6 130/1/6 133/1/6
f 130/2/6 131/2/6 134/2/6
f 133/1/6 130/1/6 134/1/6
f 131/1/6 132/1/6 135/1/6
f 134/2/6 131/2/6 135/2/6
f 135/1/6 132/1/6 136/1/6
f 133/2/6 134/2/6 137/2/6
f 134/2/6 135/2/6 137/2/6
f 135/2/6 136/2/6 137/2/6
f 137/2/6 136/2/6 138/2/6
f 138/2/6 136/2/6 139/2/6
f 139/2/6 136/2/6 140/2/6
f 137/1/6 138/1/6 141/1/6
f 138/2/6 139/2/6 142/2/6
f 141/1/6 138/1/6 142/1/6
f 139/1/6 140/1/6 143/1/6
f 142/2/6 139/2/6 143/2/6
f 143/1/6 140/1/6 144/1/6
f 141/2/6 142/2/6 145/2/6
f 142/2/6 143/2/6 145/2/6
f 143/2/6 144/2/6 145/2/6
f 145/2/6 144/2/6 146/2/6
f 146/2/6 144/2/6 147/2/6
f 147/2/6 144/2/6 148/2/6
f 145/1/6 146/1/6 149/1/6
f 146/2/6 147/2/6 150/2/6
f 149/1/6 146/1/6 150/1/6
f 147/1/6 148/1/6 151/1/6
f 150/2/6 147/2/6 151/2/6
f 151/1/6 148/1/6 152/1/6
f 149/2/6 150/2/6 153/2/6
f 150/2/6 151/2/6 153/2/6
f 151/2/6 152/2/6 153/2/6
f 153/2/6 152/2/6 154/2/6
f 154/2/6 152/2/6 155/2/6
f 155/2/6 152/2/6 156/2/6
f 153/1/6 154/1/6 157/1/6
f 154/2/6 155/2/6 158/2/6
f 157/1/6 154/1/6 158/1/6
f 155/1/6 156/1/6 159/1/6
f 158/2/6 155/2/6 159/2/6
f 159/1/6 156/1/6 160/1/6
f 161/3/6 162/3/6 165/3/6
f 165/3/6 162/3/6 166/3/6
f 163/3/6 164/3/6 167/3/6
f 167/3/6 164/3/6 168/3/6
f 161/3/6 165/3/6 169/3/6
f 168/3/6 164/3/6 170/3/6
f 161/3/6 169/3/6 171/3/6
f 169/3/6 170/3/6 171/3/6
f 170/3/6 164/3/6 172/3/6
f 171/3/6 170/3/6 172/3/6
