# MagicaVoxel @ Ephtracy

# group
o 

# material
mtllib CityVoxelPack-15.mtl
usemtl palette

# normals
vn -1 0 0
vn 1 0 0
vn 0 0 1
vn 0 0 -1
vn 0 -1 0
vn 0 1 0

# texcoords
vt 0.876953 0.5
vt 0.908203 0.5
vt 0.939453 0.5

# verts
v -0.7 0 0.7
v -0.7 0 0.4
v -0.7 0 -0.5
v -0.7 0 -0.8
v -0.7 0.1 0.4
v -0.7 0.1 -0.5
v -0.7 0.2 0.7
v -0.7 0.2 0.4
v -0.7 0.2 -0.5
v -0.7 0.2 -0.8
v 0.5 0.1 0.7
v 0.5 0.1 0.5
v 0.5 0.1 0.4
v 0.5 0.1 -0.5
v 0.5 0.1 -0.8
v 0.5 0.2 0.7
v 0.5 0.2 0.4
v 0.5 0.2 -0.5
v 0.5 0.2 -0.8
v -0.4 0.1 0.7
v -0.4 0.1 0.4
v -0.4 0.1 -0.5
v -0.4 0.1 -0.6
v -0.4 0.1 -0.8
v -0.4 0.2 0.7
v -0.4 0.2 0.4
v -0.4 0.2 -0.5
v -0.4 0.2 -0.8
v 0.8 0 0.7
v 0.8 0 0.4
v 0.8 0 -0.5
v 0.8 0 -0.8
v 0.8 0.1 0.4
v 0.8 0.1 -0.5
v 0.8 0.2 0.7
v 0.8 0.2 0.4
v 0.8 0.2 -0.5
v 0.8 0.2 -0.8
v -0.7 0 0.7
v -0.7 0.2 0.7
v -0.4 0 0.7
v -0.4 0.1 0.7
v -0.4 0.2 0.7
v 0.5 0 0.7
v 0.5 0.1 0.7
v 0.5 0.2 0.7
v 0.8 0 0.7
v 0.8 0.2 0.7
v -0.7 0.1 -0.5
v -0.7 0.2 -0.5
v -0.4 0.1 -0.5
v -0.4 0.2 -0.5
v 0.5 0.1 -0.5
v 0.5 0.2 -0.5
v 0.6 0.1 -0.5
v 0.8 0.1 -0.5
v 0.8 0.2 -0.5
v -0.7 0.1 0.4
v -0.7 0.2 0.4
v -0.5 0.1 0.4
v -0.4 0.1 0.4
v -0.4 0.2 0.4
v 0.5 0.1 0.4
v 0.5 0.2 0.4
v 0.8 0.1 0.4
v 0.8 0.2 0.4
v -0.7 0 -0.8
v -0.7 0.2 -0.8
v -0.4 0 -0.8
v -0.4 0.1 -0.8
v -0.4 0.2 -0.8
v 0.5 0 -0.8
v 0.5 0.1 -0.8
v 0.5 0.2 -0.8
v 0.8 0 -0.8
v 0.8 0.2 -0.8
v -0.7 0 0.7
v -0.4 0 0.7
v 0.5 0 0.7
v 0.8 0 0.7
v 0 0 0.5
v 0.1 0 0.5
v 0.2 0 0.5
v 0.3 0 0.5
v 0.4 0 0.5
v 0.5 0 0.5
v -0.7 0 0.4
v -0.5 0 0.4
v -0.4 0 0.4
v 0 0 0.4
v 0.1 0 0.4
v 0.2 0 0.4
v 0.3 0 0.4
v 0.4 0 0.4
v 0.5 0 0.4
v 0.8 0 0.4
v -0.5 0 0.3
v -0.4 0 0.3
v -0.5 0 0.2
v -0.4 0 0.2
v -0.5 0 0.1
v -0.4 0 0.1
v -0.5 0 0
v -0.4 0 0
v 0.5 0 0
v 0.6 0 0
v -0.5 0 -0.1
v -0.4 0 -0.1
v 0.5 0 -0.1
v 0.6 0 -0.1
v 0.5 0 -0.2
v 0.6 0 -0.2
v 0.5 0 -0.3
v 0.6 0 -0.3
v 0.5 0 -0.4
v 0.6 0 -0.4
v -0.7 0 -0.5
v -0.4 0 -0.5
v -0.3 0 -0.5
v -0.2 0 -0.5
v -0.1 0 -0.5
v 0 0 -0.5
v 0.1 0 -0.5
v 0.5 0 -0.5
v 0.6 0 -0.5
v 0.8 0 -0.5
v -0.4 0 -0.6
v -0.3 0 -0.6
v -0.2 0 -0.6
v -0.1 0 -0.6
v 0 0 -0.6
v 0.1 0 -0.6
v -0.7 0 -0.8
v -0.4 0 -0.8
v 0.5 0 -0.8
v 0.8 0 -0.8
v -0.4 0.1 0.7
v 0.5 0.1 0.7
v 0 0.1 0.5
v 0.1 0.1 0.5
v 0.2 0.1 0.5
v 0.3 0.1 0.5
v 0.4 0.1 0.5
v 0.5 0.1 0.5
v -0.7 0.1 0.4
v -0.5 0.1 0.4
v -0.4 0.1 0.4
v 0 0.1 0.4
v 0.1 0.1 0.4
v 0.2 0.1 0.4
v 0.3 0.1 0.4
v 0.4 0.1 0.4
v 0.5 0.1 0.4
v 0.8 0.1 0.4
v -0.5 0.1 0.3
v -0.4 0.1 0.3
v -0.5 0.1 0.2
v -0.4 0.1 0.2
v -0.5 0.1 0.1
v -0.4 0.1 0.1
v -0.5 0.1 0
v -0.4 0.1 0
v 0.5 0.1 0
v 0.6 0.1 0
v -0.5 0.1 -0.1
v -0.4 0.1 -0.1
v 0.5 0.1 -0.1
v 0.6 0.1 -0.1
v 0.5 0.1 -0.2
v 0.6 0.1 -0.2
v 0.5 0.1 -0.3
v 0.6 0.1 -0.3
v 0.5 0.1 -0.4
v 0.6 0.1 -0.4
v -0.7 0.1 -0.5
v -0.4 0.1 -0.5
v -0.3 0.1 -0.5
v -0.2 0.1 -0.5
v -0.1 0.1 -0.5
v 0 0.1 -0.5
v 0.1 0.1 -0.5
v 0.5 0.1 -0.5
v 0.6 0.1 -0.5
v 0.8 0.1 -0.5
v -0.4 0.1 -0.6
v -0.3 0.1 -0.6
v -0.2 0.1 -0.6
v -0.1 0.1 -0.6
v 0 0.1 -0.6
v 0.1 0.1 -0.6
v -0.4 0.1 -0.8
v 0.5 0.1 -0.8
v -0.7 0.2 0.7
v -0.4 0.2 0.7
v 0.5 0.2 0.7
v 0.8 0.2 0.7
v -0.7 0.2 0.4
v -0.4 0.2 0.4
v 0.5 0.2 0.4
v 0.8 0.2 0.4
v -0.7 0.2 -0.5
v -0.4 0.2 -0.5
v 0.5 0.2 -0.5
v 0.8 0.2 -0.5
v -0.7 0.2 -0.8
v -0.4 0.2 -0.8
v 0.5 0.2 -0.8
v 0.8 0.2 -0.8

# faces
f 5/3/1 2/3/1 1/3/1
f 5/2/1 3/2/1 2/2/1
f 6/3/1 4/3/1 3/3/1
f 6/2/1 3/2/1 5/2/1
f 7/3/1 5/3/1 1/3/1
f 8/3/1 5/3/1 7/3/1
f 9/3/1 4/3/1 6/3/1
f 10/3/1 4/3/1 9/3/1
f 16/3/1 12/3/1 11/3/1
f 16/3/1 13/3/1 12/3/1
f 17/3/1 13/3/1 16/3/1
f 18/3/1 15/3/1 14/3/1
f 19/3/1 15/3/1 18/3/1
f 20/3/2 21/3/2 25/3/2
f 25/3/2 21/3/2 26/3/2
f 23/3/2 24/3/2 27/3/2
f 22/3/2 23/3/2 27/3/2
f 27/3/2 24/3/2 28/3/2
f 29/3/2 30/3/2 33/3/2
f 30/2/2 31/2/2 33/2/2
f 31/3/2 32/3/2 34/3/2
f 33/2/2 31/2/2 34/2/2
f 29/3/2 33/3/2 35/3/2
f 35/3/2 33/3/2 36/3/2
f 34/3/2 32/3/2 37/3/2
f 37/3/2 32/3/2 38/3/2
f 41/3/3 40/3/3 39/3/3
f 42/3/3 40/3/3 41/3/3
f 43/3/3 40/3/3 42/3/3
f 44/2/3 42/2/3 41/2/3
f 45/2/3 42/2/3 44/2/3
f 47/3/3 45/3/3 44/3/3
f 47/3/3 46/3/3 45/3/3
f 48/3/3 46/3/3 47/3/3
f 51/3/3 50/3/3 49/3/3
f 52/3/3 50/3/3 51/3/3
f 55/3/3 54/3/3 53/3/3
f 56/3/3 54/3/3 55/3/3
f 57/3/3 54/3/3 56/3/3
f 58/3/4 59/3/4 60/3/4
f 60/3/4 59/3/4 61/3/4
f 61/3/4 59/3/4 62/3/4
f 63/3/4 64/3/4 65/3/4
f 65/3/4 64/3/4 66/3/4
f 67/3/4 68/3/4 69/3/4
f 69/3/4 68/3/4 70/3/4
f 70/3/4 68/3/4 71/3/4
f 69/2/4 70/2/4 72/2/4
f 72/2/4 70/2/4 73/2/4
f 72/3/4 73/3/4 75/3/4
f 73/3/4 74/3/4 75/3/4
f 75/3/4 74/3/4 76/3/4
f 81/2/5 79/2/5 78/2/5
f 82/2/5 79/2/5 81/2/5
f 83/2/5 79/2/5 82/2/5
f 84/2/5 79/2/5 83/2/5
f 85/2/5 79/2/5 84/2/5
f 86/3/5 80/3/5 79/3/5
f 86/2/5 79/2/5 85/2/5
f 87/3/5 78/3/5 77/3/5
f 88/3/5 78/3/5 87/3/5
f 89/2/5 81/2/5 78/2/5
f 89/3/5 78/3/5 88/3/5
f 90/1/5 82/1/5 81/1/5
f 90/2/5 81/2/5 89/2/5
f 91/2/5 83/2/5 82/2/5
f 91/1/5 82/1/5 90/1/5
f 92/1/5 84/1/5 83/1/5
f 92/2/5 83/2/5 91/2/5
f 93/2/5 85/2/5 84/2/5
f 93/1/5 84/1/5 92/1/5
f 94/1/5 86/1/5 85/1/5
f 94/2/5 85/2/5 93/2/5
f 95/3/5 80/3/5 86/3/5
f 95/1/5 86/1/5 94/1/5
f 96/3/5 80/3/5 95/3/5
f 97/2/5 88/2/5 87/2/5
f 97/1/5 89/1/5 88/1/5
f 98/2/5 94/2/5 93/2/5
f 98/1/5 89/1/5 97/1/5
f 98/2/5 92/2/5 91/2/5
f 98/2/5 95/2/5 94/2/5
f 98/2/5 96/2/5 95/2/5
f 98/2/5 93/2/5 92/2/5
f 98/2/5 91/2/5 90/2/5
f 98/2/5 90/2/5 89/2/5
f 99/2/5 97/2/5 87/2/5
f 99/2/5 98/2/5 97/2/5
f 100/2/5 96/2/5 98/2/5
f 100/2/5 98/2/5 99/2/5
f 101/2/5 99/2/5 87/2/5
f 101/1/5 100/1/5 99/1/5
f 102/2/5 96/2/5 100/2/5
f 102/1/5 100/1/5 101/1/5
f 103/2/5 101/2/5 87/2/5
f 103/2/5 102/2/5 101/2/5
f 104/2/5 96/2/5 102/2/5
f 104/2/5 102/2/5 103/2/5
f 105/2/5 96/2/5 104/2/5
f 106/2/5 96/2/5 105/2/5
f 107/2/5 103/2/5 87/2/5
f 107/1/5 104/1/5 103/1/5
f 108/2/5 105/2/5 104/2/5
f 108/1/5 104/1/5 107/1/5
f 109/1/5 106/1/5 105/1/5
f 109/2/5 105/2/5 108/2/5
f 110/2/5 96/2/5 106/2/5
f 110/1/5 106/1/5 109/1/5
f 111/2/5 109/2/5 108/2/5
f 111/2/5 108/2/5 107/2/5
f 111/2/5 110/2/5 109/2/5
f 112/2/5 96/2/5 110/2/5
f 112/2/5 110/2/5 111/2/5
f 113/2/5 111/2/5 107/2/5
f 113/1/5 112/1/5 111/1/5
f 114/2/5 96/2/5 112/2/5
f 114/1/5 112/1/5 113/1/5
f 115/2/5 113/2/5 107/2/5
f 115/2/5 114/2/5 113/2/5
f 116/2/5 96/2/5 114/2/5
f 116/2/5 114/2/5 115/2/5
f 117/2/5 115/2/5 107/2/5
f 117/2/5 107/2/5 87/2/5
f 118/2/5 115/2/5 117/2/5
f 119/2/5 115/2/5 118/2/5
f 120/2/5 115/2/5 119/2/5
f 121/2/5 115/2/5 120/2/5
f 122/2/5 115/2/5 121/2/5
f 123/2/5 115/2/5 122/2/5
f 124/1/5 116/1/5 115/1/5
f 124/2/5 115/2/5 123/2/5
f 125/2/5 96/2/5 116/2/5
f 125/1/5 116/1/5 124/1/5
f 126/2/5 96/2/5 125/2/5
f 127/3/5 118/3/5 117/3/5
f 127/1/5 119/1/5 118/1/5
f 128/2/5 120/2/5 119/2/5
f 128/1/5 119/1/5 127/1/5
f 129/1/5 121/1/5 120/1/5
f 129/2/5 120/2/5 128/2/5
f 130/2/5 122/2/5 121/2/5
f 130/1/5 121/1/5 129/1/5
f 131/1/5 123/1/5 122/1/5
f 131/2/5 122/2/5 130/2/5
f 132/2/5 124/2/5 123/2/5
f 132/1/5 123/1/5 131/1/5
f 133/3/5 127/3/5 117/3/5
f 134/2/5 131/2/5 130/2/5
f 134/3/5 127/3/5 133/3/5
f 134/2/5 130/2/5 129/2/5
f 134/2/5 132/2/5 131/2/5
f 134/2/5 128/2/5 127/2/5
f 134/2/5 129/2/5 128/2/5
f 135/3/5 125/3/5 124/3/5
f 135/2/5 132/2/5 134/2/5
f 135/3/5 126/3/5 125/3/5
f 135/2/5 124/2/5 132/2/5
f 136/3/5 126/3/5 135/3/5
f 137/2/6 138/2/6 139/2/6
f 139/2/6 138/2/6 140/2/6
f 140/2/6 138/2/6 141/2/6
f 141/2/6 138/2/6 142/2/6
f 142/2/6 138/2/6 143/2/6
f 143/2/6 138/2/6 144/2/6
f 137/2/6 139/2/6 147/2/6
f 139/1/6 140/1/6 148/1/6
f 147/2/6 139/2/6 148/2/6
f 140/2/6 141/2/6 149/2/6
f 148/1/6 140/1/6 149/1/6
f 141/1/6 142/1/6 150/1/6
f 149/2/6 141/2/6 150/2/6
f 142/2/6 143/2/6 151/2/6
f 150/1/6 142/1/6 151/1/6
f 143/1/6 144/1/6 152/1/6
f 151/2/6 143/2/6 152/2/6
f 152/1/6 144/1/6 153/1/6
f 145/2/6 146/2/6 155/2/6
f 146/1/6 147/1/6 155/1/6
f 153/2/6 154/2/6 156/2/6
f 155/1/6 147/1/6 156/1/6
f 151/2/6 152/2/6 156/2/6
f 147/2/6 148/2/6 156/2/6
f 152/2/6 153/2/6 156/2/6
f 150/2/6 151/2/6 156/2/6
f 149/2/6 150/2/6 156/2/6
f 148/2/6 149/2/6 156/2/6
f 145/2/6 155/2/6 157/2/6
f 155/2/6 156/2/6 157/2/6
f 156/2/6 154/2/6 158/2/6
f 157/2/6 156/2/6 158/2/6
f 145/2/6 157/2/6 159/2/6
f 157/1/6 158/1/6 159/1/6
f 158/2/6 154/2/6 160/2/6
f 159/1/6 158/1/6 160/1/6
f 145/2/6 159/2/6 161/2/6
f 159/2/6 160/2/6 161/2/6
f 160/2/6 154/2/6 162/2/6
f 161/2/6 160/2/6 162/2/6
f 162/2/6 154/2/6 163/2/6
f 163/2/6 154/2/6 164/2/6
f 145/2/6 161/2/6 165/2/6
f 161/1/6 162/1/6 165/1/6
f 162/2/6 163/2/6 166/2/6
f 165/1/6 162/1/6 166/1/6
f 163/1/6 164/1/6 167/1/6
f 166/2/6 163/2/6 167/2/6
f 164/2/6 154/2/6 168/2/6
f 167/1/6 164/1/6 168/1/6
f 166/2/6 167/2/6 169/2/6
f 165/2/6 166/2/6 169/2/6
f 167/2/6 168/2/6 169/2/6
f 168/2/6 154/2/6 170/2/6
f 169/2/6 168/2/6 170/2/6
f 165/2/6 169/2/6 171/2/6
f 169/1/6 170/1/6 171/1/6
f 170/2/6 154/2/6 172/2/6
f 171/1/6 170/1/6 172/1/6
f 165/2/6 171/2/6 173/2/6
f 171/2/6 172/2/6 173/2/6
f 172/2/6 154/2/6 174/2/6
f 173/2/6 172/2/6 174/2/6
f 165/2/6 173/2/6 175/2/6
f 145/2/6 165/2/6 175/2/6
f 175/2/6 173/2/6 176/2/6
f 176/2/6 173/2/6 177/2/6
f 177/2/6 173/2/6 178/2/6
f 178/2/6 173/2/6 179/2/6
f 179/2/6 173/2/6 180/2/6
f 180/2/6 173/2/6 181/2/6
f 173/1/6 174/1/6 182/1/6
f 181/2/6 173/2/6 182/2/6
f 174/2/6 154/2/6 183/2/6
f 182/1/6 174/1/6 183/1/6
f 183/2/6 154/2/6 184/2/6
f 176/1/6 177/1/6 185/1/6
f 177/2/6 178/2/6 186/2/6
f 185/1/6 177/1/6 186/1/6
f 178/1/6 179/1/6 187/1/6
f 186/2/6 178/2/6 187/2/6
f 179/2/6 180/2/6 188/2/6
f 187/1/6 179/1/6 188/1/6
f 180/1/6 181/1/6 189/1/6
f 188/2/6 180/2/6 189/2/6
f 181/2/6 182/2/6 190/2/6
f 189/1/6 181/1/6 190/1/6
f 188/2/6 189/2/6 191/2/6
f 187/2/6 188/2/6 191/2/6
f 189/2/6 190/2/6 191/2/6
f 185/2/6 186/2/6 191/2/6
f 186/2/6 187/2/6 191/2/6
f 190/2/6 182/2/6 192/2/6
f 191/2/6 190/2/6 192/2/6
f 193/3/6 194/3/6 197/3/6
f 197/3/6 194/3/6 198/3/6
f 195/3/6 196/3/6 199/3/6
f 199/3/6 196/3/6 200/3/6
f 201/3/6 202/3/6 205/3/6
f 205/3/6 202/3/6 206/3/6
f 203/3/6 204/3/6 207/3/6
f 207/3/6 204/3/6 208/3/6
