# MagicaVoxel @ Ephtracy

# group
o 

# material
mtllib CityVoxelPack-0.mtl
usemtl palette

# normals
vn -1 0 0
vn 1 0 0
vn 0 0 1
vn 0 0 -1
vn 0 -1 0
vn 0 1 0

# texcoords
vt 0.783203 0.5
vt 0.787109 0.5
vt 0.791016 0.5
vt 0.939453 0.5

# verts
v -0.7 0 0.7
v -0.7 0 -0.8
v -0.7 0.2 0.7
v -0.7 0.2 -0.8
v -0.6 0.2 0.6
v -0.6 0.2 -0.7
v -0.6 0.4 0.5
v -0.6 0.4 0.4
v -0.6 0.4 0.3
v -0.6 0.4 0.2
v -0.6 0.4 0.1
v -0.6 0.4 0
v -0.6 0.4 -0.1
v -0.6 0.4 -0.2
v -0.6 0.4 -0.3
v -0.6 0.4 -0.4
v -0.6 0.4 -0.5
v -0.6 0.4 -0.6
v -0.6 0.6 0.5
v -0.6 0.6 0.4
v -0.6 0.6 0.3
v -0.6 0.6 0.2
v -0.6 0.6 0.1
v -0.6 0.6 0
v -0.6 0.6 -0.1
v -0.6 0.6 -0.2
v -0.6 0.6 -0.3
v -0.6 0.6 -0.4
v -0.6 0.6 -0.5
v -0.6 0.6 -0.6
v -0.6 0.7 0.5
v -0.6 0.7 0.4
v -0.6 0.7 0.3
v -0.6 0.7 0.2
v -0.6 0.7 0.1
v -0.6 0.7 0
v -0.6 0.7 -0.1
v -0.6 0.7 -0.2
v -0.6 0.7 -0.3
v -0.6 0.7 -0.4
v -0.6 0.7 -0.5
v -0.6 0.7 -0.6
v -0.6 0.9 0.5
v -0.6 0.9 0.4
v -0.6 0.9 0.3
v -0.6 0.9 0.2
v -0.6 0.9 0.1
v -0.6 0.9 0
v -0.6 0.9 -0.1
v -0.6 0.9 -0.2
v -0.6 0.9 -0.3
v -0.6 0.9 -0.4
v -0.6 0.9 -0.5
v -0.6 0.9 -0.6
v -0.6 1 0.6
v -0.6 1 -0.7
v -0.2 0.9 0.5
v -0.2 0.9 -0.6
v -0.2 1 0.5
v -0.2 1 -0.6
v 0.2 0.2 0.6
v 0.2 0.2 0
v 0.2 0.2 -0.1
v 0.2 0.2 -0.7
v 0.2 0.3 0.5
v 0.2 0.3 0.4
v 0.2 0.3 0.3
v 0.2 0.3 0.2
v 0.2 0.3 -0.3
v 0.2 0.3 -0.4
v 0.2 0.3 -0.5
v 0.2 0.3 -0.6
v 0.2 0.4 0
v 0.2 0.4 -0.1
v 0.2 0.5 0.5
v 0.2 0.5 0.4
v 0.2 0.5 0.3
v 0.2 0.5 0.2
v 0.2 0.5 -0.3
v 0.2 0.5 -0.4
v 0.2 0.5 -0.5
v 0.2 0.5 -0.6
v 0.2 0.6 0.5
v 0.2 0.6 0.4
v 0.2 0.6 0.3
v 0.2 0.6 0.2
v 0.2 0.6 0.1
v 0.2 0.6 0
v 0.2 0.6 -0.1
v 0.2 0.6 -0.2
v 0.2 0.6 -0.3
v 0.2 0.6 -0.4
v 0.2 0.6 -0.5
v 0.2 0.6 -0.6
v 0.2 0.8 0.5
v 0.2 0.8 0.4
v 0.2 0.8 0.3
v 0.2 0.8 0.2
v 0.2 0.8 0.1
v 0.2 0.8 0
v 0.2 0.8 -0.1
v 0.2 0.8 -0.2
v 0.2 0.8 -0.3
v 0.2 0.8 -0.4
v 0.2 0.8 -0.5
v 0.2 0.8 -0.6
v 0.2 1 0.6
v 0.2 1 -0.7
v 0.6 0.9 0.5
v 0.6 0.9 -0.6
v 0.6 1 0.5
v 0.6 1 -0.6
v -0.5 0.9 0.5
v -0.5 0.9 -0.6
v -0.5 1 0.5
v -0.5 1 -0.6
v -0.1 0.2 0.6
v -0.1 0.2 0
v -0.1 0.2 -0.1
v -0.1 0.2 -0.7
v -0.1 0.3 0.5
v -0.1 0.3 0.4
v -0.1 0.3 0.3
v -0.1 0.3 0.2
v -0.1 0.3 -0.3
v -0.1 0.3 -0.4
v -0.1 0.3 -0.5
v -0.1 0.3 -0.6
v -0.1 0.4 0
v -0.1 0.4 -0.1
v -0.1 0.5 0.5
v -0.1 0.5 0.4
v -0.1 0.5 0.3
v -0.1 0.5 0.2
v -0.1 0.5 -0.3
v -0.1 0.5 -0.4
v -0.1 0.5 -0.5
v -0.1 0.5 -0.6
v -0.1 0.6 0.5
v -0.1 0.6 0.4
v -0.1 0.6 0.3
v -0.1 0.6 0.2
v -0.1 0.6 0.1
v -0.1 0.6 0
v -0.1 0.6 -0.1
v -0.1 0.6 -0.2
v -0.1 0.6 -0.3
v -0.1 0.6 -0.4
v -0.1 0.6 -0.5
v -0.1 0.6 -0.6
v -0.1 0.8 0.5
v -0.1 0.8 0.4
v -0.1 0.8 0.3
v -0.1 0.8 0.2
v -0.1 0.8 0.1
v -0.1 0.8 0
v -0.1 0.8 -0.1
v -0.1 0.8 -0.2
v -0.1 0.8 -0.3
v -0.1 0.8 -0.4
v -0.1 0.8 -0.5
v -0.1 0.8 -0.6
v -0.1 1 0.6
v -0.1 1 -0.7
v 0.3 0.9 0.5
v 0.3 0.9 -0.6
v 0.3 1 0.5
v 0.3 1 -0.6
v 0.7 0.2 0.6
v 0.7 0.2 -0.7
v 0.7 0.4 0.5
v 0.7 0.4 0.4
v 0.7 0.4 0.3
v 0.7 0.4 0.2
v 0.7 0.4 0.1
v 0.7 0.4 0
v 0.7 0.4 -0.1
v 0.7 0.4 -0.2
v 0.7 0.4 -0.3
v 0.7 0.4 -0.4
v 0.7 0.4 -0.5
v 0.7 0.4 -0.6
v 0.7 0.6 0.5
v 0.7 0.6 0.4
v 0.7 0.6 0.3
v 0.7 0.6 0.2
v 0.7 0.6 0.1
v 0.7 0.6 0
v 0.7 0.6 -0.1
v 0.7 0.6 -0.2
v 0.7 0.6 -0.3
v 0.7 0.6 -0.4
v 0.7 0.6 -0.5
v 0.7 0.6 -0.6
v 0.7 0.7 0.5
v 0.7 0.7 0.4
v 0.7 0.7 0.3
v 0.7 0.7 0.2
v 0.7 0.7 0.1
v 0.7 0.7 0
v 0.7 0.7 -0.1
v 0.7 0.7 -0.2
v 0.7 0.7 -0.3
v 0.7 0.7 -0.4
v 0.7 0.7 -0.5
v 0.7 0.7 -0.6
v 0.7 0.9 0.5
v 0.7 0.9 0.4
v 0.7 0.9 0.3
v 0.7 0.9 0.2
v 0.7 0.9 0.1
v 0.7 0.9 0
v 0.7 0.9 -0.1
v 0.7 0.9 -0.2
v 0.7 0.9 -0.3
v 0.7 0.9 -0.4
v 0.7 0.9 -0.5
v 0.7 0.9 -0.6
v 0.7 1 0.6
v 0.7 1 -0.7
v 0.8 0 0.7
v 0.8 0 -0.8
v 0.8 0.2 0.7
v 0.8 0.2 -0.8
v -0.7 0 0.7
v -0.7 0.2 0.7
v 0.8 0 0.7
v 0.8 0.2 0.7
v -0.6 0.2 0.6
v -0.6 1 0.6
v -0.5 0.4 0.6
v -0.5 0.6 0.6
v -0.5 0.7 0.6
v -0.5 0.9 0.6
v -0.4 0.4 0.6
v -0.4 0.6 0.6
v -0.4 0.7 0.6
v -0.4 0.9 0.6
v -0.3 0.4 0.6
v -0.3 0.6 0.6
v -0.3 0.7 0.6
v -0.3 0.9 0.6
v -0.2 0.4 0.6
v -0.2 0.6 0.6
v -0.2 0.7 0.6
v -0.2 0.9 0.6
v -0.1 0.2 0.6
v -0.1 1 0.6
v 0.2 0.2 0.6
v 0.2 1 0.6
v 0.3 0.4 0.6
v 0.3 0.6 0.6
v 0.3 0.7 0.6
v 0.3 0.9 0.6
v 0.4 0.4 0.6
v 0.4 0.6 0.6
v 0.4 0.7 0.6
v 0.4 0.9 0.6
v 0.5 0.4 0.6
v 0.5 0.6 0.6
v 0.5 0.7 0.6
v 0.5 0.9 0.6
v 0.6 0.4 0.6
v 0.6 0.6 0.6
v 0.6 0.7 0.6
v 0.6 0.9 0.6
v 0.7 0.2 0.6
v 0.7 1 0.6
v -0.5 0.9 -0.6
v -0.5 1 -0.6
v -0.2 0.9 -0.6
v -0.2 1 -0.6
v 0.3 0.9 -0.6
v 0.3 1 -0.6
v 0.6 0.9 -0.6
v 0.6 1 -0.6
v -0.5 0.9 0.5
v -0.5 1 0.5
v -0.2 0.9 0.5
v -0.2 1 0.5
v 0.3 0.9 0.5
v 0.3 1 0.5
v 0.6 0.9 0.5
v 0.6 1 0.5
v -0.6 0.2 -0.7
v -0.6 1 -0.7
v -0.5 0.3 -0.7
v -0.5 0.5 -0.7
v -0.5 0.6 -0.7
v -0.5 0.8 -0.7
v -0.4 0.3 -0.7
v -0.4 0.5 -0.7
v -0.4 0.6 -0.7
v -0.4 0.8 -0.7
v -0.3 0.3 -0.7
v -0.3 0.5 -0.7
v -0.3 0.6 -0.7
v -0.3 0.8 -0.7
v -0.2 0.3 -0.7
v -0.2 0.5 -0.7
v -0.2 0.6 -0.7
v -0.2 0.8 -0.7
v -0.1 0.2 -0.7
v -0.1 1 -0.7
v 0.2 0.2 -0.7
v 0.2 1 -0.7
v 0.3 0.3 -0.7
v 0.3 0.5 -0.7
v 0.3 0.6 -0.7
v 0.3 0.8 -0.7
v 0.4 0.3 -0.7
v 0.4 0.5 -0.7
v 0.4 0.6 -0.7
v 0.4 0.8 -0.7
v 0.5 0.3 -0.7
v 0.5 0.5 -0.7
v 0.5 0.6 -0.7
v 0.5 0.8 -0.7
v 0.6 0.3 -0.7
v 0.6 0.5 -0.7
v 0.6 0.6 -0.7
v 0.6 0.8 -0.7
v 0.7 0.2 -0.7
v 0.7 1 -0.7
v -0.7 0 -0.8
v -0.7 0.2 -0.8
v 0.8 0 -0.8
v 0.8 0.2 -0.8
v -0.7 0 0.7
v 0.8 0 0.7
v -0.7 0 -0.8
v 0.8 0 -0.8
v -0.7 0.2 0.7
v 0.8 0.2 0.7
v -0.6 0.2 0.6
v -0.1 0.2 0.6
v 0.2 0.2 0.6
v 0.7 0.2 0.6
v -0.1 0.2 0
v 0.2 0.2 0
v -0.1 0.2 -0.1
v 0.2 0.2 -0.1
v -0.6 0.2 -0.7
v -0.1 0.2 -0.7
v 0.2 0.2 -0.7
v 0.7 0.2 -0.7
v -0.7 0.2 -0.8
v 0.8 0.2 -0.8
v -0.5 0.9 0.5
v -0.2 0.9 0.5
v 0.3 0.9 0.5
v 0.6 0.9 0.5
v -0.5 0.9 -0.6
v -0.2 0.9 -0.6
v 0.3 0.9 -0.6
v 0.6 0.9 -0.6
v -0.6 1 0.6
v -0.1 1 0.6
v 0.2 1 0.6
v 0.7 1 0.6
v -0.5 1 0.5
v -0.2 1 0.5
v 0.3 1 0.5
v 0.6 1 0.5
v -0.5 1 -0.6
v -0.2 1 -0.6
v 0.3 1 -0.6
v 0.6 1 -0.6
v -0.6 1 -0.7
v -0.1 1 -0.7
v 0.2 1 -0.7
v 0.7 1 -0.7

# faces
f 3/4/1 2/4/1 1/4/1
f 4/4/1 2/4/1 3/4/1
f 7/1/1 6/1/1 5/1/1
f 8/1/1 6/1/1 7/1/1
f 9/1/1 6/1/1 8/1/1
f 10/1/1 6/1/1 9/1/1
f 11/1/1 6/1/1 10/1/1
f 12/1/1 6/1/1 11/1/1
f 13/1/1 6/1/1 12/1/1
f 14/1/1 6/1/1 13/1/1
f 15/1/1 6/1/1 14/1/1
f 16/1/1 6/1/1 15/1/1
f 17/1/1 6/1/1 16/1/1
f 18/1/1 6/1/1 17/1/1
f 19/1/1 7/1/1 5/1/1
f 19/2/1 8/2/1 7/2/1
f 20/1/1 9/1/1 8/1/1
f 20/2/1 8/2/1 19/2/1
f 21/2/1 10/2/1 9/2/1
f 21/1/1 9/1/1 20/1/1
f 22/1/1 11/1/1 10/1/1
f 22/2/1 10/2/1 21/2/1
f 23/2/1 12/2/1 11/2/1
f 23/1/1 11/1/1 22/1/1
f 24/1/1 13/1/1 12/1/1
f 24/2/1 12/2/1 23/2/1
f 25/2/1 14/2/1 13/2/1
f 25/1/1 13/1/1 24/1/1
f 26/1/1 15/1/1 14/1/1
f 26/2/1 14/2/1 25/2/1
f 27/2/1 16/2/1 15/2/1
f 27/1/1 15/1/1 26/1/1
f 28/1/1 17/1/1 16/1/1
f 28/2/1 16/2/1 27/2/1
f 29/2/1 18/2/1 17/2/1
f 29/1/1 17/1/1 28/1/1
f 30/1/1 6/1/1 18/1/1
f 30/2/1 18/2/1 29/2/1
f 31/1/1 29/1/1 28/1/1
f 31/1/1 28/1/1 27/1/1
f 31/1/1 30/1/1 29/1/1
f 31/1/1 27/1/1 26/1/1
f 31/1/1 26/1/1 25/1/1
f 31/1/1 25/1/1 24/1/1
f 31/1/1 24/1/1 23/1/1
f 31/1/1 23/1/1 22/1/1
f 31/1/1 22/1/1 21/1/1
f 31/1/1 21/1/1 20/1/1
f 31/1/1 20/1/1 19/1/1
f 31/1/1 19/1/1 5/1/1
f 32/1/1 30/1/1 31/1/1
f 33/1/1 30/1/1 32/1/1
f 34/1/1 30/1/1 33/1/1
f 35/1/1 30/1/1 34/1/1
f 36/1/1 30/1/1 35/1/1
f 37/1/1 30/1/1 36/1/1
f 38/1/1 30/1/1 37/1/1
f 39/1/1 30/1/1 38/1/1
f 40/1/1 30/1/1 39/1/1
f 41/1/1 30/1/1 40/1/1
f 42/1/1 6/1/1 30/1/1
f 42/1/1 30/1/1 41/1/1
f 43/1/1 31/1/1 5/1/1
f 43/2/1 32/2/1 31/2/1
f 44/1/1 33/1/1 32/1/1
f 44/2/1 32/2/1 43/2/1
f 45/2/1 34/2/1 33/2/1
f 45/1/1 33/1/1 44/1/1
f 46/1/1 35/1/1 34/1/1
f 46/2/1 34/2/1 45/2/1
f 47/2/1 36/2/1 35/2/1
f 47/1/1 35/1/1 46/1/1
f 48/1/1 37/1/1 36/1/1
f 48/2/1 36/2/1 47/2/1
f 49/2/1 38/2/1 37/2/1
f 49/1/1 37/1/1 48/1/1
f 50/1/1 39/1/1 38/1/1
f 50/2/1 38/2/1 49/2/1
f 51/2/1 40/2/1 39/2/1
f 51/1/1 39/1/1 50/1/1
f 52/1/1 41/1/1 40/1/1
f 52/2/1 40/2/1 51/2/1
f 53/2/1 42/2/1 41/2/1
f 53/1/1 41/1/1 52/1/1
f 54/1/1 6/1/1 42/1/1
f 54/2/1 42/2/1 53/2/1
f 55/1/1 51/1/1 50/1/1
f 55/1/1 53/1/1 52/1/1
f 55/1/1 54/1/1 53/1/1
f 55/1/1 50/1/1 49/1/1
f 55/1/1 49/1/1 48/1/1
f 55/1/1 48/1/1 47/1/1
f 55/1/1 47/1/1 46/1/1
f 55/1/1 46/1/1 45/1/1
f 55/1/1 45/1/1 44/1/1
f 55/1/1 44/1/1 43/1/1
f 55/1/1 43/1/1 5/1/1
f 55/1/1 52/1/1 51/1/1
f 56/1/1 6/1/1 54/1/1
f 56/1/1 54/1/1 55/1/1
f 59/1/1 58/1/1 57/1/1
f 60/1/1 58/1/1 59/1/1
f 65/1/1 62/1/1 61/1/1
f 66/1/1 62/1/1 65/1/1
f 67/1/1 62/1/1 66/1/1
f 68/1/1 62/1/1 67/1/1
f 69/1/1 64/1/1 63/1/1
f 70/1/1 64/1/1 69/1/1
f 71/1/1 64/1/1 70/1/1
f 72/1/1 64/1/1 71/1/1
f 73/1/1 62/1/1 68/1/1
f 73/2/1 63/2/1 62/2/1
f 74/1/1 69/1/1 63/1/1
f 74/2/1 63/2/1 73/2/1
f 75/1/1 65/1/1 61/1/1
f 75/2/1 66/2/1 65/2/1
f 76/1/1 67/1/1 66/1/1
f 76/2/1 66/2/1 75/2/1
f 77/2/1 68/2/1 67/2/1
f 77/1/1 67/1/1 76/1/1
f 78/1/1 74/1/1 73/1/1
f 78/2/1 68/2/1 77/2/1
f 78/1/1 73/1/1 68/1/1
f 79/1/1 69/1/1 74/1/1
f 79/1/1 74/1/1 78/1/1
f 79/2/1 70/2/1 69/2/1
f 80/1/1 71/1/1 70/1/1
f 80/2/1 70/2/1 79/2/1
f 81/2/1 72/2/1 71/2/1
f 81/1/1 71/1/1 80/1/1
f 82/1/1 64/1/1 72/1/1
f 82/2/1 72/2/1 81/2/1
f 83/1/1 81/1/1 80/1/1
f 83/1/1 80/1/1 79/1/1
f 83/1/1 82/1/1 81/1/1
f 83/1/1 79/1/1 78/1/1
f 83/1/1 76/1/1 75/1/1
f 83/1/1 75/1/1 61/1/1
f 83/1/1 77/1/1 76/1/1
f 83/1/1 78/1/1 77/1/1
f 84/1/1 82/1/1 83/1/1
f 85/1/1 82/1/1 84/1/1
f 86/1/1 82/1/1 85/1/1
f 87/1/1 82/1/1 86/1/1
f 88/1/1 82/1/1 87/1/1
f 89/1/1 82/1/1 88/1/1
f 90/1/1 82/1/1 89/1/1
f 91/1/1 82/1/1 90/1/1
f 92/1/1 82/1/1 91/1/1
f 93/1/1 82/1/1 92/1/1
f 94/1/1 64/1/1 82/1/1
f 94/1/1 82/1/1 93/1/1
f 95/1/1 83/1/1 61/1/1
f 95/2/1 84/2/1 83/2/1
f 96/1/1 85/1/1 84/1/1
f 96/2/1 84/2/1 95/2/1
f 97/2/1 86/2/1 85/2/1
f 97/1/1 85/1/1 96/1/1
f 98/1/1 87/1/1 86/1/1
f 98/2/1 86/2/1 97/2/1
f 99/2/1 88/2/1 87/2/1
f 99/1/1 87/1/1 98/1/1
f 100/1/1 89/1/1 88/1/1
f 100/2/1 88/2/1 99/2/1
f 101/2/1 90/2/1 89/2/1
f 101/1/1 89/1/1 100/1/1
f 102/1/1 91/1/1 90/1/1
f 102/2/1 90/2/1 101/2/1
f 103/2/1 92/2/1 91/2/1
f 103/1/1 91/1/1 102/1/1
f 104/1/1 93/1/1 92/1/1
f 104/2/1 92/2/1 103/2/1
f 105/2/1 94/2/1 93/2/1
f 105/1/1 93/1/1 104/1/1
f 106/1/1 64/1/1 94/1/1
f 106/2/1 94/2/1 105/2/1
f 107/1/1 103/1/1 102/1/1
f 107/1/1 105/1/1 104/1/1
f 107/1/1 106/1/1 105/1/1
f 107/1/1 102/1/1 101/1/1
f 107/1/1 101/1/1 100/1/1
f 107/1/1 100/1/1 99/1/1
f 107/1/1 99/1/1 98/1/1
f 107/1/1 98/1/1 97/1/1
f 107/1/1 97/1/1 96/1/1
f 107/1/1 96/1/1 95/1/1
f 107/1/1 95/1/1 61/1/1
f 107/1/1 104/1/1 103/1/1
f 108/1/1 64/1/1 106/1/1
f 108/1/1 106/1/1 107/1/1
f 111/1/1 110/1/1 109/1/1
f 112/1/1 110/1/1 111/1/1
f 113/1/2 114/1/2 115/1/2
f 115/1/2 114/1/2 116/1/2
f 117/1/2 118/1/2 121/1/2
f 121/1/2 118/1/2 122/1/2
f 122/1/2 118/1/2 123/1/2
f 123/1/2 118/1/2 124/1/2
f 119/1/2 120/1/2 125/1/2
f 125/1/2 120/1/2 126/1/2
f 126/1/2 120/1/2 127/1/2
f 127/1/2 120/1/2 128/1/2
f 124/1/2 118/1/2 129/1/2
f 118/2/2 119/2/2 129/2/2
f 119/1/2 125/1/2 130/1/2
f 129/2/2 119/2/2 130/2/2
f 117/1/2 121/1/2 131/1/2
f 121/2/2 122/2/2 131/2/2
f 122/1/2 123/1/2 132/1/2
f 131/2/2 122/2/2 132/2/2
f 123/2/2 124/2/2 133/2/2
f 132/1/2 123/1/2 133/1/2
f 129/1/2 130/1/2 134/1/2
f 133/2/2 124/2/2 134/2/2
f 124/1/2 129/1/2 134/1/2
f 130/1/2 125/1/2 135/1/2
f 134/1/2 130/1/2 135/1/2
f 125/2/2 126/2/2 135/2/2
f 126/1/2 127/1/2 136/1/2
f 135/2/2 126/2/2 136/2/2
f 127/2/2 128/2/2 137/2/2
f 136/1/2 127/1/2 137/1/2
f 128/1/2 120/1/2 138/1/2
f 137/2/2 128/2/2 138/2/2
f 136/1/2 137/1/2 139/1/2
f 135/1/2 136/1/2 139/1/2
f 137/1/2 138/1/2 139/1/2
f 134/1/2 135/1/2 139/1/2
f 131/1/2 132/1/2 139/1/2
f 117/1/2 131/1/2 139/1/2
f 132/1/2 133/1/2 139/1/2
f 133/1/2 134/1/2 139/1/2
f 139/1/2 138/1/2 140/1/2
f 140/1/2 138/1/2 141/1/2
f 141/1/2 138/1/2 142/1/2
f 142/1/2 138/1/2 143/1/2
f 143/1/2 138/1/2 144/1/2
f 144/1/2 138/1/2 145/1/2
f 145/1/2 138/1/2 146/1/2
f 146/1/2 138/1/2 147/1/2
f 147/1/2 138/1/2 148/1/2
f 148/1/2 138/1/2 149/1/2
f 138/1/2 120/1/2 150/1/2
f 149/1/2 138/1/2 150/1/2
f 117/1/2 139/1/2 151/1/2
f 139/2/2 140/2/2 151/2/2
f 140/1/2 141/1/2 152/1/2
f 151/2/2 140/2/2 152/2/2
f 141/2/2 142/2/2 153/2/2
f 152/1/2 141/1/2 153/1/2
f 142/1/2 143/1/2 154/1/2
f 153/2/2 142/2/2 154/2/2
f 143/2/2 144/2/2 155/2/2
f 154/1/2 143/1/2 155/1/2
f 144/1/2 145/1/2 156/1/2
f 155/2/2 144/2/2 156/2/2
f 145/2/2 146/2/2 157/2/2
f 156/1/2 145/1/2 157/1/2
f 146/1/2 147/1/2 158/1/2
f 157/2/2 146/2/2 158/2/2
f 147/2/2 148/2/2 159/2/2
f 158/1/2 147/1/2 159/1/2
f 148/1/2 149/1/2 160/1/2
f 159/2/2 148/2/2 160/2/2
f 149/2/2 150/2/2 161/2/2
f 160/1/2 149/1/2 161/1/2
f 150/1/2 120/1/2 162/1/2
f 161/2/2 150/2/2 162/2/2
f 158/1/2 159/1/2 163/1/2
f 160/1/2 161/1/2 163/1/2
f 161/1/2 162/1/2 163/1/2
f 157/1/2 158/1/2 163/1/2
f 156/1/2 157/1/2 163/1/2
f 155/1/2 156/1/2 163/1/2
f 154/1/2 155/1/2 163/1/2
f 153/1/2 154/1/2 163/1/2
f 152/1/2 153/1/2 163/1/2
f 151/1/2 152/1/2 163/1/2
f 117/1/2 151/1/2 163/1/2
f 159/1/2 160/1/2 163/1/2
f 162/1/2 120/1/2 164/1/2
f 163/1/2 162/1/2 164/1/2
f 165/1/2 166/1/2 167/1/2
f 167/1/2 166/1/2 168/1/2
f 169/1/2 170/1/2 171/1/2
f 171/1/2 170/1/2 172/1/2
f 172/1/2 170/1/2 173/1/2
f 173/1/2 170/1/2 174/1/2
f 174/1/2 170/1/2 175/1/2
f 175/1/2 170/1/2 176/1/2
f 176/1/2 170/1/2 177/1/2
f 177/1/2 170/1/2 178/1/2
f 178/1/2 170/1/2 179/1/2
f 179/1/2 170/1/2 180/1/2
f 180/1/2 170/1/2 181/1/2
f 181/1/2 170/1/2 182/1/2
f 169/1/2 171/1/2 183/1/2
f 171/2/2 172/2/2 183/2/2
f 172/1/2 173/1/2 184/1/2
f 183/2/2 172/2/2 184/2/2
f 173/2/2 174/2/2 185/2/2
f 184/1/2 173/1/2 185/1/2
f 174/1/2 175/1/2 186/1/2
f 185/2/2 174/2/2 186/2/2
f 175/2/2 176/2/2 187/2/2
f 186/1/2 175/1/2 187/1/2
f 176/1/2 177/1/2 188/1/2
f 187/2/2 176/2/2 188/2/2
f 177/2/2 178/2/2 189/2/2
f 188/1/2 177/1/2 189/1/2
f 178/1/2 179/1/2 190/1/2
f 189/2/2 178/2/2 190/2/2
f 179/2/2 180/2/2 191/2/2
f 190/1/2 179/1/2 191/1/2
f 180/1/2 181/1/2 192/1/2
f 191/2/2 180/2/2 192/2/2
f 181/2/2 182/2/2 193/2/2
f 192/1/2 181/1/2 193/1/2
f 182/1/2 170/1/2 194/1/2
f 193/2/2 182/2/2 194/2/2
f 192/1/2 193/1/2 195/1/2
f 191/1/2 192/1/2 195/1/2
f 193/1/2 194/1/2 195/1/2
f 190/1/2 191/1/2 195/1/2
f 189/1/2 190/1/2 195/1/2
f 188/1/2 189/1/2 195/1/2
f 187/1/2 188/1/2 195/1/2
f 186/1/2 187/1/2 195/1/2
f 185/1/2 186/1/2 195/1/2
f 184/1/2 185/1/2 195/1/2
f 183/1/2 184/1/2 195/1/2
f 169/1/2 183/1/2 195/1/2
f 195/1/2 194/1/2 196/1/2
f 196/1/2 194/1/2 197/1/2
f 197/1/2 194/1/2 198/1/2
f 198/1/2 194/1/2 199/1/2
f 199/1/2 194/1/2 200/1/2
f 200/1/2 194/1/2 201/1/2
f 201/1/2 194/1/2 202/1/2
f 202/1/2 194/1/2 203/1/2
f 203/1/2 194/1/2 204/1/2
f 204/1/2 194/1/2 205/1/2
f 194/1/2 170/1/2 206/1/2
f 205/1/2 194/1/2 206/1/2
f 169/1/2 195/1/2 207/1/2
f 195/2/2 196/2/2 207/2/2
f 196/1/2 197/1/2 208/1/2
f 207/2/2 196/2/2 208/2/2
f 197/2/2 198/2/2 209/2/2
f 208/1/2 197/1/2 209/1/2
f 198/1/2 199/1/2 210/1/2
f 209/2/2 198/2/2 210/2/2
f 199/2/2 200/2/2 211/2/2
f 210/1/2 199/1/2 211/1/2
f 200/1/2 201/1/2 212/1/2
f 211/2/2 200/2/2 212/2/2
f 201/2/2 202/2/2 213/2/2
f 212/1/2 201/1/2 213/1/2
f 202/1/2 203/1/2 214/1/2
f 213/2/2 202/2/2 214/2/2
f 203/2/2 204/2/2 215/2/2
f 214/1/2 203/1/2 215/1/2
f 204/1/2 205/1/2 216/1/2
f 215/2/2 204/2/2 216/2/2
f 205/2/2 206/2/2 217/2/2
f 216/1/2 205/1/2 217/1/2
f 206/1/2 170/1/2 218/1/2
f 217/2/2 206/2/2 218/2/2
f 214/1/2 215/1/2 219/1/2
f 216/1/2 217/1/2 219/1/2
f 217/1/2 218/1/2 219/1/2
f 213/1/2 214/1/2 219/1/2
f 212/1/2 213/1/2 219/1/2
f 211/1/2 212/1/2 219/1/2
f 210/1/2 211/1/2 219/1/2
f 209/1/2 210/1/2 219/1/2
f 208/1/2 209/1/2 219/1/2
f 207/1/2 208/1/2 219/1/2
f 169/1/2 207/1/2 219/1/2
f 215/1/2 216/1/2 219/1/2
f 218/1/2 170/1/2 220/1/2
f 219/1/2 218/1/2 220/1/2
f 221/4/2 222/4/2 223/4/2
f 223/4/2 222/4/2 224/4/2
f 227/4/3 226/4/3 225/4/3
f 228/4/3 226/4/3 227/4/3
f 231/1/3 230/1/3 229/1/3
f 232/1/3 230/1/3 231/1/3
f 233/1/3 230/1/3 232/1/3
f 234/1/3 230/1/3 233/1/3
f 235/1/3 231/1/3 229/1/3
f 235/2/3 232/2/3 231/2/3
f 236/1/3 233/1/3 232/1/3
f 236/2/3 232/2/3 235/2/3
f 237/2/3 234/2/3 233/2/3
f 237/1/3 233/1/3 236/1/3
f 238/1/3 230/1/3 234/1/3
f 238/2/3 234/2/3 237/2/3
f 239/1/3 237/1/3 236/1/3
f 239/1/3 236/1/3 235/1/3
f 239/1/3 238/1/3 237/1/3
f 239/1/3 235/1/3 229/1/3
f 240/1/3 238/1/3 239/1/3
f 241/1/3 238/1/3 240/1/3
f 242/1/3 230/1/3 238/1/3
f 242/1/3 238/1/3 241/1/3
f 243/1/3 239/1/3 229/1/3
f 243/2/3 240/2/3 239/2/3
f 244/1/3 241/1/3 240/1/3
f 244/2/3 240/2/3 243/2/3
f 245/2/3 242/2/3 241/2/3
f 245/1/3 241/1/3 244/1/3
f 246/1/3 230/1/3 242/1/3
f 246/2/3 242/2/3 245/2/3
f 247/1/3 243/1/3 229/1/3
f 247/1/3 245/1/3 244/1/3
f 247/1/3 246/1/3 245/1/3
f 247/1/3 244/1/3 243/1/3
f 248/1/3 230/1/3 246/1/3
f 248/1/3 246/1/3 247/1/3
f 251/1/3 250/1/3 249/1/3
f 252/1/3 250/1/3 251/1/3
f 253/1/3 250/1/3 252/1/3
f 254/1/3 250/1/3 253/1/3
f 255/1/3 251/1/3 249/1/3
f 255/2/3 252/2/3 251/2/3
f 256/1/3 253/1/3 252/1/3
f 256/2/3 252/2/3 255/2/3
f 257/2/3 254/2/3 253/2/3
f 257/1/3 253/1/3 256/1/3
f 258/1/3 250/1/3 254/1/3
f 258/2/3 254/2/3 257/2/3
f 259/1/3 257/1/3 256/1/3
f 259/1/3 256/1/3 255/1/3
f 259/1/3 258/1/3 257/1/3
f 259/1/3 255/1/3 249/1/3
f 260/1/3 258/1/3 259/1/3
f 261/1/3 258/1/3 260/1/3
f 262/1/3 250/1/3 258/1/3
f 262/1/3 258/1/3 261/1/3
f 263/1/3 259/1/3 249/1/3
f 263/2/3 260/2/3 259/2/3
f 264/1/3 261/1/3 260/1/3
f 264/2/3 260/2/3 263/2/3
f 265/2/3 262/2/3 261/2/3
f 265/1/3 261/1/3 264/1/3
f 266/1/3 250/1/3 262/1/3
f 266/2/3 262/2/3 265/2/3
f 267/1/3 263/1/3 249/1/3
f 267/1/3 265/1/3 264/1/3
f 267/1/3 266/1/3 265/1/3
f 267/1/3 264/1/3 263/1/3
f 268/1/3 250/1/3 266/1/3
f 268/1/3 266/1/3 267/1/3
f 271/1/3 270/1/3 269/1/3
f 272/1/3 270/1/3 271/1/3
f 275/1/3 274/1/3 273/1/3
f 276/1/3 274/1/3 275/1/3
f 277/1/4 278/1/4 279/1/4
f 279/1/4 278/1/4 280/1/4
f 281/1/4 282/1/4 283/1/4
f 283/1/4 282/1/4 284/1/4
f 285/1/4 286/1/4 287/1/4
f 287/1/4 286/1/4 288/1/4
f 288/1/4 286/1/4 289/1/4
f 289/1/4 286/1/4 290/1/4
f 285/1/4 287/1/4 291/1/4
f 287/2/4 288/2/4 291/2/4
f 288/1/4 289/1/4 292/1/4
f 291/2/4 288/2/4 292/2/4
f 289/2/4 290/2/4 293/2/4
f 292/1/4 289/1/4 293/1/4
f 290/1/4 286/1/4 294/1/4
f 293/2/4 290/2/4 294/2/4
f 292/1/4 293/1/4 295/1/4
f 291/1/4 292/1/4 295/1/4
f 293/1/4 294/1/4 295/1/4
f 285/1/4 291/1/4 295/1/4
f 295/1/4 294/1/4 296/1/4
f 296/1/4 294/1/4 297/1/4
f 294/1/4 286/1/4 298/1/4
f 297/1/4 294/1/4 298/1/4
f 285/1/4 295/1/4 299/1/4
f 295/2/4 296/2/4 299/2/4
f 296/1/4 297/1/4 300/1/4
f 299/2/4 296/2/4 300/2/4
f 297/2/4 298/2/4 301/2/4
f 300/1/4 297/1/4 301/1/4
f 298/1/4 286/1/4 302/1/4
f 301/2/4 298/2/4 302/2/4
f 285/1/4 299/1/4 303/1/4
f 300/1/4 301/1/4 303/1/4
f 301/1/4 302/1/4 303/1/4
f 299/1/4 300/1/4 303/1/4
f 302/1/4 286/1/4 304/1/4
f 303/1/4 302/1/4 304/1/4
f 305/1/4 306/1/4 307/1/4
f 307/1/4 306/1/4 308/1/4
f 308/1/4 306/1/4 309/1/4
f 309/1/4 306/1/4 310/1/4
f 305/1/4 307/1/4 311/1/4
f 307/2/4 308/2/4 311/2/4
f 308/1/4 309/1/4 312/1/4
f 311/2/4 308/2/4 312/2/4
f 309/2/4 310/2/4 313/2/4
f 312/1/4 309/1/4 313/1/4
f 310/1/4 306/1/4 314/1/4
f 313/2/4 310/2/4 314/2/4
f 312/1/4 313/1/4 315/1/4
f 311/1/4 312/1/4 315/1/4
f 313/1/4 314/1/4 315/1/4
f 305/1/4 311/1/4 315/1/4
f 315/1/4 314/1/4 316/1/4
f 316/1/4 314/1/4 317/1/4
f 314/1/4 306/1/4 318/1/4
f 317/1/4 314/1/4 318/1/4
f 305/1/4 315/1/4 319/1/4
f 315/2/4 316/2/4 319/2/4
f 316/1/4 317/1/4 320/1/4
f 319/2/4 316/2/4 320/2/4
f 317/2/4 318/2/4 321/2/4
f 320/1/4 317/1/4 321/1/4
f 318/1/4 306/1/4 322/1/4
f 321/2/4 318/2/4 322/2/4
f 305/1/4 319/1/4 323/1/4
f 320/1/4 321/1/4 323/1/4
f 321/1/4 322/1/4 323/1/4
f 319/1/4 320/1/4 323/1/4
f 322/1/4 306/1/4 324/1/4
f 323/1/4 322/1/4 324/1/4
f 325/4/4 326/4/4 327/4/4
f 327/4/4 326/4/4 328/4/4
f 331/4/5 330/4/5 329/4/5
f 332/4/5 330/4/5 331/4/5
f 333/4/6 334/4/6 335/4/6
f 335/4/6 334/4/6 336/4/6
f 336/4/6 334/4/6 337/4/6
f 337/4/6 334/4/6 338/4/6
f 336/4/6 337/4/6 339/4/6
f 339/4/6 337/4/6 340/4/6
f 339/4/6 340/4/6 341/4/6
f 341/4/6 340/4/6 342/4/6
f 333/4/6 335/4/6 343/4/6
f 341/4/6 342/4/6 344/4/6
f 344/4/6 342/4/6 345/4/6
f 338/4/6 334/4/6 346/4/6
f 344/4/6 345/4/6 347/4/6
f 345/4/6 346/4/6 347/4/6
f 343/4/6 344/4/6 347/4/6
f 333/4/6 343/4/6 347/4/6
f 346/4/6 334/4/6 348/4/6
f 347/4/6 346/4/6 348/4/6
f 349/3/6 350/3/6 353/3/6
f 353/3/6 350/3/6 354/3/6
f 351/3/6 352/3/6 355/3/6
f 355/3/6 352/3/6 356/3/6
f 357/1/6 358/1/6 361/1/6
f 361/1/6 358/1/6 362/1/6
f 359/1/6 360/1/6 363/1/6
f 363/1/6 360/1/6 364/1/6
f 357/1/6 361/1/6 365/1/6
f 362/1/6 358/1/6 366/1/6
f 359/1/6 363/1/6 367/1/6
f 364/1/6 360/1/6 368/1/6
f 357/1/6 365/1/6 369/1/6
f 365/1/6 366/1/6 369/1/6
f 366/1/6 358/1/6 370/1/6
f 369/1/6 366/1/6 370/1/6
f 367/1/6 368/1/6 371/1/6
f 359/1/6 367/1/6 371/1/6
f 368/1/6 360/1/6 372/1/6
f 371/1/6 368/1/6 372/1/6
