# MagicaVoxel @ Ephtracy

# group
o 

# material
mtllib CityVoxelPack-14.mtl
usemtl palette

# normals
vn -1 0 0
vn 1 0 0
vn 0 0 1
vn 0 0 -1
vn 0 -1 0
vn 0 1 0

# texcoords
vt 0.876953 0.5
vt 0.908203 0.5
vt 0.939453 0.5

# verts
v -0.7 0 0.7
v -0.7 0 0.4
v -0.7 0 -0.5
v -0.7 0 -0.8
v -0.7 0.1 0.4
v -0.7 0.1 -0.5
v -0.7 0.2 0.7
v -0.7 0.2 0.4
v -0.7 0.2 -0.5
v -0.7 0.2 -0.8
v 0.5 0.1 0.7
v 0.5 0.1 0.5
v 0.5 0.1 0.4
v 0.5 0.2 0.7
v 0.5 0.2 0.4
v -0.4 0.1 0.7
v -0.4 0.1 0.4
v -0.4 0.2 0.7
v -0.4 0.2 0.4
v 0.8 0 0.7
v 0.8 0 0.4
v 0.8 0 -0.5
v 0.8 0 -0.8
v 0.8 0.1 0.4
v 0.8 0.1 -0.5
v 0.8 0.2 0.7
v 0.8 0.2 0.4
v 0.8 0.2 -0.5
v 0.8 0.2 -0.8
v -0.7 0 0.7
v -0.7 0.2 0.7
v -0.4 0 0.7
v -0.4 0.1 0.7
v -0.4 0.2 0.7
v 0.5 0 0.7
v 0.5 0.1 0.7
v 0.5 0.2 0.7
v 0.8 0 0.7
v 0.8 0.2 0.7
v -0.7 0.1 -0.5
v -0.7 0.2 -0.5
v 0.8 0.1 -0.5
v 0.8 0.2 -0.5
v -0.7 0.1 0.4
v -0.7 0.2 0.4
v -0.4 0.1 0.4
v -0.4 0.2 0.4
v 0.5 0.1 0.4
v 0.5 0.2 0.4
v 0.8 0.1 0.4
v 0.8 0.2 0.4
v -0.7 0 -0.8
v -0.7 0.2 -0.8
v 0.8 0 -0.8
v 0.8 0.2 -0.8
v -0.7 0 0.7
v -0.4 0 0.7
v 0.5 0 0.7
v 0.8 0 0.7
v 0.1 0 0.5
v 0.5 0 0.5
v -0.7 0 0.4
v -0.4 0 0.4
v 0.1 0 0.4
v 0.5 0 0.4
v 0.8 0 0.4
v -0.6 0 0
v -0.3 0 0
v -0.1 0 0
v 0.2 0 0
v 0.4 0 0
v 0.7 0 0
v -0.6 0 -0.1
v -0.3 0 -0.1
v -0.1 0 -0.1
v 0.2 0 -0.1
v 0.4 0 -0.1
v 0.7 0 -0.1
v -0.7 0 -0.5
v 0.8 0 -0.5
v -0.7 0 -0.8
v 0.8 0 -0.8
v -0.4 0.1 0.7
v 0.5 0.1 0.7
v 0.1 0.1 0.5
v 0.5 0.1 0.5
v -0.7 0.1 0.4
v -0.4 0.1 0.4
v 0.1 0.1 0.4
v 0.5 0.1 0.4
v 0.8 0.1 0.4
v -0.6 0.1 0
v -0.3 0.1 0
v -0.1 0.1 0
v 0.2 0.1 0
v 0.4 0.1 0
v 0.7 0.1 0
v -0.6 0.1 -0.1
v -0.3 0.1 -0.1
v -0.1 0.1 -0.1
v 0.2 0.1 -0.1
v 0.4 0.1 -0.1
v 0.7 0.1 -0.1
v -0.7 0.1 -0.5
v 0.8 0.1 -0.5
v -0.7 0.2 0.7
v -0.4 0.2 0.7
v 0.5 0.2 0.7
v 0.8 0.2 0.7
v -0.7 0.2 0.4
v -0.4 0.2 0.4
v 0.5 0.2 0.4
v 0.8 0.2 0.4
v -0.7 0.2 -0.5
v 0.8 0.2 -0.5
v -0.7 0.2 -0.8
v 0.8 0.2 -0.8

# faces
f 5/3/1 2/3/1 1/3/1
f 5/2/1 3/2/1 2/2/1
f 6/3/1 4/3/1 3/3/1
f 6/2/1 3/2/1 5/2/1
f 7/3/1 5/3/1 1/3/1
f 8/3/1 5/3/1 7/3/1
f 9/3/1 4/3/1 6/3/1
f 10/3/1 4/3/1 9/3/1
f 14/3/1 12/3/1 11/3/1
f 14/3/1 13/3/1 12/3/1
f 15/3/1 13/3/1 14/3/1
f 16/3/2 17/3/2 18/3/2
f 18/3/2 17/3/2 19/3/2
f 20/3/2 21/3/2 24/3/2
f 21/2/2 22/2/2 24/2/2
f 22/3/2 23/3/2 25/3/2
f 24/2/2 22/2/2 25/2/2
f 20/3/2 24/3/2 26/3/2
f 26/3/2 24/3/2 27/3/2
f 25/3/2 23/3/2 28/3/2
f 28/3/2 23/3/2 29/3/2
f 32/3/3 31/3/3 30/3/3
f 33/3/3 31/3/3 32/3/3
f 34/3/3 31/3/3 33/3/3
f 35/2/3 33/2/3 32/2/3
f 36/2/3 33/2/3 35/2/3
f 38/3/3 36/3/3 35/3/3
f 38/3/3 37/3/3 36/3/3
f 39/3/3 37/3/3 38/3/3
f 42/3/3 41/3/3 40/3/3
f 43/3/3 41/3/3 42/3/3
f 44/3/4 45/3/4 46/3/4
f 46/3/4 45/3/4 47/3/4
f 48/3/4 49/3/4 50/3/4
f 50/3/4 49/3/4 51/3/4
f 52/3/4 53/3/4 54/3/4
f 54/3/4 53/3/4 55/3/4
f 60/2/5 58/2/5 57/2/5
f 61/3/5 59/3/5 58/3/5
f 61/2/5 58/2/5 60/2/5
f 62/3/5 57/3/5 56/3/5
f 63/2/5 60/2/5 57/2/5
f 63/3/5 57/3/5 62/3/5
f 64/1/5 61/1/5 60/1/5
f 64/2/5 60/2/5 63/2/5
f 65/3/5 59/3/5 61/3/5
f 65/1/5 61/1/5 64/1/5
f 66/3/5 59/3/5 65/3/5
f 67/2/5 64/2/5 63/2/5
f 67/2/5 63/2/5 62/2/5
f 67/2/5 66/2/5 65/2/5
f 67/2/5 65/2/5 64/2/5
f 68/2/5 66/2/5 67/2/5
f 69/2/5 66/2/5 68/2/5
f 70/2/5 66/2/5 69/2/5
f 71/2/5 66/2/5 70/2/5
f 72/2/5 66/2/5 71/2/5
f 73/2/5 67/2/5 62/2/5
f 73/1/5 68/1/5 67/1/5
f 74/2/5 69/2/5 68/2/5
f 74/1/5 68/1/5 73/1/5
f 75/1/5 70/1/5 69/1/5
f 75/2/5 69/2/5 74/2/5
f 76/2/5 71/2/5 70/2/5
f 76/1/5 70/1/5 75/1/5
f 77/1/5 72/1/5 71/1/5
f 77/2/5 71/2/5 76/2/5
f 78/2/5 66/2/5 72/2/5
f 78/1/5 72/1/5 77/1/5
f 79/2/5 77/2/5 76/2/5
f 79/2/5 76/2/5 75/2/5
f 79/2/5 78/2/5 77/2/5
f 79/2/5 75/2/5 74/2/5
f 79/2/5 74/2/5 73/2/5
f 79/2/5 73/2/5 62/2/5
f 80/2/5 66/2/5 78/2/5
f 80/2/5 78/2/5 79/2/5
f 81/3/5 80/3/5 79/3/5
f 82/3/5 80/3/5 81/3/5
f 83/2/6 84/2/6 85/2/6
f 85/2/6 84/2/6 86/2/6
f 83/2/6 85/2/6 88/2/6
f 85/1/6 86/1/6 89/1/6
f 88/2/6 85/2/6 89/2/6
f 89/1/6 86/1/6 90/1/6
f 89/2/6 90/2/6 92/2/6
f 90/2/6 91/2/6 92/2/6
f 88/2/6 89/2/6 92/2/6
f 87/2/6 88/2/6 92/2/6
f 92/2/6 91/2/6 93/2/6
f 93/2/6 91/2/6 94/2/6
f 94/2/6 91/2/6 95/2/6
f 95/2/6 91/2/6 96/2/6
f 96/2/6 91/2/6 97/2/6
f 87/2/6 92/2/6 98/2/6
f 92/1/6 93/1/6 98/1/6
f 93/2/6 94/2/6 99/2/6
f 98/1/6 93/1/6 99/1/6
f 94/1/6 95/1/6 100/1/6
f 99/2/6 94/2/6 100/2/6
f 95/2/6 96/2/6 101/2/6
f 100/1/6 95/1/6 101/1/6
f 96/1/6 97/1/6 102/1/6
f 101/2/6 96/2/6 102/2/6
f 97/2/6 91/2/6 103/2/6
f 102/1/6 97/1/6 103/1/6
f 101/2/6 102/2/6 104/2/6
f 100/2/6 101/2/6 104/2/6
f 102/2/6 103/2/6 104/2/6
f 99/2/6 100/2/6 104/2/6
f 98/2/6 99/2/6 104/2/6
f 87/2/6 98/2/6 104/2/6
f 103/2/6 91/2/6 105/2/6
f 104/2/6 103/2/6 105/2/6
f 106/3/6 107/3/6 110/3/6
f 110/3/6 107/3/6 111/3/6
f 108/3/6 109/3/6 112/3/6
f 112/3/6 109/3/6 113/3/6
f 114/3/6 115/3/6 116/3/6
f 116/3/6 115/3/6 117/3/6
