# MagicaVoxel @ Ephtracy

# group
o 

# material
mtllib CityVoxelPack-2.mtl
usemtl palette

# normals
vn -1 0 0
vn 1 0 0
vn 0 0 1
vn 0 0 -1
vn 0 -1 0
vn 0 1 0

# texcoords
vt 0.783203 0.5
vt 0.787109 0.5
vt 0.791016 0.5
vt 0.810547 0.5
vt 0.939453 0.5

# verts
v -0.7 0 0.7
v -0.7 0 -0.8
v -0.7 0.2 0.7
v -0.7 0.2 -0.8
v -0.5 0.2 0.5
v -0.5 0.2 0.4
v -0.5 0.2 0.1
v -0.5 0.2 0
v -0.5 0.2 -0.5
v -0.5 0.2 -0.6
v -0.5 0.4 0.4
v -0.5 0.4 0.1
v -0.5 0.4 0
v -0.5 0.4 -0.5
v -0.5 0.5 0.4
v -0.5 0.5 0.3
v -0.5 0.5 0.2
v -0.5 0.5 0.1
v -0.5 0.5 0
v -0.5 0.5 -0.1
v -0.5 0.5 -0.2
v -0.5 0.5 -0.3
v -0.5 0.5 -0.4
v -0.5 0.5 -0.5
v -0.5 0.7 0.4
v -0.5 0.7 0.3
v -0.5 0.7 0.2
v -0.5 0.7 0.1
v -0.5 0.7 0
v -0.5 0.7 -0.1
v -0.5 0.7 -0.2
v -0.5 0.7 -0.3
v -0.5 0.7 -0.4
v -0.5 0.7 -0.5
v -0.5 0.9 0.5
v -0.5 0.9 -0.6
v -0.4 0.4 0.7
v -0.4 0.4 0.5
v -0.4 0.5 0.7
v -0.4 0.5 0.6
v -0.4 0.6 0.6
v -0.4 0.6 0.5
v -0.3 0.2 0.7
v -0.3 0.2 0.6
v -0.3 0.4 0.7
v -0.3 0.4 0.6
v 0.3 0.2 0.7
v 0.3 0.2 0.6
v 0.3 0.4 0.7
v 0.3 0.4 0.6
v 0.4 0.4 0.6
v 0.4 0.4 0.5
v 0.4 0.5 0.6
v 0.4 0.5 0.5
v 0.5 0.8 0.4
v 0.5 0.8 -0.5
v 0.5 0.9 0.4
v 0.5 0.9 -0.5
v -0.4 0.8 0.4
v -0.4 0.8 -0.5
v -0.4 0.9 0.4
v -0.4 0.9 -0.5
v -0.3 0.4 0.6
v -0.3 0.4 0.5
v -0.3 0.5 0.6
v -0.3 0.5 0.5
v -0.2 0.2 0.7
v -0.2 0.2 0.6
v -0.2 0.4 0.7
v -0.2 0.4 0.6
v 0.4 0.2 0.7
v 0.4 0.2 0.6
v 0.4 0.4 0.7
v 0.4 0.4 0.6
v 0.5 0.4 0.7
v 0.5 0.4 0.5
v 0.5 0.5 0.7
v 0.5 0.5 0.6
v 0.5 0.6 0.6
v 0.5 0.6 0.5
v 0.6 0.2 0.5
v 0.6 0.2 0.4
v 0.6 0.2 0.1
v 0.6 0.2 0
v 0.6 0.2 -0.1
v 0.6 0.2 -0.2
v 0.6 0.2 -0.5
v 0.6 0.2 -0.6
v 0.6 0.4 0.4
v 0.6 0.4 0.1
v 0.6 0.4 0
v 0.6 0.4 -0.1
v 0.6 0.4 -0.2
v 0.6 0.4 -0.5
v 0.6 0.5 0.4
v 0.6 0.5 0.3
v 0.6 0.5 0.2
v 0.6 0.5 0.1
v 0.6 0.5 0
v 0.6 0.5 -0.1
v 0.6 0.5 -0.2
v 0.6 0.5 -0.3
v 0.6 0.5 -0.4
v 0.6 0.5 -0.5
v 0.6 0.7 0.4
v 0.6 0.7 0.3
v 0.6 0.7 0.2
v 0.6 0.7 0.1
v 0.6 0.7 0
v 0.6 0.7 -0.1
v 0.6 0.7 -0.2
v 0.6 0.7 -0.3
v 0.6 0.7 -0.4
v 0.6 0.7 -0.5
v 0.6 0.9 0.5
v 0.6 0.9 -0.6
v 0.8 0 0.7
v 0.8 0 -0.8
v 0.8 0.2 0.7
v 0.8 0.2 -0.8
v -0.7 0 0.7
v -0.7 0.2 0.7
v -0.4 0.4 0.7
v -0.4 0.5 0.7
v -0.3 0.2 0.7
v -0.3 0.4 0.7
v -0.2 0.2 0.7
v -0.2 0.4 0.7
v 0.3 0.2 0.7
v 0.3 0.4 0.7
v 0.4 0.2 0.7
v 0.4 0.4 0.7
v 0.5 0.4 0.7
v 0.5 0.5 0.7
v 0.8 0 0.7
v 0.8 0.2 0.7
v -0.4 0.5 0.6
v -0.4 0.6 0.6
v 0.5 0.5 0.6
v 0.5 0.6 0.6
v -0.5 0.2 0.5
v -0.5 0.9 0.5
v -0.4 0.2 0.5
v -0.4 0.4 0.5
v -0.4 0.6 0.5
v -0.3 0.4 0.5
v -0.3 0.5 0.5
v -0.1 0.2 0.5
v -0.1 0.4 0.5
v 0 0.2 0.5
v 0 0.4 0.5
v 0.4 0.2 0.5
v 0.4 0.4 0.5
v 0.4 0.5 0.5
v 0.5 0.4 0.5
v 0.5 0.6 0.5
v 0.6 0.2 0.5
v 0.6 0.9 0.5
v -0.4 0.8 -0.5
v -0.4 0.9 -0.5
v 0.5 0.8 -0.5
v 0.5 0.9 -0.5
v -0.3 0.2 0.6
v -0.3 0.4 0.6
v -0.3 0.5 0.6
v -0.2 0.2 0.6
v -0.2 0.4 0.6
v 0.3 0.2 0.6
v 0.3 0.4 0.6
v 0.4 0.2 0.6
v 0.4 0.4 0.6
v 0.4 0.5 0.6
v -0.4 0.8 0.4
v -0.4 0.9 0.4
v 0.5 0.8 0.4
v 0.5 0.9 0.4
v -0.5 0.2 -0.6
v -0.5 0.9 -0.6
v -0.4 0.2 -0.6
v -0.4 0.4 -0.6
v -0.4 0.5 -0.6
v -0.4 0.7 -0.6
v -0.3 0.5 -0.6
v -0.3 0.7 -0.6
v -0.2 0.5 -0.6
v -0.2 0.7 -0.6
v -0.1 0.5 -0.6
v -0.1 0.7 -0.6
v 0 0.2 -0.6
v 0 0.4 -0.6
v 0 0.5 -0.6
v 0 0.7 -0.6
v 0.1 0.2 -0.6
v 0.1 0.4 -0.6
v 0.1 0.5 -0.6
v 0.1 0.7 -0.6
v 0.2 0.5 -0.6
v 0.2 0.7 -0.6
v 0.3 0.5 -0.6
v 0.3 0.7 -0.6
v 0.4 0.5 -0.6
v 0.4 0.7 -0.6
v 0.5 0.2 -0.6
v 0.5 0.4 -0.6
v 0.5 0.5 -0.6
v 0.5 0.7 -0.6
v 0.6 0.2 -0.6
v 0.6 0.9 -0.6
v -0.7 0 -0.8
v -0.7 0.2 -0.8
v 0.8 0 -0.8
v 0.8 0.2 -0.8
v -0.7 0 0.7
v 0.8 0 0.7
v -0.7 0 -0.8
v 0.8 0 -0.8
v -0.4 0.4 0.7
v -0.3 0.4 0.7
v -0.2 0.4 0.7
v 0.3 0.4 0.7
v 0.4 0.4 0.7
v 0.5 0.4 0.7
v -0.3 0.4 0.6
v -0.2 0.4 0.6
v 0.3 0.4 0.6
v 0.4 0.4 0.6
v -0.4 0.4 0.5
v -0.3 0.4 0.5
v 0.4 0.4 0.5
v 0.5 0.4 0.5
v -0.3 0.5 0.6
v 0.4 0.5 0.6
v -0.3 0.5 0.5
v 0.4 0.5 0.5
v -0.7 0.2 0.7
v -0.3 0.2 0.7
v -0.2 0.2 0.7
v 0.3 0.2 0.7
v 0.4 0.2 0.7
v 0.8 0.2 0.7
v -0.3 0.2 0.6
v -0.2 0.2 0.6
v 0.3 0.2 0.6
v 0.4 0.2 0.6
v -0.5 0.2 0.5
v -0.4 0.2 0.5
v -0.1 0.2 0.5
v 0 0.2 0.5
v 0.4 0.2 0.5
v 0.6 0.2 0.5
v -0.5 0.2 0.4
v 0.6 0.2 0.4
v -0.5 0.2 0.1
v 0.6 0.2 0.1
v -0.5 0.2 0
v 0.6 0.2 0
v 0.6 0.2 -0.1
v 0.6 0.2 -0.2
v -0.5 0.2 -0.5
v 0.6 0.2 -0.5
v -0.5 0.2 -0.6
v -0.4 0.2 -0.6
v 0 0.2 -0.6
v 0.1 0.2 -0.6
v 0.5 0.2 -0.6
v 0.6 0.2 -0.6
v -0.7 0.2 -0.8
v 0.8 0.2 -0.8
v -0.4 0.5 0.7
v 0.5 0.5 0.7
v -0.4 0.5 0.6
v 0.5 0.5 0.6
v -0.4 0.6 0.6
v 0.5 0.6 0.6
v -0.4 0.6 0.5
v 0.5 0.6 0.5
v -0.4 0.8 0.4
v 0.5 0.8 0.4
v -0.4 0.8 -0.5
v 0.5 0.8 -0.5
v -0.5 0.9 0.5
v 0.6 0.9 0.5
v -0.4 0.9 0.4
v 0.5 0.9 0.4
v -0.4 0.9 -0.5
v 0.5 0.9 -0.5
v -0.5 0.9 -0.6
v 0.6 0.9 -0.6

# faces
f 3/5/1 2/5/1 1/5/1
f 4/5/1 2/5/1 3/5/1
f 11/1/1 6/1/1 5/1/1
f 11/2/1 7/2/1 6/2/1
f 12/1/1 8/1/1 7/1/1
f 12/2/1 7/2/1 11/2/1
f 13/2/1 9/2/1 8/2/1
f 13/1/1 8/1/1 12/1/1
f 14/1/1 10/1/1 9/1/1
f 14/2/1 9/2/1 13/2/1
f 15/1/1 13/1/1 12/1/1
f 15/1/1 12/1/1 11/1/1
f 15/1/1 14/1/1 13/1/1
f 15/1/1 11/1/1 5/1/1
f 16/1/1 14/1/1 15/1/1
f 17/1/1 14/1/1 16/1/1
f 18/1/1 14/1/1 17/1/1
f 19/1/1 14/1/1 18/1/1
f 20/1/1 14/1/1 19/1/1
f 21/1/1 14/1/1 20/1/1
f 22/1/1 14/1/1 21/1/1
f 23/1/1 14/1/1 22/1/1
f 24/1/1 10/1/1 14/1/1
f 24/1/1 14/1/1 23/1/1
f 25/1/1 15/1/1 5/1/1
f 25/2/1 16/2/1 15/2/1
f 26/1/1 17/1/1 16/1/1
f 26/2/1 16/2/1 25/2/1
f 27/2/1 18/2/1 17/2/1
f 27/1/1 17/1/1 26/1/1
f 28/1/1 19/1/1 18/1/1
f 28/2/1 18/2/1 27/2/1
f 29/2/1 20/2/1 19/2/1
f 29/1/1 19/1/1 28/1/1
f 30/1/1 21/1/1 20/1/1
f 30/2/1 20/2/1 29/2/1
f 31/2/1 22/2/1 21/2/1
f 31/1/1 21/1/1 30/1/1
f 32/1/1 23/1/1 22/1/1
f 32/2/1 22/2/1 31/2/1
f 33/2/1 24/2/1 23/2/1
f 33/1/1 23/1/1 32/1/1
f 34/1/1 10/1/1 24/1/1
f 34/2/1 24/2/1 33/2/1
f 35/1/1 31/1/1 30/1/1
f 35/1/1 33/1/1 32/1/1
f 35/1/1 34/1/1 33/1/1
f 35/1/1 30/1/1 29/1/1
f 35/1/1 29/1/1 28/1/1
f 35/1/1 28/1/1 27/1/1
f 35/1/1 27/1/1 26/1/1
f 35/1/1 26/1/1 25/1/1
f 35/1/1 25/1/1 5/1/1
f 35/1/1 32/1/1 31/1/1
f 36/1/1 10/1/1 34/1/1
f 36/1/1 34/1/1 35/1/1
f 39/4/1 38/4/1 37/4/1
f 40/4/1 38/4/1 39/4/1
f 41/4/1 38/4/1 40/4/1
f 42/4/1 38/4/1 41/4/1
f 45/3/1 44/3/1 43/3/1
f 46/3/1 44/3/1 45/3/1
f 49/3/1 48/3/1 47/3/1
f 50/3/1 48/3/1 49/3/1
f 53/4/1 52/4/1 51/4/1
f 54/4/1 52/4/1 53/4/1
f 57/1/1 56/1/1 55/1/1
f 58/1/1 56/1/1 57/1/1
f 59/1/2 60/1/2 61/1/2
f 61/1/2 60/1/2 62/1/2
f 63/4/2 64/4/2 65/4/2
f 65/4/2 64/4/2 66/4/2
f 67/3/2 68/3/2 69/3/2
f 69/3/2 68/3/2 70/3/2
f 71/3/2 72/3/2 73/3/2
f 73/3/2 72/3/2 74/3/2
f 75/4/2 76/4/2 77/4/2
f 77/4/2 76/4/2 78/4/2
f 78/4/2 76/4/2 79/4/2
f 79/4/2 76/4/2 80/4/2
f 81/1/2 82/1/2 89/1/2
f 82/2/2 83/2/2 89/2/2
f 83/1/2 84/1/2 90/1/2
f 89/2/2 83/2/2 90/2/2
f 84/2/2 85/2/2 91/2/2
f 90/1/2 84/1/2 91/1/2
f 85/1/2 86/1/2 92/1/2
f 91/2/2 85/2/2 92/2/2
f 86/2/2 87/2/2 93/2/2
f 92/1/2 86/1/2 93/1/2
f 87/1/2 88/1/2 94/1/2
f 93/2/2 87/2/2 94/2/2
f 92/1/2 93/1/2 95/1/2
f 91/1/2 92/1/2 95/1/2
f 93/1/2 94/1/2 95/1/2
f 90/1/2 91/1/2 95/1/2
f 89/1/2 90/1/2 95/1/2
f 81/1/2 89/1/2 95/1/2
f 95/1/2 94/1/2 96/1/2
f 96/1/2 94/1/2 97/1/2
f 97/1/2 94/1/2 98/1/2
f 98/1/2 94/1/2 99/1/2
f 99/1/2 94/1/2 100/1/2
f 100/1/2 94/1/2 101/1/2
f 101/1/2 94/1/2 102/1/2
f 102/1/2 94/1/2 103/1/2
f 94/1/2 88/1/2 104/1/2
f 103/1/2 94/1/2 104/1/2
f 81/1/2 95/1/2 105/1/2
f 95/2/2 96/2/2 105/2/2
f 96/1/2 97/1/2 106/1/2
f 105/2/2 96/2/2 106/2/2
f 97/2/2 98/2/2 107/2/2
f 106/1/2 97/1/2 107/1/2
f 98/1/2 99/1/2 108/1/2
f 107/2/2 98/2/2 108/2/2
f 99/2/2 100/2/2 109/2/2
f 108/1/2 99/1/2 109/1/2
f 100/1/2 101/1/2 110/1/2
f 109/2/2 100/2/2 110/2/2
f 101/2/2 102/2/2 111/2/2
f 110/1/2 101/1/2 111/1/2
f 102/1/2 103/1/2 112/1/2
f 111/2/2 102/2/2 112/2/2
f 103/2/2 104/2/2 113/2/2
f 112/1/2 103/1/2 113/1/2
f 104/1/2 88/1/2 114/1/2
f 113/2/2 104/2/2 114/2/2
f 110/1/2 111/1/2 115/1/2
f 112/1/2 113/1/2 115/1/2
f 113/1/2 114/1/2 115/1/2
f 109/1/2 110/1/2 115/1/2
f 108/1/2 109/1/2 115/1/2
f 107/1/2 108/1/2 115/1/2
f 106/1/2 107/1/2 115/1/2
f 105/1/2 106/1/2 115/1/2
f 81/1/2 105/1/2 115/1/2
f 111/1/2 112/1/2 115/1/2
f 114/1/2 88/1/2 116/1/2
f 115/1/2 114/1/2 116/1/2
f 117/5/2 118/5/2 119/5/2
f 119/5/2 118/5/2 120/5/2
f 125/5/3 122/5/3 121/5/3
f 126/4/3 124/4/3 123/4/3
f 127/5/3 125/5/3 121/5/3
f 127/3/3 126/3/3 125/3/3
f 128/4/3 124/4/3 126/4/3
f 128/3/3 126/3/3 127/3/3
f 129/5/3 127/5/3 121/5/3
f 130/4/3 124/4/3 128/4/3
f 131/5/3 129/5/3 121/5/3
f 131/3/3 130/3/3 129/3/3
f 132/4/3 124/4/3 130/4/3
f 132/3/3 130/3/3 131/3/3
f 133/4/3 124/4/3 132/4/3
f 134/4/3 124/4/3 133/4/3
f 135/5/3 131/5/3 121/5/3
f 136/5/3 131/5/3 135/5/3
f 139/4/3 138/4/3 137/4/3
f 140/4/3 138/4/3 139/4/3
f 143/1/3 142/1/3 141/1/3
f 144/1/3 142/1/3 143/1/3
f 145/1/3 142/1/3 144/1/3
f 146/2/3 144/2/3 143/2/3
f 148/2/3 146/2/3 143/2/3
f 149/1/3 147/1/3 146/1/3
f 149/2/3 146/2/3 148/2/3
f 150/1/3 149/1/3 148/1/3
f 151/1/3 147/1/3 149/1/3
f 151/1/3 149/1/3 150/1/3
f 152/2/3 151/2/3 150/2/3
f 153/1/3 147/1/3 151/1/3
f 153/2/3 151/2/3 152/2/3
f 154/1/3 147/1/3 153/1/3
f 155/1/3 153/1/3 152/1/3
f 156/1/3 142/1/3 145/1/3
f 157/1/3 155/1/3 152/1/3
f 157/1/3 156/1/3 155/1/3
f 158/1/3 142/1/3 156/1/3
f 158/1/3 156/1/3 157/1/3
f 161/1/3 160/1/3 159/1/3
f 162/1/3 160/1/3 161/1/3
f 163/3/4 164/3/4 166/3/4
f 164/4/4 165/4/4 167/4/4
f 166/3/4 164/3/4 167/3/4
f 167/4/4 165/4/4 169/4/4
f 168/3/4 169/3/4 170/3/4
f 169/4/4 165/4/4 171/4/4
f 170/3/4 169/3/4 171/3/4
f 171/4/4 165/4/4 172/4/4
f 173/1/4 174/1/4 175/1/4
f 175/1/4 174/1/4 176/1/4
f 177/1/4 178/1/4 179/1/4
f 179/1/4 178/1/4 180/1/4
f 180/1/4 178/1/4 181/1/4
f 181/1/4 178/1/4 182/1/4
f 180/1/4 181/1/4 183/1/4
f 181/2/4 182/2/4 183/2/4
f 182/1/4 178/1/4 184/1/4
f 183/2/4 182/2/4 184/2/4
f 180/1/4 183/1/4 185/1/4
f 183/1/4 184/1/4 185/1/4
f 184/1/4 178/1/4 186/1/4
f 185/1/4 184/1/4 186/1/4
f 180/1/4 185/1/4 187/1/4
f 185/2/4 186/2/4 187/2/4
f 186/1/4 178/1/4 188/1/4
f 187/2/4 186/2/4 188/2/4
f 179/2/4 180/2/4 189/2/4
f 180/1/4 187/1/4 190/1/4
f 189/2/4 180/2/4 190/2/4
f 187/1/4 188/1/4 190/1/4
f 190/1/4 188/1/4 191/1/4
f 188/1/4 178/1/4 192/1/4
f 191/1/4 188/1/4 192/1/4
f 190/1/4 191/1/4 193/1/4
f 189/1/4 190/1/4 193/1/4
f 193/1/4 191/1/4 194/1/4
f 191/2/4 192/2/4 195/2/4
f 194/1/4 191/1/4 195/1/4
f 192/1/4 178/1/4 196/1/4
f 195/2/4 192/2/4 196/2/4
f 194/1/4 195/1/4 197/1/4
f 195/1/4 196/1/4 197/1/4
f 196/1/4 178/1/4 198/1/4
f 197/1/4 196/1/4 198/1/4
f 194/1/4 197/1/4 199/1/4
f 197/2/4 198/2/4 199/2/4
f 198/1/4 178/1/4 200/1/4
f 199/2/4 198/2/4 200/2/4
f 194/1/4 199/1/4 201/1/4
f 199/1/4 200/1/4 201/1/4
f 200/1/4 178/1/4 202/1/4
f 201/1/4 200/1/4 202/1/4
f 193/2/4 194/2/4 203/2/4
f 194/1/4 201/1/4 204/1/4
f 203/2/4 194/2/4 204/2/4
f 201/2/4 202/2/4 205/2/4
f 204/1/4 201/1/4 205/1/4
f 202/1/4 178/1/4 206/1/4
f 205/2/4 202/2/4 206/2/4
f 204/1/4 205/1/4 207/1/4
f 203/1/4 204/1/4 207/1/4
f 205/1/4 206/1/4 207/1/4
f 206/1/4 178/1/4 208/1/4
f 207/1/4 206/1/4 208/1/4
f 209/5/4 210/5/4 211/5/4
f 211/5/4 210/5/4 212/5/4
f 215/5/5 214/5/5 213/5/5
f 216/5/5 214/5/5 215/5/5
f 223/4/5 218/4/5 217/4/5
f 224/4/5 220/4/5 219/4/5
f 225/4/5 220/4/5 224/4/5
f 226/4/5 222/4/5 221/4/5
f 227/4/5 223/4/5 217/4/5
f 228/4/5 223/4/5 227/4/5
f 229/4/5 222/4/5 226/4/5
f 230/4/5 222/4/5 229/4/5
f 233/4/5 232/4/5 231/4/5
f 234/4/5 232/4/5 233/4/5
f 235/5/6 236/5/6 241/5/6
f 237/5/6 238/5/6 242/5/6
f 242/5/6 238/5/6 243/5/6
f 239/5/6 240/5/6 244/5/6
f 242/5/6 243/5/6 245/5/6
f 243/5/6 244/5/6 245/5/6
f 235/5/6 241/5/6 245/5/6
f 241/5/6 242/5/6 245/5/6
f 245/5/6 244/5/6 246/5/6
f 246/5/6 244/5/6 247/5/6
f 247/5/6 244/5/6 248/5/6
f 244/5/6 240/5/6 249/5/6
f 248/5/6 244/5/6 249/5/6
f 249/5/6 240/5/6 250/5/6
f 235/5/6 245/5/6 251/5/6
f 250/5/6 240/5/6 252/5/6
f 235/5/6 251/5/6 253/5/6
f 252/5/6 240/5/6 254/5/6
f 235/5/6 253/5/6 255/5/6
f 254/5/6 240/5/6 256/5/6
f 256/5/6 240/5/6 257/5/6
f 257/5/6 240/5/6 258/5/6
f 235/5/6 255/5/6 259/5/6
f 258/5/6 240/5/6 260/5/6
f 235/5/6 259/5/6 261/5/6
f 260/5/6 240/5/6 266/5/6
f 264/5/6 265/5/6 267/5/6
f 265/5/6 266/5/6 267/5/6
f 235/5/6 261/5/6 267/5/6
f 261/5/6 262/5/6 267/5/6
f 263/5/6 264/5/6 267/5/6
f 262/5/6 263/5/6 267/5/6
f 266/5/6 240/5/6 268/5/6
f 267/5/6 266/5/6 268/5/6
f 269/4/6 270/4/6 271/4/6
f 271/4/6 270/4/6 272/4/6
f 273/4/6 274/4/6 275/4/6
f 275/4/6 274/4/6 276/4/6
f 277/3/6 278/3/6 279/3/6
f 279/3/6 278/3/6 280/3/6
f 281/1/6 282/1/6 283/1/6
f 283/1/6 282/1/6 284/1/6
f 281/1/6 283/1/6 285/1/6
f 284/1/6 282/1/6 286/1/6
f 281/1/6 285/1/6 287/1/6
f 285/1/6 286/1/6 287/1/6
f 286/1/6 282/1/6 288/1/6
f 287/1/6 286/1/6 288/1/6
