# MagicaVoxel @ Ephtracy

# group
o 

# material
mtllib CityVoxelPack-12.mtl
usemtl palette

# normals
vn -1 0 0
vn 1 0 0
vn 0 0 1
vn 0 0 -1
vn 0 -1 0
vn 0 1 0

# texcoords
vt 0.876953 0.5
vt 0.908203 0.5
vt 0.939453 0.5

# verts
v -0.7 0 0.7
v -0.7 0 -0.8
v -0.7 0.2 0.7
v -0.7 0.2 -0.8
v -0.4 0.1 0.4
v -0.4 0.1 -0.5
v -0.4 0.2 0.4
v -0.4 0.2 -0.5
v 0.8 0 0.7
v 0.8 0 0.4
v 0.8 0 -0.5
v 0.8 0 -0.8
v 0.8 0.1 0.4
v 0.8 0.1 -0.5
v 0.8 0.2 0.7
v 0.8 0.2 0.4
v 0.8 0.2 -0.5
v 0.8 0.2 -0.8
v -0.7 0 0.7
v -0.7 0.2 0.7
v 0.8 0 0.7
v 0.8 0.2 0.7
v -0.4 0.1 -0.5
v -0.4 0.2 -0.5
v 0.8 0.1 -0.5
v 0.8 0.2 -0.5
v -0.4 0.1 0.4
v -0.4 0.2 0.4
v 0.8 0.1 0.4
v 0.8 0.2 0.4
v -0.7 0 -0.8
v -0.7 0.2 -0.8
v 0.8 0 -0.8
v 0.8 0.2 -0.8
v -0.7 0 0.7
v 0.8 0 0.7
v -0.4 0 0.4
v 0.8 0 0.4
v -0.1 0 0
v 0.2 0 0
v 0.4 0 0
v 0.7 0 0
v -0.1 0 -0.1
v 0.2 0 -0.1
v 0.4 0 -0.1
v 0.7 0 -0.1
v -0.4 0 -0.5
v 0.8 0 -0.5
v -0.7 0 -0.8
v 0.8 0 -0.8
v -0.4 0.1 0.4
v 0.8 0.1 0.4
v -0.1 0.1 0
v 0.2 0.1 0
v 0.4 0.1 0
v 0.7 0.1 0
v -0.1 0.1 -0.1
v 0.2 0.1 -0.1
v 0.4 0.1 -0.1
v 0.7 0.1 -0.1
v -0.4 0.1 -0.5
v 0.8 0.1 -0.5
v -0.7 0.2 0.7
v 0.8 0.2 0.7
v -0.4 0.2 0.4
v 0.8 0.2 0.4
v -0.4 0.2 -0.5
v 0.8 0.2 -0.5
v -0.7 0.2 -0.8
v 0.8 0.2 -0.8

# faces
f 3/3/1 2/3/1 1/3/1
f 4/3/1 2/3/1 3/3/1
f 5/3/2 6/3/2 7/3/2
f 7/3/2 6/3/2 8/3/2
f 9/3/2 10/3/2 13/3/2
f 10/2/2 11/2/2 13/2/2
f 11/3/2 12/3/2 14/3/2
f 13/2/2 11/2/2 14/2/2
f 9/3/2 13/3/2 15/3/2
f 15/3/2 13/3/2 16/3/2
f 14/3/2 12/3/2 17/3/2
f 17/3/2 12/3/2 18/3/2
f 21/3/3 20/3/3 19/3/3
f 22/3/3 20/3/3 21/3/3
f 25/3/3 24/3/3 23/3/3
f 26/3/3 24/3/3 25/3/3
f 27/3/4 28/3/4 29/3/4
f 29/3/4 28/3/4 30/3/4
f 31/3/4 32/3/4 33/3/4
f 33/3/4 32/3/4 34/3/4
f 37/3/5 36/3/5 35/3/5
f 38/3/5 36/3/5 37/3/5
f 39/2/5 38/2/5 37/2/5
f 40/2/5 38/2/5 39/2/5
f 41/2/5 38/2/5 40/2/5
f 42/2/5 38/2/5 41/2/5
f 43/2/5 39/2/5 37/2/5
f 43/1/5 40/1/5 39/1/5
f 44/2/5 41/2/5 40/2/5
f 44/1/5 40/1/5 43/1/5
f 45/1/5 42/1/5 41/1/5
f 45/2/5 41/2/5 44/2/5
f 46/2/5 38/2/5 42/2/5
f 46/1/5 42/1/5 45/1/5
f 47/3/5 37/3/5 35/3/5
f 47/2/5 45/2/5 44/2/5
f 47/2/5 46/2/5 45/2/5
f 47/2/5 43/2/5 37/2/5
f 47/2/5 44/2/5 43/2/5
f 48/2/5 38/2/5 46/2/5
f 48/2/5 46/2/5 47/2/5
f 49/3/5 47/3/5 35/3/5
f 49/3/5 48/3/5 47/3/5
f 50/3/5 48/3/5 49/3/5
f 51/2/6 52/2/6 53/2/6
f 53/2/6 52/2/6 54/2/6
f 54/2/6 52/2/6 55/2/6
f 55/2/6 52/2/6 56/2/6
f 51/2/6 53/2/6 57/2/6
f 53/1/6 54/1/6 57/1/6
f 54/2/6 55/2/6 58/2/6
f 57/1/6 54/1/6 58/1/6
f 55/1/6 56/1/6 59/1/6
f 58/2/6 55/2/6 59/2/6
f 56/2/6 52/2/6 60/2/6
f 59/1/6 56/1/6 60/1/6
f 58/2/6 59/2/6 61/2/6
f 57/2/6 58/2/6 61/2/6
f 59/2/6 60/2/6 61/2/6
f 51/2/6 57/2/6 61/2/6
f 60/2/6 52/2/6 62/2/6
f 61/2/6 60/2/6 62/2/6
f 63/3/6 64/3/6 65/3/6
f 65/3/6 64/3/6 66/3/6
f 63/3/6 65/3/6 67/3/6
f 63/3/6 67/3/6 69/3/6
f 67/3/6 68/3/6 69/3/6
f 69/3/6 68/3/6 70/3/6
